<svg xmlns="http://www.w3.org/2000/svg" viewBox="0 0 13.27 16"><path d="M6.63 16a3.62 3.62 0 01-3-1.6h-3a.65.65 0 01-.57-.32.63.63 0 010-.65l1-2a3.55 3.55 0 00.38-1.6V6.8A5.21 5.21 0 014.63 2v-.22A1.78 1.78 0 016.41 0h.44a1.78 1.78 0 011.78 1.78V2a5.21 5.21 0 013.2 4.8v2.26a6.89 6.89 0 00.74 3.12l.62 1.25a.63.63 0 010 .65.65.65 0 01-.57.32H9.63a3.62 3.62 0 01-3 1.6zM.88 13.6H4.1l.12.2a2.77 2.77 0 004.82 0l.12-.2h3.22l-.53-1.06a7.81 7.81 0 01-.82-3.48V6.8A4.4 4.4 0 008.1 2.66l-.27-.1v-.78a1 1 0 00-1-1h-.42a1 1 0 00-1 1v.78l-.27.1A4.4 4.4 0 002.23 6.8v3.06a4.44 4.44 0 01-.46 2z"/></svg>