<svg xmlns="http://www.w3.org/2000/svg" viewBox="0 0 16 16"><path d="M15.64 6.91h-.09a2 2 0 01-1.44-3.48l.06-.06a.36.36 0 000-.51l-1-1a.36.36 0 00-.25-.11.36.36 0 00-.26.11l-.06.06a2 2 0 01-1.42.6 2 2 0 01-2.06-2V.36A.36.36 0 008.73 0H7.27a.36.36 0 00-.36.36v.09a2 2 0 01-2.06 2 2 2 0 01-1.42-.6l-.06-.06a.36.36 0 00-.26-.11.36.36 0 00-.25.11l-1 1a.36.36 0 000 .51l.06.06a2 2 0 01.44 2.22A2 2 0 01.45 6.91H.36a.36.36 0 00-.36.36v1.46a.36.36 0 00.36.36h.09a2 2 0 011.88 1.26 2 2 0 01-.44 2.22l-.06.06a.36.36 0 000 .51l1 1a.36.36 0 00.25.11.36.36 0 00.26-.11l.06-.06a2 2 0 011.42-.6 2 2 0 012.06 2v.09a.36.36 0 00.36.36h1.49a.36.36 0 00.36-.36v-.09a2 2 0 012.06-2 2 2 0 011.42.6l.06.06a.36.36 0 00.26.11.36.36 0 00.25-.11l1-1a.36.36 0 000-.51l-.06-.06a2 2 0 011.44-3.48h.09a.36.36 0 00.39-.36V7.27a.36.36 0 00-.36-.36zm0 1.82h-.09a2.4 2.4 0 00-1.69 4.1l.05.06-1 1-.06-.05a2.35 2.35 0 00-1.68-.71 2.4 2.4 0 00-2.42 2.4v.09H7.27v-.09a2.4 2.4 0 00-2.42-2.4 2.35 2.35 0 00-1.68.71l-.06.05-1-1 .05-.06a2.4 2.4 0 00-1.71-4.1H.36V7.27h.09a2.4 2.4 0 001.69-4.1l-.05-.06 1-1 .06.05a2.35 2.35 0 001.68.71A2.4 2.4 0 007.27.45V.36h1.46v.09a2.4 2.4 0 002.42 2.4 2.35 2.35 0 001.68-.71l.06-.05 1 1-.05.06a2.4 2.4 0 001.69 4.1h.09z"/><path d="M8 4.73A3.27 3.27 0 1011.27 8 3.26 3.26 0 008 4.73zm0 6.18A2.91 2.91 0 1110.91 8 2.91 2.91 0 018 10.91z"/></svg>