<svg xmlns="http://www.w3.org/2000/svg" viewBox="0 0 16 11.83"><path d="M15.69 2.47L13.53.31a1.06 1.06 0 00-.75-.31H0v11.82h16v-8.6a1.06 1.06 0 00-.31-.75zm-.39 8.66H.7V.69h12.52v2.09h2.08z"/><path d="M7.3 3.64L5.4 8.99h.7l.48-1.43h2.09l.49 1.43h.69L8 3.64zm-.5 3.27l.83-2.4.82 2.4zm5.69-1.83a1.7 1.7 0 00-.51.07 1.35 1.35 0 00-.43.22 1.52 1.52 0 00-.34.33 1.46 1.46 0 00-.2.46l.56.16a1.15 1.15 0 01.33-.48 1 1 0 01.59-.18 1.24 1.24 0 01.33 0 .8.8 0 01.28.13.62.62 0 01.2.25.84.84 0 01.07.37v.17h-.78a3.24 3.24 0 00-.72.08 1.72 1.72 0 00-.55.23 1 1 0 00-.35.4 1.18 1.18 0 00-.12.55 1.21 1.21 0 00.1.52.86.86 0 00.26.36 1 1 0 00.37.22 1.39 1.39 0 00.46.07 2 2 0 00.81-.16 1.31 1.31 0 00.55-.44l.1.54h.5V6.56a1.94 1.94 0 00-.09-.65 1.19 1.19 0 00-.32-.46 1.28 1.28 0 00-.49-.26 2 2 0 00-.61-.11zm.88 2.21a1.19 1.19 0 01-.12.56 1 1 0 01-.31.36 1.2 1.2 0 01-.39.2 1.62 1.62 0 01-.41.06.63.63 0 01-.46-.16.52.52 0 01-.17-.43.6.6 0 01.26-.52 1.35 1.35 0 01.76-.19h.84zM1.74 3.83h4.17v.7H1.74zm0 2.08h2.78v.7H1.74zm0 2.09h2.09v.7H1.74z"/></svg>