<svg xmlns="http://www.w3.org/2000/svg" viewBox="0 0 16 16"><path d="M16 8.42v-.84h-.86a7.44 7.44 0 00-.47-2.17l.78-.36-.35-.76-.78.35a7.11 7.11 0 00-1-1.39l.68-.61-.59-.59-.61.61a7 7 0 00-1.57-1.07l.28-.79-.77-.33-.34.79a7.18 7.18 0 00-2-.4V0h-.82v.86a7.44 7.44 0 00-2.17.47L5.05.55 4.29.9l.35.78a7.11 7.11 0 00-1.39 1l-.61-.61-.59.59.61.61a7 7 0 00-1.07 1.55L.8 4.49l-.33.77.79.34a7.18 7.18 0 00-.4 2H0v.84h.86a7.44 7.44 0 00.47 2.17L.55 11l.35.76.78-.35a7.11 7.11 0 001 1.39l-.61.61.59.59.61-.61a7 7 0 001.57 1.07l-.33.79.77.33.34-.79a7.18 7.18 0 002 .4V16h.84v-.86a7.44 7.44 0 002.17-.47l.36.78.76-.35-.35-.78a7.11 7.11 0 001.39-1l.61.61.59-.59-.61-.61a7 7 0 001.07-1.57l.79.33.33-.77-.79-.34a7.18 7.18 0 00.4-2zm-8 5.9A6.32 6.32 0 1114.32 8 6.32 6.32 0 018 14.32z"/><path d="M8 3.37A4.63 4.63 0 1012.63 8 4.63 4.63 0 008 3.37zM8 11a2.95 2.95 0 113-3 2.95 2.95 0 01-3 3z"/><path d="M8 6.74A1.26 1.26 0 109.26 8 1.25 1.25 0 008 6.74z"/></svg>