<svg xmlns="http://www.w3.org/2000/svg" viewBox="0 0 16 14.84"><path d="M0 9.14h.74l1.48-2.5H7l.52 2.5h.68L6.31 0h-.82zM5.77.66l.14.68 1 4.72H2.58l2.8-4.7zm7.86 1.84c1.12 0 1.68.49 1.68 1.48a3.21 3.21 0 01-.09.71l-.05.28a12.36 12.36 0 00-3.81.45 2.11 2.11 0 00-1.71 2.07 1.63 1.63 0 00.56 1.32 2.34 2.34 0 001.54.47 3.26 3.26 0 001.59-.42 3.91 3.91 0 001.3-1.17 6.84 6.84 0 00-.11 1 1.41 1.41 0 00.08.5h.72a1.65 1.65 0 01-.1-.58 6.1 6.1 0 01.14-1l.54-2.82a4.62 4.62 0 00.09-.88 1.88 1.88 0 00-.57-1.49 2.45 2.45 0 00-1.73-.5 3.32 3.32 0 00-2.08.64 3.47 3.47 0 00-1.2 1.8h.67a2.51 2.51 0 012.54-1.86zm.2 5.45a3 3 0 01-2 .75 1.76 1.76 0 01-1.08-.28 1.16 1.16 0 01-.4-1 1.41 1.41 0 01.39-1 3.06 3.06 0 011.46-.66 12.81 12.81 0 012.87-.26l-.14.7a3 3 0 01-1.1 1.75zM0 11.85h16v.75H0zm0 2.25h16v.75H0z"/></svg>