<svg xmlns="http://www.w3.org/2000/svg" viewBox="0 0 16 16"><path d="M13.77 0H0v16h16V0zm.82 5.27l-2.11 2.35h-.9l2.7-3c.11.24.22.44.31.65zM13.83 4l-3.31 3.63h-1l3.79-4.22c.19.18.36.38.52.59zM8.4 1.16a7.14 7.14 0 011.23.17L8.4 2.72zm0 2.74l2.07-2.33a7.46 7.46 0 01.88.37l-3 3.12zm0 2.29l3.65-3.85a6.12 6.12 0 01.7.53L8.85 7.2a1.2 1.2 0 00-.45-.27zM2.72 3.36l3.83 4.26h-1L2.21 4a7.19 7.19 0 01.51-.64zm2.52 11.88l-.05-.13a.43.43 0 00.12.05zm-3.83-4.51l2.11-2.35h1l-2.76 3a6.23 6.23 0 01-.35-.65zM2.18 12l3.38-3.64h.9l-3.79 4.21c-.17-.16-.33-.35-.49-.57zm-.43-7.41l2.75 3h-.9L1.43 5.21c.1-.21.21-.41.32-.6zM1.37 6.3l1.18 1.3H1.37zm0 2.06h1.09L1.37 9.59zm6.23 6.46a7.47 7.47 0 01-.95-.12l.95-1.2zm0-2.58L5.81 14.5a8.15 8.15 0 01-.91-.34l2.7-3zm0-2.3L4.19 13.8a7.06 7.06 0 01-.95-.67l3.9-4.34a1.21 1.21 0 00.46.28zm0-3a1.14 1.14 0 00-.41.24l-3.9-4.34a7.91 7.91 0 01.81-.58L7.6 6.2zm0-1.92L4.81 1.87a7 7 0 01.9-.36L7.6 3.89zm0-2.38l-1-1.33a7.17 7.17 0 011-.14zm.8 12.21v-1.42l1.12 1.26a8.37 8.37 0 01-1.12.15zm2-.37l-2-2.22v-1.17l2.85 3a6.82 6.82 0 01-.88.38zm1.6-.77L8.4 10v-.89a1.16 1.16 0 00.49-.32l3.91 4.34a5.69 5.69 0 01-.8.58zm1.41-1.16L9.65 8.38h.91L13.85 12a6.57 6.57 0 01-.48.55zm.93-1.24l-2.71-2.93h1l2.06 2.29c-.17.22-.27.43-.39.64zm.4-1.72l-1.09-1.21h1.05zm0-2h-1.21l1.17-1.3z"/></svg>