<svg xmlns="http://www.w3.org/2000/svg" viewBox="0 0 7.29 7.93"><path d="M.65 1.31a.63.63 0 01-.33-.09.69.69 0 01-.24-.24.72.72 0 010-.66.66.66 0 01.24-.23A.63.63 0 01.65 0a.57.57 0 01.32.09.66.66 0 01.24.23.62.62 0 01.09.32.64.64 0 01-.09.34.69.69 0 01-.24.24.57.57 0 01-.32.09zM.12 7.93V2.42h1v5.51zm2.18 0V2.42h1v.71a1.94 1.94 0 01.72-.63 2.36 2.36 0 011.13-.25 2.26 2.26 0 011.1.26 1.81 1.81 0 01.73.77 2.58 2.58 0 01.25 1.19v3.46h-1V4.68a1.73 1.73 0 00-.37-1.19 1.36 1.36 0 00-1-.41 1.55 1.55 0 00-.8.19 1.27 1.27 0 00-.51.49 1.43 1.43 0 00-.17.68v3.49z"/></svg>