<svg xmlns="http://www.w3.org/2000/svg" viewBox="0 0 9.45 7.82"><path d="M0 7.82V.16h1v.92a2.1 2.1 0 01.83-.79A2.38 2.38 0 012.99 0a2.48 2.48 0 011.3.35 2.54 2.54 0 01.91 1 2.88 2.88 0 01.33 1.39 2.87 2.87 0 01-.33 1.38 2.55 2.55 0 01-.9 1 2.45 2.45 0 01-1.29.35 2.3 2.3 0 01-2-1.11v3.53zm2.7-3.25a1.75 1.75 0 00.92-.24 1.67 1.67 0 00.64-.69 2.14 2.14 0 000-1.93 1.77 1.77 0 00-.63-.67A1.75 1.75 0 002.7.83a1.78 1.78 0 00-.92.24 1.67 1.67 0 00-.63.66 2.08 2.08 0 000 1.94 1.67 1.67 0 00.63.66 1.78 1.78 0 00.92.24zm4.77.83a2.3 2.3 0 01-1.13-.27 2.09 2.09 0 01-.77-.79l.46-.6a1.92 1.92 0 00.63.69 1.47 1.47 0 00.8.24 1.06 1.06 0 00.51-.11.9.9 0 00.36-.31.88.88 0 00.13-.49.69.69 0 00-.13-.43 1.18 1.18 0 00-.41-.28l-.66-.27a6.99 6.99 0 01-.62-.29 1.5 1.5 0 01-.48-.42 1 1 0 01-.2-.64A1.24 1.24 0 016.19.7a1.49 1.49 0 01.62-.51A2.21 2.21 0 017.7 0a2.05 2.05 0 01.8.17 2.66 2.66 0 01.73.47l-.39.59A1.52 1.52 0 007.7.64a.93.93 0 00-.61.19.63.63 0 00-.23.5.47.47 0 00.17.38 1.39 1.39 0 00.43.28l.54.22a4.42 4.42 0 01.75.33 1.25 1.25 0 01.5.43 1.27 1.27 0 01.18.71 1.56 1.56 0 01-.25.9 1.52 1.52 0 01-.69.58 2.57 2.57 0 01-1.02.24z"/></svg>