<svg xmlns="http://www.w3.org/2000/svg" viewBox="0 0 24 24"><path d="M0 0v24h24V0zm23 23H1V1h22z"/><path d="M9.89 11.28a1.77 1.77 0 00-.59-.42 1.71 1.71 0 00-.71-.15 1.86 1.86 0 00-.84.17 1.62 1.62 0 00-.59.47 1.83 1.83 0 00-.35.66 2.45 2.45 0 00-.12.75 2.79 2.79 0 00.11.76 1.75 1.75 0 00.35.66 1.62 1.62 0 00.59.47 1.78 1.78 0 00.83.18 1.66 1.66 0 00.7-.15 1.87 1.87 0 00.59-.42 2.26 2.26 0 00.4-.63 2 2 0 00.16-.83 2.63 2.63 0 00-.14-.86 2.14 2.14 0 00-.39-.66z"/><path d="M3 3v18h18V3zm8.79 12.88h-1.43v-.79a3.07 3.07 0 01-.84.7 2.45 2.45 0 01-1.3.31 2.86 2.86 0 01-1.06-.21 2.76 2.76 0 01-1-.63 3.23 3.23 0 01-.7-1 3.93 3.93 0 010-2.81 3.16 3.16 0 01.67-1 3 3 0 012.18-.91 2.53 2.53 0 01.7.09 2.44 2.44 0 01.57.24 2.15 2.15 0 01.44.34c.12.12.23.25.33.37v-.93h1.43zm6.92 0h-1.44v-.76a2.28 2.28 0 01-.87.76 2.39 2.39 0 01-1 .21 2.65 2.65 0 01-.81-.14 1.93 1.93 0 01-.75-.45 2.48 2.48 0 01-.54-.85 3.37 3.37 0 01-.22-1.32V9.65h1.46v3.52a1.89 1.89 0 00.34 1.22 1.14 1.14 0 00.93.42 1.3 1.3 0 001.06-.46 2 2 0 00.4-1.37V9.65h1.45z"/></svg>