<svg xmlns="http://www.w3.org/2000/svg" viewBox="0 0 10.39 5.09"><path d="M2.38 5.09a2.27 2.27 0 01-1.21-.33 2.4 2.4 0 01-.86-.9A2.74 2.74 0 010 2.54a2.74 2.74 0 01.3-1.3A2.29 2.29 0 012.38.03 2.31 2.31 0 013.49.3a1.88 1.88 0 01.78.73V.15h.91v4.79h-.91v-.91a2.38 2.38 0 01-.8.78 2.23 2.23 0 01-1.09.28zm.24-.78a1.66 1.66 0 00.87-.23 1.6 1.6 0 00.62-.62 2 2 0 000-1.83 1.6 1.6 0 00-.62-.6A1.57 1.57 0 002.62.8a1.64 1.64 0 00-1.46.85 1.83 1.83 0 00-.22.91 1.87 1.87 0 00.22.92 1.56 1.56 0 00.6.62 1.65 1.65 0 00.86.21zm5.6.78a2.23 2.23 0 01-1.65-.5 2.24 2.24 0 01-.46-1.66V.15h.91v2.6a2 2 0 00.29 1.22 1.13 1.13 0 001 .37 1.14 1.14 0 001-.37 2 2 0 00.29-1.22V.15h.91v2.78a2.29 2.29 0 01-.5 1.66 2.29 2.29 0 01-1.79.5z"/></svg>