<svg xmlns="http://www.w3.org/2000/svg" viewBox="0 0 16 15.27"><rect x="2.18" y="2.18" width="11.64" height="5.82" rx=".71"/><path d="M15.16 0H.84A.85.85 0 000 .84v10.69a.85.85 0 00.84.84h4.37a.09.09 0 00-.09.11 2.9 2.9 0 01-.5 2.45l-.15.2a.1.1 0 00.07.15h6.92a.1.1 0 00.07-.15l-.15-.2a2.9 2.9 0 01-.5-2.45.09.09 0 00-.09-.11h4.37a.85.85 0 00.84-.84V.84a.85.85 0 00-.84-.84zM7.27 10.91a.73.73 0 011.46 0 .73.73 0 01-1.46 0zm8-2.29a.84.84 0 01-.84.84H1.57a.84.84 0 01-.84-.82V1.21a.47.47 0 01.48-.48h13.58a.47.47 0 01.48.48z"/></svg>