<svg xmlns="http://www.w3.org/2000/svg" viewBox="0 0 16 15.44"><path d="M7.527 8.098l.566-.566.566.566-.566.566zm1.138 1.13l.566-.566.566.566-.566.566z"/><path d="M14.87 13.72l-.87-.89a2 2 0 00-.22-2.11L7.72 3.87a6.18 6.18 0 00-1.59-2.82 3.592 3.592 0 00-5.08 5.08 6.37 6.37 0 002.72 1.59l6.87 5.76a2 2 0 002.14.44l1 1 .57-.56 1.13 1.13.56-.57zM3.69 6.87a5.44 5.44 0 01-1.46-.79l3.84-3.85a5.46 5.46 0 01.79 1.49zm1.87-5.25l-3.95 4a3.31 3.31 0 01-.47-.66l3.77-3.82a2.73 2.73 0 01.65.48zm-3.95 0a2.78 2.78 0 012-.82 2.81 2.81 0 01.49 0L.84 4.08a2.81 2.81 0 01.77-2.46zm9.57 11.26L4.45 7.24 7.2 4.49l6 6.7a1.2 1.2 0 01-.15 1.53l-.16.15a1.2 1.2 0 01-1.71.01z"/></svg>