<svg xmlns="http://www.w3.org/2000/svg" viewBox="0 0 24 24"><title>1080P</title><path d="M8.15,4.08H6V5.17H8.11V6.4H6v2H4.75V2.85h3.4Z"/><path d="M12,2.85h1.28v5.6H12V6.23H10.19V8.45H8.91V2.85h1.28V5H12Z"/><path d="M16.43,2.85a2.59,2.59,0,0,1,1.94.81,2.74,2.74,0,0,1,.78,2,2.76,2.76,0,0,1-.78,2,2.58,2.58,0,0,1-1.94.8H14.19V2.85Zm0,4.37a1.43,1.43,0,0,0,1.08-.43,1.58,1.58,0,0,0,.41-1.14,1.61,1.61,0,0,0-.41-1.14,1.47,1.47,0,0,0-1.08-.43h-1V7.22Z"/><path d="M0,0V12H24V0ZM23,11H1V1H23Z"/><path d="M11.25,18.24a.61.61,0,0,0-.38.11.42.42,0,0,0-.13.34.42.42,0,0,0,.13.33.66.66,0,0,0,.76,0,.42.42,0,0,0,.13-.33.42.42,0,0,0-.13-.34A.61.61,0,0,0,11.25,18.24Z"/><path d="M11.25,17.07a.56.56,0,0,0,.35-.1.32.32,0,0,0,.13-.29.34.34,0,0,0-.13-.29.63.63,0,0,0-.35-.1q-.48,0-.48.39T11.25,17.07Z"/><path d="M15.82,16.41c-.49,0-.73.44-.73,1.32s.24,1.32.73,1.32.73-.44.73-1.32S16.3,16.41,15.82,16.41Z"/><path d="M6.68,16.41c-.49,0-.73.44-.73,1.32s.24,1.32.73,1.32.73-.44.73-1.32S7.16,16.41,6.68,16.41Z"/><path d="M20.71,17.56a.89.89,0,0,0-.91.94.93.93,0,0,0,.26.68,1,1,0,0,0,1.31,0,.92.92,0,0,0,.25-.68.88.88,0,0,0-.91-.94Z"/><path d="M0,12V24H24V12Zm3.81,8.41H2.28V16.65l-.93.22L1,15.59l1.51-.54h1.3Zm4.54-.64a2,2,0,0,1-1.67.76A2,2,0,0,1,5,19.77a3.27,3.27,0,0,1-.59-2,3.27,3.27,0,0,1,.59-2,2,2,0,0,1,1.67-.76,2,2,0,0,1,1.67.76,3.27,3.27,0,0,1,.59,2A3.27,3.27,0,0,1,8.35,19.77Zm4.42.31a2.35,2.35,0,0,1-1.52.44,2.35,2.35,0,0,1-1.52-.44,1.43,1.43,0,0,1-.52-1.18,1.41,1.41,0,0,1,.72-1.29,1.28,1.28,0,0,1-.54-1.07,1.41,1.41,0,0,1,.52-1.17,2.07,2.07,0,0,1,1.34-.43,2.07,2.07,0,0,1,1.34.43,1.41,1.41,0,0,1,.52,1.17,1.28,1.28,0,0,1-.54,1.07,1.41,1.41,0,0,1,.72,1.29A1.43,1.43,0,0,1,12.77,20.08Zm4.72-.31a2,2,0,0,1-1.67.76,2,2,0,0,1-1.67-.76,3.27,3.27,0,0,1-.59-2,3.27,3.27,0,0,1,.59-2,2,2,0,0,1,1.67-.76,2,2,0,0,1,1.67.76,3.27,3.27,0,0,1,.59,2A3.27,3.27,0,0,1,17.49,19.77Zm4.75.16a1.71,1.71,0,0,1-1.3.59,1.43,1.43,0,0,1-1.14-.47v1.89H18.65V16.58H19.8v.36a1.43,1.43,0,0,1,1.14-.46,1.7,1.7,0,0,1,1.3.58,2.21,2.21,0,0,1,0,2.87Z"/></svg>