<svg xmlns="http://www.w3.org/2000/svg" viewBox="0 0 16 4.81"><path d="M0 .74h.45v4.07h.74V0H0v.74zM3.47.01a1.15 1.15 0 00-1 .58 3.57 3.57 0 00-.38 1.82 3.57 3.57 0 00.35 1.82 1.16 1.16 0 001 .59 1.17 1.17 0 001-.59 3.57 3.57 0 00.42-1.82A3.57 3.57 0 004.51.59 1.16 1.16 0 003.47.01zm0 4.06c-.16 0-.64 0-.64-1.66S3.31.75 3.47.75s.65 0 .65 1.66-.49 1.66-.65 1.66zM7.14.01a1.37 1.37 0 00-.91 2.4 1.37 1.37 0 102.28 1 1.35 1.35 0 00-.51-1 1.35 1.35 0 00.47-1A1.37 1.37 0 007.14.01zm0 4.06a.63.63 0 11.63-.66.64.64 0 01-.63.66zm0-3.32a.63.63 0 11-.64.66.63.63 0 01.64-.66zM10.8.01a1.16 1.16 0 00-1 .58 3.57 3.57 0 00-.39 1.82 3.57 3.57 0 00.35 1.82 1.2 1.2 0 002.07 0 3.57 3.57 0 00.35-1.82 3.57 3.57 0 00-.35-1.82A1.15 1.15 0 0010.8.01zm0 4.06c-.16 0-.65 0-.65-1.66s.49-1.66.65-1.66.64 0 .64 1.66-.44 1.66-.64 1.66zM14.39.33h-1.31v4.48h.72V3.56h.59a1.62 1.62 0 000-3.23zm0 2.51h-.59v-1.8h.59a.9.9 0 110 1.8z"/></svg>