<svg xmlns="http://www.w3.org/2000/svg" viewBox="0 0 24 24"><title>2K</title><path d="M9.33,5.65A2.82,2.82,0,0,1,8.7,7.48l.55.6-.92.81-.59-.63a3,3,0,0,1-1.32.3A2.87,2.87,0,0,1,3.51,5.65a2.78,2.78,0,0,1,.85-2.07,2.81,2.81,0,0,1,2.06-.84,2.85,2.85,0,0,1,2.07.84A2.81,2.81,0,0,1,9.33,5.65ZM6.43,7.32a2,2,0,0,0,.39,0L6,6.42l.92-.82.9,1a1.89,1.89,0,0,0,.23-.91,1.63,1.63,0,0,0-.47-1.2A1.6,1.6,0,0,0,6.42,4a1.58,1.58,0,0,0-1.16.46,1.63,1.63,0,0,0-.47,1.2,1.63,1.63,0,0,0,.47,1.2A1.59,1.59,0,0,0,6.43,7.32Z"/><path d="M13.13,2.85h1.29v5.6H13.13V6.23H11.38V8.45H10.1V2.85h1.28V5h1.75Z"/><path d="M17.61,2.85a2.57,2.57,0,0,1,1.94.81,2.74,2.74,0,0,1,.78,2,2.76,2.76,0,0,1-.78,2,2.57,2.57,0,0,1-1.94.8H15.38V2.85Zm0,4.37a1.4,1.4,0,0,0,1.08-.43,1.58,1.58,0,0,0,.41-1.14,1.61,1.61,0,0,0-.41-1.14,1.44,1.44,0,0,0-1.08-.43h-1V7.22Z"/><path d="M0,0V12H24V0ZM23,11H1V1H23Z"/><path d="M0,12V24H24V12Zm10.83,9.41H6.21V20.08l2.68-3.52a1.87,1.87,0,0,0,.28-.49,1.16,1.16,0,0,0,.1-.46h0a.62.62,0,0,0-.2-.49.91.91,0,0,0-.58-.17.76.76,0,0,0-.59.24,1.12,1.12,0,0,0-.28.68H6.11a3,3,0,0,1,.35-1.26,2.1,2.1,0,0,1,.82-.8,2.47,2.47,0,0,1,1.2-.28,3,3,0,0,1,1.25.24,1.72,1.72,0,0,1,.78.7,2,2,0,0,1,.28,1.1h0a3.25,3.25,0,0,1-.19,1.06,3.19,3.19,0,0,1-.52.94L8.16,20h2.67Zm5.8,0-1.87-3.25-1.12,1.56v1.69H12.17V13.6h1.47v3.87l2.55-3.87H18l-2.32,3.23,2.65,4.58Z"/></svg>