<svg xmlns="http://www.w3.org/2000/svg" viewBox="0 0 24 24"><path d="M7.83 6.56a2.79 2.79 0 00.61.76 1.24 1.24 0 00.8.28.87.87 0 00.56-.17A.6.6 0 0010 7a.7.7 0 00-.13-.42 1.1 1.1 0 00-.39-.29L8.86 6l-.47-.2a2.36 2.36 0 01-.49-.31A1.53 1.53 0 017.51 5a1.47 1.47 0 01-.15-.69 1.44 1.44 0 01.24-.82 1.71 1.71 0 01.67-.54 2.37 2.37 0 011-.19 2.19 2.19 0 01.92.18 2 2 0 01.65.46 2.24 2.24 0 01.4.56l-.89.51a2 2 0 00-.44-.51 1 1 0 00-.64-.21.74.74 0 00-.51.15.51.51 0 00-.17.37.6.6 0 00.32.51 3.87 3.87 0 00.94.42 2.8 2.8 0 01.69.35 1.85 1.85 0 01.53.55 1.48 1.48 0 01.2.81 1.48 1.48 0 01-.28.92 1.77 1.77 0 01-.73.59 2.38 2.38 0 01-1 .2 2.58 2.58 0 01-1-.19 2.75 2.75 0 01-.77-.52A2.39 2.39 0 017 7.16zM14.05 8.45h-1.91v-5.6h1.91a3.31 3.31 0 011.55.35 2.45 2.45 0 011 1 2.83 2.83 0 01.4 1.45 2.83 2.83 0 01-.37 1.48 2.47 2.47 0 01-1 1 3.31 3.31 0 01-1.58.32zM14 3.9h-.69v3.51H14a2.19 2.19 0 00.9-.18 1.47 1.47 0 00.64-.57 1.82 1.82 0 00.25-1 1.79 1.79 0 00-.25-1 1.41 1.41 0 00-.64-.57 2.19 2.19 0 00-.9-.19z"/><path d="M0 0v12h24V0zm23 11H1V1h22zM18.62 16.79a.88.88 0 00-.43.12 1 1 0 00-.35.34 1.15 1.15 0 000 1.1 1 1 0 00.35.34.88.88 0 00.43.12 1 1 0 100-2zM14.24 15.31a.81.81 0 00-.72.45 2.32 2.32 0 00-.27 1.2 2.34 2.34 0 00.27 1.2.8.8 0 001.44 0 2.34 2.34 0 00.27-1.2 2.32 2.32 0 00-.27-1.2.81.81 0 00-.72-.45z"/><path d="M0 12v12h24V12zm7.12 6.83a1.42 1.42 0 01-.62.5 2.33 2.33 0 01-1 .18 2.06 2.06 0 01-1-.22 1.65 1.65 0 01-.5-.58 1.52 1.52 0 01-.21-.78h1a.67.67 0 00.25.55.9.9 0 00.58.19.81.81 0 00.55-.17.72.72 0 00-.06-1.07 1.32 1.32 0 00-.8-.2v-.69a1.05 1.05 0 00.69-.21.66.66 0 00.24-.5.6.6 0 00-.15-.42.61.61 0 00-.45-.16.71.71 0 00-.5.18.59.59 0 00-.2.45H4a1.45 1.45 0 01.2-.75 1.41 1.41 0 01.57-.51 1.82 1.82 0 01.86-.19 1.93 1.93 0 01.87.18 1.36 1.36 0 01.55.48 1.34 1.34 0 01.19.68 1 1 0 01-.24.65 1.48 1.48 0 01-.62.42 1.68 1.68 0 01.73.45 1.23 1.23 0 01.27.8 1.27 1.27 0 01-.26.74zm4.55.58H7.72L10 17.09a3.09 3.09 0 00.43-.55 1 1 0 00.16-.55.77.77 0 00-.19-.48.72.72 0 00-.56-.21.74.74 0 00-.6.27 1.11 1.11 0 00-.22.72H8a2 2 0 01.21-.95 1.54 1.54 0 01.62-.67 1.87 1.87 0 011-.25 1.86 1.86 0 01.77.14 1.68 1.68 0 01.55.35 1.41 1.41 0 01.33.49 1.42 1.42 0 01-.08 1.26 2.72 2.72 0 01-.5.63l-1.26 1.2h2zM16 18.3a2 2 0 01-.68.88 1.78 1.78 0 01-1 .31 1.72 1.72 0 01-1-.31 2.07 2.07 0 01-.7-.88 3.38 3.38 0 01-.35-1.3 3.46 3.46 0 01.24-1.35 2.07 2.07 0 01.7-.88 1.78 1.78 0 011-.3 1.85 1.85 0 011 .3 2 2 0 01.68.88 3.46 3.46 0 01.32 1.35 3.38 3.38 0 01-.21 1.3zm4.18.42a1.42 1.42 0 01-.57.57 1.51 1.51 0 01-.78.2 1.24 1.24 0 01-.64-.16 1.27 1.27 0 01-.46-.46V21h-.76v-4.81h.76v.54a1.27 1.27 0 01.46-.46 1.24 1.24 0 01.64-.16 1.51 1.51 0 01.78.2 1.42 1.42 0 01.57.57 1.77 1.77 0 01.22.92 1.79 1.79 0 01-.25.92z"/></svg>