<svg xmlns="http://www.w3.org/2000/svg" viewBox="0 0 24 24"><title>320P</title><path d="M9.28,8.56a2.56,2.56,0,0,1-1.43-.37,2,2,0,0,1-.81-1l1.1-.64a1.2,1.2,0,0,0,1.18.78c.51,0,.76-.15.76-.46a.45.45,0,0,0-.24-.39,4.76,4.76,0,0,0-.92-.32,5.51,5.51,0,0,1-.62-.22,2.78,2.78,0,0,1-.51-.31,1.33,1.33,0,0,1-.39-.49,1.83,1.83,0,0,1-.13-.68,1.52,1.52,0,0,1,.56-1.24,2,2,0,0,1,1.32-.47,2.34,2.34,0,0,1,1.22.32A2.24,2.24,0,0,1,11.2,4l-1.08.64a1.21,1.21,0,0,0-.38-.49A1,1,0,0,0,9.15,4a.7.7,0,0,0-.44.12.38.38,0,0,0-.16.3.45.45,0,0,0,.2.36,2.73,2.73,0,0,0,.81.34c.22.07.4.12.52.17a3.32,3.32,0,0,1,.47.21A1.54,1.54,0,0,1,11,5.8a1.37,1.37,0,0,1,.26.43,1.52,1.52,0,0,1,.12.62,1.49,1.49,0,0,1-.58,1.25A2.3,2.3,0,0,1,9.28,8.56Z"/><path d="M14.2,2.85a2.59,2.59,0,0,1,1.94.81,2.74,2.74,0,0,1,.78,2,2.76,2.76,0,0,1-.78,2,2.58,2.58,0,0,1-1.94.8H12V2.85Zm0,4.37a1.43,1.43,0,0,0,1.08-.43,1.58,1.58,0,0,0,.41-1.14,1.61,1.61,0,0,0-.41-1.14,1.47,1.47,0,0,0-1.08-.43h-1V7.22Z"/><path d="M0,0V12H24V0ZM23,11H1V1H23Z"/><path d="M19.83,17.06a1,1,0,0,0-.76.3,1.19,1.19,0,0,0,0,1.6,1.13,1.13,0,0,0,1.53,0,1.1,1.1,0,0,0-.77-1.9Z"/><path d="M14.08,15.71c-.57,0-.85.52-.85,1.55s.28,1.55.85,1.55.86-.52.86-1.55S14.65,15.71,14.08,15.71Z"/><path d="M0,12V24H24V12Zm5.53,8a2.56,2.56,0,0,1-1.67.54,2.74,2.74,0,0,1-1.45-.37,2.17,2.17,0,0,1-.89-1.12l1.58-.91c.13.44.38.66.76.66a.56.56,0,0,0,.39-.13.42.42,0,0,0,.15-.34q0-.45-.54-.45H3.47l-.7-1,.85-1H1.72V14.11H5.86V15.5l-1,1.18a1.88,1.88,0,0,1,1,.63,1.68,1.68,0,0,1,.37,1.12A1.89,1.89,0,0,1,5.53,20Zm5.58.4H6.56V19.1l2.05-2.23.16-.17.14-.15L9,16.43a.38.38,0,0,0,.09-.13,1.17,1.17,0,0,0,.05-.11.5.5,0,0,0,0-.12.33.33,0,0,0-.11-.25.43.43,0,0,0-.31-.11c-.34,0-.59.21-.75.64l-1.59-.86a2.37,2.37,0,0,1,.94-1.14A2.57,2.57,0,0,1,8.73,14a2.47,2.47,0,0,1,1.59.52A1.77,1.77,0,0,1,11,16a1.92,1.92,0,0,1-.25,1A5.89,5.89,0,0,1,10,18l-.64.71h1.8ZM16,19.66a2.31,2.31,0,0,1-2,.89,2.33,2.33,0,0,1-2-.89,3.84,3.84,0,0,1-.69-2.4,3.84,3.84,0,0,1,.69-2.4,2.33,2.33,0,0,1,2-.89,2.31,2.31,0,0,1,2,.89,3.78,3.78,0,0,1,.7,2.4A3.78,3.78,0,0,1,16,19.66Zm5.59.19a2,2,0,0,1-1.53.69A1.71,1.71,0,0,1,18.76,20v2.22H17.41v-6.3h1.35v.42a1.71,1.71,0,0,1,1.34-.55,2,2,0,0,1,1.53.69,2.58,2.58,0,0,1,0,3.38Z"/></svg>