<svg xmlns="http://www.w3.org/2000/svg" viewBox="0 0 16 5.27"><path d="M2.82 0h-.61L0 3.1v.83h2v1.35h.81V3.93h.42v-.81h-.41zM2 1.64v1.48H1zM5.73 0a1.52 1.52 0 00-1.51 1.51 1.49 1.49 0 00.52 1.13 1.49 1.49 0 00-.52 1.13 1.51 1.51 0 102.5-1.13 1.5 1.5 0 00-1-2.64zm0 4.46a.69.69 0 11.69-.69.69.69 0 01-.69.69zm0-3.64a.69.69 0 11-.73.69.69.69 0 01.73-.69zM9.74 0A1.29 1.29 0 008.6.64a3.93 3.93 0 00-.38 2 3.91 3.91 0 00.38 2 1.32 1.32 0 002.28 0 3.93 3.93 0 00.38-2 3.93 3.93 0 00-.38-2A1.29 1.29 0 009.74 0zm0 4.46c-.18 0-.74 0-.74-1.82S9.53.82 9.71.82s.71 0 .71 1.82-.5 1.82-.68 1.82zM14.11 0h-1.52v5.27h.81V3.79h.71a1.9 1.9 0 000-3.79zm0 3h-.71V.82h.71a1.08 1.08 0 010 2.16z"/></svg>