<svg xmlns="http://www.w3.org/2000/svg" viewBox="0 0 24 24"><title>480P</title><path d="M9.28,8.56a2.56,2.56,0,0,1-1.43-.37,2,2,0,0,1-.81-1l1.1-.64a1.2,1.2,0,0,0,1.18.78c.51,0,.76-.15.76-.46a.45.45,0,0,0-.24-.39,4.76,4.76,0,0,0-.92-.32,5.51,5.51,0,0,1-.62-.22,2.78,2.78,0,0,1-.51-.31,1.33,1.33,0,0,1-.39-.49,1.83,1.83,0,0,1-.13-.68,1.52,1.52,0,0,1,.56-1.24,2,2,0,0,1,1.32-.47,2.34,2.34,0,0,1,1.22.32A2.24,2.24,0,0,1,11.2,4l-1.08.64a1.21,1.21,0,0,0-.38-.49A1,1,0,0,0,9.15,4a.7.7,0,0,0-.44.12.38.38,0,0,0-.16.3.45.45,0,0,0,.2.36,2.73,2.73,0,0,0,.81.34c.22.07.4.12.52.17a3.32,3.32,0,0,1,.47.21A1.54,1.54,0,0,1,11,5.8a1.37,1.37,0,0,1,.26.43,1.52,1.52,0,0,1,.12.62,1.49,1.49,0,0,1-.58,1.25A2.3,2.3,0,0,1,9.28,8.56Z"/><path d="M14.2,2.85a2.59,2.59,0,0,1,1.94.81,2.74,2.74,0,0,1,.78,2,2.76,2.76,0,0,1-.78,2,2.58,2.58,0,0,1-1.94.8H12V2.85Zm0,4.37a1.43,1.43,0,0,0,1.08-.43,1.58,1.58,0,0,0,.41-1.14,1.61,1.61,0,0,0-.41-1.14,1.47,1.47,0,0,0-1.08-.43h-1V7.22Z"/><path d="M0,0V12H24V0ZM23,11H1V1H23Z"/><path d="M9.08,16.49a.65.65,0,0,0,.41-.12A.39.39,0,0,0,9.65,16a.38.38,0,0,0-.16-.34.65.65,0,0,0-.41-.12c-.37,0-.56.15-.56.46S8.71,16.49,9.08,16.49Z"/><path d="M14.46,15.71c-.57,0-.86.52-.86,1.55s.29,1.55.86,1.55.85-.52.85-1.55S15,15.71,14.46,15.71Z"/><path d="M9.08,17.85a.64.64,0,0,0-.44.14.5.5,0,0,0-.16.39.51.51,0,0,0,.16.4.64.64,0,0,0,.44.14.67.67,0,0,0,.45-.14.54.54,0,0,0,.16-.4A.53.53,0,0,0,9.53,18,.67.67,0,0,0,9.08,17.85Z"/><path d="M0,12V24H24V12Zm6.41,7.49H5.78v.92H4v-.92H1.37V17.86l1.74-3.75h2L3.39,17.87H4V17H5.78v.88h.63Zm4.46.54a2.77,2.77,0,0,1-1.79.51A2.75,2.75,0,0,1,7.3,20a1.71,1.71,0,0,1-.62-1.39,1.66,1.66,0,0,1,.86-1.52,1.49,1.49,0,0,1-.64-1.26,1.68,1.68,0,0,1,.61-1.38A2.42,2.42,0,0,1,9.08,14a2.43,2.43,0,0,1,1.58.5,1.68,1.68,0,0,1,.61,1.38,1.49,1.49,0,0,1-.64,1.26,1.66,1.66,0,0,1,.86,1.52A1.71,1.71,0,0,1,10.87,20Zm5.55-.37a2.33,2.33,0,0,1-2,.89,2.31,2.31,0,0,1-2-.89,3.78,3.78,0,0,1-.7-2.4,3.78,3.78,0,0,1,.7-2.4,2.31,2.31,0,0,1,2-.89,2.33,2.33,0,0,1,2,.89,3.84,3.84,0,0,1,.69,2.4A3.84,3.84,0,0,1,16.42,19.66Zm5.58.19a2,2,0,0,1-1.52.69A1.7,1.7,0,0,1,19.14,20v2.22H17.79v-6.3h1.35v.42a1.7,1.7,0,0,1,1.34-.55,2,2,0,0,1,1.52.69,2.58,2.58,0,0,1,0,3.38Z"/><path d="M20.21,17.06a1,1,0,0,0-.77.3,1.22,1.22,0,0,0,0,1.6A1.14,1.14,0,0,0,21,19a1.22,1.22,0,0,0,0-1.6A1,1,0,0,0,20.21,17.06Z"/></svg>