<svg xmlns="http://www.w3.org/2000/svg" viewBox="0 0 24 24"><path d="M7.83 6.56a2.79 2.79 0 00.61.76 1.24 1.24 0 00.8.28.87.87 0 00.56-.17A.6.6 0 0010 7a.7.7 0 00-.13-.42 1.1 1.1 0 00-.39-.29L8.86 6l-.47-.2a2.36 2.36 0 01-.49-.31A1.53 1.53 0 017.51 5a1.47 1.47 0 01-.15-.69 1.44 1.44 0 01.24-.82 1.71 1.71 0 01.67-.54 2.37 2.37 0 011-.19 2.19 2.19 0 01.92.18 2 2 0 01.65.46 2.24 2.24 0 01.4.56l-.89.51a2 2 0 00-.44-.51 1 1 0 00-.64-.21.74.74 0 00-.51.15.51.51 0 00-.17.37.6.6 0 00.32.51 3.87 3.87 0 00.94.42 2.8 2.8 0 01.69.35 1.85 1.85 0 01.53.55 1.48 1.48 0 01.2.81 1.48 1.48 0 01-.28.92 1.77 1.77 0 01-.73.59 2.38 2.38 0 01-1 .2 2.58 2.58 0 01-1-.19 2.75 2.75 0 01-.77-.52A2.39 2.39 0 017 7.16zM14.05 8.45h-1.91v-5.6h1.91a3.31 3.31 0 011.55.35 2.45 2.45 0 011 1 2.83 2.83 0 01.4 1.45 2.83 2.83 0 01-.37 1.48 2.47 2.47 0 01-1 1 3.31 3.31 0 01-1.58.32zM14 3.9h-.69v3.51H14a2.19 2.19 0 00.9-.18 1.47 1.47 0 00.64-.57 1.82 1.82 0 00.25-1 1.79 1.79 0 00-.25-1 1.41 1.41 0 00-.64-.57 2.19 2.19 0 00-.9-.19z"/><path d="M0 0v12h24V0zm23 11H1V1h22zM14.37 15.31a.81.81 0 00-.72.45 2.32 2.32 0 00-.27 1.2 2.34 2.34 0 00.27 1.2.81.81 0 001.45 0 2.34 2.34 0 00.27-1.2 2.32 2.32 0 00-.27-1.2.82.82 0 00-.73-.45zM10.38 17.3a.65.65 0 00-.36-.1.71.71 0 00-.37.1.75.75 0 00-.27.26.7.7 0 00-.11.37.71.71 0 00.23.56.81.81 0 001 0 .7.7 0 00.22-.56.69.69 0 00-.1-.37.7.7 0 00-.24-.26zM10 16.41a.56.56 0 00.43-.17.61.61 0 00.18-.45.64.64 0 00-.17-.45.6.6 0 00-.44-.17.58.58 0 00-.62.62.61.61 0 00.18.45.6.6 0 00.44.17zM5.92 17.76v-1.65l-1.16 1.65h1.16z"/><path d="M0 12v12h24V12zm7.64 6.51h-.77v.9h-1v-.9H3.38l2.8-4h.69v3.14h.77zm3.88.32a1.61 1.61 0 01-.64.5 2 2 0 01-.86.18 2.12 2.12 0 01-.87-.18 1.65 1.65 0 01-.63-.5 1.22 1.22 0 01-.24-.75 1.17 1.17 0 01.26-.8 1.7 1.7 0 01.65-.47 1.31 1.31 0 01-.53-.43 1.13 1.13 0 01-.21-.69 1.14 1.14 0 01.21-.69 1.33 1.33 0 01.57-.44 2 2 0 011.58 0 1.36 1.36 0 01.56.44 1.14 1.14 0 01.21.68 1.19 1.19 0 01-.2.69 1.31 1.31 0 01-.53.43 1.67 1.67 0 01.64.47 1.17 1.17 0 01.27.8 1.22 1.22 0 01-.24.76zm4.59-.53a2 2 0 01-.69.88 1.78 1.78 0 01-1.05.31 1.74 1.74 0 01-1-.31 2 2 0 01-.69-.88 3.21 3.21 0 01-.28-1.3 3.29 3.29 0 01.25-1.35 2 2 0 01.69-.88 1.81 1.81 0 011-.3 1.85 1.85 0 011.05.3 2 2 0 01.69.88 3.46 3.46 0 01.27 1.35 3.38 3.38 0 01-.24 1.3zm4.18.42a1.51 1.51 0 01-.58.57 1.45 1.45 0 01-.77.2 1.25 1.25 0 01-.65-.16 1.32 1.32 0 01-.45-.46V21h-.76v-4.81h.76v.54a1.32 1.32 0 01.45-.46 1.25 1.25 0 01.65-.16 1.45 1.45 0 01.77.2 1.51 1.51 0 01.58.57 1.87 1.87 0 01.21.92 1.89 1.89 0 01-.21.92z"/><path d="M18.75 16.79a.84.84 0 00-.42.12.88.88 0 00-.35.34 1.15 1.15 0 000 1.1.88.88 0 00.35.34.84.84 0 00.42.12 1 1 0 00.68-.26 1.11 1.11 0 000-1.5 1 1 0 00-.68-.26z"/></svg>