<svg xmlns="http://www.w3.org/2000/svg" viewBox="0 0 24 24"><path d="M8.07 8a2.27 2.27 0 01-1.55.52A2.27 2.27 0 015 8a1.72 1.72 0 01-.61-1.39V2.85h1.25v3.68c0 .53.29.79.88.79s.88-.26.88-.79V2.85h1.28v3.8A1.72 1.72 0 018.07 8zM12.64 2.85h1.28v5.6h-1.28V6.23h-1.76v2.22H9.6v-5.6h1.28V5h1.76zM17.12 2.85a2.59 2.59 0 011.94.81 2.74 2.74 0 01.78 2 2.76 2.76 0 01-.78 2 2.58 2.58 0 01-1.94.8h-2.24V2.85zm0 4.37a1.43 1.43 0 001.08-.43 1.58 1.58 0 00.41-1.14 1.61 1.61 0 00-.41-1.14 1.47 1.47 0 00-1.08-.43h-1v3.14z"/><path d="M0 0v12h24V0zm23 11H1V1h22zM0 12v12h24V12zm11.17 8.21h-.61v1.21H9.09v-1.21H5.93v-1.35l2.41-5.25H10l-2.34 5.18h1.43v-2h1.47v2h.61zm5.74 1.2l-1.86-3.25-1.12 1.56v1.69h-1.47V13.6h1.47v3.87l2.55-3.87h1.85L16 16.83l2.65 4.58z"/></svg>