<svg xmlns="http://www.w3.org/2000/svg" viewBox="0 0 24 24"><path d="M10 2.85h1.28v5.6H10V6.23H8.28v2.22H7v-5.6h1.28V5H10zM14.52 2.85a2.59 2.59 0 011.94.81 2.74 2.74 0 01.78 2 2.76 2.76 0 01-.78 2 2.58 2.58 0 01-1.94.8h-2.24V2.85zm0 4.37a1.43 1.43 0 001.08-.43 1.58 1.58 0 00.4-1.14 1.61 1.61 0 00-.41-1.14 1.47 1.47 0 00-1.08-.43h-1v3.14z"/><path d="M0 0v12h24V0zm23 11H1V1h22zM19.72 17.06a1 1 0 00-.77.3A1.22 1.22 0 0019 19a1.14 1.14 0 001.54 0 1.22 1.22 0 000-1.6 1 1 0 00-.82-.34zM14 15.71c-.57 0-.86.52-.86 1.55s.29 1.55.86 1.55.86-.52.86-1.55-.32-1.55-.86-1.55z"/><path d="M0 12v12h24V12zm6 3.59l-1.88 4.82h-2l1.77-4.55h-2.3v-1.75H6zm5 4.82H6.45V19.1l2.05-2.23.16-.17.14-.15.11-.12.09-.13v-.11a.25.25 0 000-.12.32.32 0 00-.1-.25.46.46 0 00-.32-.11c-.33 0-.58.21-.75.64l-1.58-.86a2.41 2.41 0 01.93-1.14A2.59 2.59 0 018.61 14a2.47 2.47 0 011.59.52 1.77 1.77 0 01.66 1.48 2 2 0 01-.24 1 7.13 7.13 0 01-.78 1l-.64.71H11zm4.93-.75a2.31 2.31 0 01-2 .89 2.31 2.31 0 01-2-.89 3.85 3.85 0 01-.7-2.4 3.85 3.85 0 01.7-2.4A2.31 2.31 0 0114 14a2.31 2.31 0 012 .89 3.85 3.85 0 01.7 2.4 3.85 3.85 0 01-.77 2.37zm5.58.19a2 2 0 01-1.52.69 1.71 1.71 0 01-1.34-.54v2.22H17.3v-6.3h1.35v.42a1.71 1.71 0 011.35-.56 2 2 0 011.52.69 2.58 2.58 0 010 3.38z"/></svg>