<svg xmlns="http://www.w3.org/2000/svg" viewBox="0 0 24 23.98"><path d="M3.93 2.85h1.15v3.7a1.12 1.12 0 00.25.76 1 1 0 00.75.29.92.92 0 00.74-.29 1.13 1.13 0 00.26-.76v-3.7h1.15v3.76A2.19 2.19 0 018 7.73a1.75 1.75 0 01-.77.68 2.47 2.47 0 01-1.1.24A2.44 2.44 0 015 8.41a1.75 1.75 0 01-.77-.68 2.19 2.19 0 01-.28-1.12zM9.4 2.85h1.15V5h2.61V2.85h1.15v5.6h-1.15V6h-2.61v2.45H9.4zM17.41 8.45h-1.9v-5.6h1.9A3.31 3.31 0 0119 3.2a2.53 2.53 0 011 1 2.93 2.93 0 01.37 1.48A2.93 2.93 0 0120 7.13a2.56 2.56 0 01-1 1 3.31 3.31 0 01-1.59.32zm0-4.55h-.69v3.51h.69a2.19 2.19 0 00.9-.18 1.55 1.55 0 00.65-.57 1.91 1.91 0 00.24-1 1.87 1.87 0 00-.24-1 1.49 1.49 0 00-.65-.57 2.19 2.19 0 00-.93-.19z"/><path d="M0 0v12h24V0zm23 11H1V1h22zM0 12v12h24V12zm11.15 7.7a2.09 2.09 0 01-.81.65 2.82 2.82 0 01-2.23 0 2.12 2.12 0 01-.82-.65 1.69 1.69 0 010-2 2.13 2.13 0 01.83-.6 1.85 1.85 0 01-.68-.56 1.48 1.48 0 01-.26-.88 1.43 1.43 0 01.27-.87 1.67 1.67 0 01.73-.57 2.37 2.37 0 011-.21 2.42 2.42 0 011 .21 1.7 1.7 0 01.72.57 1.43 1.43 0 01.27.87 1.48 1.48 0 01-.26.88 1.7 1.7 0 01-.68.56 2.06 2.06 0 01.83.6 1.69 1.69 0 010 2zm5 .75l-2.44-2.95v2.93h-1.08v-6.3h1.08v2.62l2.34-2.62h1.28l-2.65 2.95 2.79 3.35z"/><path d="M9.22 16.58a.75.75 0 00.56-.23.85.85 0 000-1.15.74.74 0 00-.56-.2.77.77 0 00-.57.22.82.82 0 00-.22.58.79.79 0 00.79.8zM9.69 17.71a.94.94 0 00-.47-.12 1 1 0 00-.47.12 1 1 0 00-.35.34.92.92 0 00-.14.48.88.88 0 00.29.71 1 1 0 00.67.26 1 1 0 00.67-.26.88.88 0 00.29-.71.92.92 0 00-.14-.48 1 1 0 00-.35-.34z"/></svg>