<svg xmlns="http://www.w3.org/2000/svg" viewBox="0 0 24 24"><path d="M8.07 7.91a2.27 2.27 0 01-1.55.52A2.27 2.27 0 015 7.91a1.72 1.72 0 01-.61-1.4V2.72h1.25V6.4c0 .52.29.78.88.78s.88-.26.88-.78V2.72h1.28v3.79a1.72 1.72 0 01-.61 1.4zM12.64 2.72h1.28v5.6h-1.28V6.1h-1.76v2.22H9.6v-5.6h1.28v2.14h1.76zM17.12 2.72a2.62 2.62 0 011.94.8 2.78 2.78 0 01.78 2 2.78 2.78 0 01-.78 2 2.62 2.62 0 01-1.94.8h-2.24v-5.6zm0 4.37a1.43 1.43 0 001.08-.43 1.61 1.61 0 00.41-1.14 1.61 1.61 0 00-.41-1.14A1.43 1.43 0 0017.12 4h-1v3.09z"/><path d="M0 0v12h24V0zm23 11H1V1h22zM8.28 16.61a.93.93 0 00.44.11.94.94 0 00.45-.11.79.79 0 00.29-.31 1 1 0 00.11-.47v-.07a.83.83 0 00-.11-.43.74.74 0 00-.29-.33.93.93 0 00-.45-.1.92.92 0 00-.44.1.68.68 0 00-.29.29.9.9 0 00-.11.44v.08a.94.94 0 00.12.49.67.67 0 00.28.31zM9.25 18.26a1.25 1.25 0 00-.53-.11 1.21 1.21 0 00-.52.11.81.81 0 00-.35.31.83.83 0 00-.13.47v.08a.93.93 0 00.13.5.88.88 0 00.35.38 1.24 1.24 0 00.52.11 1.12 1.12 0 00.53-.11.82.82 0 00.35-.34.93.93 0 00.13-.5V19a.8.8 0 00-.13-.46.81.81 0 00-.35-.28z"/><path d="M0 12v12h24V12zm11.2 7.32a2.07 2.07 0 01-.31 1.14 2 2 0 01-.86.76 3 3 0 01-1.31.27 3 3 0 01-1.3-.27 2.08 2.08 0 01-.87-.76 2.16 2.16 0 01-.3-1.14v-.13a2 2 0 01.32-1.1 2.09 2.09 0 01.86-.78 1.77 1.77 0 01-.74-.64 1.56 1.56 0 01-.28-.89v-.21a1.92 1.92 0 011.1-1.79 2.73 2.73 0 011.21-.26 2.74 2.74 0 011.22.26 1.89 1.89 0 01.81.72 2 2 0 01.25 1.07v.21a1.58 1.58 0 01-.29.9 1.84 1.84 0 01-.75.63 2.18 2.18 0 01.87.78 2 2 0 01.33 1.1zm5.93 2.09l-1.86-3.25-1.12 1.56v1.69h-1.47V13.6h1.47v3.87l2.54-3.87h1.86l-2.32 3.23 2.65 4.58z"/></svg>