<svg xmlns="http://www.w3.org/2000/svg" viewBox="0 0 24.04 23.95"><path d="M5.68 7.7l-.41-1.21h-3L1.92 7.7H0L2.62 0h2.24l2.62 7.7zM2.84 4.84h1.87l-1-2.83zM23.1 19.95a1.93 1.93 0 01.9 1.74 2.08 2.08 0 01-.71 1.63 2.59 2.59 0 01-1.77.63h-3.2v-7.7h3a2.52 2.52 0 011.73.61 2 2 0 01.7 1.59 1.93 1.93 0 01-.65 1.5zm-1.76-2h-1.26v1.36h1.26a.63.63 0 00.48-.19.73.73 0 000-1 .63.63 0 00-.48-.17zm.22 4.4a.7.7 0 00.52-.2.72.72 0 00.2-.54.69.69 0 00-.2-.53.66.66 0 00-.52-.2h-1.48v1.47zM21 10.95V3.64a.69.69 0 00-.69-.69H12v-1h-1l-.69 1a.88.88 0 000 1l.69 1h1v-1h7.68a.32.32 0 01.32.32v6.68h-1v1l1 .67a.86.86 0 001 0l1-.67v-1zM3.17 12.78v7.3a.7.7 0 00.7.7h8.3v1h1l.68-1a.88.88 0 000-1l-.67-1h-1v1H4.49a.32.32 0 01-.32-.32v-6.68h1v-1l-1-.68a.88.88 0 00-1 0l-1 .67v1z"/></svg>