<svg xmlns="http://www.w3.org/2000/svg" viewBox="0 0 16 16"><path d="M16 8.38v-.76h-1.54a6.53 6.53 0 00-1.62-3.92l1.09-1.09-.54-.54-1.09 1.09a6.53 6.53 0 00-3.92-1.62V0h-.76v1.54A6.53 6.53 0 003.7 3.16L2.61 2.07l-.54.54L3.16 3.7a6.53 6.53 0 00-1.62 3.92H0v.76h1.54a6.53 6.53 0 001.62 3.92l-1.09 1.09.54.54 1.09-1.09a6.53 6.53 0 003.92 1.62V16h.76v-1.54a6.53 6.53 0 003.92-1.62l1.09 1.09.54-.54-1.09-1.09a6.53 6.53 0 001.62-3.92zm-8 5.33A5.71 5.71 0 1113.71 8 5.7 5.7 0 018 13.71z"/><path d="M3.05 8A4.94 4.94 0 008 13V3.05A4.94 4.94 0 003.05 8z"/></svg>