<svg xmlns="http://www.w3.org/2000/svg" viewBox="0 0 16 11.79"><path d="M6.25 10.16l4.06-2.03L6.25 6.1v4.06z"/><path d="M15.05 8.38a3.64 3.64 0 00.18-1.12 3.74 3.74 0 00-6.76-2.21 4.52 4.52 0 10-6.68 5.84 1.8 1.8 0 001.57.92h10.82a1.81 1.81 0 00.87-3.4zm-.87 2.86H3.36a1.25 1.25 0 01-1.12-.69l-.08-.09a4 4 0 01-1.62-3.2 4 4 0 017.65-1.55l.22.52.27-.5a3.19 3.19 0 016 1.53 3.14 3.14 0 01-.22 1.16l-.1.26.26.09a1.3 1.3 0 01.84 1.2 1.27 1.27 0 01-1.28 1.27z"/><circle cx="11.66" cy=".68" r=".68"/><circle cx="9.97" cy="1.69" r=".34"/><circle cx="8.62" cy="2.37" r=".34"/></svg>