<svg xmlns="http://www.w3.org/2000/svg" viewBox="0 0 16 16"><path d="M8 0a8 8 0 108 8 8 8 0 00-8-8zm0 15.2A7.2 7.2 0 1115.2 8 7.2 7.2 0 018 15.2z"/><path d="M1.6 8a6.4 6.4 0 0012.8 0zm6.07 2.73a.44.44 0 00.33.13.91.91 0 01.65.27.89.89 0 01.27.65v.46a.89.89 0 01-.27.65.91.91 0 01-.65.27.92.92 0 01-.92-.92h.46a.44.44 0 00.46.46.44.44 0 00.32-.13.45.45 0 00.14-.33v-.46a.47.47 0 00-.14-.33.44.44 0 00-.32-.13.92.92 0 01-.92-.92v-.46A.92.92 0 018 9a.91.91 0 01.65.27.89.89 0 01.27.65h-.46a.47.47 0 00-.14-.33.44.44 0 00-.32-.11.44.44 0 00-.33.13.46.46 0 00-.13.33v.46a.44.44 0 00.13.33zM7.6 5.21h1.1v1.6h.4v-3.6h-.4v1.6H7.6v-1.6h-.4v3.6h.4v-1.6z"/></svg>