<svg xmlns="http://www.w3.org/2000/svg" viewBox="0 0 16 10.67"><path d="M4.67 0H6v.67H4.67zm2.66 0h1.33v.67H7.33zM10 0h1.33v.67H10zM4.67 10H6v.67H4.67zm2.66 0h1.33v.67H7.33zM10 10h1.33v.67H10zm5.33-4.67H16v1.33h-.67zm0-2.66H16V4h-.67z"/><path d="M15.33 0h-2.66v.66h2.53L13.86 2H2.14L.8.66h2.53V0H0v1.33h.53L2 2.8v5.06L.67 9.19V8H0v2.66h3.33V10H.8l1.34-1.34h11.72L15.2 10h-2.53v.66H16V8h-.67v1.19L14 7.86V2.8l1.47-1.47H16V0zm-2 8H2.67V2.66h10.66z"/><path d="M0 5.33h.67v1.33H0zm0-2.66h.67V4H0zm6 .66v4l4.67-2-4.67-2z"/></svg>