<svg xmlns="http://www.w3.org/2000/svg" viewBox="0 0 16 5.33"><path d="M1.54 0A1.54 1.54 0 000 1.53v.2h.82v-.2a.72.72 0 11.72.72h-.2v.82h.2a.72.72 0 11-.72.72v-.2H0v.2a1.54 1.54 0 003.08 0 1.51 1.51 0 00-.5-1.13 1.51 1.51 0 00.5-1.13A1.54 1.54 0 001.54 0zm5.6 1.36A1.46 1.46 0 005.61 0a1.46 1.46 0 00-1.15.49 1.55 1.55 0 00-.39 1v.2h.82v-.2a.69.69 0 01.72-.7.64.64 0 01.71.54c0 .5-.62 1.17-1.12 1.72S4.07 4.3 4.07 4.91v.41h3.05V4.5h-2a8.42 8.42 0 01.68-.84 3.81 3.81 0 001.34-2.3zM9.67 0a1.3 1.3 0 00-1.15.66 4 4 0 00-.39 2 4 4 0 00.39 2 1.35 1.35 0 002.3 0 4 4 0 00.39-2 4 4 0 00-.39-2A1.28 1.28 0 009.67 0zm0 4.5c-.18 0-.67 0-.67-1.84S9.54.82 9.72.82s.72 0 .72 1.84-.59 1.84-.77 1.84zM14.09 0h-1.54v5.32h.82v-1.5h.72a1.91 1.91 0 000-3.82zm0 3h-.72V.82h.72a1.09 1.09 0 010 2.18z"/></svg>