<svg xmlns="http://www.w3.org/2000/svg" viewBox="0 0 16 5.29"><path d="M0 .82h2.08L.44 5.26h.87L3.25 0H0v.82zm7.2.54A1.45 1.45 0 005.68 0a1.46 1.46 0 00-1.14.5 1.55 1.55 0 00-.38 1v.19H5v-.17a.68.68 0 01.71-.7.63.63 0 01.7.54c0 .5-.61 1.16-1.11 1.7S4.16 4.28 4.16 4.89v.41h3v-.82h-2a8.63 8.63 0 01.72-.83A3.75 3.75 0 007.2 1.36zM9.72 0a1.28 1.28 0 00-1.14.65 3.93 3.93 0 00-.39 2 3.93 3.93 0 00.39 2 1.27 1.27 0 001.14.65 1.29 1.29 0 001.14-.65 4 4 0 00.38-2 4 4 0 00-.38-2A1.29 1.29 0 009.72 0zm0 4.48c-.18 0-.72 0-.72-1.83S9.54.82 9.72.82s.71 0 .71 1.83-.54 1.83-.71 1.83zM14.1 0h-1.53v5.29h.82V3.8h.71a1.9 1.9 0 100-3.8zm0 3h-.71V.82h.71a1.09 1.09 0 010 2.17z"/></svg>