<svg xmlns="http://www.w3.org/2000/svg" viewBox="0 0 15.47 10.94"><path d="M2.2 7.6l-1.93.97 1.93.97v-.65h8.08v-.64H2.2V7.6zm12.94-5.47l-1.93-.96v.64H5.77v.65h7.44v.64l1.93-.97zM1.08 3.32L.49 4.95H0L1.83 0h.59l1.83 4.95h-.52l-.61-1.63zm1.9-.46c-.52-1.4-.8-2.1-.9-2.45-.13.45-.43 1.28-.85 2.45zM12.02 6h1.81c1 0 1.48.52 1.48 1.22a1.07 1.07 0 01-.74 1.08 1.23 1.23 0 01.91 1.21 1.42 1.42 0 01-1.65 1.43h-1.81zm1.66 2.1c.8 0 1.11-.31 1.11-.84s-.33-.83-1-.83H12.5V8.1zm-1.18 2.42h1.33c.64 0 1.14-.31 1.14-1s-.38-1-1.31-1H12.5z"/></svg>