<svg xmlns="http://www.w3.org/2000/svg" viewBox="0 0 16 13.82"><path d="M8.73 8.73l4.36-2.19-4.36-2.18v4.37zM2.18 5.82h5.09v.73H2.18zm0 1.45h5.09V8H2.18zm0-3.63l1.09 1.45 1.09-1.45h-.72V0h-.73v3.64h-.73zm2.91 0l1.09 1.45 1.09-1.45h-.73V0h-.72v3.64h-.73zm-.73 6.54L3.27 8.73l-1.09 1.45h.73v3.64h.73v-3.64h.72zm2.91 0L6.18 8.73l-1.09 1.45h.73v3.64h.72v-3.64h.73z"/><path d="M.73 2.91h1.45v-.73H0v9.46h2.18v-.73H.73v-8zm3.63 8h.73v.73h-.73zm2.91-8.73v.73h8v8h-8v.73H16V2.18H7.27zm-2.91 0h.73v.73h-.73z"/></svg>