<svg xmlns="http://www.w3.org/2000/svg" viewBox="0 0 16 11.64"><path d="M3.45 6.08h2.84l-.44 2.48H7l.89-5.07h3.38a2.18 2.18 0 01.81.14.92.92 0 01.46.34 1.35 1.35 0 01.25.51 2 2 0 01.09.63 2.19 2.19 0 01-.17.82 2.37 2.37 0 01-.46.78 2.14 2.14 0 01-.76.57 2.5 2.5 0 01-1 .22H9.33l.57-3.19H8.78L8 8.56h2.3a3.91 3.91 0 001.6-.32 3.23 3.23 0 001.16-.86 3.82 3.82 0 00.65-1.14A3.63 3.63 0 0014 4.99a2.62 2.62 0 00-.68-1.82 2.53 2.53 0 00-2-.75H6.93l-.46 2.59H3.63l.46-2.59H3L1.9 8.56H3z"/><path d="M0 0v11.64h16V0zm15.64 10.55H.36V.37h15.28z"/></svg>