<svg xmlns="http://www.w3.org/2000/svg" viewBox="0 0 16 11.61"><path d="M.9 2.62h1.74v2.36h.62V0h-.62v2H.9V0H.28v4.98H.9V2.62zm6.07 1.74H4.81V2.62h2.16V2H4.81V.62h2.16V0H4.19v4.99h2.78v-.63zm2.47.63h.57L11.6 0h-.65L9.72 3.84 8.5 0h-.65l1.56 4.91.03.08zm6.23-.75a2 2 0 01-.69.13 1.87 1.87 0 010-3.74 1.8 1.8 0 01.69.13h.1L16 .22h-.1A2.39 2.39 0 0015 0a2.5 2.5 0 000 5 2.59 2.59 0 00.9-.19h.1l-.23-.58z"/><circle cx="15.03" cy="2.39" r=".73"/><path d="M0 6.53h15.97v.73H0zm1.71 3.49V8.2h-.27L.88 9.33.33 8.22.32 8.2H.05v1.82h.27V8.78l.41.82.01.02h.28l.41-.83v1.23h.28zm.54-1.82v1.82h.28v-.71h.37a.57.57 0 00.61-.57.55.55 0 00-.58-.54zm1 .55a.28.28 0 01-.31.29h-.41v-.57h.38a.3.3 0 01.32.28zm1.94-.29V8.2h-1.2v1.82h1.2v-.27h-.92v-.54h.81v-.26h-.81v-.49h.92zm1.21-.02a.43.43 0 01.38.23L7 8.53a.63.63 0 00-.61-.32.83.83 0 00-.81.93c0 .84.56.93.8.93a.58.58 0 00.41-.16v.14H7v-1h-.7v.25h.44v.24c0 .17-.25.26-.38.26-.4 0-.54-.35-.54-.66s.18-.7.58-.7zm1.11.57h.84v.26h-.84zm2.71 1.01V8.2h-.28v.75h-.83V8.2h-.28v1.82h.28v-.81h.83v.81h.28zm1.43-.21v.23h1.16v-.23H12l.58-.62a.52.52 0 00.19-.4.54.54 0 00-.57-.55.56.56 0 00-.57.58h.28a.31.31 0 01.29-.32.29.29 0 01.29.3c0 .08 0 .13-.11.24zm2.17-1.61l-.49.85a.87.87 0 00-.11.38.59.59 0 101.18 0 .56.56 0 00-.58-.61h-.05l.38-.63zm0 .88c.27 0 .31.23.31.36a.32.32 0 11-.64 0 .34.34 0 01.33-.36zm1.61-.27a.51.51 0 00-.28.06v-.4h.7v-.25H15l-.09.93h.24a.34.34 0 01.3-.11c.18 0 .3.15.3.36s-.13.39-.34.39-.29-.07-.29-.19h-.26c0 .26.21.44.54.44a.58.58 0 00.62-.64.55.55 0 00-.59-.59zM0 10.89h15.97v.73H0z"/></svg>