<svg xmlns="http://www.w3.org/2000/svg" viewBox="0 0 16 14.4"><path d="M12.79 5.07V4.8a4.8 4.8 0 00-9.6 0v.27A4.8 4.8 0 108 13.2a4.8 4.8 0 104.79-8.1zm-8 8.53a4 4 0 01-1.46-7.71 4.82 4.82 0 003.08 3.44v.27a4.77 4.77 0 001 3 3.93 3.93 0 01-2.61 1zm0-8.8a5.16 5.16 0 00-.79.07V4.8a4 4 0 018 0v.07a5.16 5.16 0 00-.79-.07A4.79 4.79 0 008 6.03 4.79 4.79 0 004.8 4.8zm6.4 8.8a3.93 3.93 0 01-2.64-1 4.77 4.77 0 001-3v-.27a4.82 4.82 0 003.08-3.44 4 4 0 01-1.43 7.71z"/><path d="M8.38 3.51h-.83v-1.2h-.3v2.7h.3v-1.2h.83v1.2h.3v-2.7h-.3v1.2zM3.74 9.7A.29.29 0 014 9.61a.31.31 0 01.3.3h.3a.62.62 0 00-.6-.6.58.58 0 00-.43.18.57.57 0 00-.17.42v.29a.59.59 0 00.17.43.61.61 0 00.43.17.31.31 0 01.3.3v.3a.27.27 0 01-.09.21.29.29 0 01-.21.09.29.29 0 01-.22-.09.26.26 0 01-.08-.21h-.3a.59.59 0 00.17.43A.61.61 0 004 12a.61.61 0 00.42-.17.6.6 0 00.18-.43v-.3a.62.62 0 00-.6-.6.33.33 0 01-.22-.08.3.3 0 01-.12-.22v-.3a.28.28 0 01.08-.2zm8.03-.56h-.3v2.7h1.2v-.3h-.9v-2.4z"/></svg>