<svg xmlns="http://www.w3.org/2000/svg" viewBox="0 0 16 5.09"><path d="M1.64 3.5V1.73h-.27L.83 2.82.3 1.75l-.01-.02H.03V3.5h.26V2.29l.4.8.01.02h.27l.4-.8V3.5h.27zm.52-1.78v1.82h.28V2.8h.36a.55.55 0 00.59-.56.54.54 0 00-.57-.52zm1 .53a.28.28 0 01-.3.29h-.42v-.56h.37a.29.29 0 01.31.27zm1.86-.27v-.25H3.85V3.5h1.17v-.26h-.9v-.53h.79v-.26h-.79v-.47h.9zm1.17-.02a.42.42 0 01.38.22l.23-.14a.62.62 0 00-.59-.31.81.81 0 00-.8.91c0 .81.55.9.79.9a.59.59 0 00.4-.15v.13h.2v-.98h-.67v.26h.42v.22c0 .17-.24.26-.36.26-.39 0-.53-.35-.53-.64s.17-.68.53-.68zm1.08.55h.82v.26h-.82zm2.22 1.03v-.51h.2v-.25h-.2V1.72h-.26l-.79 1v.23h.8v.59zm-.73-.71l.47-.62v.62zm2.78-1.11l-.64 1.72h.29l.15-.41H12l.14.41h.31l-.64-1.7zm.37 1.1h-.5l.25-.71zm1.15-1.07l-.01-.02h-.3l.63 1.77h.26l.63-1.73.02-.04h-.3l-.47 1.37-.46-1.35zm2.33.21a.43.43 0 01.38.22l.23-.14a.63.63 0 00-.6-.31c-.37 0-.75.28-.75.91 0 .81.53.9.75.9a.67.67 0 00.6-.29l-.2-.2a.41.41 0 01-.39.21c-.44 0-.48-.49-.48-.64-.03-.33.07-.66.46-.66zM0 0h15.99v.73H0zm0 4.36h15.99v.73H0z"/></svg>