<svg xmlns="http://www.w3.org/2000/svg" viewBox="0 0 16 10.13"><path d="M.56 1.27l.58 1.17h.52l.56-1.15v1.79h.57V.04h-.54l-.86 1.74L.53.04H0v3.04h.56V1.27zM4.8.06H3.65v3h.57V1.93h.53a1 1 0 001-1A.94.94 0 004.8.06zm0 1.36h-.58V.57h.56a.44.44 0 01.46.39.41.41 0 01-.45.43zm3.81 1.12H7.12v-.76h1.31v-.54H7.12V.57h1.49V.04H6.56v3.04h2.05v-.54zm2.6.36v.17h.43V1.34h-1.2v.53h.71v.32c0 .23-.36.37-.55.37-.6 0-.81-.54-.81-1s.25-1 .82-1a.63.63 0 01.57.35l.07.12.43-.37-.06-.09a1.06 1.06 0 00-1-.54 1.4 1.4 0 00-1.39 1.52c0 1 .5 1.55 1.35 1.55a1 1 0 00.63-.2zM2.4 7.62H.89V6.05H.08v4.04h.81V8.4H2.4v1.69h.81V6.05H2.4v1.57zm2.02 1.53h.9v.95h-.9zm4.11-.93A1.28 1.28 0 009 7.29a1.24 1.24 0 00-1.36-1.23 1.29 1.29 0 00-1.3 1.32v.2h.82v-.2a.51.51 0 01.48-.54.5.5 0 01.5.49c0 .13 0 .22-.21.43L6.34 9.44v.62H9v-.77H7.49zm2.77-.85l.78-1.31h-1l-1 1.83a1.87 1.87 0 00-.25.87 1.25 1.25 0 001.35 1.37 1.26 1.26 0 001.34-1.36 1.28 1.28 0 00-1.22-1.4zm-.13 2a.54.54 0 01-.55-.6.59.59 0 01.57-.64c.43 0 .52.35.52.64a.53.53 0 01-.54.59zm3.57-2.09a1.29 1.29 0 00-.44.06v-.53h1.48v-.75h-2.15l-.22 2.26h.69l.05-.07c.09-.11.2-.2.53-.2a.57.57 0 01.52.64c0 .44-.22.7-.61.7s-.47-.13-.47-.28v-.2h-.79v.15c0 .63.49 1 1.25 1A1.32 1.32 0 0016 8.67a1.27 1.27 0 00-1.26-1.39z"/></svg>