<svg xmlns="http://www.w3.org/2000/svg" viewBox="0 0 16 12.36"><path d="M1.45 10.18h2.91v.73H1.45zm8.73 0h4.36v.73h-4.36zM1.45 3.64h5.82v.73H1.45zm0 2.18h2.91v.73H1.45zm0 2.18h2.33v.73H1.45zm9.46-4.36h3.64v.73h-3.64zm0 2.18h3.64v.73h-3.64zm0 2.18h3.64v.73h-3.64z"/><path d="M0 0v12.36h16V0zm15.27 11.63H.73V.73h14.54z"/><path d="M6.34 6.55A2.2 2.2 0 005 9.33a2.2 2.2 0 003 .76A2.41 2.41 0 009.47 8V2.18h.13a3.11 3.11 0 011.73.52l.31.21v-.73l-.31-.2a3 3 0 00-1.73-.53h-.85v5.2a2.46 2.46 0 00-2.41-.1z"/></svg>