<svg xmlns="http://www.w3.org/2000/svg" viewBox="0 0 16 16"><path d="M8 0a8 8 0 108 8 8 8 0 00-8-8zm0 15.2A7.2 7.2 0 1115.2 8 7.2 7.2 0 018 15.2z"/><circle cx="4" cy="5.6" r=".8"/><path d="M6.8 8a.4.4 0 10-.4-.4.4.4 0 00.4.4z"/><circle cx="8" cy="4" r=".8"/><path d="M10.4 7.6a.4.4 0 10-.4.4.4.4 0 00.4-.4zm0-2.8a.8.8 0 10.8.8.8.8 0 00-.8-.8zM8 9.6a.8.8 0 10.8.8.8.8 0 00-.8-.8zm-2.8 0a.4.4 0 10.4.4.4.4 0 00-.4-.4zm7.6.8a.8.8 0 10.8.8.8.8 0 00-.8-.8zM12.4 8a.4.4 0 10-.4-.4.4.4 0 00.4.4zm-2 .8a.8.8 0 10.8.8.8.8 0 00-.8-.8z"/><circle cx="3.2" cy="8.8" r=".8"/><path d="M5.2 12a.4.4 0 10.4.4.4.4 0 00-.4-.4zm4 0a.4.4 0 10.4.4.4.4 0 00-.4-.4zm-4-8.8a.4.4 0 10.4.4.4.4 0 00-.4-.4zm5.6 0a.4.4 0 10.4.4.4.4 0 00-.4-.4zm2.4 3.2a.4.4 0 10-.4-.4.4.4 0 00.4.4zm-6.4 7.2a.4.4 0 10.4.4.4.4 0 00-.4-.4z"/></svg>