<svg xmlns="http://www.w3.org/2000/svg" viewBox="0 0 14.65 16"><path d="M9.87 15.7a4.79 4.79 0 004.79-4.78v-.11a4.71 4.71 0 00-.47-2A58.46 58.46 0 009.87.56S8.79 2.3 7.65 4.41C6.52 2.3 5.42.53 5.33.41L5.09 0l-.26.41A58 58 0 00.5 8.73a5.11 5.11 0 00-.49 2.07v.12a5.08 5.08 0 007.79 4.3 4.82 4.82 0 002.07.48zm-4.78-.3A4.49 4.49 0 01.6 10.89v-.07A4.39 4.39 0 011.06 9a52.9 52.9 0 014-7.82c.43.7 1.33 2.23 2.22 3.91a33.07 33.07 0 00-1.72 3.77 4.71 4.71 0 00-.47 2v.11a4.78 4.78 0 002.1 4 4.5 4.5 0 01-2.1.43z"/></svg>