<svg xmlns="http://www.w3.org/2000/svg" viewBox="0 0 16 15.39"><path d="M5.19 5a5.19 5.19 0 105.2 5.19A5.19 5.19 0 005.19 5zm0 9.52a4.33 4.33 0 114.33-4.33 4.32 4.32 0 01-4.33 4.33z"/><path d="M1.73 9.76v.86h1.34a2.33 2.33 0 010-.86zm5.63.43a2 2 0 01-.05.43h1.35v-.86H7.31a2 2 0 01.05.43zm-2.6 2.12v1.38h.87v-1.38a2.12 2.12 0 01-.44 0 2.09 2.09 0 01-.43 0zm.87-4.24V6.69h-.87v1.38a2.09 2.09 0 01.43 0 2.12 2.12 0 01.44 0zm-.44.82a1.3 1.3 0 101.3 1.3 1.3 1.3 0 00-1.3-1.3zm.31 1.61a.43.43 0 01-.61 0 .44.44 0 010-.62.45.45 0 01.61 0 .44.44 0 010 .62zM15 1.01a3.46 3.46 0 100 4.9 3.47 3.47 0 000-4.9zm-.63 4.28a2.6 2.6 0 110-3.67 2.58 2.58 0 010 3.67z"/><path d="M11.62 2.54a1.3 1.3 0 000 1.84 1.301 1.301 0 001.84-1.84 1.3 1.3 0 00-1.84 0z"/></svg>