<svg xmlns="http://www.w3.org/2000/svg" viewBox="0 0 16 11.64"><path d="M3 7.58a1.94 1.94 0 001.34-.5A2.22 2.22 0 005 5.67l.49-2.85h-.93l-.45 2.8a1.23 1.23 0 01-.4.78.85.85 0 01-1.22 0 1 1 0 01-.11-.74l.46-2.84h-.93l-.45 2.8a1.76 1.76 0 00.29 1.46 1.54 1.54 0 001.25.5zm3.84-1.9H8.6l-.3 1.86h.94l.6-3.81h2.72a1.29 1.29 0 01.51.1.64.64 0 01.28.22 1.34 1.34 0 01.16.37 1.65 1.65 0 01.06.46 1.81 1.81 0 01-.11.6 1.76 1.76 0 01-.31.57 1.22 1.22 0 01-.49.4 1.39 1.39 0 01-.65.16h-.65l.33-2h-.94l-.47 3H12a2.5 2.5 0 001.13-.25 2.28 2.28 0 00.82-.67 3.3 3.3 0 00.46-.87 3.14 3.14 0 00.1-1A2.16 2.16 0 0014 3.39a1.74 1.74 0 00-1.38-.57H9.06l-.31 2H7l.3-2h-.94L5.6 7.54h.94z"/><path d="M0 0v11.64h16V0zm15.64 10.55H.36V.37h15.28z"/></svg>