<svg xmlns="http://www.w3.org/2000/svg" viewBox="0 0 16 15.33"><path d="M3 11.43l.74-.76V4.79l3-1.5v4.38l.75-.75V1.8L3 4.04H0v7.48h3zM.75 4.79H3v6H.75zM.67 14.801L15.475-.005l.53.53L1.2 15.332zM11.54 2.88a5.24 5.24 0 00-1.82-.33v.74a4.51 4.51 0 011.28.18zm1.4 1.79a4.49 4.49 0 01-3.22 7.6v.74a5.23 5.23 0 003.74-8.88zM9 4.79v.66l.6-.6a2.91 2.91 0 00-.6-.06z"/><path d="M12 7.78a2.92 2.92 0 00-.5-1.65l-.59.54a2.17 2.17 0 01.31 1.1A2.24 2.24 0 019 10.02v.75a3 3 0 003-2.99zm-5.27 4.48l-.94-.47-.75.75 2.44 1.22v-3.65l-.75.75v1.4z"/></svg>