<svg xmlns="http://www.w3.org/2000/svg" viewBox="0 0 24 24"><path d="M15.72,23.5H8.28A3.33,3.33,0,0,1,5,19.75L5.82,13A6.23,6.23,0,0,1,12,7.5h0A6.23,6.23,0,0,1,18.18,13L19,19.75A3.33,3.33,0,0,1,15.72,23.5Z" fill="none" stroke="#000" stroke-miterlimit="10"/><path d="M12,7.43h0a1.36,1.36,0,0,1-1.31-1L9.56,2.25A1.25,1.25,0,0,1,11.19.69h0a1.12,1.12,0,0,0,.44.09h.65A1.2,1.2,0,0,0,12.7.7l.11,0a1.25,1.25,0,0,1,1.62,1.56L13.3,6.42A1.36,1.36,0,0,1,12,7.43Z" fill="none" stroke="#000" stroke-miterlimit="10"/></svg>