<svg id="a831ffbd-1b3b-4d0a-967a-04df440ed015" data-name="Layer 1" xmlns="http://www.w3.org/2000/svg" viewBox="0 0 24 17"><rect x="0.5" y="0.5" width="23" height="16" rx="1.98" fill="none" stroke="#000" stroke-miterlimit="10"/><rect x="3.5" y="4.5" width="4" height="4" rx="1.12" fill="none" stroke="#000" stroke-miterlimit="10"/><line x1="3.5" y1="13" x2="3.5" y2="14" fill="none" stroke="#000" stroke-miterlimit="10"/><line x1="5.5" y1="13" x2="5.5" y2="14" fill="none" stroke="#000" stroke-miterlimit="10"/><line x1="7.5" y1="13" x2="7.5" y2="14" fill="none" stroke="#000" stroke-miterlimit="10"/><line x1="9.5" y1="13" x2="9.5" y2="14" fill="none" stroke="#000" stroke-miterlimit="10"/><line x1="11.5" y1="13" x2="11.5" y2="14" fill="none" stroke="#000" stroke-miterlimit="10"/><line x1="13.5" y1="13" x2="13.5" y2="14" fill="none" stroke="#000" stroke-miterlimit="10"/><path d="M20.48,10.24l1.13.57a.27.27,0,0,0,.39-.24V9.43a.27.27,0,0,0-.39-.24l-1.13.57A.27.27,0,0,0,20.48,10.24Z" transform="translate(0 -3)"/></svg>