<svg xmlns="http://www.w3.org/2000/svg" viewBox="0 0 24 24"><path d="M21.21,19.88l-.14.18a3.71,3.71,0,0,1-2.94,1.44H5.86A3.7,3.7,0,0,1,2.91,20l-.09-.12a3.41,3.41,0,0,0-.74-.73L2,19.13a3.68,3.68,0,0,1-1.51-3V7.85A3.7,3.7,0,0,1,2,4.88l.06,0a3.61,3.61,0,0,0,.78-.78l0,0a3.72,3.72,0,0,1,3-1.52H18.13a3.71,3.71,0,0,1,2.94,1.44l.09.13a4,4,0,0,0,.79.75h0a3.72,3.72,0,0,1,1.55,3v8.29a3.71,3.71,0,0,1-1.44,2.94l-.18.14A3.54,3.54,0,0,0,21.21,19.88Z" fill="none" stroke="#000" stroke-linecap="round" stroke-miterlimit="10"/><line x1="11.5" y1="5.5" x2="11.5" y2="18.5" fill="none" stroke="#000" stroke-linecap="round" stroke-miterlimit="10"/><path d="M14.5,8.85a4.06,4.06,0,0,0-.57-1.14A2.94,2.94,0,0,0,11.38,6.5a2.71,2.71,0,0,0-1.83.66,2.37,2.37,0,0,0-.77,1.9,2.84,2.84,0,0,0,.38,1.58,2.56,2.56,0,0,0,1,.87,12,12,0,0,0,1.42.56,8.3,8.3,0,0,1,1.35.57,2.79,2.79,0,0,1,1,.83,2.15,2.15,0,0,1,.36,1.28,2.55,2.55,0,0,1-2.68,2.75,2.88,2.88,0,0,1-2.26-.82,3.25,3.25,0,0,1-.86-1.91" fill="none" stroke="#000" stroke-linecap="round" stroke-miterlimit="10"/><line x1="2.5" y1="11.5" x2="3.5" y2="11.5" fill="none" stroke="#000" stroke-linecap="round" stroke-miterlimit="10"/><line x1="20.5" y1="11.5" x2="21.5" y2="11.5" fill="none" stroke="#000" stroke-linecap="round" stroke-miterlimit="10"/></svg>