<svg xmlns="http://www.w3.org/2000/svg" viewBox="0 0 24 24"><path d="M18.22,18.82c.81.48,1.28,1.06,1.28,1.68,0,1.66-3.36,3-7.5,3s-7.5-1.34-7.5-3c0-.85.89-1.62,2.32-2.17" fill="none" stroke="#000" stroke-linecap="round" stroke-miterlimit="10"/><path d="M18.3,14.38c1.36.54,2.2,1.29,2.2,2.12,0,1.66-3.36,3-7.5,3s-7.5-1.34-7.5-3a2.08,2.08,0,0,1,1.19-1.62" fill="none" stroke="#000" stroke-linecap="round" stroke-miterlimit="10"/><path d="M18.21,10.82c.82.48,1.29,1.06,1.29,1.68,0,1.66-3.36,3-7.5,3s-7.5-1.34-7.5-3c0-.81.8-1.54,2.1-2.08" fill="none" stroke="#000" stroke-linecap="round" stroke-miterlimit="10"/><path d="M18.23,6.35c1.4.54,2.27,1.31,2.27,2.15,0,1.66-3.36,3-7.5,3s-7.5-1.34-7.5-3A2.08,2.08,0,0,1,6.7,6.87" fill="none" stroke="#000" stroke-linecap="round" stroke-miterlimit="10"/><ellipse cx="12" cy="4.5" rx="7.5" ry="3" fill="none" stroke="#000" stroke-linecap="round" stroke-miterlimit="10"/></svg>