<svg id="b78f90a8-9919-495e-ae81-34b1aad5c055" data-name="Layer 1" xmlns="http://www.w3.org/2000/svg" viewBox="0 0 11.43 24"><line x1="5.72" y1="0.5" x2="5.72" y2="23.5" fill="none" stroke="#000" stroke-linecap="round" stroke-miterlimit="10"/><path d="M17.22,6.77a6.42,6.42,0,0,0-1-1.83,4.94,4.94,0,0,0-1.74-1.39A5.8,5.8,0,0,0,11.79,3,4.94,4.94,0,0,0,8.61,4.06a3.64,3.64,0,0,0-1.34,3,4.23,4.23,0,0,0,.66,2.53A4.32,4.32,0,0,0,9.7,11a20.72,20.72,0,0,0,2.47.9,15.75,15.75,0,0,1,2.35.91,5,5,0,0,1,1.72,1.33,3.28,3.28,0,0,1,.63,2.06,4.06,4.06,0,0,1-1.31,3.25,4.9,4.9,0,0,1-3.35,1.15,5.35,5.35,0,0,1-3.94-1.31,5.1,5.1,0,0,1-1.49-3.06" transform="translate(-6.28)" fill="none" stroke="#000" stroke-linecap="round" stroke-miterlimit="10"/></svg>