<svg xmlns="http://www.w3.org/2000/svg" viewBox="0 0 24 24"><line x1="11.5" y1="0.5" x2="11.5" y2="23.5" fill="none" stroke="#000" stroke-linecap="round" stroke-miterlimit="10"/><path d="M17.5,7.13a6.13,6.13,0,0,0-1.05-1.76A5.43,5.43,0,0,0,14.62,4a6.73,6.73,0,0,0-2.84-.53,5.53,5.53,0,0,0-3.35,1A3.41,3.41,0,0,0,7,7.46a3.82,3.82,0,0,0,.69,2.43,4.52,4.52,0,0,0,1.87,1.35,27.24,27.24,0,0,0,2.6.87,16,16,0,0,1,2.48.87,5.28,5.28,0,0,1,1.81,1.29,2.91,2.91,0,0,1,.67,2,3.77,3.77,0,0,1-1.39,3.14,5.48,5.48,0,0,1-3.53,1.11,5.89,5.89,0,0,1-4.15-1.27A4.72,4.72,0,0,1,6.5,16.29" fill="none" stroke="#000" stroke-linecap="round" stroke-miterlimit="10"/></svg>