<svg xmlns="http://www.w3.org/2000/svg" viewBox="0 0 24 24"><path d="M.5,11h2a2,2,0,0,1,2,2V20a2,2,0,0,1-2,2H.5a0,0,0,0,1,0,0V11A0,0,0,0,1,.5,11Z" fill="none" stroke="#000" stroke-miterlimit="10"/><path d="M21.42,14.07,11.36,15.88a1,1,0,0,1-.69-.09l-.26-.13a1.09,1.09,0,0,1-.52-1.4l1.37-2.35a1.21,1.21,0,0,0,.08-.93h0A1.18,1.18,0,0,0,10,10.2l-4.8,1.11a.83.83,0,0,0-.65.81V20.6a1,1,0,0,0,.7,1L10,23.26a4.24,4.24,0,0,0,3.74-.47l9.32-6.22a.9.9,0,0,0,.14-1.4l-.79-.8A1.12,1.12,0,0,0,21.42,14.07Z" fill="none" stroke="#000" stroke-miterlimit="10"/><circle cx="14.5" cy="4.5" r="4" fill="none" stroke="#000" stroke-miterlimit="10"/></svg>