<svg xmlns="http://www.w3.org/2000/svg" viewBox="0 0 24 24"><path d="M13,23.5H4A1.5,1.5,0,0,1,2.5,22V9a1.54,1.54,0,0,1,.3-.9l4.5-6a1.5,1.5,0,0,1,2.4,0l4.5,6a1.54,1.54,0,0,1,.3.9V22A1.5,1.5,0,0,1,13,23.5Z" fill="none" stroke="#000" stroke-miterlimit="10"/><circle cx="8.5" cy="7.5" r="1" fill="none" stroke="#000" stroke-miterlimit="10"/><ellipse cx="15.08" cy="4.04" rx="6.91" ry="2.09" transform="translate(-0.26 6.95) rotate(-25.73)" fill="none" stroke="#000" stroke-miterlimit="10"/><line x1="5.5" y1="16.5" x2="11.5" y2="16.5" fill="none" stroke="#000" stroke-linecap="round" stroke-miterlimit="10"/><line x1="5.5" y1="19.5" x2="11.5" y2="19.5" fill="none" stroke="#000" stroke-linecap="round" stroke-miterlimit="10"/></svg>