<svg xmlns="http://www.w3.org/2000/svg" viewBox="0 0 24 24"><rect x="2.5" y="17.5" width="19" height="3" rx="1.02" fill="none" stroke="#000" stroke-linecap="round" stroke-miterlimit="10"/><path d="M14.5,17.5h0a8.44,8.44,0,0,1-1-4v-.58a10.52,10.52,0,0,1,1.76-6.11A4,4,0,0,0,16,3.87,4,4,0,0,0,8,4.5a4,4,0,0,0,.7,2.26,11.3,11.3,0,0,1,1.8,6.45v.29a8.49,8.49,0,0,1-.94,3.89l-.06.11" fill="none" stroke="#000" stroke-miterlimit="10"/><line x1="4.5" y1="23.5" x2="19.5" y2="23.5" fill="none" stroke="#000" stroke-linecap="round" stroke-miterlimit="10"/><circle cx="12" cy="4" r="1.5" fill="none" stroke="#000" stroke-linecap="round" stroke-miterlimit="10"/></svg>