<svg xmlns="http://www.w3.org/2000/svg" viewBox="0 0 24 24"><path d="M4.5,3.5V1.58A1.09,1.09,0,0,1,5.58.5H18.42A1.09,1.09,0,0,1,19.5,1.58V3.5" fill="none" stroke="#000" stroke-miterlimit="10"/><path d="M23.48,7.5H.56a.05.05,0,0,1-.05-.08L2.23,4A.88.88,0,0,1,3,3.5H21a.88.88,0,0,1,.78.48L23.5,7.47S23.49,7.5,23.48,7.5Z" fill="none" stroke="#000" stroke-miterlimit="10"/><line x1="2.5" y1="23.5" x2="2.5" y2="8" fill="none" stroke="#000" stroke-miterlimit="10"/><line x1="21.5" y1="8" x2="21.5" y2="23.5" fill="none" stroke="#000" stroke-miterlimit="10"/><line y1="23.5" x2="24" y2="23.5" fill="none" stroke="#000" stroke-miterlimit="10"/><path d="M13.5,23V17.76a1.25,1.25,0,0,1,1.26-1.26h2.48a1.25,1.25,0,0,1,1.26,1.26V23" fill="none" stroke="#000" stroke-miterlimit="10"/><path d="M15.5,19a.5.5,0,1,0,.5.5.5.5,0,0,0-.5-.5Z"/></svg>