<svg id="b8260ee6-38ff-40f2-b9dc-70174e06d310" data-name="Layer 1" xmlns="http://www.w3.org/2000/svg" viewBox="0 0 24 24"><path d="M4.5,3.5V1.58A1.09,1.09,0,0,1,5.58.5H18.42A1.09,1.09,0,0,1,19.5,1.58V3.5" transform="translate(0 0)" fill="none" stroke="#000" stroke-miterlimit="10"/><path d="M22.09,7.5H1.91a.87.87,0,0,1-.78-1.26L2.26,4A.88.88,0,0,1,3,3.5H21a.88.88,0,0,1,.78.48l1.13,2.26A.87.87,0,0,1,22.09,7.5Z" transform="translate(0 0)" fill="none" stroke="#000" stroke-miterlimit="10"/><line x1="2.5" y1="23.5" x2="2.5" y2="8" fill="none" stroke="#000" stroke-miterlimit="10"/><line x1="21.5" y1="8" x2="21.5" y2="23.5" fill="none" stroke="#000" stroke-miterlimit="10"/><line y1="23.5" x2="24" y2="23.5" fill="none" stroke="#000" stroke-miterlimit="10"/><path d="M13.5,23V17.76a1.25,1.25,0,0,1,1.26-1.26h2.48a1.25,1.25,0,0,1,1.26,1.26V23" transform="translate(0 0)" fill="none" stroke="#000" stroke-miterlimit="10"/><path d="M15,19.5a.5.5,0,1,0,.5.5.5.5,0,0,0-.5-.5Z" transform="translate(0 0)"/><line x1="6.5" y1="3.5" x2="4.5" y2="7.5" fill="none" stroke="#000" stroke-miterlimit="10"/><line x1="10.5" y1="3.5" x2="9.5" y2="7.5" fill="none" stroke="#000" stroke-miterlimit="10"/><line x1="14.5" y1="3.5" x2="15.5" y2="7.5" fill="none" stroke="#000" stroke-miterlimit="10"/><line x1="18.5" y1="3.5" x2="19.5" y2="7.5" fill="none" stroke="#000" stroke-miterlimit="10"/></svg>