<svg id="a732d60f-e0ba-444c-bdd8-f1cb287f8b70" data-name="Layer 1" xmlns="http://www.w3.org/2000/svg" viewBox="0 0 22 24"><path d="M20,3V19.51a4,4,0,0,1-4,4h0a4,4,0,0,1-4-4V4.5a4,4,0,0,0-4-4H8a4,4,0,0,0-4,4V21" transform="translate(-1 0)" fill="none" stroke="#000" stroke-linecap="round" stroke-miterlimit="10"/><path d="M1.5,21.68l2.11,1.68a.6.6,0,0,0,.78,0L6.5,21.68" transform="translate(-1 0)" fill="none" stroke="#000" stroke-linecap="round" stroke-miterlimit="10"/><path d="M22.5,2.34,20.35.62a.57.57,0,0,0-.7,0L17.5,2.34" transform="translate(-1 0)" fill="none" stroke="#000" stroke-linecap="round" stroke-miterlimit="10"/></svg>