<svg xmlns="http://www.w3.org/2000/svg" viewBox="0 0 24 24"><path d="M22,19.47H2A1.52,1.52,0,0,1,.49,18V16.38A1.5,1.5,0,0,1,1,15.29l2.07-2A1.48,1.48,0,0,0,3.5,12.2v-.53A1.51,1.51,0,0,0,3,10.56L1,8.66A1.51,1.51,0,0,1,.49,7.55V6A1.52,1.52,0,0,1,2,4.47H22A1.52,1.52,0,0,1,23.49,6v1.5A1.55,1.55,0,0,1,23,8.57l-2.07,2a1.55,1.55,0,0,0-.46,1.09v.63a1.48,1.48,0,0,0,.48,1.1l2,1.9a1.51,1.51,0,0,1,.48,1.11V18A1.52,1.52,0,0,1,22,19.47Z" fill="none" stroke="#000" stroke-miterlimit="10"/><circle cx="12" cy="12" r="4.5" fill="none" stroke="#000" stroke-miterlimit="10"/><line x1="13.5" y1="10.5" x2="10.5" y2="13.5" fill="none" stroke="#000" stroke-linecap="round" stroke-miterlimit="10"/><line x1="10.5" y1="10.5" x2="13.5" y2="13.5" fill="none" stroke="#000" stroke-linecap="round" stroke-miterlimit="10"/></svg>