<svg id="a322d7a7-f30e-4bf3-8b34-691a4a9cc68b" data-name="Layer 1" xmlns="http://www.w3.org/2000/svg" viewBox="0 0 24.03 16.05"><path d="M22.16,19.52H1.85A1.37,1.37,0,0,1,.49,18.15V16.33a1.33,1.33,0,0,1,.4-1L3,13.27a1.33,1.33,0,0,0,.4-1V11.6a1.36,1.36,0,0,0-.41-1L.9,8.62a1.36,1.36,0,0,1-.41-1V5.83A1.36,1.36,0,0,1,1.85,4.47H22.16a1.36,1.36,0,0,1,1.36,1.36V7.57a1.33,1.33,0,0,1-.4,1L21,10.63a1.33,1.33,0,0,0-.4,1v.8a1.36,1.36,0,0,0,.41,1l2.06,2a1.35,1.35,0,0,1,.41,1v1.81A1.37,1.37,0,0,1,22.16,19.52Z" transform="translate(0.01 -3.97)" fill="none" stroke="#000" stroke-miterlimit="10"/><circle cx="12.01" cy="8.03" r="4.5" fill="none" stroke="#000" stroke-miterlimit="10"/><path d="M12,12.1h0m.5-2.42h-1v1.44a.21.21,0,0,1-.21.21h-.07l-1.37-.44-.31,1,1.37.45a.21.21,0,0,1,.11.32l-.85,1.17.82.6.84-1.17a.23.23,0,0,1,.18-.09.21.21,0,0,1,.17.09l.85,1.17.82-.6L13,12.61a.21.21,0,0,1,.1-.32l1.37-.45-.31-1-1.37.44h-.06a.21.21,0,0,1-.22-.21V9.68Z" transform="translate(0.01 -3.97)"/></svg>