<svg xmlns="http://www.w3.org/2000/svg" viewBox="0 0 24 24"><path d="M22.5,16.5V20A1.5,1.5,0,0,1,21,21.5H2A1.5,1.5,0,0,1,.5,20V8A1.5,1.5,0,0,1,2,6.5H21A1.5,1.5,0,0,1,22.5,8v3.5" fill="none" stroke="#000" stroke-miterlimit="10"/><path d="M19,11.5h4.5a0,0,0,0,1,0,0v5a0,0,0,0,1,0,0H19A2.5,2.5,0,0,1,16.5,14v0A2.5,2.5,0,0,1,19,11.5Z" fill="none" stroke="#000" stroke-miterlimit="10"/><circle cx="19" cy="14" r="0.5" fill="none" stroke="#000" stroke-miterlimit="10"/><path d="M.5,7.83V5.66A1.49,1.49,0,0,1,1.83,4.18l15-1.67A1.49,1.49,0,0,1,18.5,4V6.83" fill="none" stroke="#000" stroke-miterlimit="10"/><line x1="0.5" y1="9.5" x2="22.5" y2="9.5" fill="none" stroke="#000" stroke-miterlimit="10"/></svg>