<svg id="b0d0b38b-2630-4b3c-b6f0-faaf57be6433" data-name="Layer 1" xmlns="http://www.w3.org/2000/svg" viewBox="0 0 24.03 17.04"><path d="M23.5,8V5.48a2,2,0,0,0-2-2h-19a2,2,0,0,0-2,2v12a2,2,0,0,0,2,2h19a2,2,0,0,0,2-2V15" transform="translate(0.02 -2.97)" fill="none" stroke="#000" stroke-miterlimit="10"/><path d="M18.2,6.53h5.32a0,0,0,0,1,0,0v4a0,0,0,0,1,0,0H18.2a1.68,1.68,0,0,1-1.68-1.68V8.2A1.68,1.68,0,0,1,18.2,6.53Z" fill="none" stroke="#000" stroke-miterlimit="10"/><circle cx="19.02" cy="8.53" r="1"/><line x1="2.52" y1="13.53" x2="2.52" y2="3.53" fill="none" stroke="#000" stroke-linecap="round" stroke-miterlimit="10"/></svg>