<svg xmlns="http://www.w3.org/2000/svg" viewBox="0 0 24 24"><title>emby</title><polygon points="7.06 18.35 1.41 12.71 7.76 6.35 7.06 5.65 0 12.71 6.35 19.06 7.06 18.35"/><polygon points="5.65 7.06 11.29 1.41 17.65 7.76 18.35 7.06 11.29 0 4.94 6.35 5.65 7.06"/><polygon points="16.94 5.65 22.59 11.29 16.23 17.65 16.94 18.35 24 11.29 17.65 4.94 16.94 5.65"/><polygon points="18.35 16.94 12.71 22.59 6.35 16.23 5.65 16.94 12.71 24 19.06 17.65 18.35 16.94"/><polygon points="9.02 8.02 9.02 16.02 16.02 12.08 9.02 8.02"/></svg>