<svg xmlns="http://www.w3.org/2000/svg" viewBox="0 0 24 24"><title>indesign</title><path d="M11.79,15.88H10.36v-.79h0a3.29,3.29,0,0,1-.84.71,2.55,2.55,0,0,1-1.3.3,2.86,2.86,0,0,1-1.06-.21,2.76,2.76,0,0,1-1-.63,3.23,3.23,0,0,1-.7-1,3.93,3.93,0,0,1,0-2.81,3.16,3.16,0,0,1,.67-1,3,3,0,0,1,2.18-.91,2.53,2.53,0,0,1,.7.09,2.44,2.44,0,0,1,.57.24,2.15,2.15,0,0,1,.44.34c.12.12.23.25.33.37h0V9.65h1.43Zm-5.1-3.12a2.79,2.79,0,0,0,.11.76,1.75,1.75,0,0,0,.35.66,1.62,1.62,0,0,0,.59.47,1.78,1.78,0,0,0,.83.18,1.66,1.66,0,0,0,.7-.15,1.87,1.87,0,0,0,.59-.42,2.26,2.26,0,0,0,.4-.63,2,2,0,0,0,.16-.83,2.63,2.63,0,0,0-.14-.86,2.14,2.14,0,0,0-.39-.66,1.77,1.77,0,0,0-.59-.42,1.71,1.71,0,0,0-.71-.15,1.86,1.86,0,0,0-.84.17,1.62,1.62,0,0,0-.59.47,1.83,1.83,0,0,0-.35.66A2.45,2.45,0,0,0,6.69,12.76Z" fill="#fff"/><path d="M18.71,15.88H17.27v-.76h0a2.28,2.28,0,0,1-.87.76,2.39,2.39,0,0,1-1,.21,2.65,2.65,0,0,1-.81-.14,1.93,1.93,0,0,1-.75-.45,2.48,2.48,0,0,1-.54-.85,3.37,3.37,0,0,1-.22-1.32V9.65h1.46v3.52a1.89,1.89,0,0,0,.34,1.22,1.14,1.14,0,0,0,.93.42,1.3,1.3,0,0,0,1.06-.46,2,2,0,0,0,.4-1.37V9.65h1.45Z" fill="#fff"/><path d="M22,2V22H2V2H22m2-2H0V24H24V0Z"/><path d="M6.88,6H8.74V16.44H6.88Z"/><path d="M10.84,8.58h1.51l.14,1.06h0a3.67,3.67,0,0,1,2.58-1.25c1.68,0,2.42,1.14,2.42,3.12v4.93H15.7V11.75c0-1.29-.38-1.78-1.23-1.78a2.48,2.48,0,0,0-1.79,1v5.49H10.84Z"/></svg>