<svg xmlns="http://www.w3.org/2000/svg" viewBox="0 0 24 24"><title>photoshop</title><path d="M4.88,6h3.3c2.33,0,4.05.81,4.05,3.23s-1.73,3.39-4,3.39H6.74v3.85H4.88Zm3.21,5.14c1.56,0,2.31-.62,2.31-1.91S9.58,7.46,8,7.46H6.74v3.65Z"/><path d="M12.69,15.54l.86-1.17a3.5,3.5,0,0,0,2.17.87c.86,0,1.26-.4,1.26-.94s-.85-1-1.69-1.27c-1-.39-2.21-1-2.21-2.29S14.19,8.39,16,8.39a4.22,4.22,0,0,1,2.61.94l-.85,1.13A2.94,2.94,0,0,0,16,9.78c-.79,0-1.16.37-1.16.87s.79.85,1.64,1.17c1.06.4,2.26.91,2.26,2.37s-1.07,2.44-3.06,2.44A5,5,0,0,1,12.69,15.54Z"/><path d="M22,2V22H2V2H22m2-2H0V24H24V0Z"/></svg>