<svg xmlns="http://www.w3.org/2000/svg" viewBox="0 0 24 24"><title>phpstorm</title><rect x="3" y="19" width="12" height="2"/><path d="M3.48,2.62H6.16c1.72,0,3.11.62,3.11,2.52S7.86,7.79,6.21,7.79h-1v2.65H3.48ZM6.1,6.39c1,0,1.44-.44,1.44-1.25S7,4,6.06,4H5.24V6.39Z"/><path d="M10,9.46l1-1.22a3.05,3.05,0,0,0,1.92.82c.73,0,1.1-.29,1.1-.75s-.45-.66-1.13-.94l-1-.43a2.27,2.27,0,0,1-1.57-2.13A2.52,2.52,0,0,1,13.1,2.48a3.64,3.64,0,0,1,2.51,1l-.89,1.12A2.49,2.49,0,0,0,13.1,4c-.61,0-1,.25-1,.7s.51.65,1.2.92l1,.41a2.14,2.14,0,0,1,1.55,2.12c0,1.3-1.08,2.43-2.94,2.43A4.34,4.34,0,0,1,10,9.46Z"/><path d="M23,1V23H1V1H23m1-1H0V24H24V0Z"/></svg>