<svg xmlns="http://www.w3.org/2000/svg" viewBox="0 0 24 24"><title>webstorm</title><rect x="3" y="19" width="12" height="2"/><path d="M2.71,2.62H4.53l.54,3.66c.1.82.21,1.64.32,2.47h0c.16-.83.31-1.66.47-2.47l.84-3.66h1.5l.84,3.66c.16.79.31,1.63.47,2.47h0c.1-.84.21-1.67.31-2.47l.54-3.66h1.69l-1.39,7.82H8.53L7.77,6.89c-.13-.6-.23-1.23-.32-1.81h0c-.1.58-.2,1.21-.32,1.81l-.74,3.55H4.17Z"/><path d="M12.7,9.46l1-1.22a3.05,3.05,0,0,0,1.92.82c.73,0,1.1-.29,1.1-.75s-.45-.66-1.13-.94l-1-.43A2.28,2.28,0,0,1,13,4.81,2.53,2.53,0,0,1,15.8,2.48a3.64,3.64,0,0,1,2.51,1l-.89,1.12A2.49,2.49,0,0,0,15.8,4c-.61,0-1,.25-1,.7s.51.65,1.2.92L17,6a2.14,2.14,0,0,1,1.55,2.12c0,1.3-1.08,2.43-2.94,2.43A4.34,4.34,0,0,1,12.7,9.46Z"/><path d="M23,1V23H1V1H23m1-1H0V24H24V0Z"/></svg>