<svg xmlns="http://www.w3.org/2000/svg" viewBox="0 0 12.61 16"><path d="M12.42 2.57L10.03.17A.59.59 0 009.61 0H0v16h12.62V3a.63.63 0 00-.2-.43zM9.87 1.09l1.66 1.66H9.91zm2 14.15H.77V8h4.69V2.92H.77V.76H9.1v2.12a.64.64 0 00.64.63h2.11zM.93 4.09h.77c.24 1 .37 1.65.42 2 .05-.29.12-.71.44-2h.68c.3 1.29.39 1.67.42 2 0-.27.13-.66.44-1.95h.72l-.76 2.58h-.75c-.22-1-.34-1.53-.4-1.87 0 .33-.18.92-.41 1.87h-.82z"/><path d="M2.07 9.06h2.54v.42H2.07zm3.39 0h.85v.42h-.85zm1.69 0h1.69v.42H7.15zm-5.08 1.69h1.69v.42H2.07zm2.54 0h2.54v.42H4.61zm3.39 0h2.54v.42H8zm1.69-1.69h.85v.42h-.85zM6.31 7.37H8v.42H6.31zm2.54 0h1.69v.42H8.85zm.84-1.7h.85v.42h-.85zm-3.38 0h2.54v.42H6.31zm-4.24 6.77h1.69v.42H2.07zm2.54 0h2.54v.42H4.61zm3.39 0h2.54v.42H8z"/></svg>