<svg id="a6a87ec2-fff8-4d15-b1b9-5db7a0b9d961" data-name="Layer 1" xmlns="http://www.w3.org/2000/svg" viewBox="0 0 16 24"><rect x="0.5" y="0.5" width="15" height="23" rx="1.99" fill="none" stroke="#000" stroke-miterlimit="10"/><path d="M16.11,13l-2.43-1.44-.32-1.27a2.57,2.57,0,1,0-2.7,0l-.31,1.25L7.9,13c-.24.15-.39,1-.39,1.34a.53.53,0,0,0,0,.17h8.93a1,1,0,0,0,0-.17v0C16.51,14,16.36,13.1,16.11,13Z" transform="translate(-4)" fill="none" stroke="#000" stroke-miterlimit="10"/><line x1="5" y1="17.5" x2="11" y2="17.5" fill="none" stroke="#000" stroke-linecap="round" stroke-miterlimit="10"/><line x1="4" y1="19.5" x2="12" y2="19.5" fill="none" stroke="#000" stroke-linecap="round" stroke-miterlimit="10"/><path d="M13.5,1a.5.5,0,0,1,0,1h-3a.5.5,0,0,1,0-1h3m0-1h-3a1.5,1.5,0,0,0,0,3h3a1.5,1.5,0,0,0,0-3Z" transform="translate(-4)"/></svg>