<svg xmlns="http://www.w3.org/2000/svg" viewBox="0 0 22.07 22.07"><path d="M5.2,1.58a.64.64,0,0,1,.43.18L6.89,3a.6.6,0,0,1,0,.86L5.18,5.59a2.06,2.06,0,0,0-.31,2.56,48.05,48.05,0,0,0,4.85,5.63,48.05,48.05,0,0,0,5.63,4.85,2,2,0,0,0,1.07.31,2.14,2.14,0,0,0,1.49-.62l1.71-1.71a.6.6,0,0,1,.43-.18.64.64,0,0,1,.43.18l1.26,1.26a.64.64,0,0,1,.18.43.6.6,0,0,1-.18.43l-2.4,2.4a2.29,2.29,0,0,1-1.67.53c-2.78,0-7.23-2.36-10.35-5.48A22,22,0,0,1,2.58,9.07c-.91-2.3-1-4.14-.21-4.91l2.4-2.4a.6.6,0,0,1,.43-.18m0-1a1.59,1.59,0,0,0-1.14.48L1.66,3.45c-2.34,2.35.66,9.14,5,13.44,3.26,3.26,8,5.77,11.06,5.77a3.3,3.3,0,0,0,2.38-.82l2.39-2.4a1.6,1.6,0,0,0,0-2.27L21.18,15.9a1.61,1.61,0,0,0-2.27,0L17.2,17.61a1.11,1.11,0,0,1-.78.33,1,1,0,0,1-.55-.16,48.49,48.49,0,0,1-5.44-4.71A48.49,48.49,0,0,1,5.72,7.63,1.09,1.09,0,0,1,5.89,6.3L7.6,4.59a1.62,1.62,0,0,0,0-2.27L6.33,1.06A1.57,1.57,0,0,0,5.2.58Z" transform="translate(-0.84 -0.58)"/></svg>