<svg xmlns="http://www.w3.org/2000/svg" viewBox="0 0 18 22"><path d="M3 1v2H1V1h2m.71-1H.29A.29.29 0 000 .29v3.42A.29.29 0 00.29 4h3.42A.29.29 0 004 3.71V.29A.29.29 0 003.71 0zM10 1v2H8V1h2m.71-1H7.29A.29.29 0 007 .29v3.42a.29.29 0 00.29.29h3.42a.29.29 0 00.29-.29V.29a.29.29 0 00-.29-.29zM17 1v2h-2V1h2m.71-1h-3.42a.29.29 0 00-.29.29v3.42a.29.29 0 00.29.29h3.42a.29.29 0 00.29-.29V.29a.29.29 0 00-.29-.29zM3 7v2H1V7h2m.71-1H.29a.29.29 0 00-.29.29v3.42a.29.29 0 00.29.29h3.42A.29.29 0 004 9.71V6.29A.29.29 0 003.71 6zM10 7v2H8V7h2m.71-1H7.29a.29.29 0 00-.29.29v3.42a.29.29 0 00.29.29h3.42a.29.29 0 00.29-.29V6.29a.29.29 0 00-.29-.29zM17 7v2h-2V7h2m.71-1h-3.42a.29.29 0 00-.29.29v3.42a.29.29 0 00.29.29h3.42a.29.29 0 00.29-.29V6.29a.29.29 0 00-.29-.29zM3 13v2H1v-2h2m.71-1H.29a.29.29 0 00-.29.29v3.42a.29.29 0 00.29.29h3.42a.29.29 0 00.29-.29v-3.42a.29.29 0 00-.29-.29zM10 13v2H8v-2h2m.71-1H7.29a.29.29 0 00-.29.29v3.42a.29.29 0 00.29.29h3.42a.29.29 0 00.29-.29v-3.42a.29.29 0 00-.29-.29zM17 13v2h-2v-2h2m.71-1h-3.42a.29.29 0 00-.29.29v3.42a.29.29 0 00.29.29h3.42a.29.29 0 00.29-.29v-3.42a.29.29 0 00-.29-.29z"/><rect x="6" y="18" width="7" height="4" rx="2"/><path d="M1 19h2v2H1zM15 19h2v2h-2z"/></svg>