<svg xmlns="http://www.w3.org/2000/svg" viewBox="0 0 23.67 24"><path d="M16.36,0A7.25,7.25,0,0,0,12,1.66,7.27,7.27,0,0,0,7.64,0,7.46,7.46,0,0,0,1.82,12.15L12,24l2.49-2.9a5.66,5.66,0,0,1-1-.8L12,22.09,2.78,11.36A5.48,5.48,0,0,1,2.1,10.3a6.07,6.07,0,0,1-.69-2.83A6.24,6.24,0,0,1,7.64,1.25a6.55,6.55,0,0,1,4,1.68l.4.33.4-.33a6.55,6.55,0,0,1,4-1.68,6.24,6.24,0,0,1,6.23,6.22,6.07,6.07,0,0,1-.69,2.83l-.07.14a6.35,6.35,0,0,1-.56.86l-.61.7a6.13,6.13,0,0,1,.93.83l.64-.74A7.35,7.35,0,0,0,23,11l.43-1a7.21,7.21,0,0,0,.43-2.49A7.48,7.48,0,0,0,16.36,0Z" transform="translate(-0.17)"/><path d="M17.5,13A3.5,3.5,0,1,1,14,16.5,3.5,3.5,0,0,1,17.5,13m0-1A4.5,4.5,0,1,0,22,16.5,4.49,4.49,0,0,0,17.5,12Z" transform="translate(-0.17)"/><rect x="17" y="12" width="1" height="9" transform="translate(-6.71 17.21) rotate(-45)"/><rect x="13" y="16" width="9" height="1" transform="translate(-6.71 17.21) rotate(-45)"/></svg>