<svg xmlns="http://www.w3.org/2000/svg" viewBox="0 0 23.67 24"><path d="M7.43 18.11l-.7-.71 13.5-15.51.71.71L7.43 18.11z"/><path d="M16.19 0a7.25 7.25 0 00-4.36 1.66A7.27 7.27 0 007.47 0a7.46 7.46 0 00-5.82 12.15L11.83 24l10.23-11.91a7.35 7.35 0 00.77-1.09l.43-1a7.21 7.21 0 00.43-2.49A7.48 7.48 0 0016.19 0zm-4.36 3.26l.4-.33a6.55 6.55 0 014-1.68 6.24 6.24 0 016.23 6.22 6.07 6.07 0 01-.69 2.83l-.07.14a6.35 6.35 0 01-.56.86l-9.31 10.79-9.22-10.73a5.48 5.48 0 01-.68-1.06 6.07 6.07 0 01-.69-2.83 6.24 6.24 0 016.23-6.22 6.55 6.55 0 014 1.68l.4.33z"/><path d="M13.74 1.115l.708-.707 8.485 8.485-.707.707z"/></svg>