<svg xmlns="http://www.w3.org/2000/svg" viewBox="0 0 23 20"><circle cx="21.5" cy="1.5" r="1.5"/><path d="M13.89 1a5.11 5.11 0 014.55 7.43v.08a5.59 5.59 0 01-.47.72L10 18.47 2.12 9.3a5 5 0 01-.53-.82v-.05A5.11 5.11 0 016.11 1a5.42 5.42 0 013.25 1.4l.64.53.64-.53A5.42 5.42 0 0113.89 1m0-1A6.33 6.33 0 0010 1.63 6.33 6.33 0 006.11 0 6.12 6.12 0 000 6.11a6.2 6.2 0 00.67 2.78 5.55 5.55 0 00.66 1L10 20l8.69-10.12a6.05 6.05 0 00.62-1A6.2 6.2 0 0020 6.11 6.12 6.12 0 0013.89 0z"/><path d="M19 3l-6.02 7-4.02-4-2.93 3-4.04-3-.99.5v1.12l.89-.45L5.43 9.8l.71.52.61-.62 2.22-2.28 3.31 3.29.76.76 6.47-7.56L19 3z"/></svg>