<svg xmlns="http://www.w3.org/2000/svg" viewBox="0 0 24 24"><path d="M21,13V23H3V13H21m1-1H2V24H22V12Z" transform="translate(0 0)"/><path d="M23,7v5H1V7H23m1-1H0v7H24V6Z" transform="translate(0 0)"/><polygon points="23 7 1 7 1 8 23 8 23 7 23 7"/><polygon points="12.5 5 11.5 5 11.5 23 12.5 23 12.5 5 12.5 5"/><path d="M6.14,1h0a5.35,5.35,0,0,1,2.61.77,5.31,5.31,0,0,1,2.05,2A1.66,1.66,0,0,1,11,5.35,1.73,1.73,0,0,1,9.37,6a5.37,5.37,0,0,1-2.62-.78,5.28,5.28,0,0,1-2-2,1.68,1.68,0,0,1-.15-1.57A1.77,1.77,0,0,1,6.14,1m0-1A2.71,2.71,0,0,0,3.68,1.15C2.85,2.59,4,4.8,6.25,6.1A6.34,6.34,0,0,0,9.37,7a2.69,2.69,0,0,0,2.45-1.16C12.65,4.42,11.5,2.2,9.25.9A6.42,6.42,0,0,0,6.14,0Z" transform="translate(0 0)"/><path d="M17.74,1h0a1.89,1.89,0,0,1,1.75.72c.42.84-.58,2.53-2.57,3.53a5.93,5.93,0,0,1-2.61.68,1.88,1.88,0,0,1-1.75-.72c-.43-.85.58-2.53,2.56-3.53A6,6,0,0,1,17.74,1m0-1a7.08,7.08,0,0,0-3.07.78c-2.4,1.22-3.75,3.4-3,4.88a2.81,2.81,0,0,0,2.65,1.27,6.92,6.92,0,0,0,3.06-.79c2.41-1.21,3.76-3.39,3-4.87A2.78,2.78,0,0,0,17.74,0Z" transform="translate(0 0)"/></svg>