<svg xmlns="http://www.w3.org/2000/svg" viewBox="0 0 23.67 24"><polygon points="7.43 18.11 6.73 17.4 20.23 1.89 20.94 2.6 7.43 18.11"/><path d="M16.36,0A7.25,7.25,0,0,0,12,1.66,7.27,7.27,0,0,0,7.64,0,7.46,7.46,0,0,0,1.82,12.15L12,24,22.23,12.09A7.35,7.35,0,0,0,23,11l.43-1a7.21,7.21,0,0,0,.43-2.49A7.48,7.48,0,0,0,16.36,0ZM12,3.26l.4-.33a6.55,6.55,0,0,1,4-1.68,6.24,6.24,0,0,1,6.23,6.22,6.07,6.07,0,0,1-.69,2.83l-.07.14a6.35,6.35,0,0,1-.56.86L12,22.09,2.78,11.36A5.48,5.48,0,0,1,2.1,10.3a6.07,6.07,0,0,1-.69-2.83A6.24,6.24,0,0,1,7.64,1.25a6.55,6.55,0,0,1,4,1.68l.4.33Z" transform="translate(-0.17)"/><rect x="18" y="-1" width="1" height="12" transform="translate(1.72 14.55) rotate(-45)"/></svg>