<svg xmlns="http://www.w3.org/2000/svg" viewBox="0 0 24 24"><path d="M12,6a3,3,0,0,1,3,3,3,3,0,0,1-1.43,2.54l-.62.39.18.7.49,2,.1.4.36.22,3.65,2.16a3.37,3.37,0,0,1,.17.61H6.1a3.87,3.87,0,0,1,.16-.57L9.93,15.2l.36-.22.09-.4.49-1.95.18-.7-.62-.39A3,3,0,0,1,9,9a3,3,0,0,1,3-3m0-1a4,4,0,0,0-2.1,7.39l-.49,1.95-3.8,2.32c-.38.22-.61,1.63-.61,2.08a1.19,1.19,0,0,0,0,.26H19a1.19,1.19,0,0,0,.05-.26v0c0-.45-.24-1.86-.62-2.09l-3.79-2.24-.49-2A4,4,0,0,0,12,5Z"/><polygon points="15 1 23 1 23 9 24 9 24 0 15 0 15 1"/><polygon points="1 9 1 1 9 1 9 0 0 0 0 9 1 9"/><polygon points="9 23 1 23 1 15 0 15 0 24 9 24 9 23"/><polygon points="23 15 23 23 15 23 15 24 24 24 24 15 23 15"/></svg>