<svg xmlns="http://www.w3.org/2000/svg" viewBox="0 0 24 24"><path d="M13.47 4.77l.53-.86a1.51 1.51 0 01-.78-.65l-.55.92-9 15.1-.51.86a1.46 1.46 0 01.73.72l.57-.95zM20.09 21H3.91a1.43 1.43 0 010 1h16.18a1.43 1.43 0 010-1z"/><path d="M2.5 20A1.5 1.5 0 111 21.5 1.5 1.5 0 012.5 20m0-1A2.5 2.5 0 105 21.5 2.5 2.5 0 002.5 19zM21.5 20a1.5 1.5 0 11-1.5 1.5 1.5 1.5 0 011.5-1.5m0-1a2.5 2.5 0 102.5 2.5 2.5 2.5 0 00-2.5-2.5zM14.5 1A1.5 1.5 0 1113 2.5 1.5 1.5 0 0114.5 1m0-1A2.5 2.5 0 1017 2.5 2.5 2.5 0 0014.5 0z"/></svg>