<svg xmlns="http://www.w3.org/2000/svg" viewBox="0 0 24 24"><defs><style>.a{fill:none;stroke:#000;stroke-miterlimit:10}</style></defs><path class="a" d="M23.1 13.9l-.6-.2a2.4 2.4 0 01-.2-4.4l.5-.2a.6.6 0 00.3-.9L22 5.8a.6.6 0 00-.8-.3l-.6.3a2.4 2.4 0 01-3.2-3l.2-.5a.8.8 0 00-.4-.9L14.7.5a.7.7 0 00-.8.4l-.2.6a2.4 2.4 0 01-4.4.2l-.2-.5a.6.6 0 00-.9-.3L5.8 2a.6.6 0 00-.3.8l.3.6a2.4 2.4 0 01-3 3.2l-.5-.2a.8.8 0 00-.9.4L.5 9.3a.7.7 0 00.4.8l.6.2a2.4 2.4 0 01.2 4.4l-.5.2a.6.6 0 00-.3.9L2 18.2a.6.6 0 00.8.3l.6-.3a2.4 2.4 0 013.2 3l-.2.5a.8.8 0 00.4.9l2.5.9a.7.7 0 00.8-.4l.2-.6a2.4 2.4 0 014.4-.2l.2.5a.6.6 0 00.9.3l2.4-1.1a.6.6 0 00.3-.8l-.3-.6a2.4 2.4 0 013-3.2l.5.2a.8.8 0 00.9-.4l.9-2.5a.7.7 0 00-.4-.8z"/><circle class="a" cx="12" cy="12" r="5.5"/></svg>