<svg xmlns="http://www.w3.org/2000/svg" viewBox="0 0 24 24"><path d="M4.54 2.85h3.24v1H5.66v1.26h2v1h-2v2.34H4.54zM8.83 2.85H10V5h2.61V2.85h1.15v5.6h-1.17V6H10v2.45H8.83zM16.85 8.45h-1.91v-5.6h1.91a3.31 3.31 0 011.55.35 2.45 2.45 0 011 1 2.83 2.83 0 01.37 1.48 2.83 2.83 0 01-.37 1.48 2.47 2.47 0 01-1 1 3.31 3.31 0 01-1.55.29zm0-4.55h-.69v3.51h.69a2.19 2.19 0 00.9-.18 1.47 1.47 0 00.64-.57 1.82 1.82 0 00.25-1 1.79 1.79 0 00-.25-1 1.41 1.41 0 00-.64-.57 2.19 2.19 0 00-.93-.19z"/><path d="M0 0v12h24V0zm23 11H1V1h22zM12 17.3a.65.65 0 00-.36-.1.69.69 0 00-.37.1.77.77 0 00-.28.26.69.69 0 00-.1.37.68.68 0 00.23.56.76.76 0 00.52.19.78.78 0 00.52-.19.74.74 0 00.22-.56.7.7 0 00-.11-.37.75.75 0 00-.27-.26zM16 15.31a.81.81 0 00-.72.45A2.32 2.32 0 0015 17a2.34 2.34 0 00.27 1.2.81.81 0 00.72.45.83.83 0 00.73-.45A2.45 2.45 0 0017 17a2.43 2.43 0 00-.26-1.2.83.83 0 00-.74-.49zM7.31 15.31a.81.81 0 00-.72.45A2.22 2.22 0 006.31 17a2.24 2.24 0 00.28 1.2.8.8 0 001.44 0A2.34 2.34 0 008.3 17a2.32 2.32 0 00-.3-1.24.81.81 0 00-.69-.45zM11.67 16.41a.57.57 0 00.43-.17.61.61 0 00.18-.45.64.64 0 00-.17-.45.6.6 0 00-.44-.17.58.58 0 00-.62.62.61.61 0 00.18.45.6.6 0 00.44.17zM20.4 16.79a.84.84 0 00-.42.12.88.88 0 00-.35.34 1.15 1.15 0 000 1.1.88.88 0 00.35.34.84.84 0 00.42.12 1 1 0 100-2z"/><path d="M0 12v12h24V12zm4.27 7.41h-1v-3.92l-1.17.3v-.9l2.15-.46zM9 18.3a2 2 0 01-.69.88 1.73 1.73 0 01-1 .31 1.75 1.75 0 01-1-.31 2.13 2.13 0 01-.69-.88 3.37 3.37 0 01-.29-1.3 3.46 3.46 0 01.25-1.35 2.13 2.13 0 01.69-.88 1.82 1.82 0 011-.3 1.79 1.79 0 011 .3 2 2 0 01.69.88A3.46 3.46 0 019.28 17 3.38 3.38 0 019 18.3zm4.13.53a1.61 1.61 0 01-.64.5 2 2 0 01-.86.18 2.08 2.08 0 01-.87-.18 1.65 1.65 0 01-.63-.5 1.23 1.23 0 01-.25-.75 1.17 1.17 0 01.27-.8 1.75 1.75 0 01.64-.47 1.28 1.28 0 01-.52-.43 1.13 1.13 0 01-.21-.69 1.14 1.14 0 01.21-.68 1.33 1.33 0 01.57-.44 1.83 1.83 0 01.79-.16 1.86 1.86 0 01.79.16A1.36 1.36 0 0113 15a1.14 1.14 0 01.21.68 1.19 1.19 0 01-.2.69 1.31 1.31 0 01-.53.43 1.67 1.67 0 01.64.47 1.17 1.17 0 01.26.8 1.28 1.28 0 01-.21.76zm4.58-.53a2 2 0 01-.68.88 1.78 1.78 0 01-1.05.31 1.72 1.72 0 01-1-.31 2.07 2.07 0 01-.7-.88 3.38 3.38 0 01-.23-1.3 3.46 3.46 0 01.24-1.35 2.07 2.07 0 01.7-.88 1.78 1.78 0 011-.3 1.85 1.85 0 011.05.3 2 2 0 01.68.88A3.46 3.46 0 0118 17a3.38 3.38 0 01-.25 1.3zm4.19.42a1.56 1.56 0 01-1.36.77 1.24 1.24 0 01-.64-.16 1.17 1.17 0 01-.45-.46V21h-.77v-4.81h.77v.54a1.17 1.17 0 01.45-.46 1.24 1.24 0 01.64-.16 1.56 1.56 0 011.36.77 1.87 1.87 0 01.21.92 1.89 1.89 0 01-.17.92z"/></svg>