<svg xmlns="http://www.w3.org/2000/svg" viewBox="0 0 24 23.98"><path d="M3 5.65a3 3 0 01.23-1.17A2.79 2.79 0 014.8 3 3 3 0 016 2.74 3 3 0 017.15 3a2.66 2.66 0 01.93.6 2.77 2.77 0 01.62.92 3 3 0 01.22 1.17 3.1 3.1 0 01-.15 1 2.76 2.76 0 01-.42.82l1.13 1.01H8.2l-.47-.45a3.38 3.38 0 01-.81.39A3.19 3.19 0 016 8.6a3.33 3.33 0 01-1.2-.22 3 3 0 01-.94-.62 2.71 2.71 0 01-.62-.93A3.06 3.06 0 013 5.65zm1.22 0a2 2 0 00.24 1 1.74 1.74 0 00.65.67 1.84 1.84 0 00.89.24 1.87 1.87 0 001-.23L5.62 6.05h1.24l.71.67a1.89 1.89 0 00.24-1 2.11 2.11 0 00-.23-1 1.73 1.73 0 00-1.6-1 1.75 1.75 0 00-.92.24 1.69 1.69 0 00-.62.65 2 2 0 00-.22 1.04zM10.05 2.85h1.15V5h2.61V2.85H15v5.6h-1.19V6H11.2v2.45h-1.15zM18.06 8.45h-1.9v-5.6h1.9a3.28 3.28 0 011.55.35 2.47 2.47 0 011 1A2.83 2.83 0 0121 5.65a2.83 2.83 0 01-.37 1.48 2.5 2.5 0 01-1 1 3.28 3.28 0 01-1.57.32zM18 3.9h-.69v3.51H18a2.19 2.19 0 00.9-.18 1.5 1.5 0 00.65-.57 1.91 1.91 0 00.25-1 1.87 1.87 0 00-.25-1 1.43 1.43 0 00-.65-.57 2.19 2.19 0 00-.9-.19z"/><path d="M0 0v12h24V0zm23 11H1V1h22zM0 12v12h24V12zm11.64 8.45H6.56l2.87-3a3.88 3.88 0 00.55-.7 1.26 1.26 0 00.2-.7.93.93 0 00-.24-.62.91.91 0 00-.72-.27.93.93 0 00-.77.35 1.4 1.4 0 00-.28.92H6.89a2.7 2.7 0 01.27-1.22 2 2 0 01.8-.87 2.5 2.5 0 011.3-.34 2.57 2.57 0 011 .18 2.23 2.23 0 01.71.46 1.89 1.89 0 01.42.62 1.7 1.7 0 01.14.69 2 2 0 01-.24.94 3.09 3.09 0 01-.65.8L9 19.24h2.63zm4.64 0l-2.44-2.95v2.93h-1.09v-6.3h1.09v2.62l2.34-2.62h1.27l-2.65 2.95 2.79 3.35z"/></svg>