<svg xmlns="http://www.w3.org/2000/svg" viewBox="0 0 24 23.98"><path d="M3.93 2.85h1.15v3.7a1.12 1.12 0 00.25.76 1 1 0 00.75.29.92.92 0 00.74-.29 1.13 1.13 0 00.26-.76v-3.7h1.15v3.76A2.19 2.19 0 018 7.73a1.75 1.75 0 01-.77.68 2.47 2.47 0 01-1.1.24A2.44 2.44 0 015 8.41a1.75 1.75 0 01-.77-.68 2.19 2.19 0 01-.28-1.12zM9.4 2.85h1.15V5h2.61V2.85h1.15v5.6h-1.15V6h-2.61v2.45H9.4zM17.41 8.45h-1.9v-5.6h1.9A3.31 3.31 0 0119 3.2a2.53 2.53 0 011 1 2.93 2.93 0 01.37 1.48A2.93 2.93 0 0120 7.13a2.56 2.56 0 01-1 1 3.31 3.31 0 01-1.59.32zm0-4.55h-.69v3.51h.69a2.19 2.19 0 00.9-.18 1.55 1.55 0 00.65-.57 1.91 1.91 0 00.24-1 1.87 1.87 0 00-.24-1 1.49 1.49 0 00-.65-.57 2.19 2.19 0 00-.93-.19z"/><path d="M0 0v12h24V0zm23 11H1V1h22zM9.65 18.31v-2.13l-1.49 2.13h1.49z"/><path d="M0 12v12h24V12zm11.86 7.29h-1v1.16H9.52v-1.18H6.38L10 14.13h.89v4h1zm4.58 1.16L14 17.5v2.93h-1.1v-6.3H14v2.62l2.34-2.62h1.28L15 17.08l2.79 3.35z"/></svg>