<svg xmlns="http://www.w3.org/2000/svg" viewBox="0 0 24 24"><path d="M6.68 2.85h1.16V5h2.6V2.85h1.16v5.6h-1.16V6h-2.6v2.45H6.68zM14.7 8.45h-1.9v-5.6h1.9a3.31 3.31 0 011.55.35 2.53 2.53 0 011 1 2.92 2.92 0 01.36 1.48 2.92 2.92 0 01-.36 1.48 2.56 2.56 0 01-1 1 3.31 3.31 0 01-1.55.29zm0-4.55H14v3.51h.69a2.19 2.19 0 00.9-.18 1.55 1.55 0 00.65-.57 1.91 1.91 0 00.24-1 1.87 1.87 0 00-.24-1 1.49 1.49 0 00-.65-.57 2.19 2.19 0 00-.92-.19z"/><path d="M0 0v12h24V0zm23 11H1V1h22zM14.17 15.31a.82.82 0 00-.72.45 2.32 2.32 0 00-.27 1.2 2.34 2.34 0 00.27 1.2.81.81 0 001.45 0 2.34 2.34 0 00.27-1.2 2.32 2.32 0 00-.27-1.2.82.82 0 00-.73-.45zM18.56 16.79a.85.85 0 00-.43.12.88.88 0 00-.35.34 1.15 1.15 0 000 1.1.88.88 0 00.35.34.85.85 0 00.43.12 1 1 0 00.68-.26 1.14 1.14 0 000-1.5 1 1 0 00-.68-.26z"/><path d="M0 12v12h24V12zm5.14 7.41H4.06l2-4H3.67v-.94H7.5zm6.46 0H7.66l2.22-2.32a3.77 3.77 0 00.44-.55 1.06 1.06 0 00.15-.55.72.72 0 00-.19-.48.7.7 0 00-.56-.21.74.74 0 00-.6.27 1.16 1.16 0 00-.22.72h-1a2.11 2.11 0 01.21-.95 1.6 1.6 0 01.62-.67 1.89 1.89 0 011-.25 1.92 1.92 0 011.33.49 1.54 1.54 0 01.32.49 1.26 1.26 0 01.11.53 1.45 1.45 0 01-.19.73 2.48 2.48 0 01-.5.63l-1.26 1.2h2zm4.31-1.11a2 2 0 01-.69.88 1.76 1.76 0 01-1.05.31 1.74 1.74 0 01-1-.31 2 2 0 01-.69-.88 3.21 3.21 0 01-.28-1.3 3.29 3.29 0 01.25-1.35 2 2 0 01.69-.88 1.81 1.81 0 011-.3 1.83 1.83 0 011.05.3 2 2 0 01.69.88 3.46 3.46 0 01.27 1.35 3.38 3.38 0 01-.24 1.3zm4.18.42a1.51 1.51 0 01-.58.57 1.45 1.45 0 01-.77.2 1.28 1.28 0 01-.65-.16 1.32 1.32 0 01-.45-.46V21h-.76v-4.81h.76v.54a1.32 1.32 0 01.45-.46 1.28 1.28 0 01.65-.16 1.45 1.45 0 01.77.2 1.51 1.51 0 01.58.57 1.87 1.87 0 01.22.92 1.9 1.9 0 01-.22.92z"/></svg>