<svg xmlns="http://www.w3.org/2000/svg" viewBox="0 0 23.92 24.33"><path d="M6.11 8.08l-1-2.31H2.02l-1 2.31h-1L3.57 0l3.58 8.08zm-2.54-6L2.4 4.89h2.35zM23.94 22.07a2.16 2.16 0 01-.37 1.26 2 2 0 01-.93.75 3.37 3.37 0 01-1.34.25h-2.09v-7.7h2a2.72 2.72 0 011.66.47 1.7 1.7 0 01.63 1.45 1.53 1.53 0 01-.34 1 1.91 1.91 0 01-.94.58 2.33 2.33 0 011.24.63 1.78 1.78 0 01.48 1.31zm-2.73-4.62h-1.07v2.29h1.05a1.6 1.6 0 001-.29 1.13 1.13 0 000-1.69 1.48 1.48 0 00-1-.31zm-1.07 6.05h1.16a1.81 1.81 0 001.21-.39 1.31 1.31 0 00.43-1.09 1.29 1.29 0 00-.47-1.09 1.86 1.86 0 00-1.21-.37h-1.12zM21.25 3.33h-8.31v1h7.68a.32.32 0 01.32.32v5.68h1V4.02a.69.69 0 00-.69-.69zM4.43 20.16a.32.32 0 01-.32-.32v-5.68h-1v6.3a.7.7 0 00.7.7h8.3v-1z"/><circle cx="3.59" cy="11.88" r=".5"/><circle cx="21.44" cy="12.83" r=".5"/></svg>