<svg xmlns="http://www.w3.org/2000/svg" viewBox="0 0 16 11.64"><path d="M3.01 5.73h2.15l.16-.95H3.16l.17-1.06h2.24l.14-.93H2.54l-.75 4.75h.93l.29-1.81zM7 5.68h1.75l-.3 1.86h.93L10 3.73h2.72a1.29 1.29 0 01.51.1.64.64 0 01.28.22 1.34 1.34 0 01.16.37 1.65 1.65 0 01.06.46 1.81 1.81 0 01-.11.6 2 2 0 01-.31.57 1.29 1.29 0 01-.49.4 1.43 1.43 0 01-.66.16h-.64l.33-2.06h-.93l-.48 3h1.66a2.5 2.5 0 001.13-.25 2.28 2.28 0 00.82-.67 3.3 3.3 0 00.46-.87 3.14 3.14 0 00.15-.94 2.16 2.16 0 00-.47-1.41 1.74 1.74 0 00-1.42-.59H9.21l-.31 2H7.13l.32-2h-.94l-.76 4.72h.94z"/><path d="M0 0v11.64h16V0zm15.64 10.55H.36V.37h15.28z"/></svg>