<svg xmlns="http://www.w3.org/2000/svg" viewBox="0 0 16 5.75"><path d="M2.7 2.29H.76V0H0v5.75h.76V3.04H2.7v2.71h.76V0H2.7v2.29zM3.85 5h.76v.76h-.76zm4.4-3.56A1.54 1.54 0 006.63 0a1.55 1.55 0 00-1.21.53A1.65 1.65 0 005 1.61v.15h.75v-.15a.85.85 0 01.87-.85.79.79 0 01.87.68c0 .59-.67 1.31-1.26 2S5 4.72 5 5.38v.38h3.23V5H5.89a8.43 8.43 0 01.9-1.12 4.17 4.17 0 001.46-2.44zm1.98.84L11.51 0h-.87L8.86 3.16l-.09.17a1.8 1.8 0 00-.14.68 1.75 1.75 0 101.6-1.73zM10.39 5a1 1 0 111-1 1 1 0 01-1 1zm5.14-1.51V0H15l-2.48 3.42v.83h2.26v1.51h.75V4.25H16v-.76zm-.75 0H13.4l1.38-1.93z"/></svg>