<svg xmlns="http://www.w3.org/2000/svg" viewBox="0 0 16 11.91"><path d="M1.63 10.33V8.57h-.27L.83 9.66.3 8.59l-.01-.02H.03v1.76h.26V9.14l.39.78.01.02h.27l.39-.79v1.18h.28zm.51-1.76v1.76h.27v-.69h.36a.55.55 0 00.59-.55.53.53 0 00-.56-.52zm.95.52a.28.28 0 01-.3.29h-.38v-.56h.37a.3.3 0 01.31.27zm1.88-.26v-.26H3.82v1.76h1.15v-.26h-.88v-.52h.78v-.26h-.78v-.46h.88zm1.17-.03a.41.41 0 01.37.23l.21-.17a.62.62 0 00-.59-.31.81.81 0 00-.79.9c0 .8.55.89.78.89a.55.55 0 00.4-.15v.14h.2v-1h-.65v.26h.42v.22c0 .16-.23.25-.36.25-.38 0-.52-.34-.52-.63s.17-.63.53-.63zm1.06.55h.81v.26H7.2zm2.21.98v-.46h.2v-.25h-.2V8.57h-.26l-.79 1v.23h.79v.46zm-.72-.71L9.15 9v.62zm2.75-1.05l-.64 1.71v.05h.29l.14-.42h.68l.15.42h.3l-.64-1.74zm.37 1.09h-.5l.25-.7zm1.13-1.06v-.03h-.3l.63 1.76h.26l.61-1.71.02-.05h-.29l-.47 1.36-.46-1.33zm2.69 1.27a.4.4 0 01-.38.21c-.44 0-.48-.48-.48-.63 0-.31.13-.65.48-.65a.41.41 0 01.38.23l.21-.17a.61.61 0 00-.59-.31c-.37 0-.75.28-.75.9 0 .8.52.89.75.89a.68.68 0 00.59-.28l-.2-.2zM0 6.86h15.85v.72H0zm0 4.32h15.85v.72H0zm.85-8.16h1.94v2.69h.75V0h-.75v2.27H.85V0H.1v5.71h.75V3.02zm3.08 1.95h.75v.75h-.75zm4.35-.02H6a6.61 6.61 0 01.89-1.1A4.16 4.16 0 008.3 1.42 1.53 1.53 0 006.69 0a1.54 1.54 0 00-1.2.52 1.63 1.63 0 00-.41 1.08v.14h.75V1.6a.84.84 0 01.86-.85.79.79 0 01.86.67c0 .59-.66 1.31-1.25 1.94s-1.22 1.33-1.22 2v.38h3.2zm2.14.77a1.732 1.732 0 10-.15-3.46L11.54 0h-.86L8.91 3.14l-.09.16a1.71 1.71 0 00-.13.65 1.74 1.74 0 001.73 1.77zm0-2.72a1 1 0 11-1 1 1 1 0 011-1zm5.12.46V0H15l-2.45 3.39v.82h2.24v1.51h.75V4.21H16v-.75zm-.75 0h-1.37l1.37-1.91z"/></svg>