<svg xmlns="http://www.w3.org/2000/svg" viewBox="0 0 16 5.09"><path d="M0 0h15.99v.73H0zm1.71 3.45V1.63h-.27L.88 2.76.33 1.65l-.01-.02H.05v1.82h.27V2.21l.41.82.01.02h.28l.41-.83v1.23h.28zm.55-1.83v1.83h.27v-.72h.38a.57.57 0 00.61-.57.56.56 0 00-.59-.54zm1 .55a.29.29 0 01-.31.3h-.4v-.58h.39a.3.3 0 01.3.28zm1.94-.28v-.26H4v1.82h1.2v-.26h-.93v-.55h.82v-.26h-.82v-.49h.93zm1.21-.02a.44.44 0 01.39.23l.2-.15a.64.64 0 00-.61-.33.84.84 0 00-.8.92c0 .83.56.92.8.92a.58.58 0 00.41-.15v.14H7v-1h-.7v.26h.44v.23c0 .18-.25.27-.38.27-.4 0-.54-.36-.54-.66s.18-.68.59-.68zm1.11.57h.84v.26h-.84zm2.71 1.01V1.63h-.27v.75h-.84v-.75h-.27v1.82h.27v-.81h.84v.81h.27zm1.44-.24v.24h1.16v-.26H12l.62-.65a.55.55 0 00-.38-1 .56.56 0 00-.57.58H12a.31.31 0 01.29-.32.29.29 0 01.29.3.32.32 0 01-.11.24zm2.17-1.59l-.49.86a.8.8 0 00-.11.38.59.59 0 101.18 0 .57.57 0 00-.58-.62l.37-.64zm0 .88c.27 0 .31.23.31.37a.32.32 0 01-.32.34.31.31 0 01-.31-.35.34.34 0 01.32-.32zm1 .49c0 .27.21.44.54.44a.58.58 0 00.62-.61.56.56 0 00-.55-.61.4.4 0 00-.27.07v-.4h.7v-.26H15l-.12.92h.25a.31.31 0 01.29-.12.33.33 0 01.31.36.34.34 0 01-.35.39c-.13 0-.28-.07-.28-.19zM0 4.36h15.99v.73H0z"/></svg>