<svg xmlns="http://www.w3.org/2000/svg" viewBox="0 0 20 24"><path d="M8 0h4v1.57A1.43 1.43 0 0110.57 3H9.43A1.43 1.43 0 018 1.57V0zM10 5h.15C12.8 5.08 16 7.44 16 10.25V17a2.74 2.74 0 001.58 2.27 5 5 0 001.42.59V21h-5.13a4 4 0 00-7.74 0H1v-1.14a5 5 0 001.42-.59A2.74 2.74 0 004 17v-7a4.58 4.58 0 011.88-3.47A6.73 6.73 0 0110 5m0-1c-3.35 0-7 2.69-7 6v7c0 1.1-1.9 2-3 2v3h7a3 3 0 016 0h7v-3c-1.1 0-3-.9-3-2v-6.75C17 7 13.47 4.1 10.18 4z"/><circle cx="10" cy="22" r="2"/><rect x="9" y="2" width="2" height="3" rx="1"/></svg>