<svg xmlns="http://www.w3.org/2000/svg" viewBox="0 0 23.86 24.01"><path d="M23.87 2.35a12.79 12.79 0 01-4.23 3.75A12.73 12.73 0 0023.71 0a12.79 12.79 0 01-5.77 4.49 4.53 4.53 0 00-5.34.81 4.57 4.57 0 00-1.2 2.21 4.15 4.15 0 00-.12 1 3.73 3.73 0 000 .47 4.44 4.44 0 00.87 2.24h-.52a12.32 12.32 0 01-1.83-.16L9.54 11a12.68 12.68 0 01-6.51-3.2V8c-.09.33-.15.66-.21 1a2.3 2.3 0 000 .26 3.65 3.65 0 002.74 3.52 4 4 0 01-.91.13 3.65 3.65 0 01-1.88-.54v.23a1.49 1.49 0 000 .21v.31a3.62 3.62 0 001.6 2.71 3.85 3.85 0 001.11.5 4.21 4.21 0 01-.62.09h-1a3.67 3.67 0 001.36 2.21 3.6 3.6 0 002.22.77 2.3 2.3 0 00.26 0A15.35 15.35 0 010 22.7c1.66.79 6.05 1.31 8 1.31a12.47 12.47 0 003.64-.54 12.74 12.74 0 006.79-4.93 12.65 12.65 0 002.18-5.47 13.68 13.68 0 00.15-1.82 12.55 12.55 0 00-.46-3.32 12.76 12.76 0 003.57-5.58zm-8.45 5.54a1.08 1.08 0 111.09-1.08 1.08 1.08 0 01-1.09 1.08z"/></svg>