<svg xmlns="http://www.w3.org/2000/svg" viewBox="0 0 12.61 16"><path d="M12.42 2.57L10.03.17A.59.59 0 009.61 0H0v16h12.62V3a.63.63 0 00-.2-.43zM9.87 1.09l1.66 1.66H9.91zm2 14.15H.77V8h4.69V2.92H.77V.76H9.1v2.12a.64.64 0 00.64.63h2.11zM.83 3.65h.94c.32.58.45.8.54 1 .1-.19.29-.52.54-1h.94l-1 1.46 1 1.61h-1c-.28-.52-.45-.86-.54-1h.06l-.54 1H.82l1-1.5z"/><path d="M1.92 8.85v4.23h8.72V8.85zm1.64 3.81H2.31v-1.49h1.25zm0-1.91H2.31V9.27h1.25zm1.63 1.91H3.98v-1.49h1.21zm0-1.91H3.98V9.27h1.21zm1.64 1.91H5.62v-1.49h1.21zm0-1.91H5.62V9.27h1.21zm1.69 1.91H7.25v-1.49h1.27zm0-1.91H7.25V9.27h1.27zm1.69 1.91H8.94v-1.49h1.27zm0-1.91H8.94V9.27h1.27z"/></svg>