<svg xmlns="http://www.w3.org/2000/svg" viewBox="0 0 12.61 16"><path d="M12.42 2.57L10.03.17A.59.59 0 009.61 0H0v16h12.62V3a.63.63 0 00-.2-.43zM9.87 1.09l1.66 1.66H9.91zm2 14.15H.77V8h4.69V2.92H.77V.76H9.1v2.12a.64.64 0 00.64.63h2.11zM1.31 7.56v-3.5h1.4a1.11 1.11 0 011.25 1.09c0 .76-.58 1.11-1.27 1.11h-.67v1.3z"/><path d="M3.19 5.16c0-.36-.26-.49-.58-.49h-.59v1h.58c.35-.02.59-.15.59-.51zM8 8.85a1.69 1.69 0 01-1.69 1.69v2.54a4.23 4.23 0 004.23-4.23zm-3.38 0H2.08A4.23 4.23 0 005.46 13v-2.7a1.68 1.68 0 01-.84-1.45zm1.69-1.7A1.7 1.7 0 017.77 8h2.69a4.24 4.24 0 00-4.15-3.39z"/></svg>