<svg id="af4dcb18-7773-4d6c-bf8e-29197be6cdea" data-name="Layer 1" xmlns="http://www.w3.org/2000/svg" viewBox="0 0 24 14"><circle cx="11" cy="7" r="3.5" fill="none" stroke="#000" stroke-miterlimit="10"/><line x1="8.45" y1="9.55" x2="13.55" y2="4.45" fill="none" stroke="#000" stroke-miterlimit="10"/><path d="M19,18.5H2A1.5,1.5,0,0,1,.5,17V7A1.5,1.5,0,0,1,2,5.5H19A1.5,1.5,0,0,1,20.5,7V9.5h1.88a1.12,1.12,0,0,1,1.12,1.12v2.76a1.12,1.12,0,0,1-1.12,1.12H20.5V17A1.5,1.5,0,0,1,19,18.5Z" transform="translate(0 -5)" fill="none" stroke="#000" stroke-miterlimit="10"/></svg>