<svg id="b16ef451-3e83-4ccf-97bc-494e47762bd0" data-name="Layer 1" xmlns="http://www.w3.org/2000/svg" viewBox="0 0 24 14"><path d="M11.49,8.5,9.84,11.33a.37.37,0,0,0,.37.55l1.58-.26a.36.36,0,0,1,.38.52L10.49,15.5" transform="translate(0 -5)" fill="none" stroke="#000" stroke-linecap="round" stroke-miterlimit="10"/><path d="M19,18.5H2A1.5,1.5,0,0,1,.5,17V7A1.5,1.5,0,0,1,2,5.5H19A1.5,1.5,0,0,1,20.5,7V9.5h1.88a1.12,1.12,0,0,1,1.12,1.12v2.76a1.12,1.12,0,0,1-1.12,1.12H20.5V17A1.5,1.5,0,0,1,19,18.5Z" transform="translate(0 -5)" fill="none" stroke="#000" stroke-miterlimit="10"/></svg>