<svg id="a628b261-7ed4-483d-a299-7e58679343e5" data-name="Layer 1" xmlns="http://www.w3.org/2000/svg" viewBox="0 0 24 14"><line x1="5.5" y1="3.44" x2="5.5" y2="10.53" fill="none" stroke="#000" stroke-linecap="round" stroke-miterlimit="10"/><line x1="10.5" y1="3.44" x2="10.5" y2="10.53" fill="none" stroke="#000" stroke-linecap="round" stroke-miterlimit="10"/><line x1="15.5" y1="3.44" x2="15.5" y2="10.53" fill="none" stroke="#000" stroke-linecap="round" stroke-miterlimit="10"/><path d="M19,18.5H2A1.5,1.5,0,0,1,.5,17V7A1.5,1.5,0,0,1,2,5.5H19A1.5,1.5,0,0,1,20.5,7V9.5h1.88a1.12,1.12,0,0,1,1.12,1.12v2.76a1.12,1.12,0,0,1-1.12,1.12H20.5V17A1.5,1.5,0,0,1,19,18.5Z" transform="translate(0 -5)" fill="none" stroke="#000" stroke-miterlimit="10"/></svg>