<svg xmlns="http://www.w3.org/2000/svg" viewBox="0 0 24 24"><line x1="5.5" y1="8.44" x2="5.5" y2="15.53" fill="none" stroke="#000" stroke-linecap="round" stroke-miterlimit="10"/><line x1="10.5" y1="8.44" x2="10.5" y2="15.53" fill="none" stroke="#000" stroke-linecap="round" stroke-miterlimit="10"/><line x1="15.5" y1="8.44" x2="15.5" y2="15.53" fill="none" stroke="#000" stroke-linecap="round" stroke-miterlimit="10"/><path d="M19,18.5H2A1.5,1.5,0,0,1,.5,17V7A1.5,1.5,0,0,1,2,5.5H19A1.5,1.5,0,0,1,20.5,7V9.5h2a1,1,0,0,1,1,1v3a1,1,0,0,1-1,1h-2V17A1.5,1.5,0,0,1,19,18.5Z" fill="none" stroke="#000" stroke-miterlimit="10"/></svg>