<svg id="b7c1b6d8-a709-480c-bab7-3eac810e39fe" data-name="Layer 1" xmlns="http://www.w3.org/2000/svg" viewBox="0 0 24 20"><circle cx="6.79" cy="13" r="3.13" fill="none" stroke="#000" stroke-miterlimit="10"/><circle cx="17.23" cy="13" r="3.13" fill="none" stroke="#000" stroke-miterlimit="10"/><path d="M17,21.5H14.09l-.61-2H10.56l-.64,2H7A6.5,6.5,0,0,1,.5,15h0A6.5,6.5,0,0,1,7,8.5H17A6.5,6.5,0,0,1,23.5,15h0A6.5,6.5,0,0,1,17,21.5Z" transform="translate(0 -2)" fill="none" stroke="#000" stroke-linecap="round" stroke-linejoin="round"/><path d="M.5,15.5V7.82A5.32,5.32,0,0,1,5.82,2.5H18.18A5.32,5.32,0,0,1,23.5,7.82V15.5" transform="translate(0 -2)" fill="none" stroke="#000" stroke-linecap="round" stroke-linejoin="round"/></svg>