<svg xmlns="http://www.w3.org/2000/svg" viewBox="0 0 24 24"><circle cx="6.79" cy="15" r="3.13" fill="none" stroke="#000" stroke-miterlimit="10"/><circle cx="17.23" cy="15" r="3.13" fill="none" stroke="#000" stroke-miterlimit="10"/><path d="M17,21.5H14.09l-.61-2H10.56l-.64,2H7A6.5,6.5,0,0,1,.5,15h0A6.5,6.5,0,0,1,7,8.5H17A6.5,6.5,0,0,1,23.5,15h0A6.5,6.5,0,0,1,17,21.5Z" fill="none" stroke="#000" stroke-linecap="round" stroke-linejoin="round"/><path d="M.5,15.5V6A3.5,3.5,0,0,1,4,2.5H20A3.5,3.5,0,0,1,23.5,6v9.5" fill="none" stroke="#000" stroke-linecap="round" stroke-linejoin="round"/></svg>