<svg id="b24be784-febc-45f3-91f1-94b9d5200583" data-name="Layer 1" xmlns="http://www.w3.org/2000/svg" viewBox="0 0 24 24"><path d="M9,3a1,1,0,1,0,1,1A1,1,0,0,0,9,3Z"/><path d="M15,3a1,1,0,1,0,1,1,1,1,0,0,0-1-1Z"/><path d="M12,23" fill="none" stroke="#000" stroke-miterlimit="10"/><ellipse cx="11.94" cy="12" rx="8.5" ry="11.5" fill="none" stroke="#000" stroke-miterlimit="10"/><line x1="5.5" y1="19.5" x2="0.5" y2="23.5" fill="none" stroke="#000" stroke-linecap="round" stroke-miterlimit="10"/><line x1="18.5" y1="19.5" x2="23.5" y2="23.5" fill="none" stroke="#000" stroke-linecap="round" stroke-miterlimit="10"/><line x1="19.5" y1="6.5" x2="23.5" y2="2.5" fill="none" stroke="#000" stroke-linecap="round" stroke-miterlimit="10"/><line x1="4.5" y1="6.5" x2="0.5" y2="2.5" fill="none" stroke="#000" stroke-linecap="round" stroke-miterlimit="10"/><line x1="4.5" y1="6.5" x2="19.5" y2="6.5" fill="none" stroke="#000" stroke-miterlimit="10"/><line x1="12" y1="6.5" x2="12" y2="23.5" fill="none" stroke="#000" stroke-miterlimit="10"/></svg>