<svg xmlns="http://www.w3.org/2000/svg" viewBox="0 0 24 24"><line x1="13.5" y1="13.5" x2="13.5" y2="24" fill="none" stroke="#000" stroke-miterlimit="10"/><line x1="20.5" y1="5.5" x2="20.5" y2="24" fill="none" stroke="#000" stroke-miterlimit="10"/><path d="M10.5,9.5h2a2,2,0,0,1,2,2h0a2,2,0,0,1-2,2h-2" fill="none" stroke="#000" stroke-miterlimit="10"/><path d="M5.5,8.5h4a1,1,0,0,1,1,1v4a1,1,0,0,1-1,1h-4a3,3,0,0,1-3-3v0a3,3,0,0,1,3-3Z" fill="none" stroke="#000" stroke-miterlimit="10"/><path d="M12.5.5h4a1,1,0,0,1,1,1v4a1,1,0,0,1-1,1h-4a3,3,0,0,1-3-3v0a3,3,0,0,1,3-3Z" fill="none" stroke="#000" stroke-miterlimit="10"/><path d="M17.5,1.5h2a2,2,0,0,1,2,2h0a2,2,0,0,1-2,2h-2" fill="none" stroke="#000" stroke-miterlimit="10"/></svg>