<svg id="a8f0e10b-77c4-476a-b9b3-27f75dd6dc1e" data-name="Layer 1" xmlns="http://www.w3.org/2000/svg" viewBox="0 0 24.29 24"><line x1="11.1" y1="13.8" x2="11.1" y2="24" fill="none" stroke="#000" stroke-miterlimit="10"/><path d="M3.21,8.2H7.74a1,1,0,0,1,1,1v4.49a1,1,0,0,1-1,1H3.21A2.71,2.71,0,0,1,.5,11.89v-1A2.71,2.71,0,0,1,3.21,8.2Z" fill="none" stroke="#000" stroke-miterlimit="10"/><path d="M11.84,9.4H9.41v4h2.43a1,1,0,0,0,.85-1V10.44A1,1,0,0,0,11.84,9.4Z" transform="translate(0.1 0)" fill="none" stroke="#000" stroke-miterlimit="10"/><line x1="22.1" y1="6" x2="22.1" y2="24" fill="none" stroke="#000" stroke-miterlimit="10"/><path d="M14.21.5h4.53a1,1,0,0,1,1,1V5.94a1,1,0,0,1-1,1H14.21A2.71,2.71,0,0,1,11.5,4.19v-1A2.71,2.71,0,0,1,14.21.5Z" fill="none" stroke="#000" stroke-miterlimit="10"/><path d="M22.84,1.7H20.41v4h2.43a1,1,0,0,0,.85-1V2.74A1,1,0,0,0,22.84,1.7Z" transform="translate(0.1 0)" fill="none" stroke="#000" stroke-miterlimit="10"/></svg>