<svg xmlns="http://www.w3.org/2000/svg" viewBox="0 0 24 24"><path d="M20.67,23.5h-.6a2.81,2.81,0,0,1-2.78-2.21h0a3.1,3.1,0,0,0-3.06-2.43H9.77a3.1,3.1,0,0,0-3.06,2.43h0A2.81,2.81,0,0,1,3.93,23.5h-.6A2.79,2.79,0,0,1,.5,20.76v-8a2.34,2.34,0,0,1,2.38-2.3H8.39A1.8,1.8,0,0,1,9.65,11h0a1.52,1.52,0,0,0,1,.42h2.6a1.5,1.5,0,0,0,1-.42h0a1.8,1.8,0,0,1,1.26-.51h5.51a2.34,2.34,0,0,1,2.38,2.3v8A2.79,2.79,0,0,1,20.67,23.5Z" fill="none" stroke="#000" stroke-miterlimit="10"/><line x1="3.5" y1="15.5" x2="5.5" y2="15.5" fill="none" stroke="#000" stroke-linecap="round" stroke-miterlimit="10"/><line x1="4.5" y1="14.5" x2="4.5" y2="16.5" fill="none" stroke="#000" stroke-linecap="round" stroke-miterlimit="10"/><line x1="18.5" y1="14.5" x2="20.5" y2="16.5" fill="none" stroke="#000" stroke-linecap="round" stroke-miterlimit="10"/><path d="M10,11.3a2.71,2.71,0,0,1,2-.8,2.76,2.76,0,0,1,2,.79" fill="none" stroke="#000" stroke-linecap="round" stroke-miterlimit="10"/><path d="M12.5,10.5c-2.62-3.33-.38-6.67-3-10" fill="none" stroke="#000" stroke-linecap="round" stroke-miterlimit="10"/></svg>