<svg id="a2d0ffca-d789-4413-8d17-b5e4ee8c9932" data-name="Layer 1" xmlns="http://www.w3.org/2000/svg" viewBox="0 0 24 24.01"><path d="M20.67,23.51h-.6a2.83,2.83,0,0,1-2.78-2.21h0a3.1,3.1,0,0,0-3.06-2.44H9.77A3.1,3.1,0,0,0,6.71,21.3h0a2.83,2.83,0,0,1-2.78,2.21h-.6A2.79,2.79,0,0,1,.5,20.76v-8A2.34,2.34,0,0,1,2.88,10.5H8.39A1.8,1.8,0,0,1,9.65,11h0a1.52,1.52,0,0,0,1,.42h2.6a1.5,1.5,0,0,0,1-.42h0a1.8,1.8,0,0,1,1.26-.51h5.51a2.34,2.34,0,0,1,2.38,2.31v8A2.79,2.79,0,0,1,20.67,23.51Z" transform="translate(0)" fill="none" stroke="#000" stroke-miterlimit="10"/><line x1="2.45" y1="15.48" x2="6.59" y2="15.48" fill="none" stroke="#000" stroke-linecap="round" stroke-miterlimit="10"/><line x1="4.52" y1="13.41" x2="4.52" y2="17.55" fill="none" stroke="#000" stroke-linecap="round" stroke-miterlimit="10"/><path d="M11,10h2a0,0,0,0,1,0,0v0a1,1,0,0,1-1,1h0a1,1,0,0,1-1-1v0A0,0,0,0,1,11,10Z" transform="translate(24 21) rotate(180)"/><circle cx="17.5" cy="15.5" r="0.5"/><circle cx="21.5" cy="15.5" r="0.5"/><circle cx="19.5" cy="13.5" r="0.5"/><circle cx="19.5" cy="17.5" r="0.5"/><path d="M13.2,6.58A7,7,0,0,0,13,5.35a5.8,5.8,0,0,1-.14-1.06c0-.56,0-.85,0-1.13s0-.59,0-1.17a1.33,1.33,0,0,1,.28-.88A2.51,2.51,0,0,0,13.54,0h-1a1.48,1.48,0,0,1-.26.57A2.32,2.32,0,0,0,11.85,2c0,.57,0,.85,0,1.13s0,.59,0,1.17a7,7,0,0,0,.16,1.23,5.8,5.8,0,0,1,.14,1.06A2.33,2.33,0,0,0,12.71,8a1.41,1.41,0,0,1,.33.87c0,.33-.14.49-.47.79a1.92,1.92,0,0,0-.78,1.57l1-.05c0-.32.15-.48.47-.79A1.92,1.92,0,0,0,14,8.85a2.36,2.36,0,0,0-.51-1.4A1.41,1.41,0,0,1,13.2,6.58Z" transform="translate(0)"/><line x1="3" y1="9.5" x2="7" y2="9.5" fill="none" stroke="#000" stroke-miterlimit="10"/><line x1="17" y1="9.5" x2="21" y2="9.5" fill="none" stroke="#000" stroke-miterlimit="10"/><line x1="11.5" y1="15.5" x2="12.5" y2="15.5" fill="none" stroke="#000" stroke-linecap="round" stroke-miterlimit="10"/></svg>