<svg xmlns="http://www.w3.org/2000/svg" viewBox="0 0 24 24"><path d="M15.52,9.54h3.92a2,2,0,0,0,2.06-2V3.12A.36.36,0,0,0,21,2.8h0a3.9,3.9,0,0,1-3.43,0L14.77,1.43,13.47.79V7.51A2,2,0,0,0,15.52,9.54Z" fill="none" stroke="#000" stroke-miterlimit="10"/><path d="M8.48,9.54a2,2,0,0,0,2-2V.79l-1.3.64L6.47,2.8a3.88,3.88,0,0,1-3.42,0h0a.36.36,0,0,0-.52.32V7.51a2,2,0,0,0,2.05,2Z" fill="none" stroke="#000" stroke-miterlimit="10"/><path d="M9.77,12.48H2.53a0,0,0,0,0,0,0h0a11.32,11.32,0,0,0,4.31,8.94l2.32,1.81a.87.87,0,0,0,1.4-.72V13.27A.78.78,0,0,0,9.77,12.48Z" fill="none" stroke="#000" stroke-miterlimit="10"/><path d="M13.47,13.24v9.37a.84.84,0,0,0,1.35.69l2.37-1.84a11.32,11.32,0,0,0,4.31-8.94h0a0,0,0,0,0,0,0H14.2A.75.75,0,0,0,13.47,13.24Z" fill="none" stroke="#000" stroke-miterlimit="10"/></svg>