<svg xmlns="http://www.w3.org/2000/svg" viewBox="0 0 24 24"><circle cx="2.5" cy="19.5" r="0.5"/><path d="M4.21,2.48H19.76a2.43,2.43,0,0,1,2.42,2.14l1.29,11.91H.54L1.78,4.63A2.43,2.43,0,0,1,4.21,2.48Z" fill="none" stroke="#000" stroke-miterlimit="10"/><path d="M.5,17h23a0,0,0,0,1,0,0v3.14A1.86,1.86,0,0,1,21.64,22H2.36A1.86,1.86,0,0,1,.5,20.14V17a0,0,0,0,1,0,0Z" fill="none" stroke="#000" stroke-miterlimit="10"/><line x1="19.5" y1="19.5" x2="21.5" y2="19.5" fill="none" stroke="#000" stroke-linecap="round" stroke-miterlimit="10"/></svg>