<svg id="ef2744fa-4d88-4684-8c22-a70a1c44e36b" data-name="Layer 1" xmlns="http://www.w3.org/2000/svg" viewBox="0 0 24.04 20.02"><circle cx="2.52" cy="17.52" r="0.5"/><path d="M4.21,2.48H19.76a2.43,2.43,0,0,1,2.42,2.14l1.29,11.91H.54L1.78,4.63A2.43,2.43,0,0,1,4.21,2.48Z" transform="translate(0.02 -1.98)" fill="none" stroke="#000" stroke-miterlimit="10"/><path d="M23,18v2.14a.87.87,0,0,1-.86.86H1.86A.87.87,0,0,1,1,20.14V18H23m1-1H0v3.14A1.86,1.86,0,0,0,1.86,22H22.14A1.86,1.86,0,0,0,24,20.14V17Z" transform="translate(0.02 -1.98)"/><line x1="19.02" y1="17.52" x2="22.02" y2="17.52" fill="none" stroke="#000" stroke-miterlimit="10"/></svg>