<svg xmlns="http://www.w3.org/2000/svg" viewBox="0 0 24 24"><rect x="0.5" y="14.5" width="23" height="9" rx="1.5" fill="none" stroke="#000" stroke-linecap="round" stroke-miterlimit="10"/><line x1="0.5" y1="20.5" x2="23.5" y2="20.5" fill="none" stroke="#000" stroke-linecap="round" stroke-miterlimit="10"/><path d="M5.5,14.5c-.21-1.06-.4-2-.62-2.95a3.39,3.39,0,0,1,1.4-3.38c4.2-2.6,7.31-4,11.22-7.67" fill="none" stroke="#000" stroke-linecap="round" stroke-miterlimit="10"/><line x1="6.5" y1="20.5" x2="6.5" y2="23.5" fill="none" stroke="#000" stroke-linecap="round" stroke-miterlimit="10"/><line x1="17.5" y1="20.5" x2="17.5" y2="23.5" fill="none" stroke="#000" stroke-linecap="round" stroke-miterlimit="10"/><polyline points="0.5 17.5 20.5 17.5 20.5 20.5" fill="none" stroke="#000" stroke-linecap="round" stroke-miterlimit="10"/><line x1="4.5" y1="17.5" x2="4.5" y2="20.5" fill="none" stroke="#000" stroke-linecap="round" stroke-miterlimit="10"/><line x1="7.5" y1="17.5" x2="7.5" y2="20.5" fill="none" stroke="#000" stroke-linecap="round" stroke-miterlimit="10"/><line x1="10.5" y1="17.5" x2="10.5" y2="20.5" fill="none" stroke="#000" stroke-linecap="round" stroke-miterlimit="10"/><line x1="13.5" y1="17.5" x2="13.5" y2="20.5" fill="none" stroke="#000" stroke-linecap="round" stroke-miterlimit="10"/><line x1="16.5" y1="17.5" x2="16.5" y2="20.5" fill="none" stroke="#000" stroke-linecap="round" stroke-miterlimit="10"/><line x1="3.5" y1="14.5" x2="3.5" y2="17.5" fill="none" stroke="#000" stroke-linecap="round" stroke-miterlimit="10"/><line x1="6.5" y1="14.5" x2="6.5" y2="17.5" fill="none" stroke="#000" stroke-linecap="round" stroke-miterlimit="10"/><line x1="9.5" y1="14.5" x2="9.5" y2="17.5" fill="none" stroke="#000" stroke-linecap="round" stroke-miterlimit="10"/><line x1="12.5" y1="14.5" x2="12.5" y2="17.5" fill="none" stroke="#000" stroke-linecap="round" stroke-miterlimit="10"/><line x1="15.5" y1="14.5" x2="15.5" y2="17.5" fill="none" stroke="#000" stroke-linecap="round" stroke-miterlimit="10"/><line x1="18.5" y1="14.5" x2="18.5" y2="17.5" fill="none" stroke="#000" stroke-linecap="round" stroke-miterlimit="10"/></svg>