<svg xmlns="http://www.w3.org/2000/svg" viewBox="0 0 24 24"><path d="M9.67 15.77l3.33.42a1.06 1.06 0 01.54 1.88l-2.09 1.67a1.07 1.07 0 01-1.58-.28l-1.25-2.09a1.07 1.07 0 011.05-1.6z" fill="none" stroke="#000" stroke-miterlimit="10"/><circle cx="8.5" cy="9.5" r="4" fill="none" stroke="#000" stroke-miterlimit="10"/><circle cx="16" cy="11" r="3.5" fill="none" stroke="#000" stroke-miterlimit="10"/><path fill="none" stroke="#000" stroke-linecap="round" stroke-miterlimit="10" d="M10.5 9.5h0M14.5 10.5h0M22.5 19.5c0 .25 1 3.75 1 4M.5 23.5c0-.19 1-3.81 1-4M2.5 23.5a36.94 36.94 0 00-.41-3.92 52 52 0 01-.53-6.7C1.66 8.73 3.05 4 6.85 1.79A10.28 10.28 0 0112.53.51 10.12 10.12 0 0118 2.31a10.41 10.41 0 013.59 5.13c1.29 3.74.83 7.68.42 11.54a43 43 0 00-.47 4.52"/></svg>