<svg id="b0b9e4e2-2a26-4542-95ca-c545828137aa" data-name="Layer 1" xmlns="http://www.w3.org/2000/svg" viewBox="0 0 24 24"><path d="M12,15a1,1,0,1,0,1,1,1,1,0,0,0-1-1Z" transform="translate(0)"/><rect x="0.5" y="0.5" width="23" height="18" rx="1.61" fill="none" stroke="#000" stroke-miterlimit="10"/><path d="M15.8,18.14l-.26.9a4.55,4.55,0,0,0-.12,1.8l.06.42a4,4,0,0,0,1.08,2.24H7.44a4,4,0,0,0,1.08-2.25l.05-.4A4.3,4.3,0,0,0,8.45,19l-.25-.89" transform="translate(0)" fill="none" stroke="#000" stroke-miterlimit="10"/><circle cx="12" cy="16" r="2.5" fill="none" stroke="#000" stroke-miterlimit="10"/><line x1="0.5" y1="13.5" x2="23.5" y2="13.5" fill="none" stroke="#000" stroke-miterlimit="10"/></svg>