<svg xmlns="http://www.w3.org/2000/svg" viewBox="0 0 24 24"><rect x="0.5" y="2.5" width="23" height="18" rx="1.5" fill="none" stroke="#000" stroke-miterlimit="10"/><line x1="7.5" y1="7.5" x2="7.5" y2="8.5" fill="none" stroke="#000" stroke-linecap="round" stroke-miterlimit="10"/><line x1="16.5" y1="7.5" x2="16.5" y2="8.5" fill="none" stroke="#000" stroke-linecap="round" stroke-miterlimit="10"/><path d="M16.5.5,13.75,4.37A22.15,22.15,0,0,0,11.7,7.81c-.41.85-.77,1.72-1.1,2.6L10,12h4a14.48,14.48,0,0,0-.66,3,14.49,14.49,0,0,0,.33,4.59l.83,3.87" fill="none" stroke="#000" stroke-linecap="round" stroke-miterlimit="10"/><path d="M5.5,15.5l1.61.64a12.88,12.88,0,0,0,1.82.59h0a14,14,0,0,0,6.18.15l.62-.13A14,14,0,0,0,18.2,16l1.3-.52" fill="none" stroke="#000" stroke-linecap="round" stroke-miterlimit="10"/></svg>