<svg xmlns="http://www.w3.org/2000/svg" viewBox="0 0 24 24"><path d="M6.38.49A1.88,1.88,0,0,0,4.51,2.38v8.47A4.75,4.75,0,0,0,8.26,15.5v0a2,2,0,0,0,2,2h3.6a2,2,0,0,0,1.95-2v0a4.75,4.75,0,0,0,3.75-4.65V2.38A1.89,1.89,0,0,0,17.63.49Z" fill="none" stroke="#000" stroke-miterlimit="10"/><rect x="9.5" y="10.5" width="5" height="2" rx="1" fill="none" stroke="#000" stroke-miterlimit="10"/><path d="M13.5,17.5V19a.49.49,0,0,1-.49.49H12A.49.49,0,0,1,11.5,19V17.5" fill="none" stroke="#000" stroke-miterlimit="10"/><path d="M13.5,23.5c-.87-1.33-.13-2.67-1-4" fill="none" stroke="#000" stroke-linecap="round" stroke-miterlimit="10"/></svg>