<svg id="a7b6592f-7307-4f32-8384-5caf16778100" data-name="Layer 1" xmlns="http://www.w3.org/2000/svg" viewBox="0 0 16 24.01"><path d="M6.38.49A1.88,1.88,0,0,0,4.51,2.38v8.47A4.75,4.75,0,0,0,8.26,15.5v0a2,2,0,0,0,2,2h3.6a2,2,0,0,0,1.95-2v0a4.75,4.75,0,0,0,3.75-4.65V2.38A1.89,1.89,0,0,0,17.63.49Z" transform="translate(-4.01 0.01)" fill="none" stroke="#000" stroke-miterlimit="10"/><path d="M6,18h4a0,0,0,0,1,0,0v.78A1.22,1.22,0,0,1,8.77,20H7.22A1.22,1.22,0,0,1,6,18.78V18A0,0,0,0,1,6,18Z"/><rect x="5.49" y="10.51" width="5" height="2" rx="1" fill="none" stroke="#000" stroke-miterlimit="10"/><line x1="7.99" y1="20.01" x2="7.99" y2="24.01" fill="none" stroke="#000" stroke-miterlimit="10"/></svg>