<svg id="ae7fd2c7-48e1-45ee-bfc9-74805a277ce6" data-name="Layer 1" xmlns="http://www.w3.org/2000/svg" viewBox="0 0 12.3 24"><circle cx="8.3" cy="5" r="1"/><path d="M16.15,21h1V6.5A5.63,5.63,0,0,0,17,5.14L14.25,1.65A5.6,5.6,0,0,0,11.65,1,5.45,5.45,0,0,0,7.13,3.37a1.69,1.69,0,0,0-.28,1V8.66a1.69,1.69,0,0,0,.28,1A5.49,5.49,0,0,0,13,11.83a5,5,0,0,0,1.6-.71l1.53-1V21Z" transform="translate(-5.85)" fill="none"/><path d="M17.15,21h-1V17.05a2.54,2.54,0,0,0-1,.46v4a2.46,2.46,0,0,0,3,0v-4a2.54,2.54,0,0,0-1-.46Z" transform="translate(-5.85)"/><path d="M17.89,4.68l-3-3.8A6.49,6.49,0,0,0,6.08,3.15a1.75,1.75,0,0,0-.23.9V9a1.75,1.75,0,0,0,.23.9A6.49,6.49,0,0,0,15.15,12v4.38a3.41,3.41,0,0,1,1-.3V10.14l-1.53,1a5,5,0,0,1-1.6.71,5.49,5.49,0,0,1-5.89-2.2,1.69,1.69,0,0,1-.28-1V4.34a1.69,1.69,0,0,1,.28-1,5.46,5.46,0,0,1,5.73-2.23,3.58,3.58,0,0,1,2,1.31l1.58,2a3.26,3.26,0,0,1,.7,2h0v9.55a3.41,3.41,0,0,1,1,.3V6.5A6.46,6.46,0,0,0,17.89,4.68Z" transform="translate(-5.85)"/><path d="M15.15,22.65v.55a.8.8,0,0,0,.8.8h1.4a.8.8,0,0,0,.8-.8v-.55a3.39,3.39,0,0,1-3,0Z" transform="translate(-5.85)"/><path d="M16.15,16.05a3.41,3.41,0,0,0-1,.3v1.16a2.54,2.54,0,0,1,1-.46Z" transform="translate(-5.85)"/><path d="M17.15,17.05a2.54,2.54,0,0,1,1,.46V16.35a3.41,3.41,0,0,0-1-.3Z" transform="translate(-5.85)"/><line x1="2.15" y1="5.5" x2="4.15" y2="5.5" fill="none" stroke="#000" stroke-miterlimit="10"/><line x1="2.15" y1="7.5" x2="4.15" y2="7.5" fill="none" stroke="#000" stroke-miterlimit="10"/></svg>