<svg id="ab2940a2-152b-46e6-9bfc-78c338555539" data-name="Layer 1" xmlns="http://www.w3.org/2000/svg" viewBox="0 0 24 24"><path d="M.51,14.16V23.5h6.7V20.75H16.8V23.5h6.71V14.16a1.7,1.7,0,0,0-1.74-1.66H2.24A1.69,1.69,0,0,0,.51,14.16Z" transform="translate(-0.01)" fill="none" stroke="#000" stroke-miterlimit="10"/><path d="M3.47,12V7.35A2.1,2.1,0,0,1,5.69,5.41H18.26a2.09,2.09,0,0,1,2.21,1.94V12" transform="translate(-0.01)" fill="none" stroke="#000" stroke-miterlimit="10"/><path d="M7,0V12H17V0Zm8.5,10.5H10v-1h5.5Zm0-2H12v-1h3.5Zm0-4H12v-1h3.5Zm0-2H12.58v-1H15.5Z" transform="translate(-0.01)"/></svg>