<svg xmlns="http://www.w3.org/2000/svg" viewBox="0 0 24 24"><path d="M.51,14.16V23.5h6.7V20.75H16.8V23.5h6.71V14.16a1.7,1.7,0,0,0-1.74-1.66H2.24A1.69,1.69,0,0,0,.51,14.16Z" fill="none" stroke="#000" stroke-miterlimit="10"/><path d="M3.47,12V7.35A2.1,2.1,0,0,1,5.69,5.41H18.26a2.09,2.09,0,0,1,2.21,1.94V12" fill="none" stroke="#000" stroke-miterlimit="10"/><path d="M8.74.5h6.52A1.24,1.24,0,0,1,16.5,1.74V12.5a0,0,0,0,1,0,0h-9a0,0,0,0,1,0,0V1.74A1.24,1.24,0,0,1,8.74.5Z" fill="none" stroke="#000" stroke-miterlimit="10"/><line x1="3.5" y1="15.5" x2="3.5" y2="15.5" fill="none" stroke="#000" stroke-linecap="round" stroke-miterlimit="10"/><line x1="3.5" y1="17.5" x2="3.5" y2="17.5" fill="none" stroke="#000" stroke-linecap="round" stroke-miterlimit="10"/></svg>