<svg xmlns="http://www.w3.org/2000/svg" viewBox="0 0 24 24"><rect x="4.5" y="4.5" width="15" height="15" rx="1.5" fill="none" stroke="#000" stroke-miterlimit="10"/><line x1="7.5" y1="0.5" x2="7.5" y2="1.5" fill="none" stroke="#000" stroke-linecap="round" stroke-miterlimit="10"/><line x1="10.5" y1="0.5" x2="10.5" y2="1.5" fill="none" stroke="#000" stroke-linecap="round" stroke-miterlimit="10"/><line x1="13.5" y1="0.5" x2="13.5" y2="1.5" fill="none" stroke="#000" stroke-linecap="round" stroke-miterlimit="10"/><line x1="16.5" y1="0.5" x2="16.5" y2="1.5" fill="none" stroke="#000" stroke-linecap="round" stroke-miterlimit="10"/><line x1="23.5" y1="7.5" x2="22.5" y2="7.5" fill="none" stroke="#000" stroke-linecap="round" stroke-miterlimit="10"/><line x1="23.5" y1="10.5" x2="22.5" y2="10.5" fill="none" stroke="#000" stroke-linecap="round" stroke-miterlimit="10"/><line x1="23.5" y1="13.5" x2="22.5" y2="13.5" fill="none" stroke="#000" stroke-linecap="round" stroke-miterlimit="10"/><line x1="23.5" y1="16.5" x2="22.5" y2="16.5" fill="none" stroke="#000" stroke-linecap="round" stroke-miterlimit="10"/><line x1="16.5" y1="23.5" x2="16.5" y2="22.5" fill="none" stroke="#000" stroke-linecap="round" stroke-miterlimit="10"/><line x1="13.5" y1="23.5" x2="13.5" y2="22.5" fill="none" stroke="#000" stroke-linecap="round" stroke-miterlimit="10"/><line x1="10.5" y1="23.5" x2="10.5" y2="22.5" fill="none" stroke="#000" stroke-linecap="round" stroke-miterlimit="10"/><line x1="7.5" y1="23.5" x2="7.5" y2="22.5" fill="none" stroke="#000" stroke-linecap="round" stroke-miterlimit="10"/><line x1="1.5" y1="7.5" x2="0.5" y2="7.5" fill="none" stroke="#000" stroke-linecap="round" stroke-miterlimit="10"/><line x1="1.5" y1="10.5" x2="0.5" y2="10.5" fill="none" stroke="#000" stroke-linecap="round" stroke-miterlimit="10"/><line x1="1.5" y1="13.5" x2="0.5" y2="13.5" fill="none" stroke="#000" stroke-linecap="round" stroke-miterlimit="10"/><line x1="1.5" y1="16.5" x2="0.5" y2="16.5" fill="none" stroke="#000" stroke-linecap="round" stroke-miterlimit="10"/><line x1="7.5" y1="16.5" x2="7.5" y2="16.5" fill="none" stroke="#000" stroke-linecap="round" stroke-miterlimit="10"/><line x1="16.5" y1="7.5" x2="16.5" y2="7.5" fill="none" stroke="#000" stroke-linecap="round" stroke-miterlimit="10"/><rect x="9.5" y="9.5" width="5" height="5" rx="0.99" fill="none" stroke="#000" stroke-linecap="round" stroke-miterlimit="10"/></svg>