<svg id="a9258e7a-6575-414a-9c1e-e3445acbff03" data-name="Layer 1" xmlns="http://www.w3.org/2000/svg" viewBox="0 0 24 24"><rect x="5.5" y="5.5" width="13" height="13" rx="2" fill="none" stroke="#000" stroke-miterlimit="10"/><line x1="7.5" x2="7.5" y2="3" fill="none" stroke="#000" stroke-miterlimit="10"/><line x1="10.5" x2="10.5" y2="3" fill="none" stroke="#000" stroke-miterlimit="10"/><line x1="13.5" x2="13.5" y2="3" fill="none" stroke="#000" stroke-miterlimit="10"/><line x1="16.5" x2="16.5" y2="3" fill="none" stroke="#000" stroke-miterlimit="10"/><line x1="24" y1="7.5" x2="21" y2="7.5" fill="none" stroke="#000" stroke-miterlimit="10"/><line x1="24" y1="10.5" x2="21" y2="10.5" fill="none" stroke="#000" stroke-miterlimit="10"/><line x1="24" y1="13.5" x2="21" y2="13.5" fill="none" stroke="#000" stroke-miterlimit="10"/><line x1="24" y1="16.5" x2="21" y2="16.5" fill="none" stroke="#000" stroke-miterlimit="10"/><line x1="16.5" y1="24" x2="16.5" y2="21" fill="none" stroke="#000" stroke-miterlimit="10"/><line x1="13.5" y1="24" x2="13.5" y2="21" fill="none" stroke="#000" stroke-miterlimit="10"/><line x1="10.5" y1="24" x2="10.5" y2="21" fill="none" stroke="#000" stroke-miterlimit="10"/><line x1="7.5" y1="24" x2="7.5" y2="21" fill="none" stroke="#000" stroke-miterlimit="10"/><line x1="3" y1="7.5" y2="7.5" fill="none" stroke="#000" stroke-miterlimit="10"/><line x1="3" y1="10.5" y2="10.5" fill="none" stroke="#000" stroke-miterlimit="10"/><line x1="3" y1="13.5" y2="13.5" fill="none" stroke="#000" stroke-miterlimit="10"/><line x1="3" y1="16.5" y2="16.5" fill="none" stroke="#000" stroke-miterlimit="10"/><path d="M12.49,8.5l-1.65,2.83a.37.37,0,0,0,.37.55l1.58-.26a.36.36,0,0,1,.38.52L11.49,15.5" transform="translate(0 0)" fill="none" stroke="#000" stroke-linecap="round" stroke-miterlimit="10"/></svg>