<svg id="e833e985-6218-4fae-a88f-80d9e73e814d" data-name="Layer 1" xmlns="http://www.w3.org/2000/svg" viewBox="0 0 10 24"><path d="M3.49,7.5h3a2,2,0,0,1,2,2v12a2,2,0,0,1-2,2h-3a2,2,0,0,1-2-2v-12a2,2,0,0,1,2-2Z" fill="none" stroke="#000" stroke-miterlimit="10"/><path d="M12,16a1,1,0,1,1-1,1,1,1,0,0,1,1-1m0-1a2,2,0,1,0,2,2,2,2,0,0,0-2-2Z" transform="translate(-7)"/><path d="M12,6a1,1,0,0,0-1,1V8h2V7a1,1,0,0,0-1-1Z" transform="translate(-7)"/><path d="M7.5,0A.5.5,0,0,0,7,.5a.5.5,0,0,0,1,0A.5.5,0,0,0,7.5,0Z" transform="translate(-7)"/><path d="M8.5,2a.5.5,0,1,0,.5.5A.5.5,0,0,0,8.5,2Z" transform="translate(-7)"/><path d="M9.5,4a.5.5,0,1,0,.5.5A.5.5,0,0,0,9.5,4Z" transform="translate(-7)"/><path d="M16.5,0a.5.5,0,0,0-.5.5.5.5,0,0,0,1,0,.5.5,0,0,0-.5-.5Z" transform="translate(-7)"/><path d="M15.5,2a.5.5,0,1,0,.5.5.5.5,0,0,0-.5-.5Z" transform="translate(-7)"/><path d="M14.5,4a.5.5,0,1,0,.5.5.5.5,0,0,0-.5-.5Z" transform="translate(-7)"/><path d="M12,0a.5.5,0,0,0-.5.5.5.5,0,0,0,1,0A.5.5,0,0,0,12,0Z" transform="translate(-7)"/><path d="M12,2a.5.5,0,1,0,.5.5A.5.5,0,0,0,12,2Z" transform="translate(-7)"/><path d="M12,4a.5.5,0,1,0,.5.5A.5.5,0,0,0,12,4Z" transform="translate(-7)"/><line x1="4.5" y1="20.5" x2="5.5" y2="20.5" fill="none" stroke="#000" stroke-linecap="round" stroke-miterlimit="10"/><line x1="3.5" y1="12.5" x2="6.5" y2="12.5" fill="none" stroke="#000" stroke-linecap="round" stroke-miterlimit="10"/><path d="M10.5,10a.5.5,0,1,0,.5.5.5.5,0,0,0-.5-.5Z" transform="translate(-7)"/><path d="M13.5,10a.5.5,0,1,0,.5.5.5.5,0,0,0-.5-.5Z" transform="translate(-7)"/></svg>