<svg xmlns="http://www.w3.org/2000/svg" viewBox="0 0 24 24"><path d="M7.34,23.56H2.69a1.2,1.2,0,0,1-1-1.82l4.23-7,2.68,2.64v4.95A1.21,1.21,0,0,1,7.34,23.56Z" fill="none" stroke="#000" stroke-miterlimit="10"/><path d="M7.9,16.12a8,8,0,0,0,10.41.81,1.1,1.1,0,0,0,.11-1.65L8.74,5.6a1.1,1.1,0,0,0-1.66.11A8,8,0,0,0,7.9,16.12Z" fill="none" stroke="#000" stroke-miterlimit="10"/><line x1="17.5" y1="6.5" x2="17.5" y2="6.5" fill="none" stroke="#000" stroke-linecap="round" stroke-miterlimit="10"/><line x1="19.5" y1="4.5" x2="19.5" y2="4.5" fill="none" stroke="#000" stroke-linecap="round" stroke-miterlimit="10"/><line x1="21.5" y1="2.5" x2="21.5" y2="2.5" fill="none" stroke="#000" stroke-linecap="round" stroke-miterlimit="10"/><line x1="23.5" y1="0.5" x2="23.5" y2="0.5" fill="none" stroke="#000" stroke-linecap="round" stroke-miterlimit="10"/></svg>