<svg id="ab0f1252-46ae-4536-ac48-6d152997cb62" data-name="Layer 1" xmlns="http://www.w3.org/2000/svg" viewBox="0 0 22.03 24.06"><path d="M7.34,23.56H2.69a1.2,1.2,0,0,1-1-1.82l4.23-7,2.68,2.64v4.95A1.21,1.21,0,0,1,7.34,23.56Z" transform="translate(-0.97)" fill="none" stroke="#000" stroke-miterlimit="10"/><path d="M6.9,15.12a8,8,0,0,0,10.41.81,1.1,1.1,0,0,0,.11-1.65L7.74,4.6a1.1,1.1,0,0,0-1.66.11A8,8,0,0,0,6.9,15.12Z" transform="translate(-0.97)" fill="none" stroke="#000" stroke-miterlimit="10"/><path d="M17,5a1,1,0,1,0,1,1,1,1,0,0,0-1-1Z" transform="translate(-0.97)"/><path d="M19.5,2.5a1,1,0,1,0,1,1,1,1,0,0,0-1-1Z" transform="translate(-0.97)"/><path d="M22,0a1,1,0,1,0,1,1,1,1,0,0,0-1-1Z" transform="translate(-0.97)"/></svg>