<svg xmlns="http://www.w3.org/2000/svg" viewBox="0 0 24 24"><path d="M19,23.5H6A1.5,1.5,0,0,1,4.5,22V2A1.5,1.5,0,0,1,6,.5H16.38a1.48,1.48,0,0,1,1.05.43l2.62,2.59a1.51,1.51,0,0,1,.45,1.07V22A1.5,1.5,0,0,1,19,23.5Z" style="fill:none;stroke:#000;stroke-linecap:round;stroke-miterlimit:10"/><rect x="7.5" y="5.5" width="10" height="15" rx="1.01" style="fill:none;stroke:#000;stroke-linecap:round;stroke-miterlimit:10"/><path d="M10.5,5.5,10.12,7a1,1,0,0,0,.17.86L11.2,9.1a1,1,0,0,0,.81.4h1a1,1,0,0,0,.81-.4l.91-1.21A1,1,0,0,0,14.88,7L14.5,5.5" style="fill:none;stroke:#000;stroke-linecap:round;stroke-miterlimit:10"/><path d="M13.65,16.5h-2.3a1.13,1.13,0,0,1-1.08-.82l-.68-2.37a1.09,1.09,0,0,1,0-.62l.68-2.37a1.13,1.13,0,0,1,1.08-.82h2.3a1.13,1.13,0,0,1,1.08.82l.68,2.37a1.09,1.09,0,0,1,0,.62l-.68,2.37A1.13,1.13,0,0,1,13.65,16.5Z" style="fill:none;stroke:#000;stroke-linecap:round;stroke-miterlimit:10"/><path d="M14.5,20.5,14.89,19a1,1,0,0,0-.17-.84l-.92-1.23A1,1,0,0,0,13,16.5H12a1,1,0,0,0-.79.39l-.92,1.23a1,1,0,0,0-.17.84l.39,1.54" style="fill:none;stroke:#000;stroke-linecap:round;stroke-miterlimit:10"/><line x1="7.5" y1="13" x2="17.5" y2="13" style="fill:none;stroke:#000;stroke-linecap:round;stroke-miterlimit:10"/></svg>