<svg xmlns="http://www.w3.org/2000/svg" viewBox="0 0 24 24"><path d="M19 23.5H6A1.5 1.5 0 014.5 22V2A1.5 1.5 0 016 .5h10.38a1.48 1.48 0 011.05.43l2.62 2.59a1.51 1.51 0 01.45 1.07V22a1.5 1.5 0 01-1.5 1.5z" fill="none" stroke="#000" stroke-linecap="round" stroke-miterlimit="10"/><rect x="7.5" y="5.5" width="10" height="15" rx="1.01" fill="none" stroke="#000" stroke-linecap="round" stroke-miterlimit="10"/><path d="M10.5 5.5L10.12 7a1 1 0 00.17.86l.91 1.24a1 1 0 00.81.4h1a1 1 0 00.81-.4l.91-1.21a1 1 0 00.15-.89l-.38-1.5" fill="none" stroke="#000" stroke-linecap="round" stroke-miterlimit="10"/><path d="M13.65 16.5h-2.3a1.13 1.13 0 01-1.08-.82l-.68-2.37a1.09 1.09 0 010-.62l.68-2.37a1.13 1.13 0 011.08-.82h2.3a1.13 1.13 0 011.08.82l.68 2.37a1.09 1.09 0 010 .62l-.68 2.37a1.13 1.13 0 01-1.08.82zM14.5 20.5l.39-1.5a1 1 0 00-.17-.84l-.92-1.23a1 1 0 00-.8-.43h-1a1 1 0 00-.79.39l-.92 1.23a1 1 0 00-.17.84l.39 1.54M7.5 13h10" fill="none" stroke="#000" stroke-linecap="round" stroke-miterlimit="10"/></svg>