<svg id="e8139711-9036-41bc-9f12-a5e90917c563" data-name="Layer 1" xmlns="http://www.w3.org/2000/svg" viewBox="0 0 14 24"><rect x="5" y="3" width="1" height="1" rx="0.5"/><rect x="8" y="3" width="1" height="1" rx="0.5"/><rect x="5" y="5" width="1" height="1" rx="0.5"/><rect x="8" y="5" width="1" height="1" rx="0.5"/><rect x="5" y="7" width="1" height="1" rx="0.5"/><rect x="8" y="7" width="1" height="1" rx="0.5"/><rect x="5" y="9" width="1" height="1" rx="0.5"/><rect x="8" y="9" width="1" height="1" rx="0.5"/><rect x="5" y="11" width="1" height="1" rx="0.5"/><rect x="8" y="11" width="1" height="1" rx="0.5"/><rect x="5" y="13" width="1" height="1" rx="0.5"/><rect x="8" y="13" width="1" height="1" rx="0.5"/><rect x="3.5" y="0.5" width="7" height="16" rx="3.5" fill="none" stroke="#000" stroke-miterlimit="10"/><line x1="3.5" y1="13.5" y2="13.5" fill="none" stroke="#000" stroke-miterlimit="10"/><line x1="10.5" y1="13.5" x2="14" y2="13.5" fill="none" stroke="#000" stroke-miterlimit="10"/><line x1="7" y1="19" x2="7" y2="24" fill="none" stroke="#000" stroke-miterlimit="10"/><path d="M15.85,13.5H18.5a6,6,0,0,1-6,6h-1a6,6,0,0,1-6-6H8.31" transform="translate(-5)" fill="none" stroke="#000" stroke-miterlimit="10"/></svg>