<svg id="f7f985af-4030-4434-a9f5-92d709888aa2" data-name="Layer 1" xmlns="http://www.w3.org/2000/svg" viewBox="0 0 14.05 24.03"><path d="M15.17,23.51H7A1.52,1.52,0,0,1,5.48,22V2A1.52,1.52,0,0,1,7,.48H17A1.51,1.51,0,0,1,18.53,2V5.4a2.8,2.8,0,0,1-.45,1.54L16.92,8.73a1.59,1.59,0,0,0-.25.85V22A1.52,1.52,0,0,1,15.17,23.51Z" transform="translate(-4.98 0.02)" fill="none" stroke="#000" stroke-miterlimit="10"/><rect x="2.02" y="18.02" width="1" height="5"/><rect x="5.02" y="18.02" width="1" height="5"/><rect x="8.02" y="18.02" width="1" height="5"/><line x1="3.02" y1="2.52" x2="11.02" y2="2.52" fill="none" stroke="#000" stroke-miterlimit="10"/><line x1="0.02" y1="8.52" x2="12.02" y2="8.52" fill="none" stroke="#000" stroke-miterlimit="10"/></svg>