<svg id="bed3255c-ac56-455d-bc36-05fa6a3861a9" data-name="Layer 1" xmlns="http://www.w3.org/2000/svg" viewBox="0 0 16 24"><path d="M15.87,23.49H8.14A1.78,1.78,0,0,1,6.38,21.7v-12a1.82,1.82,0,0,0-.29-1L4.8,6.7a1.85,1.85,0,0,1-.29-1V2.29A1.78,1.78,0,0,1,6.27.49H17.75a1.78,1.78,0,0,1,1.76,1.8V5.7a1.86,1.86,0,0,1-.3,1l-1.28,2a1.83,1.83,0,0,0-.3,1v12A1.77,1.77,0,0,1,15.87,23.49Z" transform="translate(-4.01 0.01)" fill="none" stroke="#000" stroke-miterlimit="10"/><path d="M9.5,17a.5.5,0,1,1-.5.5.5.5,0,0,1,.5-.5m0-1A1.5,1.5,0,1,0,11,17.5,1.5,1.5,0,0,0,9.5,16Z" transform="translate(-4.01 0.01)"/><path d="M14.5,17a.5.5,0,1,1-.5.5.5.5,0,0,1,.5-.5m0-1A1.5,1.5,0,1,0,16,17.5,1.5,1.5,0,0,0,14.5,16Z" transform="translate(-4.01 0.01)"/><line x1="1.99" y1="8.51" x2="13.99" y2="8.5" fill="none" stroke="#000" stroke-miterlimit="10"/><line x1="1.99" y1="2.5" x2="13.99" y2="2.5" fill="none" stroke="#000" stroke-miterlimit="10"/></svg>