<svg xmlns="http://www.w3.org/2000/svg" viewBox="0 0 24 24"><line x1="18" y1="12.5" x2="6" y2="12.5" fill="none" stroke="#000" stroke-miterlimit="10"/><line x1="16.5" y1="20.5" x2="7.5" y2="20.5" fill="none" stroke="#000" stroke-linecap="round" stroke-miterlimit="10"/><path d="M7.74.5h8.52A1.25,1.25,0,0,1,17.5,1.74V12.12a1.2,1.2,0,0,0,.21.69l1.58,2.38a1.2,1.2,0,0,1,.21.69v6.38a1.25,1.25,0,0,1-1.24,1.24H5.74A1.25,1.25,0,0,1,4.5,22.26V15.88a1.2,1.2,0,0,1,.21-.69l1.58-2.38a1.2,1.2,0,0,0,.21-.69V1.74A1.25,1.25,0,0,1,7.74.5Z" fill="none" stroke="#000" stroke-miterlimit="10"/><rect x="13.5" y="4.5" width="1" height="1" transform="translate(28 10) rotate(180)" fill="none" stroke="#000" stroke-miterlimit="10"/><rect x="9.5" y="4.5" width="1" height="1" transform="translate(20 10) rotate(180)" fill="none" stroke="#000" stroke-miterlimit="10"/></svg>