<svg xmlns="http://www.w3.org/2000/svg" viewBox="0 0 24 24"><line x1="8.5" y1="3.5" x2="14.5" y2="3.5" fill="none" stroke="#000" stroke-linecap="round" stroke-miterlimit="10"/><line x1="5" y1="7.5" x2="16" y2="7.5" fill="none" stroke="#000" stroke-miterlimit="10"/><line x1="7.5" y1="20.5" x2="7.5" y2="23.5" fill="none" stroke="#000" stroke-linecap="round" stroke-miterlimit="10"/><line x1="10.5" y1="20.5" x2="10.5" y2="23.5" fill="none" stroke="#000" stroke-linecap="round" stroke-miterlimit="10"/><line x1="13.5" y1="20.5" x2="13.5" y2="23.5" fill="none" stroke="#000" stroke-linecap="round" stroke-miterlimit="10"/><path d="M14.26,23.5H6.74A1.23,1.23,0,0,1,5.5,22.26V1.74A1.23,1.23,0,0,1,6.74.5h9.52A1.23,1.23,0,0,1,17.5,1.74V5a1.23,1.23,0,0,1-.36.87L15.86,7.14A1.23,1.23,0,0,0,15.5,8V22.26A1.23,1.23,0,0,1,14.26,23.5Z" fill="none" stroke="#000" stroke-miterlimit="10"/></svg>