<svg xmlns="http://www.w3.org/2000/svg" viewBox="0 0 24 24"><path d="M22.59,4.68a11.76,11.76,0,0,1-3.93,3.26l0,0a11.06,11.06,0,0,0,3.82-5.26,11.83,11.83,0,0,1-5.37,3.89h0a4.44,4.44,0,0,0-1.94-.46,4.37,4.37,0,0,0-3,1.18A3.83,3.83,0,0,0,11,9.16a3.58,3.58,0,0,0-.11.87,2.85,2.85,0,0,0,0,.41,3.76,3.76,0,0,0,.81,2l-.48,0a13.45,13.45,0,0,1-1.7-.13l-.27-.06A12.07,12.07,0,0,1,3.19,9.44h0a.29.29,0,0,0,0,.09v0a11,11,0,0,0-.22,1.1A3.22,3.22,0,0,0,5.48,13.7a4,4,0,0,1-.85.11,3.55,3.55,0,0,1-1.75-.47c0,.07,0,.66,0,.66a3.13,3.13,0,0,0,1.49,2.35,3.56,3.56,0,0,0,1,.43,3.85,3.85,0,0,1-.58.08l-1,0a3.16,3.16,0,0,0,1.27,1.92,8.23,8.23,0,0,0,2.33.67,14.64,14.64,0,0,1-6.9,2.91c-.05,0-.07.08,0,.1A27.58,27.58,0,0,0,7.82,23.5a12.63,12.63,0,0,0,3.4-.47,11.86,11.86,0,0,0,6.32-4.28,10.78,10.78,0,0,0,2.17-6.34,10.1,10.1,0,0,0-.42-2.86.06.06,0,0,1,0-.05A11,11,0,0,0,22.59,4.68ZM14.72,9.61a1,1,0,1,1,1-1A1,1,0,0,1,14.72,9.61Z" fill="none" stroke="#000" stroke-miterlimit="10"/></svg>