<svg xmlns="http://www.w3.org/2000/svg" viewBox="0 0 16 13.71"><path d="M12.57 0a3.44 3.44 0 00-3.43 3.43 6 6 0 00.83 3l.51 5.68a1.92 1.92 0 001.89 1.63h1.29a1.58 1.58 0 001.58-1.58V6.32A6.08 6.08 0 0016 3.43 3.44 3.44 0 0012.57 0zm0 .76a2.66 2.66 0 012.18 1.15h-4.36A2.66 2.66 0 0112.57.76zm.76 1.91v3.05h-1.52V2.67zm-3.43.76a2.69 2.69 0 01.1-.76h1v3.05h-.61a5.88 5.88 0 01-.49-2.29zm3.76 9.53h-1.29a1.15 1.15 0 01-1.13-1l-.5-5.52h3.74v5.66a.82.82 0 01-.82.86zm1.06-7.24h-.62V2.67h1a2.38 2.38 0 01.13.76 6 6 0 01-.51 2.29zM3.43 0A3.44 3.44 0 000 3.43a6.08 6.08 0 00.76 2.89v5.82a1.58 1.58 0 001.58 1.58h1.29a1.92 1.92 0 001.89-1.65L6 6.41a6 6 0 00.83-3A3.44 3.44 0 003.43 0zm0 .76a2.66 2.66 0 012.18 1.15H1.25A2.66 2.66 0 013.43.76zm.76 1.91v3.05H2.67V2.67zm-3.3 0h1v3.05h-.61a6 6 0 01-.52-2.29 2.38 2.38 0 01.13-.76zm3.87 9.31a1.15 1.15 0 01-1.13 1H2.34a.82.82 0 01-.82-.82V6.48h3.74zm.8-6.26H5V2.67h1a2.69 2.69 0 01.13.76 5.88 5.88 0 01-.57 2.29z"/></svg>