<svg xmlns="http://www.w3.org/2000/svg" viewBox="0 0 16 16"><path d="M15.64 7.27h-1a.52.52 0 01-.54-.45.51.51 0 01.34-.62l.91-.37.34-.13-.14-.34-.27-.67-.14-.34-.33.13-.61.25a.92.92 0 01-.28 0 .71.71 0 01-.64-.45.67.67 0 01.16-.75l.46-.47.26-.25-.26-.26-.51-.51-.26-.26-.25.26-.62.61a.52.52 0 01-.39.17.6.6 0 01-.5-.27.55.55 0 010-.53l.35-.8.14-.33-.37-.1-.66-.28-.34-.15-.14.34-.27.63a.67.67 0 01-.64.43.69.69 0 01-.71-.71V0H7.27v1.14a.6.6 0 01-1.15.23L5.83.64 5.7.3l-.34.14-.67.27-.34.14.13.33.25.61a.67.67 0 01-.06.64.76.76 0 01-.61.33.66.66 0 01-.48-.21l-.47-.46-.25-.26-.26.26-.51.51-.26.26.26.25.67.67a.55.55 0 01.12.6.56.56 0 01-.5.36.69.69 0 01-.24 0l-.87-.38-.33-.19-.15.34-.28.66-.15.34.34.14.63.27a.7.7 0 01-.28 1.35H0v1.46h1.35a.52.52 0 01.54.45.51.51 0 01-.34.62l-.91.37-.34.13.14.34.27.67.14.34.33-.13.61-.25a.92.92 0 01.28 0 .71.71 0 01.64.45.67.67 0 01-.16.75l-.46.47-.26.25.26.26.51.51.26.26.25-.26.64-.64a.57.57 0 01.39-.17.64.64 0 01.5.27.55.55 0 010 .53l-.36.83-.14.33.34.15.66.28.34.15.14-.34.27-.63a.67.67 0 01.64-.43.69.69 0 01.71.71v1h1.49v-1.25a.58.58 0 011.11-.22l.33.83.13.34.34-.14.67-.27.34-.14-.13-.33-.25-.61a.67.67 0 01.06-.64.76.76 0 01.61-.33.66.66 0 01.48.21l.47.46.25.26.26-.26.51-.51.26-.26-.26-.25-.74-.75a.5.5 0 01-.12-.57.54.54 0 01.48-.35.64.64 0 01.23 0l1 .42.33.14.15-.34.28-.66.15-.34-.34-.14-.63-.27a.7.7 0 01.3-1.3h1V7.27zm0 1.09H15a1.07 1.07 0 00-.43 2.05l.64.27-.29.67-1-.42a1 1 0 00-.37-.07.9.9 0 00-.62 1.54l.75.74-.52.52-.46-.46a1 1 0 00-.74-.32 1.06 1.06 0 00-1 1.47l.24.6-.68.27-.33-.82a.9.9 0 00-.86-.59.93.93 0 00-1 .94v.89h-.69V15a1.05 1.05 0 00-1.08-1.07 1 1 0 00-1 .64l-.27.64-.67-.29L5 14a.93.93 0 00-.87-1.3.87.87 0 00-.63.3l-.64.64-.52-.52.46-.46a1.07 1.07 0 00-.73-1.83 1.1 1.1 0 00-.42.09l-.6.24-.27-.66.91-.36a.92.92 0 00-.34-1.78h-1v-.72h.69a1.07 1.07 0 00.43-2l-.63-.32.29-.67L2 5a.9.9 0 00.38.08A.92.92 0 003 3.53l-.67-.67.52-.52.46.46a1 1 0 00.74.32 1.06 1.06 0 001-1.47l-.24-.6.69-.27.29.72a.91.91 0 00.88.6 1 1 0 001-1V.36h.72v.69a1.05 1.05 0 001.05 1.07 1 1 0 001-.64l.27-.64.67.29-.34.8a.94.94 0 00.87 1.31 1 1 0 00.62-.24l.61-.62.52.52-.46.46a1.07 1.07 0 00.73 1.83 1.1 1.1 0 00.42-.09l.6-.24.27.68-.91.36a.92.92 0 00.34 1.78h1z"/><path d="M8 4.36A3.64 3.64 0 1011.64 8 3.64 3.64 0 008 4.36zm0 6.79A3.15 3.15 0 1111.15 8 3.15 3.15 0 018 11.15z"/></svg>