<svg xmlns="http://www.w3.org/2000/svg" viewBox="0 0 24 24"><path d="M14 1v.57c0 1.17 0 1.66.73 1.85a10.14 10.14 0 011.43.6l.65.34.52-.52 1-1 2.83 2.83-.41.4c-.79.79-1.2 1.2-.78 1.85a9.39 9.39 0 01.59 1.41l.22.7H23v4h-.57c-1.17 0-1.66 0-1.85.73a10.14 10.14 0 01-.6 1.43l-.34.65.52.52 1 1-2.83 2.83-.4-.41c-.58-.57-.95-.94-1.36-.94a.89.89 0 00-.49.16 9.39 9.39 0 01-1.41.59l-.7.22V23H10v-.57c0-1.17 0-1.66-.73-1.85A10.14 10.14 0 017.84 20l-.65-.34-.52.52-1 1-2.86-2.82.41-.4c.79-.79 1.2-1.2.78-1.85a9.39 9.39 0 01-.59-1.41l-.22-.7H1v-4h.57c1.17 0 1.66 0 1.85-.73A10.14 10.14 0 014 7.84l.34-.65-.52-.52-1-1 2.82-2.86 1 1 .52.52.68-.33a10.55 10.55 0 011.46-.59l.7-.22V1h4m.46-1H9v2.46a10.47 10.47 0 00-1.62.68L6.12 1.88a.75.75 0 00-.52-.25.49.49 0 00-.35.15L1.39 5.64l1.75 1.74A10.47 10.47 0 002.46 9H.69C.24 9 0 9.24 0 9.54V15h2.46a10.47 10.47 0 00.68 1.62l-1.26 1.26c-.32.31-.32.66-.1.87l3.86 3.86 1.74-1.75a10.47 10.47 0 001.62.68v1.77c0 .45.24.69.54.69H15v-2.46a10.47 10.47 0 001.62-.68l1.26 1.26a.75.75 0 00.52.25.49.49 0 00.35-.15l3.86-3.86-1.75-1.74a10.47 10.47 0 00.68-1.62h1.77c.45 0 .69-.24.69-.54V9h-2.46a10.47 10.47 0 00-.68-1.62l1.26-1.26c.32-.31.32-.66.1-.87l-3.86-3.86-1.74 1.75A10.47 10.47 0 0015 2.46V.69c0-.45-.24-.69-.54-.69z"/><path d="M12 7a5 5 0 11-5 5 5 5 0 015-5m0-1a6 6 0 106 6 6 6 0 00-6-6z"/></svg>