<svg xmlns="http://www.w3.org/2000/svg" viewBox="0 0 24 24"><path d="M18.37 10.23l-.95.26-.16-.07-.1-.14v-.26l-.4-.4a.72.72 0 01-.24-.1L16 8.76l-.09-.61-.29-.34s0-.16-.07-.21l-.66-1.38a1.58 1.58 0 00-.22-.22l-.76-.12-.85-.17s-.07-.13-.12-.16a.38.38 0 00-.21 0l-.31.26v.31a.28.28 0 01-.16.12l-.5-.24-.76-.49a.61.61 0 01-.19 0 .41.41 0 01-.16-.16v-.67a2 2 0 00-.12-.19h-.36L9 4.59l-.55.09-.45.26h-.48l-.68.47-.55.34.1.45-.86.92-.33.71-.1.74v.45c0 .08.06.26 0 .33s-.1.04-.1.08l.09.83.46.4.21.28a3.29 3.29 0 00.33.41l.64.4a.91.91 0 00.33 0c.05 0 .12-.1.17-.12l.52-.05h.57c.08 0 .25-.06.33-.1s.19-.11.26-.14a.79.79 0 01.22-.05.77.77 0 01.19.08l.35.4h.45a.55.55 0 01.19.12.54.54 0 01.1.16c0 .1-.11.28-.12.38l.09.62.22.28a3.87 3.87 0 01.21.34l.26.49-.07.34.16.38a.31.31 0 010 .19l-.4.73a1.73 1.73 0 000 .45.85.85 0 00.08.24c0 .08.16.21.21.29l.31.56v.69l.15.5.47.66.83.74.5.07.57-.19.38-.33.28-.33.24-.43.28-.55a.74.74 0 010-.21.34.34 0 01.12-.12h.21l.24-.33a.49.49 0 000-.24c0-.08-.13-.21-.14-.28a1 1 0 010-.29.72.72 0 01.12-.21l.74-.36a.7.7 0 00.16-.14 1.92 1.92 0 00.12-.43v-.73a2.16 2.16 0 01-.16-.22 1.68 1.68 0 01-.15-.3v-.74l.23-.43a1.94 1.94 0 01.24-.16l1-1 .54-.71.38-.62v-.33zM18.45 15.12l-.82.71-.33.22-.07.14v.16l.16.31-.09.26-.16.08.06.72.29.27h.14l.39-.31v-.43l.15-.19.09-.47.19-.57.13-.6-.13-.3z"/><path d="M12 0a12 12 0 1012 12A12 12 0 0012 0zm0 23a11 11 0 1111-11 11 11 0 01-11 11z"/></svg>