<svg xmlns="http://www.w3.org/2000/svg" viewBox="0 0 16 16"><path d="M12.53 7.5h-.25l-.21.07h-.11l-.06-.09v-.16l-.1-.12-.17-.14S11.5 7 11.48 7l-.13-.12-.19-.37s0-.09-.05-.12a.48.48 0 010-.12.88.88 0 000-.16l-.18-.21v-.14a.69.69 0 010-.13s-.05-.1-.06-.13l-.09-.15a.91.91 0 01-.09-.17 1.08 1.08 0 01-.22-.18v-.12a1 1 0 00-.14-.15l-.23-.05s-.08.05-.11.05-.11-.07-.15-.08l-.27-.05h-.15a.45.45 0 01-.16 0s0-.09-.07-.1a.24.24 0 00-.14 0 .25.25 0 00-.09 0 .6.6 0 00-.11.12v.2a.15.15 0 01-.11.08l-.32-.14h-.1s-.05-.11-.08-.14l-.34-.2h-.12a.22.22 0 01-.1-.11v-.42a.57.57 0 00-.08-.13h-.23a.25.25 0 01-.12 0h-.76a.59.59 0 00-.19.05L6.23 4a.52.52 0 01-.16 0L6 4.05h-.31l-.29.17a.2.2 0 01-.07.06l-.08.07-.18.11L5 4.5s-.08 0-.09.06a.33.33 0 000 .17s.06.08.06.12 0 .07-.06.09l-.12.14s-.08.08-.11.09l-.15.12a.42.42 0 01-.11.15l-.22.46-.06.47v.51l-.1.06v.37a.77.77 0 00.07.16s.06.06.09.08.08 0 .1.08l.1.1.13.19a1.71 1.71 0 00.22.25 1.53 1.53 0 00.27.17s.1.08.14.09a.37.37 0 00.21 0l.11-.07h.33s.11.1.16.1.15-.09.21-.12l.21-.06.17-.09h.26a2.31 2.31 0 01.18.17.31.31 0 00.09.07.54.54 0 00.18 0h.11a.25.25 0 01.12.08.24.24 0 01.06.11c0 .06-.06.18-.07.24a.48.48 0 000 .12s-.06.12-.05.16.08.09.11.12l.14.18a1.59 1.59 0 01.13.22L8 10a.29.29 0 010 .13v.23c0 .03 0 .08.06.11a.24.24 0 010 .12s-.07.08-.09.11l-.09.18c0 .05-.07.14-.08.18a1.43 1.43 0 000 .29 1 1 0 000 .16 2.2 2.2 0 00.14.18l.15.27v.1a1.2 1.2 0 010 .19v.25l.05.18a.78.78 0 000 .14l.18.26s.1.12.12.17l.53.47.33.05h.07l.11-.05a.64.64 0 00.18-.06 1.27 1.27 0 00.12-.1l.13-.11.07-.09.11-.12a1.3 1.3 0 01.08-.17.41.41 0 01.07-.11l.18-.35a.66.66 0 010-.14.27.27 0 01.08-.07h.14a.31.31 0 00.07-.09.42.42 0 00.08-.12.43.43 0 000-.16c0-.05-.08-.13-.09-.18a.55.55 0 010-.18.64.64 0 01.08-.14s.12 0 .15-.06.11-.09.16-.11l.16-.06a.48.48 0 00.11-.09 1.2 1.2 0 00.08-.27v-.54l-.11-.13a1.76 1.76 0 01-.09-.2 1 1 0 010-.17.59.59 0 010-.14.5.5 0 010-.17s.07-.07.09-.1 0-.14.06-.17a.77.77 0 01.15-.11l.13-.13.1-.11.26-.19.15-.18.17-.12.09-.11.1-.23.1-.18.14-.21v-.22l-.2-.07zm.1 3.1l-.05.1-.1.14-.13.13-.15.09-.12.06-.09.08-.04.09v.1l.07.14.03.07-.04.07-.02.09-.1.05v.2l.04.11v.16l.12.1.06.07h.09l.1-.1h.08l.08-.1v-.28l.09-.12v-.2l.06-.1.07-.04v-.27l.05-.06.04-.23.04-.16-.08-.19h-.1z"/><path d="M13.48 5.74l-.08.04-.07-.01-.02-.1-.06-.09-.07-.05-.07.1-.08.08-.09.04h-.12l-.05-.07-.08-.09-.09-.07-.07-.14-.1-.11-.03-.09.01-.1.11-.03.08.04-.08-.92-.02-.08.04-.11.01-.1v-.09l-.02-.1-.07-.05-.06.08-.09-.03-.05-.05-.06.05-.13.02-.12.01-.13-.08-.1.1-.17.03-.18-.01-.07-.04-.1-.08h-.27l-.09.07-.07.1h-.53v.08l.06.09v.11l.07.08.12.09h.25l.08.06.09.07.09-.05.06-.08.14.06.01.1-.01.13-.05.13-.03.1v.35l.06.24.07.09.05.09.08.13.06.07.06.1.07.08v.09l.07.13.06.07.04.11.08.07.07.11.06.14v.16l.06.06h.12l.12-.06h.11l.18-.07.15-.06.17-.09.05-.13h.26l.15-.13.07-.07.06-.11.1-.13v-.09l-.07-.19z"/><path d="M8 0a8 8 0 108 8 8 8 0 00-8-8zm0 15.27A7.27 7.27 0 1115.27 8 7.26 7.26 0 018 15.27z"/></svg>