<svg xmlns="http://www.w3.org/2000/svg" viewBox="0 0 16 16"><path d="M16 8.38v-.76h-.78a5.82 5.82 0 00-.08-.73l.77-.16-.16-.73-.75.15c-.06-.22-.12-.43-.2-.64l.72-.31-.3-.7-.72.31a5.29 5.29 0 00-.29-.52l.65-.44-.42-.63-.65.43a6.26 6.26 0 00-.41-.49l.56-.55-.54-.54-.55.56c-.14-.13-.28-.24-.42-.35l.44-.64-.62-.44-.45.64c-.2-.12-.4-.23-.62-.34l.31-.71-.7-.3-.31.71a5.79 5.79 0 00-.64-.2L10 .25 9.26.09 9.1.85c-.24 0-.48-.06-.72-.07V0h-.76v.78a5.82 5.82 0 00-.73.08L6.73.09 6 .25l.15.75c-.22.06-.43.12-.64.2L5.2.49l-.7.3.31.72a5.29 5.29 0 00-.52.29l-.44-.65-.63.42.43.65a6.26 6.26 0 00-.49.41l-.55-.56-.54.54.56.55a6.4 6.4 0 00-.41.5l-.65-.44-.42.64.64.43c-.1.17-.2.35-.29.54l-.71-.31-.3.7.71.31a5.79 5.79 0 00-.2.63L.25 6l-.16.74.76.16c0 .24-.06.48-.07.72H0v.76h.78a5.82 5.82 0 00.08.73l-.77.16.16.73.75-.15c.06.22.12.43.2.64l-.72.31.3.7.72-.31a5.29 5.29 0 00.29.52l-.65.44.42.63.65-.43a6.26 6.26 0 00.41.49l-.56.55.54.54.55-.56c.14.13.28.24.42.35l-.44.64.62.44.45-.64c.2.12.4.23.62.34l-.31.71.7.3.31-.71a5.79 5.79 0 00.63.19l-.15.76.74.16.16-.76c.24 0 .48.06.72.07V16h.76v-.78a5.82 5.82 0 00.73-.08l.16.77.74-.16-.16-.75c.22-.06.43-.12.64-.2l.31.72.7-.3-.31-.72a5.29 5.29 0 00.52-.29l.44.65.63-.42-.43-.65a6.26 6.26 0 00.49-.41l.55.56.54-.54-.56-.55a6.4 6.4 0 00.41-.5l.65.44.42-.64-.64-.43c.1-.17.2-.35.29-.54l.71.31.3-.7-.71-.31a5.79 5.79 0 00.2-.64l.76.16.16-.74-.76-.16c0-.24.06-.48.07-.72zM8 14.1A6.1 6.1 0 1114.1 8 6.1 6.1 0 018 14.1z"/><circle cx="8" cy="8" r="3.81"/></svg>