<svg xmlns="http://www.w3.org/2000/svg" viewBox="0 0 16 14.68"><path d="M15.24 1.9a.77.77 0 00-.76.77A4.57 4.57 0 0010.29 0a4.44 4.44 0 00-2.67 1A4.46 4.46 0 005 0 4.58 4.58 0 00.53 3.43h.81A3.8 3.8 0 015 .76a4 4 0 012.43 1l.24.2.24-.2a4 4 0 012.43-1 3.81 3.81 0 013.51 2.58l-.9.89-1.52 1.48L9.9 4.19 7.62 6.48l-3.81-3-2.45 1.78a.76.76 0 00-.6-.31.77.77 0 000 1.53l.09.19a4.23 4.23 0 00.5.77l6.23 7.25 6.26-7.29a4.79 4.79 0 00.45-.69l.26-.6a2.79 2.79 0 00.1-.39h-.78a4.24 4.24 0 01-.23.59v.08a4 4 0 01-.34.53l-5.67 6.6L2 6.95a3.62 3.62 0 01-.44-.61l-.11-.27a.32.32 0 000-.09l2.36-1.79 3.81 3.05L9.9 4.95l1.53 1.53L13 4.95l1.7-1.74a.8.8 0 00.54.22.76.76 0 00.76-.76.77.77 0 00-.76-.77z"/></svg>