<svg xmlns="http://www.w3.org/2000/svg" viewBox="0 0 16 14.91"><path d="M11.48 2.79a4.71 4.71 0 00-.53 0 5.91 5.91 0 10-6.89 8.7l.41-1a4.87 4.87 0 115.93-6.47 3.46 3.46 0 012.5 6.44l-.52 1.26a4.51 4.51 0 00-.9-8.94z"/><path d="M5.824 12.452l.918-2.217.629.26-.92 2.218zm4.498.434l1.259-3.04.59.245-1.258 3.04zm-5.464-1.468l1.14-2.753.592.245-1.14 2.753zm2.365 2.505l1.106-2.67.591.245-1.106 2.67zm.971-3.993l.437-1.054.591.245-.436 1.053zm1.11 2.165l.92-2.226.588.243-.92 2.226zm-4.353 2.56l.506-1.22.628.26-.506 1.22z"/></svg>