<svg xmlns="http://www.w3.org/2000/svg" viewBox="0 0 16 15.13"><path d="M10.61 6.78h-.48a5.47 5.47 0 10-5.7 8.23l6.51.08a4.18 4.18 0 00-.33-8.34zm.33 7.38l-6.51-.11a4.5 4.5 0 115.19-6.13 3 3 0 011-.18 3.22 3.22 0 01.33 6.42zm.42-11.24v-.14h-1.2v.27h1.2zm.57-1.36l-.82-.82-.19.19.83.82zm3.31-.61l-.19-.19-.69.69.19.18zM13.21 0H13v1.08h.26zm1.85 2.78a.66.66 0 010 .14.62.62 0 010 .13H16v-.27zm-.7 1.6l.69.69.19-.18-.69-.69zm-1.15 1.45V4.77h-.26v1.06zm-2.29-.94l.19.18.82-.82-.18-.19z"/><circle cx="13.21" cy="2.92" r="1.18"/></svg>