<svg id="f7615243-c9b4-4295-b4da-99c6667ea069" data-name="Layer 1" xmlns="http://www.w3.org/2000/svg" viewBox="0 0 24 24"><line x1="23.5" x2="23.5" y2="24" fill="none" stroke="#000" stroke-miterlimit="10"/><path d="M22.63,11.5H12.37a.87.87,0,0,0-.87.87v.26a.87.87,0,0,1-.87.87H1.37a.87.87,0,0,1-.87-.87V3.37a.87.87,0,0,1,.87-.87h9.26a.87.87,0,0,0,.87-.87V1.37A.87.87,0,0,1,12.37.5H22.63a.87.87,0,0,1,.87.87v9.26A.87.87,0,0,1,22.63,11.5Z" transform="translate(0 0)" fill="none" stroke="#000" stroke-miterlimit="10"/><line x1="11.5" y1="1.5" x2="11.5" y2="12.5" fill="none" stroke="#000" stroke-miterlimit="10"/></svg>