<svg id="f45e2199-c0b9-4312-a2d5-630026d7b566" data-name="Layer 1" xmlns="http://www.w3.org/2000/svg" viewBox="0 0 24 24"><path d="M23.5,17.83" transform="translate(0 0)" fill="none" stroke="#000" stroke-linecap="round" stroke-miterlimit="10"/><path d="M6.17.5" transform="translate(0 0)" fill="none" stroke="#000" stroke-linecap="round" stroke-miterlimit="10"/><path d="M6.17.5A12,12,0,0,0,4.06,2.18a12.43,12.43,0,0,0,.17,17.59,12.43,12.43,0,0,0,17.59.17,12,12,0,0,0,1.68-2.11" transform="translate(0 0)" fill="none" stroke="#000" stroke-linecap="round" stroke-miterlimit="10"/><path d="M6.17.5A12.5,12.5,0,0,0,8,16,12.5,12.5,0,0,0,23.5,17.83" transform="translate(0 0)" fill="none" stroke="#000" stroke-linecap="round" stroke-miterlimit="10"/><path d="M23.5,17.83" transform="translate(0 0)" fill="none" stroke="#000" stroke-linecap="round" stroke-miterlimit="10"/><path d="M6.17.5" transform="translate(0 0)" fill="none" stroke="#000" stroke-linecap="round" stroke-miterlimit="10"/></svg>