<svg xmlns="http://www.w3.org/2000/svg" viewBox="0 0 24 24"><path d="M14.26,12.71a4.46,4.46,0,0,0-.63,0A7.09,7.09,0,0,0,.5,16.46a7,7,0,0,0,2.05,5,7.14,7.14,0,0,0,5,2l7.14.09a5.4,5.4,0,0,0-.41-10.79Z" fill="none" stroke="#000" stroke-miterlimit="10"/><path d="M7.42,9a6,6,0,1,1,10.89,5" fill="none" stroke="#000" stroke-linecap="round" stroke-miterlimit="10"/><line x1="10.68" y1="0.5" x2="11.5" y2="3.5" fill="none" stroke="#000" stroke-linecap="round" stroke-miterlimit="10"/><line x1="20.5" y1="14.5" x2="23.5" y2="16.82" fill="none" stroke="#000" stroke-linecap="round" stroke-miterlimit="10"/><line x1="2.5" y1="2.5" x2="6.5" y2="5.5" fill="none" stroke="#000" stroke-linecap="round" stroke-miterlimit="10"/><line x1="20.5" y1="10.5" x2="23.5" y2="9.52" fill="none" stroke="#000" stroke-linecap="round" stroke-miterlimit="10"/><line x1="18.5" y1="5.5" x2="23.5" y2="0.5" fill="none" stroke="#000" stroke-linecap="round" stroke-miterlimit="10"/></svg>