<svg id="fd8b1a16-e10b-44a4-8c16-f4db59c4814a" data-name="Layer 1" xmlns="http://www.w3.org/2000/svg" viewBox="0 0 24 24"><path d="M14.26,12.71a4.46,4.46,0,0,0-.63,0A7.09,7.09,0,0,0,.5,16.46a7,7,0,0,0,2.05,5,7.14,7.14,0,0,0,5,2l7.14.09a5.4,5.4,0,0,0-.41-10.79Z" fill="none" stroke="#000" stroke-miterlimit="10"/><path d="M15,9" fill="none" stroke="#000" stroke-linecap="round" stroke-miterlimit="10"/><path d="M16.25,16.08" fill="none" stroke="#000" stroke-linecap="round" stroke-miterlimit="10"/><path d="M15,9" fill="none" stroke="#000" stroke-linecap="round" stroke-miterlimit="10"/><path d="M20.89,13.12" fill="none" stroke="#000" stroke-linecap="round" stroke-miterlimit="10"/><path d="M15,9" fill="none" stroke="#000" stroke-linecap="round" stroke-miterlimit="10"/><path d="M15,9" fill="none" stroke="#000" stroke-linecap="round" stroke-miterlimit="10"/><path d="M15,9" fill="none" stroke="#000" stroke-linecap="round" stroke-miterlimit="10"/><path d="M7.92,10.25" fill="none" stroke="#000" stroke-linecap="round" stroke-miterlimit="10"/><path d="M23.08,9.75" fill="none" stroke="#000" stroke-linecap="round" stroke-miterlimit="10"/><path d="M15,9" fill="none" stroke="#000" stroke-linecap="round" stroke-miterlimit="10"/><path d="M15,9" fill="none" stroke="#000" stroke-linecap="round" stroke-miterlimit="10"/><path d="M10.88,14.89" fill="none" stroke="#000" stroke-linecap="round" stroke-miterlimit="10"/><path d="M14.5,23.5" fill="none" stroke="#000" stroke-linecap="round" stroke-miterlimit="10"/><path d="M3,12" fill="none" stroke="#000" stroke-linecap="round" stroke-miterlimit="10"/><path d="M9.71,5.35" fill="none" stroke="#000" stroke-linecap="round" stroke-miterlimit="10"/><path d="M6,9.38" fill="none" stroke="#000" stroke-linecap="round" stroke-miterlimit="10"/><path d="M15.21,5.15" fill="none" stroke="#000" stroke-linecap="round" stroke-miterlimit="10"/><path d="M7.42,9a6,6,0,1,1,10.89,5" fill="none" stroke="#000" stroke-linecap="round" stroke-miterlimit="10"/><line x1="10.68" y1="0.5" x2="11.31" y2="3.43" fill="none" stroke="#000" stroke-linecap="round" stroke-miterlimit="10"/><line x1="20.38" y1="14.79" x2="23.5" y2="16.82" fill="none" stroke="#000" stroke-linecap="round" stroke-miterlimit="10"/><line x1="2.25" y1="3.04" x2="6.73" y2="5.94" fill="none" stroke="#000" stroke-linecap="round" stroke-miterlimit="10"/><line x1="20.89" y1="10.08" x2="23.5" y2="9.52" fill="none" stroke="#000" stroke-linecap="round" stroke-miterlimit="10"/><line x1="17.7" y1="4.63" x2="20.58" y2="0.5" fill="none" stroke="#000" stroke-linecap="round" stroke-miterlimit="10"/><path d="M6.37,20.13" fill="none" stroke="#000" stroke-linecap="round" stroke-miterlimit="10"/></svg>