<svg id="ef3d4778-8179-4707-b22e-f6970d652934" data-name="Layer 1" xmlns="http://www.w3.org/2000/svg" viewBox="0 0 24.03 23.97"><path d="M13.5,7.5l-2.87,8.62a.18.18,0,0,0,.24.23l4.21-1.68a.18.18,0,0,1,.24.24L11.5,23.5" transform="translate(0.01 -0.03)" fill="none" stroke="#000" stroke-linecap="round" stroke-miterlimit="10"/><path d="M17.51,17.47A6.48,6.48,0,0,0,17,4.52a6.3,6.3,0,0,0-.75.05A8.52,8.52,0,0,0,.49,9,8.44,8.44,0,0,0,3,15a8.18,8.18,0,0,0,4.31,2.22" transform="translate(0.01 -0.03)" fill="none" stroke="#000" stroke-linecap="round" stroke-miterlimit="10"/></svg>