<svg xmlns="http://www.w3.org/2000/svg" viewBox="0 0 24 24"><path d="M17.51,17.47A6.48,6.48,0,0,0,17,4.52a6.3,6.3,0,0,0-.75.05A8.52,8.52,0,0,0,.49,9,8.44,8.44,0,0,0,3,15a8.18,8.18,0,0,0,4.31,2.22" fill="none" stroke="#000" stroke-linecap="round" stroke-miterlimit="10"/><line x1="7.83" y1="21.03" x2="6.5" y2="23.5" fill="none" stroke="#000" stroke-linecap="round" stroke-miterlimit="10"/><line x1="11.28" y1="14.62" x2="9.23" y2="18.44" fill="none" stroke="#000" stroke-linecap="round" stroke-miterlimit="10"/><line x1="13.5" y1="10.5" x2="12.11" y2="13.09" fill="none" stroke="#000" stroke-linecap="round" stroke-miterlimit="10"/><line x1="10.48" y1="21.54" x2="9.5" y2="23.5" fill="none" stroke="#000" stroke-linecap="round" stroke-miterlimit="10"/><line x1="12.8" y1="16.89" x2="11.79" y2="18.92" fill="none" stroke="#000" stroke-linecap="round" stroke-miterlimit="10"/><line x1="15.5" y1="11.5" x2="13.85" y2="14.79" fill="none" stroke="#000" stroke-linecap="round" stroke-miterlimit="10"/><line x1="13.74" y1="20.77" x2="12.5" y2="23.5" fill="none" stroke="#000" stroke-linecap="round" stroke-miterlimit="10"/><line x1="16.19" y1="15.38" x2="15" y2="18" fill="none" stroke="#000" stroke-linecap="round" stroke-miterlimit="10"/><line x1="17.5" y1="12.5" x2="17.01" y2="13.59" fill="none" stroke="#000" stroke-linecap="round" stroke-miterlimit="10"/></svg>