<svg id="b0f2f87b-8b6c-42bd-876a-e932fff3a15c" data-name="Layer 1" xmlns="http://www.w3.org/2000/svg" viewBox="0 0 24.03 23.97"><path d="M22.14,15A6.48,6.48,0,0,0,17,4.52a6.3,6.3,0,0,0-.75.05A8.52,8.52,0,0,0,.49,9,8.44,8.44,0,0,0,3,15" transform="translate(0.01 -0.03)" fill="none" stroke="#000" stroke-linecap="round" stroke-miterlimit="10"/><line x1="7.51" y1="7.22" x2="7.51" y2="13.72" fill="none" stroke="#000" stroke-linecap="round" stroke-miterlimit="10"/><line x1="5.21" y1="8.17" x2="9.81" y2="12.77" fill="none" stroke="#000" stroke-linecap="round" stroke-miterlimit="10"/><line x1="9.81" y1="8.17" x2="5.21" y2="12.77" fill="none" stroke="#000" stroke-linecap="round" stroke-miterlimit="10"/><line x1="4.26" y1="10.47" x2="10.76" y2="10.47" fill="none" stroke="#000" stroke-linecap="round" stroke-miterlimit="10"/><line x1="16.51" y1="11.22" x2="16.51" y2="17.72" fill="none" stroke="#000" stroke-linecap="round" stroke-miterlimit="10"/><line x1="14.21" y1="12.17" x2="18.81" y2="16.77" fill="none" stroke="#000" stroke-linecap="round" stroke-miterlimit="10"/><line x1="18.81" y1="12.17" x2="14.21" y2="16.77" fill="none" stroke="#000" stroke-linecap="round" stroke-miterlimit="10"/><line x1="13.26" y1="14.47" x2="19.76" y2="14.47" fill="none" stroke="#000" stroke-linecap="round" stroke-miterlimit="10"/><line x1="9.51" y1="16.97" x2="9.51" y2="23.47" fill="none" stroke="#000" stroke-linecap="round" stroke-miterlimit="10"/><line x1="7.21" y1="17.92" x2="11.81" y2="22.52" fill="none" stroke="#000" stroke-linecap="round" stroke-miterlimit="10"/><line x1="11.81" y1="17.92" x2="7.21" y2="22.52" fill="none" stroke="#000" stroke-linecap="round" stroke-miterlimit="10"/><line x1="6.26" y1="20.22" x2="12.76" y2="20.22" fill="none" stroke="#000" stroke-linecap="round" stroke-miterlimit="10"/></svg>