<svg id="af0faa7c-63f3-4011-9a4e-520a1c6b4b07" data-name="Layer 1" xmlns="http://www.w3.org/2000/svg" viewBox="0 0 23.95 23.95"><path d="M7.83,2.24,6.54,1a1.71,1.71,0,0,0-2.42.09L1.47,3.7c-2.58,2.58.32,9.68,4.71,14.07s11.49,7.3,14.08,4.71l2.65-2.65A1.71,1.71,0,0,0,23,17.42l-1.29-1.29a1.72,1.72,0,0,0-2.42.09l-1.88,1.89a1.2,1.2,0,0,1-1.42.23,47.37,47.37,0,0,1-5.59-4.78A45.86,45.86,0,0,1,5.61,8a1.19,1.19,0,0,1,.24-1.42L7.73,4.66A1.71,1.71,0,0,0,7.83,2.24Z" transform="translate(0)" fill="none" stroke="#000" stroke-miterlimit="10"/></svg>