<svg xmlns="http://www.w3.org/2000/svg" viewBox="0 0 24 24"><path d="M9.24,6.5h0a1.73,1.73,0,0,0-2-1.71l-2.57.38a3.19,3.19,0,0,0-2.64,2.5L.64,14.55a3.15,3.15,0,0,0,1.19,3.16l2.4,1.82a1.4,1.4,0,0,0,2.07-.41l.94-1.62" style="fill:none;stroke:#000;stroke-linecap:round;stroke-miterlimit:10"/><path d="M14.76,6.5h0a1.73,1.73,0,0,1,2-1.71l2.83.42a2.79,2.79,0,0,1,2.32,2.2l1.52,7.37a2.78,2.78,0,0,1-1,2.78l-2.6,2a1.4,1.4,0,0,1-2.07-.41l-.94-1.62" style="fill:none;stroke:#000;stroke-linecap:round;stroke-miterlimit:10"/><ellipse cx="9" cy="12.5" rx="1.5" ry="2" style="fill:none;stroke:#000;stroke-linecap:round;stroke-miterlimit:10"/><ellipse cx="15" cy="12.5" rx="1.5" ry="2" style="fill:none;stroke:#000;stroke-linecap:round;stroke-miterlimit:10"/><path d="M19,16.1a16.84,16.84,0,0,1-7,1.4,16.84,16.84,0,0,1-7-1.4" style="fill:none;stroke:#000;stroke-linecap:round;stroke-miterlimit:10"/><path d="M5,7.9a16.84,16.84,0,0,1,7-1.4,16.84,16.84,0,0,1,7,1.4" style="fill:none;stroke:#000;stroke-linecap:round;stroke-miterlimit:10"/></svg>