<svg id="aa5304b4-dc6d-403f-b334-0331f9a5e8ba" data-name="Layer 1" xmlns="http://www.w3.org/2000/svg" viewBox="0 0 24.03 16.27"><path d="M12,19.63A12.55,12.55,0,0,1,.67,12.27L.54,12l.13-.27A12.55,12.55,0,0,1,12,4.37a12.55,12.55,0,0,1,11.33,7.36l.13.27-.13.27A12.55,12.55,0,0,1,12,19.63ZM12,5.56m0,12.88" transform="translate(0.01 -3.87)" fill="none" stroke="#000" stroke-miterlimit="10"/><path d="M15.18,11.4a2.52,2.52,0,0,1-2.52-2.52A2.41,2.41,0,0,1,13,7.72a4.73,4.73,0,0,0-.93-.1A4.41,4.41,0,1,0,16.44,12a4.63,4.63,0,0,0-.1-.92A2.52,2.52,0,0,1,15.18,11.4Z" transform="translate(0.01 -3.87)" fill="none" stroke="#000" stroke-miterlimit="10"/></svg>