<svg id="e86e48bc-ab00-46a5-b37b-80b7c07799a9" data-name="Layer 1" xmlns="http://www.w3.org/2000/svg" viewBox="0 0 15.05 24.03"><path d="M15.25,4.32h2.53a.75.75,0,0,0,.75-.75V1.23a.75.75,0,0,0-.75-.75H14.62A6.47,6.47,0,0,0,8.23,7v3.05H5.16a.68.68,0,0,0-.68.67v2.49a.68.68,0,0,0,.68.67H8.23v8.76a.83.83,0,0,0,.84.84h2.07a.84.84,0,0,0,.84-.84V13.91h4.09a.74.74,0,0,0,.73-.57L17.37,11a.75.75,0,0,0-.73-.92H12V7.67A3.31,3.31,0,0,1,15.25,4.32Z" transform="translate(-3.98 0.02)" fill="none" stroke="#000" stroke-miterlimit="10"/></svg>