<svg xmlns="http://www.w3.org/2000/svg" viewBox="0 0 24 24"><circle cx="22" cy="2" r="1.5" fill="none" stroke="#000" stroke-miterlimit="10"/><path d="M2.5,13.5l.52-1a.78.78,0,0,1,1.25-.2l1.62,1.62a.79.79,0,0,0,1.16-.05l1.6-1.95a.78.78,0,0,1,1.15-.06l2.07,2.05A.78.78,0,0,0,13,13.81L19.5,5.5" fill="none" stroke="#000" stroke-linecap="round" stroke-miterlimit="10"/><path d="M19.87,13.9l-8.09,9.24a1,1,0,0,1-1.56,0L2.09,13.86A6.41,6.41,0,0,1,.5,9.63h0A6.44,6.44,0,0,1,3.55,4.16h0a4.56,4.56,0,0,1,6,1l1.24,1.53a.34.34,0,0,0,.52,0l1.76-2a4.27,4.27,0,0,1,5.54-.69h0A6.58,6.58,0,0,1,21.5,9.57h0A6.58,6.58,0,0,1,19.87,13.9Z" fill="none" stroke="#000" stroke-miterlimit="10"/></svg>