<svg id="fc20b157-dcfe-4052-9c03-c23d20f6b20c" data-name="Layer 1" xmlns="http://www.w3.org/2000/svg" viewBox="0 0 23.98 23.98"><circle cx="21.98" cy="2" r="1.5" fill="none" stroke="#000" stroke-miterlimit="10"/><path d="M9.09,23.06,1.2,9.75a4.76,4.76,0,0,1,3.41-7.2,4.58,4.58,0,0,1,.53,0h0A5.21,5.21,0,0,1,8,3.38L9.74,4.54a.15.15,0,0,0,.16,0l1.74-1.15a5.12,5.12,0,0,1,2.86-.87h0a5.12,5.12,0,0,1,.56,0,4.75,4.75,0,0,1,3.41,7.19L10.56,23.06A.85.85,0,0,1,9.09,23.06Z" transform="translate(-0.02)" fill="none" stroke="#000" stroke-miterlimit="10"/><path d="M2.5,11.5l.41-.83a.77.77,0,0,1,1.32-.08L5,11.78a.75.75,0,0,0,1.13.14L8.59,9.77a.76.76,0,0,1,1.1.1l2.21,2.86a.76.76,0,0,0,1.2,0L19.5,4.5" transform="translate(-0.02)" fill="none" stroke="#000" stroke-linecap="round" stroke-miterlimit="10"/></svg>