<svg id="ee56ce6a-5598-46f0-aef4-2850d723f641" data-name="Layer 1" xmlns="http://www.w3.org/2000/svg" viewBox="0 0 24.01 22.32"><path d="M19.06,16.26H4.76a1.53,1.53,0,0,0-.87.28l-1.08.79A1.46,1.46,0,0,1,.49,16.15V2.92A1.46,1.46,0,0,1,2,1.46H19.06a1.46,1.46,0,0,1,1.46,1.46V14.8A1.46,1.46,0,0,1,19.06,16.26Z" transform="translate(0.01 -0.96)" fill="none" stroke="#000" stroke-miterlimit="10"/><path d="M4.5,19.5H16.09a1.49,1.49,0,0,1,.8.23l4.35,2.82a1.46,1.46,0,0,0,2.26-1.23V2.5" transform="translate(0.01 -0.96)" fill="none" stroke="#000" stroke-linecap="round" stroke-miterlimit="10"/></svg>