<svg id="fdb0aead-0a85-47c2-b852-257d5670eef6" data-name="Layer 1" xmlns="http://www.w3.org/2000/svg" viewBox="0 0 23 24"><path d="M18.86,13.13l-6,9.91a1,1,0,0,1-1.66,0L5,12.93" transform="translate(-0.5 0.01)" fill="none" stroke="#000" stroke-linecap="round" stroke-miterlimit="10"/><path d="M3.19,9.94,2.27,8.43A5.21,5.21,0,0,1,6.11.52q.3,0,.6,0h0a5.94,5.94,0,0,1,3.22,1l2,1.27a.17.17,0,0,0,.19,0L14,1.45a6,6,0,0,1,3.24-1h0c.21,0,.42,0,.62,0a5.2,5.2,0,0,1,3.84,7.89L21,9.68" transform="translate(-0.5 0.01)" fill="none" stroke="#000" stroke-linecap="round" stroke-miterlimit="10"/><path d="M23.5.5" transform="translate(-0.5 0.01)" fill="none" stroke="#000" stroke-miterlimit="10"/><path d="M.5,19.5" transform="translate(-0.5 0.01)" fill="none" stroke="#000" stroke-miterlimit="10"/><path d="M20.5,10.5" transform="translate(-0.5 0.01)" fill="none" stroke="#000" stroke-miterlimit="10"/><path d="M13.5,1.5" transform="translate(-0.5 0.01)" fill="none" stroke="#000" stroke-miterlimit="10"/><path d="M1,10.5c1.1,0,1.1,2,2.2,2s1.1-2,2.2-2,1.1,2,2.19,2,1.1-2,2.2-2,1.1,2,2.2,2,1.1-2,2.2-2,1.1,2,2.2,2,1.1-2,2.2-2,1.1,2,2.21,2,1.1-2,2.2-2" transform="translate(-0.5 0.01)" fill="none" stroke="#000" stroke-linecap="round" stroke-miterlimit="10"/></svg>