<svg id="fb04f9fd-b26f-4ed5-8939-006e1b643478" data-name="Layer 1" xmlns="http://www.w3.org/2000/svg" viewBox="0 0 23.99 24.02"><path d="M0,11.5H3A1.49,1.49,0,0,1,4.5,13v9A1.49,1.49,0,0,1,3,23.5H0" transform="translate(0 0.01)" fill="none" stroke="#000" stroke-miterlimit="10"/><path d="M6.51,22.53l0,0a3.45,3.45,0,0,0,2.41,1h7.66a6.07,6.07,0,0,0,6.07-5l.78-5.84a2.56,2.56,0,0,0-2.6-2.9H15.5A1.45,1.45,0,0,1,14,8.08L15.27,2A1.23,1.23,0,0,0,14.41.55h0a1.32,1.32,0,0,0-1.6.71L10.75,6.07A14.62,14.62,0,0,1,7.4,10.9l-.89.85" transform="translate(0 0.01)" fill="none" stroke="#000" stroke-linecap="round" stroke-miterlimit="10"/></svg>