<svg id="a8787431-5c12-4ccb-84d0-90fc3c79b7d5" data-name="Layer 1" xmlns="http://www.w3.org/2000/svg" viewBox="0 0 24.01 20"><path d="M21.5,4.37V14.84a1.44,1.44,0,0,1-1.42,1.45l-12.57.2a3,3,0,0,0-1.8.64l-4,3.16a.7.7,0,0,1-1.2-.5V4.37A1.87,1.87,0,0,1,2.37,2.5H19.63A1.87,1.87,0,0,1,21.5,4.37Z" transform="translate(0 -2)" fill="none" stroke="#000" stroke-miterlimit="10"/><line x1="6.5" y1="10.5" x2="6.5" y2="10.5" fill="none" stroke="#000" stroke-linecap="round" stroke-miterlimit="10"/><line x1="9.5" y1="10.5" x2="9.5" y2="10.5" fill="none" stroke="#000" stroke-linecap="round" stroke-miterlimit="10"/><line x1="12.5" y1="10.5" x2="12.5" y2="10.5" fill="none" stroke="#000" stroke-linecap="round" stroke-miterlimit="10"/><path d="M9.5,18.5H22.75a.75.75,0,0,1,.45,1.35L21,21.5" transform="translate(0 -2)" fill="none" stroke="#000" stroke-linecap="round" stroke-miterlimit="10"/></svg>