<svg xmlns="http://www.w3.org/2000/svg" viewBox="0 0 24 24"><path d="M22,17.29l-14.67.2A2.56,2.56,0,0,0,5.83,18L1.7,21.29a.7.7,0,0,1-1.2-.5V4A1.5,1.5,0,0,1,2,2.5H22A1.5,1.5,0,0,1,23.5,4V15.79A1.5,1.5,0,0,1,22,17.29Z" fill="none" stroke="#000" stroke-miterlimit="10"/><circle cx="9" cy="13" r="0.5" fill="none" stroke="#000" stroke-linecap="round" stroke-miterlimit="10"/><circle cx="13" cy="13" r="0.5" fill="none" stroke="#000" stroke-linecap="round" stroke-miterlimit="10"/><circle cx="17" cy="13" r="0.5" fill="none" stroke="#000" stroke-linecap="round" stroke-miterlimit="10"/><path d="M7.5,19.5H22.18a.4.4,0,0,1,.22.73L20.5,21.5" fill="none" stroke="#000" stroke-linecap="round" stroke-miterlimit="10"/></svg>