<svg xmlns="http://www.w3.org/2000/svg" viewBox="0 0 24 24"><path d="M7.9,21.5H3.8a1.3,1.3,0,0,1-1.3-1.3v0A1.31,1.31,0,0,1,3,19.11l1.86-1.36a1.51,1.51,0,0,0,.61-1.21v-5a7,7,0,0,1,7-7h0a7,7,0,0,1,7,7v5.23A1.51,1.51,0,0,0,20.18,18l1.73,1.14a1.28,1.28,0,0,1,.59,1.08h0a1.3,1.3,0,0,1-1.3,1.3H17" fill="none" stroke="#000" stroke-linecap="round" stroke-miterlimit="10"/><circle cx="12.5" cy="21.5" r="2" fill="none" stroke="#000" stroke-miterlimit="10"/><path d="M11.5.5h2a0,0,0,0,1,0,0v1a1,1,0,0,1-1,1h0a1,1,0,0,1-1-1V.5A0,0,0,0,1,11.5.5Z" fill="none" stroke="#000" stroke-miterlimit="10"/><line x1="12.5" y1="2.5" x2="12.5" y2="19.5" fill="none" stroke="#000" stroke-miterlimit="10"/></svg>