<svg id="a1a5da16-d5b6-43a8-a07d-0787e2fb3fe0" data-name="Layer 1" xmlns="http://www.w3.org/2000/svg" viewBox="0 0 20 24.01"><path d="M8.5.5h3a0,0,0,0,1,0,0v.57A1.43,1.43,0,0,1,10.07,2.5H9.93A1.43,1.43,0,0,1,8.5,1.07V.5A0,0,0,0,1,8.5.5Z" fill="none" stroke="#000" stroke-miterlimit="10"/><path d="M16.5,22.05H20a1.5,1.5,0,0,0,1.5-1.5v0a1.54,1.54,0,0,0-1.08-1.44c-.89-.31-1.77-.93-1.77-1.64V10.25c0-3-3.36-5.67-6.47-5.76S5.35,6.91,5.35,10v7.42c0,.71-.88,1.33-1.77,1.64A1.54,1.54,0,0,0,2.5,20.52v0A1.5,1.5,0,0,0,4,22.05H7.5" transform="translate(-2 0)" fill="none" stroke="#000" stroke-linecap="round" stroke-miterlimit="10"/><path d="M13.5,22.05v0" transform="translate(-2 0)" fill="none" stroke="#000" stroke-miterlimit="10"/><path d="M10.5,22.07v0" transform="translate(-2 0)" fill="none" stroke="#000" stroke-miterlimit="10"/><path d="M13.5,22.05a1.5,1.5,0,0,0-3,0" transform="translate(-2 0)" fill="none" stroke="#000" stroke-miterlimit="10"/><path d="M10.5,22.05v0" transform="translate(-2 0)" fill="none" stroke="#000" stroke-miterlimit="10"/><path d="M13.5,22v0" transform="translate(-2 0)" fill="none" stroke="#000" stroke-miterlimit="10"/><path d="M13.5,22.05a1.5,1.5,0,0,1-3,0" transform="translate(-2 0)" fill="none" stroke="#000" stroke-miterlimit="10"/><line x1="10" y1="2.5" x2="10" y2="20.5" fill="none" stroke="#000" stroke-miterlimit="10"/></svg>