<svg id="bb815ff3-6d42-4a65-b5e7-e970f96c9264" data-name="Layer 1" xmlns="http://www.w3.org/2000/svg" viewBox="0 0 24 24"><path d="M17.74,16.88a4.64,4.64,0,0,0-1.66-1.69l-1-.58a1.92,1.92,0,0,1-.9-1.2l-.06-.25a1.28,1.28,0,0,1,.39-1.26A3.72,3.72,0,0,0,12.9,5.57,3.73,3.73,0,0,0,9.43,11.9a1.28,1.28,0,0,1,.4,1.26l-.06.24a1.91,1.91,0,0,1-.87,1.19L7.16,15.64a3.17,3.17,0,0,0-1.43,2h0a.73.73,0,0,0,.71.9H17.35A.77.77,0,0,0,18,17.38Z" transform="translate(0 0)" fill="none" stroke="#000" stroke-miterlimit="10"/><path d="M.5,8.5V2A1.51,1.51,0,0,1,2,.5H8.5" transform="translate(0 0)" fill="none" stroke="#000" stroke-linecap="round" stroke-miterlimit="10"/><path d="M.5,15.5V22A1.51,1.51,0,0,0,2,23.5H8.5" transform="translate(0 0)" fill="none" stroke="#000" stroke-linecap="round" stroke-miterlimit="10"/><path d="M23.5,8.5V2A1.51,1.51,0,0,0,22,.5H15.5" transform="translate(0 0)" fill="none" stroke="#000" stroke-linecap="round" stroke-miterlimit="10"/><path d="M23.5,15.5V22A1.51,1.51,0,0,1,22,23.5H15.5" transform="translate(0 0)" fill="none" stroke="#000" stroke-linecap="round" stroke-miterlimit="10"/></svg>