<svg id="efb588c2-cd8e-4f39-8d2b-6b9aef38eb37" data-name="Layer 1" xmlns="http://www.w3.org/2000/svg" viewBox="0 0 24 24"><path d="M18.91,23.5H5.06A2.08,2.08,0,0,1,3,21.77L.5,1.32A.69.69,0,0,1,1.78.93L8.62,12.45a.59.59,0,0,0,1.08-.17L11.93.94A.57.57,0,0,1,13,.94l2.24,11.23a.59.59,0,0,0,1.09.14L22.42.84a.57.57,0,0,1,1.07.3L21,21.77A2.09,2.09,0,0,1,18.91,23.5Z" transform="translate(0.01)" fill="none" stroke="#000" stroke-miterlimit="10"/><line x1="2.51" y1="17.5" x2="21.51" y2="17.5" fill="none" stroke="#000" stroke-miterlimit="10"/></svg>