<svg xmlns="http://www.w3.org/2000/svg" viewBox="0 0 24 24"><path d="M19,22.5H5A1.5,1.5,0,0,1,3.5,21V18.5l-2-11L7,13a.54.54,0,0,0,.85-.14L12.26,4a.24.24,0,0,1,.44,0l3.5,8.76a.53.53,0,0,0,.87.18L22.5,7.5l-2,11V21A1.5,1.5,0,0,1,19,22.5Z" fill="none" stroke="#000" stroke-miterlimit="10"/><line x1="3.5" y1="18.5" x2="20.5" y2="18.5" fill="none" stroke="#000" stroke-miterlimit="10"/><circle cx="12.5" cy="2.5" r="1" fill="none" stroke="#000" stroke-miterlimit="10"/><circle cx="1" cy="6" r="0.5" fill="none" stroke="#000" stroke-miterlimit="10"/><circle cx="23" cy="6" r="0.5" fill="none" stroke="#000" stroke-miterlimit="10"/></svg>