<svg id="ba96b368-db89-4aca-b969-531bdf457ca9" data-name="Layer 1" xmlns="http://www.w3.org/2000/svg" viewBox="0 0 23.47 24"><line x1="5.24" y1="2.5" x2="9.24" y2="6.5" fill="none" stroke="#000" stroke-miterlimit="10"/><line x1="18.24" y1="2.5" x2="14.24" y2="6.5" fill="none" stroke="#000" stroke-miterlimit="10"/><line x1="11.74" y1="0.5" x2="11.74" y2="23.5" fill="none" stroke="#000" stroke-miterlimit="10"/><path d="M15,.5H9a1.18,1.18,0,0,0-.55.14L2.13,4.1a1.21,1.21,0,0,0-.47.48L.9,6A1.12,1.12,0,0,0,1,7.2L11,23a1.16,1.16,0,0,0,2,0L23.05,7.27A1.17,1.17,0,0,0,23.1,6.1l-.82-1.53a1.16,1.16,0,0,0-.46-.47L15.52.64A1.19,1.19,0,0,0,15,.5Z" transform="translate(-0.26 0)" fill="none" stroke="#000" stroke-miterlimit="10"/><line x1="0.54" y1="6.5" x2="22.88" y2="6.5" fill="none" stroke="#000" stroke-miterlimit="10"/></svg>