<svg xmlns="http://www.w3.org/2000/svg" viewBox="0 0 24 24"><path d="M7.09 21.78h0a1.16 1.16 0 00-.76-.27H4.94a.47.47 0 01-.41-.25l-.38-.72a.49.49 0 00-.33-.24l-1.26-.23a.48.48 0 01-.3-.74l3.18-4.45a1.43 1.43 0 00-.3-2l-1.91-1.42a1 1 0 01-.38-1v0a1 1 0 011.43-.71l1.43.72V6.8A6.3 6.3 0 0112 .5h0a6.3 6.3 0 016.29 6.3v3.68l1.43-.72a1 1 0 011.43.71h0a1 1 0 01-.38 1l-1.92 1.48a1.43 1.43 0 00-.29 1.95l3.18 4.46a.48.48 0 01-.3.74l-1.31.24a.45.45 0 00-.33.25l-.34.68a.46.46 0 01-.42.27h-1.37a1.21 1.21 0 00-.77.27h0a7.86 7.86 0 01-9.81-.03z" fill="none" stroke="#000" stroke-linecap="round" stroke-linejoin="round"/></svg>