<svg xmlns="http://www.w3.org/2000/svg" viewBox="0 0 24 24"><path d="M7.09,21.78h0a1.16,1.16,0,0,0-.76-.27H4.94a.47.47,0,0,1-.41-.25l-.38-.72a.49.49,0,0,0-.33-.24l-1.26-.23a.48.48,0,0,1-.3-.74l3.18-4.45a1.43,1.43,0,0,0-.3-2L3.23,11.46a1,1,0,0,1-.38-1v0a1,1,0,0,1,1.43-.71l1.43.72V6.8A6.3,6.3,0,0,1,12,.5h0a6.3,6.3,0,0,1,6.29,6.3v3.68l1.43-.72a1,1,0,0,1,1.43.71h0a1,1,0,0,1-.38,1l-1.92,1.48a1.43,1.43,0,0,0-.29,1.95l3.18,4.46a.48.48,0,0,1-.3.74l-1.31.24a.45.45,0,0,0-.33.25l-.34.68a.46.46,0,0,1-.42.27H17.67a1.21,1.21,0,0,0-.77.27h0A7.86,7.86,0,0,1,7.09,21.78Z" style="fill:none;stroke:#000;stroke-linecap:round;stroke-linejoin:round"/></svg>