<svg xmlns="http://www.w3.org/2000/svg" viewBox="0 0 24 24"><path d="M20.75,12.61,14.39,19a1.49,1.49,0,0,1-2.12,0L3.78,10.49a1.46,1.46,0,0,1-.42-.85L2.3,2.21A1.49,1.49,0,0,1,4,.52l7.43,1.06a1.46,1.46,0,0,1,.85.42l8.48,8.49A1.49,1.49,0,0,1,20.75,12.61Z" fill="none" stroke="#000" stroke-miterlimit="10"/><path d="M20.75,13.31l.71.71a1.49,1.49,0,0,1,0,2.12L15.1,22.51a1.52,1.52,0,0,1-2.13,0l-7.69-7.7a1.5,1.5,0,0,1-.44-1.06v-2.2" fill="none" stroke="#000" stroke-miterlimit="10"/><circle cx="6.96" cy="5.18" r="1" fill="none" stroke="#000" stroke-miterlimit="10"/></svg>