<svg id="b2291dda-ef22-455b-b24e-afef5a1a89d1" data-name="Layer 1" xmlns="http://www.w3.org/2000/svg" viewBox="0 0 24 24"><path d="M2.68,22.14h0a2.78,2.78,0,0,1-.58-3.85L7.38,11A5.87,5.87,0,0,0,8.5,7.54h0a2,2,0,0,1,2-2H11A2.5,2.5,0,0,1,13.5,8L15,9.09a.43.43,0,0,1-.06.72l-1.39.69v2a6.64,6.64,0,0,1-2.23,5L6.2,22A2.79,2.79,0,0,1,2.68,22.14Z" fill="none" stroke="#000" stroke-miterlimit="10"/><line x1="17.5" y1="9.5" x2="17.5" y2="9.5" fill="none" stroke="#000" stroke-linecap="round" stroke-miterlimit="10"/><line x1="19.5" y1="9.5" x2="19.5" y2="9.5" fill="none" stroke="#000" stroke-linecap="round" stroke-miterlimit="10"/><path d="M1.27,16.15a11.48,11.48,0,1,1,7.08,6.76" fill="none" stroke="#000" stroke-linecap="round" stroke-miterlimit="10"/></svg>