<svg id="bf735b94-ac94-4f88-a8e7-00bfc6992286" data-name="Layer 1" xmlns="http://www.w3.org/2000/svg" viewBox="0 0 22 24"><path d="M21.62,4.84A11,11,0,0,1,18,8.07l0,0a11,11,0,0,0,3.51-5.22,11,11,0,0,1-4.95,3.88h0a3.76,3.76,0,0,0-1.79-.47A3.89,3.89,0,0,0,11,9.28a4.14,4.14,0,0,0-.1.87c0,.14,0,.27,0,.4a3.94,3.94,0,0,0,.75,1.93c-.15,0-.29,0-.44,0a10.05,10.05,0,0,1-1.56-.14l-.25,0A10.72,10.72,0,0,1,3.84,9.56h0s0,.06,0,.09v0c-.08.29-.13.58-.18.87a1.46,1.46,0,0,0,0,.22,3.14,3.14,0,0,0,2.34,3,2.88,2.88,0,0,1-.78.11,3,3,0,0,1-1.6-.46c0,.07,0,.13,0,.19a1.37,1.37,0,0,0,0,.19l0,.27A3.16,3.16,0,0,0,4.9,16.41a3.21,3.21,0,0,0,1,.43,5,5,0,0,1-.54.08l-.87,0a3.13,3.13,0,0,0,1.16,1.9,3.05,3.05,0,0,0,1.89.66l.22,0,0,0a12.93,12.93,0,0,1-6.17,2.87.09.09,0,0,0,0,.18,24.36,24.36,0,0,0,6.53,1A10.69,10.69,0,0,0,11.2,23a11.06,11.06,0,0,0,7.65-9A11.73,11.73,0,0,0,19,12.51a11.29,11.29,0,0,0-.38-2.87h0A11.08,11.08,0,0,0,21.62,4.84ZM14.41,9.61a.93.93,0,0,1,0-1.86.93.93,0,0,1,0,1.86Z" transform="translate(-1)" fill="none" stroke="#000" stroke-miterlimit="10"/></svg>