<svg xmlns="http://www.w3.org/2000/svg" viewBox="0 0 24 24"><path d="M19.28,17.5H12.75a.53.53,0,0,0-.41.19l-4.9,5.72a.54.54,0,0,1-.94-.35V18A.53.53,0,0,0,6,17.5H1A.53.53,0,0,1,.5,17V3.11a.54.54,0,0,1,.12-.34L2.34.69A.53.53,0,0,1,2.75.5H23A.53.53,0,0,1,23.5,1V13.28a.55.55,0,0,1-.16.38l-3.68,3.68A.55.55,0,0,1,19.28,17.5Z" style="fill:none;stroke:#000;stroke-linecap:round;stroke-miterlimit:10"/><rect x="7.5" y="5.5" width="2" height="7" rx="0.59" style="fill:none;stroke:#000;stroke-linecap:round;stroke-miterlimit:10"/><rect x="14.5" y="5.5" width="2" height="7" rx="0.59" style="fill:none;stroke:#000;stroke-linecap:round;stroke-miterlimit:10"/></svg>