<svg xmlns="http://www.w3.org/2000/svg" viewBox="0 0 24 24"><path d="M19.28 17.5h-6.53a.53.53 0 00-.41.19l-4.9 5.72a.54.54 0 01-.94-.35V18a.53.53 0 00-.5-.5H1a.53.53 0 01-.5-.5V3.11a.54.54 0 01.12-.34L2.34.69A.53.53 0 012.75.5H23a.53.53 0 01.5.5v12.28a.55.55 0 01-.16.38l-3.68 3.68a.55.55 0 01-.38.16z" fill="none" stroke="#000" stroke-linecap="round" stroke-miterlimit="10"/><rect x="7.5" y="5.5" width="2" height="7" rx=".59" fill="none" stroke="#000" stroke-linecap="round" stroke-miterlimit="10"/><rect x="14.5" y="5.5" width="2" height="7" rx=".59" fill="none" stroke="#000" stroke-linecap="round" stroke-miterlimit="10"/></svg>