<svg xmlns="http://www.w3.org/2000/svg" viewBox="0 0 24 24"><path d="M12,19.63A12.55,12.55,0,0,1,.67,12.27L.54,12l.13-.27A12.55,12.55,0,0,1,12,4.37a12.55,12.55,0,0,1,11.33,7.36l.13.27-.13.27A12.55,12.55,0,0,1,12,19.63ZM12,5.56m0,12.88" fill="none" stroke="#000" stroke-miterlimit="10"/><path d="M15.18,11.4a2.52,2.52,0,0,1-2.52-2.52A2.41,2.41,0,0,1,13,7.72a4.18,4.18,0,0,0-3,.46,4.46,4.46,0,0,0-2.31,3.37,4.4,4.4,0,0,0,4.86,4.86,4.45,4.45,0,0,0,3.38-2.31,4.21,4.21,0,0,0,.45-3A2.52,2.52,0,0,1,15.18,11.4Z" fill="none" stroke="#000" stroke-miterlimit="10"/></svg>