<svg xmlns="http://www.w3.org/2000/svg" viewBox="0 0 16 16"><path d="M15.54 5.34a7.09 7.09 0 00-.46-1A8 8 0 008 0a8.88 8.88 0 00-.9.05A9.72 9.72 0 006 .26a8.06 8.06 0 00-4.63 3.26 7.88 7.88 0 00-.71 1.31 7.88 7.88 0 00-.2 5.81 7.37 7.37 0 00.44 1A8 8 0 008 16h.38a8.76 8.76 0 001.16-.13 7.86 7.86 0 003.05-1.31 7.47 7.47 0 001.21-1 8 8 0 001.74-8.16zM8 1.07a6.92 6.92 0 015.93 3.35 7.91 7.91 0 00-4.35 2.45c-.27-.23-.55-.45-.83-.66s-.64-.45-1-.65A7.9 7.9 0 008 3.73a8 8 0 00-.46-2.64zm-1.54.17a6.89 6.89 0 01.47 2.49A6.77 6.77 0 016.81 5a12.89 12.89 0 00-4.19-1.37 7 7 0 013.84-2.39zM1.07 8a6.87 6.87 0 01.8-3.23 10.73 10.73 0 014.65 1.3 6.91 6.91 0 01-5 4.42A6.85 6.85 0 011.07 8zM2 11.47a8 8 0 005.45-4.85c.23.15.45.29.66.45s.54.42.79.63a8 8 0 00-1.43 4.57 8.08 8.08 0 00.46 2.66A6.94 6.94 0 012 11.47zm7 3.38a6.74 6.74 0 01-.51-2.58 6.89 6.89 0 011.2-3.83 10.09 10.09 0 012.75 4.88A6.92 6.92 0 019 14.85zm4.42-2.58a12.61 12.61 0 00-3.1-4.69 6.92 6.92 0 014.07-2.16 6.93 6.93 0 01-1 6.85z"/></svg>