<svg xmlns="http://www.w3.org/2000/svg" viewBox="0 0 16 12.92"><path d="M11.69 9.23h1.85v1.23h-1.85zm-6.15 1.23a3.08 3.08 0 10-3.08-3.08 3.08 3.08 0 003.08 3.08zm0-5.64A2.57 2.57 0 113 7.38a2.56 2.56 0 012.54-2.56z"/><circle cx="5.54" cy="7.38" r="1.54"/><path d="M13.54 1.23v1.23h-.62v-.87A1.59 1.59 0 0011.33 0h-.5a1.59 1.59 0 00-1.6 1.59v.87h-.61V1.23H0v11.69h16V1.23zM.62 1.84h.61v.62H.62zm14.76 10.47H.62V3.08h14.76z"/><path d="M11.08 8a1.85 1.85 0 10-1.85-1.85A1.84 1.84 0 0011.08 8zm0-3.08a1.23 1.23 0 11-1.23 1.23 1.23 1.23 0 011.23-1.23z"/></svg>