<svg xmlns="http://www.w3.org/2000/svg" viewBox="0 0 24 24"><path d="M0 1.16v16.68A1.16 1.16 0 001.16 19h21.68A1.16 1.16 0 0024 17.84V1.16A1.16 1.16 0 0022.84 0H1.16A1.16 1.16 0 000 1.16zM12 18a2 2 0 112-2 2 2 0 01-2 2zm9.84-5H2.16A1.16 1.16 0 011 11.84V1.66A.65.65 0 011.66 1h20.68a.65.65 0 01.66.66v10.18A1.16 1.16 0 0121.84 13z"/><path d="M17.75 24H6.25c-.11 0-.16-.14-.1-.25l.21-.35A9.08 9.08 0 007 18.19a.15.15 0 01.16-.19h9.68a.15.15 0 01.12.19 9.08 9.08 0 00.68 5.21l.21.35c.06.11.01.25-.1.25zM12 15a1 1 0 101 1 1 1 0 00-1-1z"/></svg>