<svg xmlns="http://www.w3.org/2000/svg" viewBox="0 0 16 16"><path d="M9.87 1.81L0 11.68 4.32 16l9.87-9.87zm-5.55 13l-3.09-3.13 8.64-8.63L13 6.13z"/><path d="M2.907 11.86l.616-.616 1.23 1.23-.615.615zm6.345-6.964l.615-.616.615.616-.615.615zm1.236 1.233l.615-.616.616.616-.616.615zm-2.466-.004l.615-.615.615.615-.615.615zm1.226 1.247l.615-.615.616.615-.616.615z"/><circle cx="7.09" cy="8.91" r=".87"/><path d="M14.2 3.43a1.3 1.3 0 00-1.63-1.63v1a.431.431 0 11.61.61z"/><path d="M14.5 1.5a2.19 2.19 0 01.59 2h.87A3 3 0 0012.49 0v.87a2.19 2.19 0 012.01.63z"/></svg>