<svg xmlns="http://www.w3.org/2000/svg" viewBox="0 0 20.1 24"><defs><style>.a{fill:none;stroke:#000;stroke-miterlimit:10}</style></defs><path class="a" d="M.5 2.9v17.4a1.7 1.7 0 00.3 1L2.2 23a1.4 1.4 0 001 .5h14.2a2.3 2.3 0 002.1-2.4V2.9A2.3 2.3 0 0017.4.5H2.7A2.3 2.3 0 00.5 2.9z"/><path class="a" d="M4.4 23.5v-3.9a1.2 1.2 0 011.2-1.2h4.8a1.2 1.2 0 011.2 1.2v3.9"/><path stroke-linecap="round" fill="none" stroke="#000" stroke-miterlimit="10" d="M6.5 21v2"/><path class="a" d="M15.5.6v5.8a2 2 0 01-1.9 2.2H6.4a2.1 2.1 0 01-1.9-2.2V.6"/></svg>