<svg xmlns="http://www.w3.org/2000/svg" viewBox="0 0 23.5 23.9"><path d="M22.1 4.8A11.1 11.1 0 0118.5 8h-.1A11.7 11.7 0 0022 2.8a11 11 0 01-5 3.8 3.7 3.7 0 00-1.8-.4 3.9 3.9 0 00-2.8 1.1 3.5 3.5 0 00-1 1.9 2.8 2.8 0 00-.1.9v.4a4.1 4.1 0 00.8 1.9H9.8a10.5 10.5 0 01-5.6-2.9h0c-.1.3-.1.6-.2.9v.2a3.1 3.1 0 002.3 3h-.8a4.7 4.7 0 01-1.6-.2h0v.5a3 3 0 001.4 2.3l.9.5H4.8A3.5 3.5 0 006 18.6a3.2 3.2 0 001.9.7h.2a12.7 12.7 0 01-6.5 2.9 25.5 25.5 0 006.9 1.1 10.6 10.6 0 003.1-.5 10.7 10.7 0 005.8-4.2 10.2 10.2 0 001.9-4.7 8.1 8.1 0 00.1-1.6 12.7 12.7 0 00-.3-2.8 11.9 11.9 0 003-4.7zm-7.2 4.8a1 1 0 01-1-1 .9.9 0 011-.9.9.9 0 01.9.9 1 1 0 01-.9 1z" fill="none" stroke="#000" stroke-miterlimit="10"/></svg>