<svg xmlns="http://www.w3.org/2000/svg" viewBox="0 0 24 24"><defs><style>.a{fill:none;stroke:#000;stroke-miterlimit:10;}</style></defs><path class="a" d="M4.66,15.58C2.12,14.85.5,13.74.5,12.5c0-2.21,5.15-4,11.5-4s11.5,1.79,11.5,4c0,1.21-1.54,2.29-4,3"/><path class="a" d="M11.86,19.23c-3.15,3.22-6.16,4.84-7.6,3.83-2-1.43-.22-7.53,4.05-13.64S17.71-.48,19.74.94c1.74,1.22.67,5.85-2.34,11"/><path class="a" d="M15.26,8.82l.43.6c4.27,6.11,6.09,12.21,4,13.64s-7.15-2.37-11.43-8.48S2.22,2.37,4.26.94c1.44-1,4.42.6,7.56,3.79"/><circle class="a" cx="12" cy="12" r="1.5"/></svg>