<svg xmlns="http://www.w3.org/2000/svg" viewBox="0 0 24 24"><defs><style>.a,.b,.c{fill:none;stroke:#000;}.a{stroke-miterlimit:10;}.b,.c{stroke-linejoin:round;}.c{stroke-linecap:round;}</style></defs><rect class="a" x="0.5" y="0.5" width="23" height="23" rx="1.5"/><path class="b" d="M5.5,18V4.5h3a3,3,0,0,1,3,3h0a3,3,0,0,1-3,3H6"/><path class="c" d="M17.5,9.5H15a2.32,2.32,0,0,0-.7.1,1.51,1.51,0,0,0,.16,2.9h0l1.61.54A2,2,0,0,1,17.5,15h0A2.53,2.53,0,0,1,15,17.5H13.5"/><line class="c" x1="5.5" y1="21.5" x2="17.5" y2="21.5"/></svg>