<svg xmlns="http://www.w3.org/2000/svg" viewBox="0 0 24 24"><defs><style>.a,.b{fill:none;stroke:#000;}.a{stroke-linejoin:round;}.b{stroke-miterlimit:10;}</style></defs><path class="a" d="M.5,23.5l1.75-4H5.33L10.19,1.64A1.57,1.57,0,0,1,11.71.5h1.71A1.56,1.56,0,0,1,15,1.73L18.67,19.5h3.07l1.76,4Z"/><path class="b" d="M15.65,5.24A25,25,0,0,1,12,5.5a26.46,26.46,0,0,1-2.72-.14"/><path class="b" d="M16.79,10.85A17.49,17.49,0,0,1,12,11.5,17.87,17.87,0,0,1,7.78,11"/><path class="b" d="M18.15,17.54a16.84,16.84,0,0,1-5.65,1,16.73,16.73,0,0,1-6.39-1.24"/></svg>