<svg xmlns="http://www.w3.org/2000/svg" viewBox="0 0 24 24"><path d="M23.76 9.58c-.08-.38-.18-.75-.29-1.12a12 12 0 00-5.31-6.74 8.18 8.18 0 00-1-.52A11.84 11.84 0 007.77.78a11.75 11.75 0 00-3.43 2L4 3.11a10.57 10.57 0 00-.82.82 11.9 11.9 0 00-3.09 6.66A13 13 0 000 12a10.55 10.55 0 00.06 1.13c0 .36.09.72.15 1.07s.14.66.23 1a12 12 0 005.87 7.38c.3.16.6.3.91.44s.67.27 1 .38a12.18 12.18 0 002.51.54A10.36 10.36 0 0012 24a11.89 11.89 0 006.06-1.66 10 10 0 001-.63l.53-.39a12.18 12.18 0 002.9-3.45 12.06 12.06 0 001.3-8.29zm-5.83-6.83a11 11 0 014.45 5.64c-2.13.06-4.94 1.26-7.75 3.36-.27-.37-.55-.74-.84-1.1s-.64-.77-1-1.13a16.17 16.17 0 005.14-6.77zM12 1a11 11 0 015 1.23 8 8 0 01-1 2.2 19.29 19.29 0 01-3.89 4.35A22.13 22.13 0 005 3.5 11 11 0 0112 1zM1 12.88V12a11 11 0 013.2-7.75 20.74 20.74 0 017.18 5.17c-.51.39-1 .78-1.58 1.15a21.37 21.37 0 01-8.14 3.49l-.45.08c-.08-.41-.13-.83-.21-1.26zm5.9 8c-.11.24-.21.47-.3.7A11.22 11.22 0 012 16.47a13 13 0 01-.5-1.36l.7-.11a23 23 0 008.16-3.59c.6-.4 1.16-.82 1.7-1.25.32.37.64.74.95 1.13s.57.72.84 1.09a24.61 24.61 0 00-1.91 1.69 23.22 23.22 0 00-5 6.83zM12 23a10.81 10.81 0 01-3.24-.49 11.81 11.81 0 01-1.22-.46c0-.14.11-.29.17-.43a22 22 0 014.92-6.85c.59-.57 1.19-1.09 1.8-1.58A22.36 22.36 0 0117.71 20c.11.43.19.83.25 1.22A11 11 0 0112 23zm6.86-2.41a22.49 22.49 0 00-3.65-8c2.65-2 5.35-3.19 7.36-3.19h.1A10.75 10.75 0 0123 12a11 11 0 01-4.14 8.59z"/></svg>