<svg xmlns="http://www.w3.org/2000/svg" viewBox="0 0 24 24"><rect x="0.5" y="8.5" width="23" height="13" rx="1.47" fill="none" stroke="#000" stroke-miterlimit="10"/><path d="M3.5,7V6.5a1,1,0,0,1,1-1h15a1,1,0,0,1,1,1V7" fill="none" stroke="#000" stroke-miterlimit="10"/><path d="M5.5,4V3.5a1,1,0,0,1,1-1h11a1,1,0,0,1,1,1V4" fill="none" stroke="#000" stroke-miterlimit="10"/><path d="M16.5,13.5v1a1,1,0,0,1-1,1h-7a1,1,0,0,1-1-1v-1" fill="none" stroke="#000" stroke-linecap="round" stroke-miterlimit="10"/><circle cx="12" cy="13" r="0.5" fill="none" stroke="#000" stroke-linecap="round" stroke-miterlimit="10"/></svg>