<svg xmlns="http://www.w3.org/2000/svg" viewBox="0 0 24 24"><path d="M.5,5.5h0a3,3,0,0,1,3-3H22A1.5,1.5,0,0,1,23.5,4V20A1.5,1.5,0,0,1,22,21.5H2A1.5,1.5,0,0,1,.5,20V6A1.5,1.5,0,0,1,2,4.5H23.5" fill="none" stroke="#000" stroke-linecap="round" stroke-miterlimit="10"/><path d="M5.5,21.5V13A1.5,1.5,0,0,1,7,11.5H17A1.5,1.5,0,0,1,18.5,13v8.5" fill="none" stroke="#000" stroke-linecap="round" stroke-miterlimit="10"/><line x1="8.5" y1="19.5" x2="15.5" y2="19.5" fill="none" stroke="#000" stroke-linecap="round" stroke-miterlimit="10"/></svg>