<svg xmlns="http://www.w3.org/2000/svg" viewBox="0 0 24 24"><path d="M18.44,2.47H2A1.5,1.5,0,0,0,.49,4V20A1.5,1.5,0,0,0,2,21.47H22a1.5,1.5,0,0,0,1.5-1.5V7.53a3,3,0,0,0-.89-2.13L20.55,3.34A3,3,0,0,0,18.44,2.47Z" fill="none" stroke="#000" stroke-miterlimit="10"/><path d="M23,6.5H20.53a1,1,0,0,1-1.05-1l0-2.66" fill="none" stroke="#000" stroke-miterlimit="10"/><line x1="13.5" y1="6.5" x2="10.5" y2="18.5" fill="none" stroke="#000" stroke-linecap="round" stroke-miterlimit="10"/><path d="M9.5,8.5,5.87,12.13a.61.61,0,0,0-.06.79L8.5,16.5" fill="none" stroke="#000" stroke-linecap="round" stroke-miterlimit="10"/><path d="M15.5,8.5l2.69,3.58a.61.61,0,0,1-.06.79L14.5,16.5" fill="none" stroke="#000" stroke-linecap="round" stroke-miterlimit="10"/></svg>