<svg xmlns="http://www.w3.org/2000/svg" viewBox="0 0 24 24"><path d="M20.5,5.54V22a1.5,1.5,0,0,1-1.5,1.5H5A1.5,1.5,0,0,1,3.51,22V2A1.5,1.5,0,0,1,5,.46H15.44a3,3,0,0,1,2.14.89l2.06,2.08A3,3,0,0,1,20.5,5.54Z" fill="none" stroke="#000" stroke-miterlimit="10"/><path d="M16.48,1V3.45a1,1,0,0,0,1,1l2.66,0" fill="none" stroke="#000" stroke-miterlimit="10"/><line x1="6.5" y1="5" x2="6.5" y2="12" fill="none" stroke="#000" stroke-miterlimit="10"/><path d="M7,5.5H8A1.5,1.5,0,0,1,9.5,7h0A1.5,1.5,0,0,1,8,8.5H7" fill="none" stroke="#000" stroke-miterlimit="10"/><line x1="12.5" y1="7.5" x2="12.5" y2="13.5" fill="none" stroke="#000" stroke-miterlimit="10"/><polyline points="6.5 13.5 12.5 13.5 16.5 16.5" fill="none" stroke="#000" stroke-miterlimit="10"/><path d="M12,7.5A5.5,5.5,0,1,1,6.5,13" fill="none" stroke="#000" stroke-miterlimit="10"/></svg>