<svg xmlns="http://www.w3.org/2000/svg" viewBox="0 0 24 24"><path d="M20.5,5.54V22a1.5,1.5,0,0,1-1.5,1.5H5A1.5,1.5,0,0,1,3.51,22V2A1.5,1.5,0,0,1,5,.46H15.44a3,3,0,0,1,2.14.89l2.06,2.08A3,3,0,0,1,20.5,5.54Z" fill="none" stroke="#000" stroke-miterlimit="10"/><path d="M16.48,1V3.45a1,1,0,0,0,1,1l2.66,0" fill="none" stroke="#000" stroke-miterlimit="10"/><path d="M4,14.5H5.47a1,1,0,0,1,1,1v3.24a1,1,0,0,0,1.52.9l9.25-5a1,1,0,0,1,.49-.13H20" fill="none" stroke="#000" stroke-miterlimit="10"/><path d="M8.5,6.81v7.51a.71.71,0,0,0,1,.63l6.39-3.38A.71.71,0,0,0,16,10.34L9.6,6.21A.71.71,0,0,0,8.5,6.81Z" fill="none" stroke="#000" stroke-miterlimit="10"/></svg>