<svg xmlns="http://www.w3.org/2000/svg" viewBox="0 0 24 24"><path d="M16.76,16.64l.09-.33a.93.93,0,0,0-1-1.14h0A40,40,0,0,0,5.24,17.35h0a1.1,1.1,0,0,0-.25,2H5a1.1,1.1,0,0,0,1.65-.53l1.52-4.05C8.82,13,9.41,11.18,9.93,9.38l.74-2.62A1.31,1.31,0,0,0,9.41,5.09h0a1.31,1.31,0,0,0-1.14,2L9.39,9q1.77,3.08,3.82,6L14.68,17A1.17,1.17,0,0,0,16.76,16.64Z" fill="none" stroke="#000" stroke-miterlimit="10"/><path d="M18.44,2.47H2A1.5,1.5,0,0,0,.49,4V20A1.5,1.5,0,0,0,2,21.47H22a1.5,1.5,0,0,0,1.5-1.5V7.53a3,3,0,0,0-.89-2.13L20.55,3.34A3,3,0,0,0,18.44,2.47Z" fill="none" stroke="#000" stroke-miterlimit="10"/><path d="M23,6.5H20.53a1,1,0,0,1-1.05-1l0-2.66" fill="none" stroke="#000" stroke-miterlimit="10"/></svg>