<svg xmlns="http://www.w3.org/2000/svg" viewBox="0 0 24 24"><path d="M20.5,5.54V22a1.5,1.5,0,0,1-1.5,1.5H5A1.5,1.5,0,0,1,3.51,22V2A1.5,1.5,0,0,1,5,.46H15.44a3,3,0,0,1,2.14.89l2.06,2.08A3,3,0,0,1,20.5,5.54Z" fill="none" stroke="#000" stroke-miterlimit="10"/><path d="M16.48,1V3.45a1,1,0,0,0,1,1l2.66,0" fill="none" stroke="#000" stroke-miterlimit="10"/><path d="M4,14.5H5.37A1.14,1.14,0,0,1,6.5,15.63v3.74A1.14,1.14,0,0,0,7.63,20.5h8.74a1.14,1.14,0,0,0,1.13-1.13V15.63a1.14,1.14,0,0,1,1.13-1.13H20" fill="none" stroke="#000" stroke-miterlimit="10"/><path d="M14.5,15.5V6.57A1,1,0,0,1,16,5.69l1.53.81" fill="none" stroke="#000" stroke-linecap="round" stroke-miterlimit="10"/><ellipse cx="11.53" cy="16.02" rx="3.19" ry="2.62" transform="translate(-7.5 10.79) rotate(-38.88)" fill="none" stroke="#000" stroke-linecap="round" stroke-miterlimit="10"/></svg>