<svg xmlns="http://www.w3.org/2000/svg" viewBox="0 0 24 24"><path d="M18.44,2.47H2A1.5,1.5,0,0,0,.49,4V20A1.5,1.5,0,0,0,2,21.47H22a1.5,1.5,0,0,0,1.5-1.5V7.53a3,3,0,0,0-.89-2.13L20.55,3.34A3,3,0,0,0,18.44,2.47Z" fill="none" stroke="#000" stroke-miterlimit="10"/><path d="M23,6.5H20.53a1,1,0,0,1-1.05-1l0-2.66" fill="none" stroke="#000" stroke-miterlimit="10"/><path d="M4.7,10.81a1.07,1.07,0,0,1,.8,1V12a1.28,1.28,0,0,0,1,1.24" fill="none" stroke="#000" stroke-linecap="round" stroke-miterlimit="10"/><path d="M6.3,7.81a1.07,1.07,0,0,0-.8,1V9a1.28,1.28,0,0,1-1,1.24" fill="none" stroke="#000" stroke-linecap="round" stroke-miterlimit="10"/><line x1="9.5" y1="10.5" x2="14.5" y2="10.5" fill="none" stroke="#000" stroke-linecap="round" stroke-miterlimit="10"/><line x1="9.5" y1="12.5" x2="14.5" y2="12.5" fill="none" stroke="#000" stroke-linecap="round" stroke-miterlimit="10"/><path d="M19.3,15.81a1.07,1.07,0,0,0-.8,1V17a1.28,1.28,0,0,1-.95,1.24" fill="none" stroke="#000" stroke-linecap="round" stroke-miterlimit="10"/><path d="M17.7,12.81a1.07,1.07,0,0,1,.8,1V14a1.28,1.28,0,0,0,.95,1.24" fill="none" stroke="#000" stroke-linecap="round" stroke-miterlimit="10"/><line x1="9.5" y1="14.5" x2="14.5" y2="14.5" fill="none" stroke="#000" stroke-linecap="round" stroke-miterlimit="10"/></svg>