<svg xmlns="http://www.w3.org/2000/svg" viewBox="0 0 24 24"><path d="M20.5,5.54V22a1.5,1.5,0,0,1-1.5,1.5H5A1.5,1.5,0,0,1,3.51,22V2A1.5,1.5,0,0,1,5,.46H15.44a3,3,0,0,1,2.14.89l2.06,2.08A3,3,0,0,1,20.5,5.54Z" fill="none" stroke="#000" stroke-miterlimit="10"/><path d="M16.48,1V3.45a1,1,0,0,0,1,1l2.66,0" fill="none" stroke="#000" stroke-miterlimit="10"/><path d="M18.11,16.64l.08-.33a.92.92,0,0,0-1-1.14h0A39.88,39.88,0,0,0,6.59,17.35h0a1.1,1.1,0,0,0-.25,2h0A1.1,1.1,0,0,0,8,18.78l1.52-4.05c.66-1.76,1.25-3.55,1.76-5.35L12,6.76a1.31,1.31,0,0,0-1.26-1.67h0a1.31,1.31,0,0,0-1.14,2l1.12,2a70.08,70.08,0,0,0,3.82,6L16,17A1.17,1.17,0,0,0,18.11,16.64Z" fill="none" stroke="#000" stroke-miterlimit="10"/></svg>