<svg xmlns="http://www.w3.org/2000/svg" viewBox="0 0 24 24"><path d="M18.44,2.47H2A1.5,1.5,0,0,0,.49,4V20A1.5,1.5,0,0,0,2,21.47H22a1.5,1.5,0,0,0,1.5-1.5V7.53a3,3,0,0,0-.89-2.13L20.55,3.34A3,3,0,0,0,18.44,2.47Z" fill="none" stroke="#000" stroke-miterlimit="10"/><path d="M23,6.5H20.53a1,1,0,0,1-1.05-1l0-2.66" fill="none" stroke="#000" stroke-miterlimit="10"/><line x1="13.5" y1="8.5" x2="10.5" y2="11.5" fill="none" stroke="#000" stroke-linecap="round" stroke-miterlimit="10"/><line x1="10.5" y1="8.5" x2="13.5" y2="11.5" fill="none" stroke="#000" stroke-linecap="round" stroke-miterlimit="10"/><line x1="6.5" y1="8.5" x2="8.5" y2="8.5" fill="none" stroke="#000" stroke-linecap="round" stroke-miterlimit="10"/><line x1="7.5" y1="8.5" x2="7.5" y2="11.5" fill="none" stroke="#000" stroke-linecap="round" stroke-miterlimit="10"/><line x1="15.5" y1="8.5" x2="17.5" y2="8.5" fill="none" stroke="#000" stroke-linecap="round" stroke-miterlimit="10"/><line x1="16.5" y1="8.5" x2="16.5" y2="11.5" fill="none" stroke="#000" stroke-linecap="round" stroke-miterlimit="10"/><line x1="4.5" y1="11.5" x2="4.5" y2="11.5" fill="none" stroke="#000" stroke-linecap="round" stroke-miterlimit="10"/><path d="M4.5,14.24c.72,0,.72.52,1.44.52s.72-.52,1.44-.52.72.52,1.44.52.73-.52,1.45-.52.72.52,1.44.52.72-.52,1.45-.52.72.52,1.44.52.73-.52,1.45-.52.73.52,1.45.52" fill="none" stroke="#000" stroke-linecap="round" stroke-miterlimit="10"/><line x1="10.5" y1="16.5" x2="12.5" y2="16.5" fill="none" stroke="#000" stroke-linecap="round" stroke-miterlimit="10"/><line x1="4.5" y1="16.5" x2="8.5" y2="16.5" fill="none" stroke="#000" stroke-linecap="round" stroke-miterlimit="10"/><line x1="15.5" y1="16.5" x2="17.5" y2="16.5" fill="none" stroke="#000" stroke-linecap="round" stroke-miterlimit="10"/></svg>