<svg xmlns="http://www.w3.org/2000/svg" viewBox="0 0 24 24"><path d="M4.5,7.91v9.31a.7.7,0,0,0,1.08.58l6.59-4.26a.7.7,0,0,0,0-1.14l-6.59-5A.69.69,0,0,0,4.5,7.91Z" fill="none" stroke="#000" stroke-miterlimit="10"/><path d="M18.44,2.47H2A1.5,1.5,0,0,0,.49,4V20A1.5,1.5,0,0,0,2,21.47H22a1.5,1.5,0,0,0,1.5-1.5V7.53a3,3,0,0,0-.89-2.13L20.55,3.34A3,3,0,0,0,18.44,2.47Z" fill="none" stroke="#000" stroke-miterlimit="10"/><path d="M23,6.5H20.53a1,1,0,0,1-1.05-1l0-2.66" fill="none" stroke="#000" stroke-miterlimit="10"/></svg>