<svg xmlns="http://www.w3.org/2000/svg" viewBox="0 0 24 24"><path d="M20.5,5.54V22a1.5,1.5,0,0,1-1.5,1.5H5A1.5,1.5,0,0,1,3.51,22V2A1.5,1.5,0,0,1,5,.46H15.44a3,3,0,0,1,2.14.89l2.06,2.08A3,3,0,0,1,20.5,5.54Z" fill="none" stroke="#000" stroke-miterlimit="10"/><path d="M16.48,1V3.45a1,1,0,0,0,1,1l2.66,0" fill="none" stroke="#000" stroke-miterlimit="10"/><path d="M4,14.5H5.37A1.14,1.14,0,0,1,6.5,15.63v3.74A1.14,1.14,0,0,0,7.63,20.5h8.74a1.14,1.14,0,0,0,1.13-1.13V15.63a1.14,1.14,0,0,1,1.13-1.13H20" fill="none" stroke="#000" stroke-miterlimit="10"/><path d="M6.5,17.5V11.06A1.48,1.48,0,0,1,8,9.58h8a1.48,1.48,0,0,1,1.48,1.48V17.5" fill="none" stroke="#000" stroke-miterlimit="10"/><path d="M7,16l2.6-1.11a1,1,0,0,1,1.3.5L13,20" fill="none" stroke="#000" stroke-linecap="round" stroke-miterlimit="10"/><path d="M11.5,16.5,14.81,14a1,1,0,0,1,1.3.09L17.5,15.5" fill="none" stroke="#000" stroke-linecap="round" stroke-miterlimit="10"/><circle cx="9" cy="12" r="0.5" fill="none" stroke="#000" stroke-miterlimit="10"/></svg>