<?xml version="1.0" encoding="UTF-8" standalone="no"?>
<svg
   viewBox="0 0 24 24"
   version="1.1"
   id="svg18"
   sodipodi:docname="file-xls.svg"
   inkscape:version="1.1 (c4e8f9ed74, 2021-05-24)"
   xmlns:inkscape="http://www.inkscape.org/namespaces/inkscape"
   xmlns:sodipodi="http://sodipodi.sourceforge.net/DTD/sodipodi-0.dtd"
   xmlns="http://www.w3.org/2000/svg"
   xmlns:svg="http://www.w3.org/2000/svg">
  <defs
     id="defs22" />
  <sodipodi:namedview
     id="namedview20"
     pagecolor="#505050"
     bordercolor="#eeeeee"
     borderopacity="1"
     inkscape:pageshadow="0"
     inkscape:pageopacity="0"
     inkscape:pagecheckerboard="0"
     showgrid="true"
     inkscape:snap-intersection-paths="true"
     inkscape:snap-others="false"
     inkscape:object-nodes="false"
     inkscape:snap-smooth-nodes="false"
     inkscape:snap-midpoints="false"
     inkscape:snap-bbox="true"
     inkscape:bbox-nodes="true"
     inkscape:bbox-paths="true"
     inkscape:zoom="28.541667"
     inkscape:cx="12"
     inkscape:cy="12"
     inkscape:window-width="1600"
     inkscape:window-height="900"
     inkscape:window-x="0"
     inkscape:window-y="0"
     inkscape:window-maximized="1"
     inkscape:current-layer="svg18">
    <inkscape:grid
       type="xygrid"
       id="grid1125" />
  </sodipodi:namedview>
  <line
     x1="4.5"
     y1="6.5"
     x2="9.5"
     y2="11.5"
     fill="none"
     stroke="#000000"
     stroke-linecap="round"
     stroke-miterlimit="10"
     id="line4" />
  <line
     x1="9.5"
     y1="6.5"
     x2="4.5"
     y2="11.5"
     fill="none"
     stroke="#000000"
     stroke-linecap="round"
     stroke-miterlimit="10"
     id="line6" />
  <line
     x1="5"
     y1="15.5"
     x2="12"
     y2="15.5"
     fill="none"
     stroke="#000000"
     stroke-miterlimit="10"
     id="line8"
     style="stroke-width:1;stroke-linecap:butt;stroke-miterlimit:10;stroke-dasharray:none;paint-order:normal" />
  <line
     x1="8.5"
     y1="14.4"
     x2="8.5"
     y2="17.6"
     fill="none"
     stroke="#000000"
     stroke-linecap="round"
     stroke-miterlimit="10"
     id="line10"
     style="stroke-width:0.894427" />
  <line
     x1="12.447213"
     y1="14.447213"
     x2="12.447213"
     y2="17.647215"
     fill="none"
     stroke="#000000"
     stroke-linecap="round"
     stroke-miterlimit="10"
     id="line12"
     style="stroke-width:0.894427" />
  <path
     d="M18.44,2.47H2A1.5,1.5,0,0,0,.49,4V20A1.5,1.5,0,0,0,2,21.47H22a1.5,1.5,0,0,0,1.5-1.5V7.53a3,3,0,0,0-.89-2.13L20.55,3.34A3,3,0,0,0,18.44,2.47Z"
     fill="none"
     stroke="#000"
     stroke-miterlimit="10"
     id="path14" />
  <path
     d="M23,6.5H20.53a1,1,0,0,1-1.05-1l0-2.66"
     fill="none"
     stroke="#000"
     stroke-miterlimit="10"
     id="path16" />
  <line
     x1="4.5527864"
     y1="14.447213"
     x2="4.5527864"
     y2="17.647215"
     fill="none"
     stroke="#000000"
     stroke-linecap="round"
     stroke-miterlimit="10"
     id="line1183"
     style="stroke-width:0.894427" />
</svg>
