<svg xmlns="http://www.w3.org/2000/svg" viewBox="0 0 24 24"><path d="M18.44,2.47H2A1.5,1.5,0,0,0,.49,4V20A1.5,1.5,0,0,0,2,21.47H22a1.5,1.5,0,0,0,1.5-1.5V7.53a3,3,0,0,0-.89-2.13L20.55,3.34A3,3,0,0,0,18.44,2.47Z" fill="none" stroke="#000" stroke-miterlimit="10"/><path d="M23,6.5H20.53a1,1,0,0,1-1.05-1l0-2.66" fill="none" stroke="#000" stroke-miterlimit="10"/><path d="M5.7,12.81a1.07,1.07,0,0,1,.8,1V15a1.69,1.69,0,0,0,1,1.52" fill="none" stroke="#000" stroke-linecap="round" stroke-miterlimit="10"/><path d="M7.5,8.5a1.69,1.69,0,0,0-1,1.34V11a1.28,1.28,0,0,1-1,1.24" fill="none" stroke="#000" stroke-linecap="round" stroke-miterlimit="10"/><path d="M17.3,12.81a1.07,1.07,0,0,0-.8,1V15a1.69,1.69,0,0,1-1,1.52" fill="none" stroke="#000" stroke-linecap="round" stroke-miterlimit="10"/><path d="M15.5,8.5a1.69,1.69,0,0,1,1,1.34V11a1.28,1.28,0,0,0,.95,1.24" fill="none" stroke="#000" stroke-linecap="round" stroke-miterlimit="10"/><line x1="9.5" y1="15.5" x2="9.5" y2="15.5" fill="none" stroke="#000" stroke-linecap="round" stroke-miterlimit="10"/><line x1="13.5" y1="15.5" x2="13.5" y2="15.5" fill="none" stroke="#000" stroke-linecap="round" stroke-miterlimit="10"/><line x1="11.5" y1="15.5" x2="11.5" y2="15.5" fill="none" stroke="#000" stroke-linecap="round" stroke-miterlimit="10"/></svg>