<?xml version="1.0" encoding="UTF-8" standalone="no"?>
<svg
   viewBox="0 0 24 24"
   version="1.1"
   id="svg16"
   sodipodi:docname="file-ppt.svg"
   inkscape:version="1.1 (c4e8f9ed74, 2021-05-24)"
   xmlns:inkscape="http://www.inkscape.org/namespaces/inkscape"
   xmlns:sodipodi="http://sodipodi.sourceforge.net/DTD/sodipodi-0.dtd"
   xmlns="http://www.w3.org/2000/svg"
   xmlns:svg="http://www.w3.org/2000/svg">
  <defs
     id="defs20" />
  <sodipodi:namedview
     id="namedview18"
     pagecolor="#505050"
     bordercolor="#eeeeee"
     borderopacity="1"
     inkscape:pageshadow="0"
     inkscape:pageopacity="0"
     inkscape:pagecheckerboard="0"
     showgrid="true"
     inkscape:snap-bbox="true"
     inkscape:snap-others="false"
     inkscape:bbox-paths="true"
     inkscape:bbox-nodes="true"
     inkscape:object-nodes="false"
     inkscape:snap-intersection-paths="true"
     inkscape:zoom="28.541667"
     inkscape:cx="12"
     inkscape:cy="12"
     inkscape:window-width="1600"
     inkscape:window-height="900"
     inkscape:window-x="0"
     inkscape:window-y="0"
     inkscape:window-maximized="1"
     inkscape:current-layer="svg16">
    <inkscape:grid
       type="xygrid"
       id="grid837" />
  </sodipodi:namedview>
  <line
     x1="4.5"
     y1="6"
     x2="4.5"
     y2="13"
     fill="none"
     stroke="#000000"
     stroke-miterlimit="10"
     id="line2" />
  <path
     d="M 5,6.5 H 6 A 1.5,1.5 0 0 1 7.5,8 V 8 A 1.5,1.5 0 0 1 6,9.5 H 5"
     fill="none"
     stroke="#000000"
     stroke-miterlimit="10"
     id="path4" />
  <line
     x1="10.5"
     y1="9.5"
     x2="10.5"
     y2="15.5"
     fill="none"
     stroke="#000000"
     stroke-miterlimit="10"
     id="line6"
     style="stroke-linecap:round" />
  <polyline
     points="5.5 13.5 11.5 13.5 15.5 16.5"
     fill="none"
     stroke="#000000"
     stroke-miterlimit="10"
     id="polyline8"
     transform="translate(-1,2)"
     style="stroke-linecap:round" />
  <path
     d="M18.44,2.47H2A1.5,1.5,0,0,0,.49,4V20A1.5,1.5,0,0,0,2,21.47H22a1.5,1.5,0,0,0,1.5-1.5V7.53a3,3,0,0,0-.89-2.13L20.55,3.34A3,3,0,0,0,18.44,2.47Z"
     fill="none"
     stroke="#000"
     stroke-miterlimit="10"
     id="path12" />
  <path
     d="M23,6.5H20.53a1,1,0,0,1-1.05-1l0-2.66"
     fill="none"
     stroke="#000"
     stroke-miterlimit="10"
     id="path14" />
</svg>
