<svg xmlns="http://www.w3.org/2000/svg" viewBox="0 0 24 24"><line x1="5.5" y1="5" x2="5.5" y2="12" fill="none" stroke="#000" stroke-miterlimit="10"/><path d="M6,5.5H7A1.5,1.5,0,0,1,8.5,7h0A1.5,1.5,0,0,1,7,8.5H6" fill="none" stroke="#000" stroke-miterlimit="10"/><line x1="11.5" y1="7.5" x2="11.5" y2="13.5" fill="none" stroke="#000" stroke-miterlimit="10"/><polyline points="5.5 13.5 11.5 13.5 15.5 16.5" fill="none" stroke="#000" stroke-miterlimit="10"/><path d="M11,7.5A5.5,5.5,0,1,1,5.5,13" fill="none" stroke="#000" stroke-miterlimit="10"/><path d="M18.44,2.47H2A1.5,1.5,0,0,0,.49,4V20A1.5,1.5,0,0,0,2,21.47H22a1.5,1.5,0,0,0,1.5-1.5V7.53a3,3,0,0,0-.89-2.13L20.55,3.34A3,3,0,0,0,18.44,2.47Z" fill="none" stroke="#000" stroke-miterlimit="10"/><path d="M23,6.5H20.53a1,1,0,0,1-1.05-1l0-2.66" fill="none" stroke="#000" stroke-miterlimit="10"/></svg>