<svg xmlns="http://www.w3.org/2000/svg" viewBox="0 0 24 24"><path d="M4.5,7.5l1.27,3.8a.3.3,0,0,0,.55,0L7.71,8.58a.32.32,0,0,1,.58,0l1.39,2.76a.3.3,0,0,0,.55,0L11.5,7.5" fill="none" stroke="#000" stroke-linecap="round" stroke-miterlimit="10"/><line x1="5.5" y1="14.5" x2="7.5" y2="14.5" fill="none" stroke="#000" stroke-linecap="round" stroke-miterlimit="10"/><line x1="9.5" y1="14.5" x2="11.5" y2="14.5" fill="none" stroke="#000" stroke-linecap="round" stroke-miterlimit="10"/><line x1="13.5" y1="14.5" x2="15.5" y2="14.5" fill="none" stroke="#000" stroke-linecap="round" stroke-miterlimit="10"/><line x1="5.5" y1="16.5" x2="7.5" y2="16.5" fill="none" stroke="#000" stroke-linecap="round" stroke-miterlimit="10"/><line x1="9.5" y1="16.5" x2="11.5" y2="16.5" fill="none" stroke="#000" stroke-linecap="round" stroke-miterlimit="10"/><line x1="13.5" y1="16.5" x2="15.5" y2="16.5" fill="none" stroke="#000" stroke-linecap="round" stroke-miterlimit="10"/><path d="M18.44,2.47H2A1.5,1.5,0,0,0,.49,4V20A1.5,1.5,0,0,0,2,21.47H22a1.5,1.5,0,0,0,1.5-1.5V7.53a3,3,0,0,0-.89-2.13L20.55,3.34A3,3,0,0,0,18.44,2.47Z" fill="none" stroke="#000" stroke-miterlimit="10"/><path d="M23,6.5H20.53a1,1,0,0,1-1.05-1l0-2.66" fill="none" stroke="#000" stroke-miterlimit="10"/></svg>