<?xml version="1.0" encoding="UTF-8" standalone="no"?>
<svg
   viewBox="0 0 24 24"
   version="1.1"
   id="svg28"
   sodipodi:docname="file-text.svg"
   inkscape:version="1.1 (c4e8f9ed74, 2021-05-24)"
   xmlns:inkscape="http://www.inkscape.org/namespaces/inkscape"
   xmlns:sodipodi="http://sodipodi.sourceforge.net/DTD/sodipodi-0.dtd"
   xmlns="http://www.w3.org/2000/svg"
   xmlns:svg="http://www.w3.org/2000/svg">
  <defs
     id="defs32" />
  <sodipodi:namedview
     id="namedview30"
     pagecolor="#505050"
     bordercolor="#eeeeee"
     borderopacity="1"
     inkscape:pageshadow="0"
     inkscape:pageopacity="0"
     inkscape:pagecheckerboard="0"
     showgrid="true"
     inkscape:snap-bbox="true"
     inkscape:object-nodes="false"
     inkscape:snap-intersection-paths="true"
     inkscape:bbox-nodes="true"
     inkscape:bbox-paths="true"
     inkscape:snap-others="false"
     inkscape:zoom="28.541667"
     inkscape:cx="12"
     inkscape:cy="12"
     inkscape:window-width="1600"
     inkscape:window-height="900"
     inkscape:window-x="0"
     inkscape:window-y="0"
     inkscape:window-maximized="1"
     inkscape:current-layer="svg28">
    <inkscape:grid
       type="xygrid"
       id="grid849" />
  </sodipodi:namedview>
  <path
     d="M18.44,2.47H2A1.5,1.5,0,0,0,.49,4V20A1.5,1.5,0,0,0,2,21.47H22a1.5,1.5,0,0,0,1.5-1.5V7.53a3,3,0,0,0-.89-2.13L20.55,3.34A3,3,0,0,0,18.44,2.47Z"
     fill="none"
     stroke="#000"
     stroke-miterlimit="10"
     id="path2" />
  <path
     d="M23,6.5H20.53a1,1,0,0,1-1.05-1l0-2.66"
     fill="none"
     stroke="#000"
     stroke-miterlimit="10"
     id="path4" />
  <line
     x1="11.5"
     y1="9.5"
     x2="8.5"
     y2="12.5"
     fill="none"
     stroke="#000000"
     stroke-linecap="round"
     stroke-miterlimit="10"
     id="line6" />
  <line
     x1="8.5"
     y1="9.5"
     x2="11.5"
     y2="12.5"
     fill="none"
     stroke="#000000"
     stroke-linecap="round"
     stroke-miterlimit="10"
     id="line8" />
  <line
     x1="4.5"
     y1="9.5"
     x2="6.5"
     y2="9.5"
     fill="none"
     stroke="#000000"
     stroke-linecap="round"
     stroke-miterlimit="10"
     id="line10" />
  <line
     x1="5.5"
     y1="9.5"
     x2="5.5"
     y2="12.5"
     fill="none"
     stroke="#000000"
     stroke-linecap="round"
     stroke-miterlimit="10"
     id="line12" />
  <line
     x1="13.5"
     y1="9.5"
     x2="15.5"
     y2="9.5"
     fill="none"
     stroke="#000000"
     stroke-linecap="round"
     stroke-miterlimit="10"
     id="line14" />
  <line
     x1="14.5"
     y1="9.5"
     x2="14.5"
     y2="12.5"
     fill="none"
     stroke="#000000"
     stroke-linecap="round"
     stroke-miterlimit="10"
     id="line16" />
  <circle
     style="fill:#000000;stroke-linecap:round;stop-color:#000000"
     id="path1113"
     cx="5.5"
     cy="16.5"
     r="0.5" />
  <circle
     style="fill:#000000;stroke-linecap:round;stop-color:#000000"
     id="path1115"
     cx="7.5"
     cy="16.5"
     r="0.5" />
  <circle
     style="fill:#000000;stroke-linecap:round;stop-color:#000000"
     id="path1117"
     cx="9.5"
     cy="16.5"
     r="0.5" />
</svg>
