<svg xmlns="http://www.w3.org/2000/svg" viewBox="0 0 24 24"><path d="M10.5,14.5V6.57A1,1,0,0,1,12,5.69l1.53.81" fill="none" stroke="#000" stroke-linecap="round" stroke-miterlimit="10"/><ellipse cx="7.53" cy="15.02" rx="3.19" ry="2.62" transform="translate(-7.76 8.06) rotate(-38.88)" fill="none" stroke="#000" stroke-linecap="round" stroke-miterlimit="10"/><path d="M18.44,2.47H2A1.5,1.5,0,0,0,.49,4V20A1.5,1.5,0,0,0,2,21.47H22a1.5,1.5,0,0,0,1.5-1.5V7.53a3,3,0,0,0-.89-2.13L20.55,3.34A3,3,0,0,0,18.44,2.47Z" fill="none" stroke="#000" stroke-miterlimit="10"/><path d="M23,6.5H20.53a1,1,0,0,1-1.05-1l0-2.66" fill="none" stroke="#000" stroke-miterlimit="10"/></svg>