<svg xmlns="http://www.w3.org/2000/svg" viewBox="0 0 24 24"><path d="M.5,16.5l8-5.35a1,1,0,0,1,1.47.42L14.5,21.5" fill="none" stroke="#000" stroke-linecap="round" stroke-miterlimit="10"/><path d="M11.5,13.5l4.3-3.44a1,1,0,0,1,1.33.07L23.5,16.5" fill="none" stroke="#000" stroke-linecap="round" stroke-miterlimit="10"/><circle cx="5" cy="6" r="0.5" fill="none" stroke="#000" stroke-miterlimit="10"/><path d="M18.44,2.47H2A1.5,1.5,0,0,0,.49,4V20A1.5,1.5,0,0,0,2,21.47H22a1.5,1.5,0,0,0,1.5-1.5V7.53a3,3,0,0,0-.89-2.13L20.55,3.34A3,3,0,0,0,18.44,2.47Z" fill="none" stroke="#000" stroke-miterlimit="10"/><path d="M23,6.5H20.53a1,1,0,0,1-1.05-1l0-2.66" fill="none" stroke="#000" stroke-miterlimit="10"/></svg>