<svg xmlns="http://www.w3.org/2000/svg" viewBox="0 0 24 24"><path d="M18.44,2.47H2A1.5,1.5,0,0,0,.49,4V20A1.5,1.5,0,0,0,2,21.47H22a1.5,1.5,0,0,0,1.5-1.5V7.53a3,3,0,0,0-.89-2.13L20.55,3.34A3,3,0,0,0,18.44,2.47Z" fill="none" stroke="#000" stroke-miterlimit="10"/><path d="M23,6.5H20.53a1,1,0,0,1-1.05-1l0-2.66" fill="none" stroke="#000" stroke-miterlimit="10"/><line x1="11.5" y1="10.5" x2="8.5" y2="14.5" fill="none" stroke="#000" stroke-linecap="round" stroke-miterlimit="10"/><line x1="8.5" y1="10.5" x2="11.5" y2="14.5" fill="none" stroke="#000" stroke-linecap="round" stroke-miterlimit="10"/><line x1="4.5" y1="10.5" x2="6.5" y2="10.5" fill="none" stroke="#000" stroke-linecap="round" stroke-miterlimit="10"/><line x1="5.5" y1="10.5" x2="5.5" y2="14.5" fill="none" stroke="#000" stroke-linecap="round" stroke-miterlimit="10"/><line x1="13.5" y1="10.5" x2="15.5" y2="10.5" fill="none" stroke="#000" stroke-linecap="round" stroke-miterlimit="10"/><line x1="14.5" y1="10.5" x2="14.5" y2="14.5" fill="none" stroke="#000" stroke-linecap="round" stroke-miterlimit="10"/><line x1="10.5" y1="8.5" x2="19.5" y2="8.5" fill="none" stroke="#000" stroke-linecap="round" stroke-miterlimit="10"/><line x1="17.5" y1="11.5" x2="19.5" y2="11.5" fill="none" stroke="#000" stroke-linecap="round" stroke-miterlimit="10"/><line x1="17.5" y1="14.5" x2="19.5" y2="14.5" fill="none" stroke="#000" stroke-linecap="round" stroke-miterlimit="10"/><line x1="8.5" y1="17.5" x2="19.5" y2="17.5" fill="none" stroke="#000" stroke-linecap="round" stroke-miterlimit="10"/><line x1="4.5" y1="17.5" x2="6.5" y2="17.5" fill="none" stroke="#000" stroke-linecap="round" stroke-miterlimit="10"/></svg>