<svg xmlns="http://www.w3.org/2000/svg" viewBox="0 0 24 24"><path d="M18.44,2.47H2A1.5,1.5,0,0,0,.49,4V20A1.5,1.5,0,0,0,2,21.47H22a1.5,1.5,0,0,0,1.5-1.5V7.53a3,3,0,0,0-.89-2.13L20.55,3.34A3,3,0,0,0,18.44,2.47Z" fill="none" stroke="#000" stroke-miterlimit="10"/><path d="M23,6.5H20.53a1,1,0,0,1-1.05-1l0-2.66" fill="none" stroke="#000" stroke-miterlimit="10"/><line x1="12.5" y1="7.5" x2="9.5" y2="17.5" fill="none" stroke="#000" stroke-linecap="round" stroke-miterlimit="10"/><path d="M8.5,9.5,5,12.15a.51.51,0,0,0,0,.76L7.5,15.5" fill="none" stroke="#000" stroke-linecap="round" stroke-miterlimit="10"/><path d="M14.5,9.5l2.59,2.59a.51.51,0,0,1-.05.76L13.5,15.5" fill="none" stroke="#000" stroke-linecap="round" stroke-miterlimit="10"/></svg>