<?xml version="1.0" encoding="UTF-8" standalone="no"?>
<svg
   viewBox="0 0 24 24"
   version="1.1"
   id="svg20"
   sodipodi:docname="file-docx.svg"
   inkscape:version="1.1 (c4e8f9ed74, 2021-05-24)"
   xmlns:inkscape="http://www.inkscape.org/namespaces/inkscape"
   xmlns:sodipodi="http://sodipodi.sourceforge.net/DTD/sodipodi-0.dtd"
   xmlns="http://www.w3.org/2000/svg"
   xmlns:svg="http://www.w3.org/2000/svg">
  <defs
     id="defs24" />
  <sodipodi:namedview
     id="namedview22"
     pagecolor="#505050"
     bordercolor="#eeeeee"
     borderopacity="1"
     inkscape:pageshadow="0"
     inkscape:pageopacity="0"
     inkscape:pagecheckerboard="0"
     showgrid="true"
     inkscape:snap-others="false"
     inkscape:object-nodes="false"
     inkscape:snap-intersection-paths="true"
     inkscape:snap-bbox="true"
     inkscape:bbox-paths="true"
     inkscape:bbox-nodes="true"
     inkscape:zoom="28.541667"
     inkscape:cx="12"
     inkscape:cy="12"
     inkscape:window-width="1600"
     inkscape:window-height="900"
     inkscape:window-x="0"
     inkscape:window-y="0"
     inkscape:window-maximized="1"
     inkscape:current-layer="svg20">
    <inkscape:grid
       type="xygrid"
       id="grid921" />
  </sodipodi:namedview>
  <path
     d="M4.5,7.5l1.27,3.8a.3.3,0,0,0,.55,0L7.71,8.58a.32.32,0,0,1,.58,0l1.39,2.76a.3.3,0,0,0,.55,0L11.5,7.5"
     fill="none"
     stroke="#000"
     stroke-linecap="round"
     stroke-miterlimit="10"
     id="path2" />
  <line
     x1="7.4992447"
     y1="17.5"
     x2="8.4996223"
     y2="17.5"
     fill="none"
     stroke="#000000"
     stroke-linecap="round"
     stroke-miterlimit="10"
     id="line12"
     style="stroke-width:1;stroke-miterlimit:10;stroke-dasharray:none" />
  <path
     d="M18.44,2.47H2A1.5,1.5,0,0,0,.49,4V20A1.5,1.5,0,0,0,2,21.47H22a1.5,1.5,0,0,0,1.5-1.5V7.53a3,3,0,0,0-.89-2.13L20.55,3.34A3,3,0,0,0,18.44,2.47Z"
     fill="none"
     stroke="#000"
     stroke-miterlimit="10"
     id="path16" />
  <path
     d="M23,6.5H20.53a1,1,0,0,1-1.05-1l0-2.66"
     fill="none"
     stroke="#000"
     stroke-miterlimit="10"
     id="path18" />
  <line
     x1="7.4992447"
     y1="15.5"
     x2="8.4996223"
     y2="15.5"
     fill="none"
     stroke="#000000"
     stroke-linecap="round"
     stroke-miterlimit="10"
     id="line1585"
     style="stroke-width:1;stroke-miterlimit:10;stroke-dasharray:none" />
  <line
     x1="4.4996223"
     y1="15.5"
     x2="5.5"
     y2="15.5"
     fill="none"
     stroke="#000000"
     stroke-linecap="round"
     stroke-miterlimit="10"
     id="line1587"
     style="stroke-width:1;stroke-miterlimit:10;stroke-dasharray:none" />
  <line
     x1="4.4996223"
     y1="17.5"
     x2="5.5"
     y2="17.5"
     fill="none"
     stroke="#000000"
     stroke-linecap="round"
     stroke-miterlimit="10"
     id="line1589"
     style="stroke-width:1;stroke-miterlimit:10;stroke-dasharray:none" />
  <line
     x1="10.499622"
     y1="17.5"
     x2="11.5"
     y2="17.5"
     fill="none"
     stroke="#000000"
     stroke-linecap="round"
     stroke-miterlimit="10"
     id="line1591"
     style="stroke-width:1;stroke-miterlimit:10;stroke-dasharray:none" />
  <line
     x1="10.499622"
     y1="15.5"
     x2="11.5"
     y2="15.5"
     fill="none"
     stroke="#000000"
     stroke-linecap="round"
     stroke-miterlimit="10"
     id="line1593"
     style="stroke-width:1;stroke-miterlimit:10;stroke-dasharray:none" />
</svg>
