<svg xmlns="http://www.w3.org/2000/svg" viewBox="0 0 24 24"><path d="M1.5,6V4A1.5,1.5,0,0,1,3,2.5H8.89A2,2,0,0,1,10,2.84l2,1.32a2,2,0,0,0,1.11.34H22A1.5,1.5,0,0,1,23.5,6V20A1.5,1.5,0,0,1,22,21.5H2A1.5,1.5,0,0,1,.5,20V8A1.5,1.5,0,0,1,2,6.5H23.5" fill="none" stroke="#000" stroke-linecap="round" stroke-miterlimit="10"/><circle cx="12.5" cy="14.5" r="2" fill="none" stroke="#000" stroke-linecap="round" stroke-miterlimit="10"/><circle cx="5.5" cy="14.5" r="1" fill="none" stroke="#000" stroke-linecap="round" stroke-miterlimit="10"/><circle cx="19.5" cy="14.5" r="1" fill="none" stroke="#000" stroke-linecap="round" stroke-miterlimit="10"/><line x1="14.88" y1="14.5" x2="18.5" y2="14.5" fill="none" stroke="#000" stroke-linecap="round" stroke-miterlimit="10"/><line x1="6.5" y1="14.5" x2="10.26" y2="14.5" fill="none" stroke="#000" stroke-linecap="round" stroke-miterlimit="10"/><line x1="12.5" y1="16.5" x2="12.5" y2="21" fill="none" stroke="#000" stroke-miterlimit="10"/></svg>