<svg xmlns="http://www.w3.org/2000/svg" viewBox="0 0 24 22"><title>toyota</title><path d="M12,11C7.38,11,3.58,9.07,3.06,6.58A9,9,0,0,0,1.24,12c0,5.38,4.83,9.76,10.76,9.76S22.76,17.38,22.76,12a9,9,0,0,0-1.82-5.42C20.42,9.07,16.62,11,12,11Z" transform="translate(0 -1)" fill="none"/><path d="M12,9.71c4.54,0,7.71-2,7.71-3.71a2,2,0,0,0-.48-1.2,11.19,11.19,0,0,0-5-2.34,15.24,15.24,0,0,0-4.54,0,11.19,11.19,0,0,0-5,2.34A2,2,0,0,0,4.29,6C4.29,7.75,7.46,9.71,12,9.71Z" transform="translate(0 -1)" fill="none"/><path d="M14.27,2.46a11.82,11.82,0,0,0-4.54,0,15.24,15.24,0,0,1,4.54,0Z" transform="translate(0 -1)"/><path d="M19.23,4.8A2,2,0,0,1,19.71,6c0,1.75-3.17,3.71-7.71,3.71S4.29,7.75,4.29,6a2,2,0,0,1,.48-1.2A10.28,10.28,0,0,0,3.06,6.58C3.58,9.07,7.38,11,12,11s8.42-1.93,8.94-4.42A10.28,10.28,0,0,0,19.23,4.8Z" transform="translate(0 -1)"/><path d="M4.77,4.8a11.19,11.19,0,0,1,5-2.34A7.94,7.94,0,0,0,4.77,4.8Z" transform="translate(0 -1)"/><path d="M20.3,4.07A3.18,3.18,0,0,1,21,6a3.8,3.8,0,0,1-.06.58A9,9,0,0,1,22.76,12c0,5.38-4.83,9.76-10.76,9.76S1.24,17.38,1.24,12A9,9,0,0,1,3.06,6.58,3.8,3.8,0,0,1,3,6a3.18,3.18,0,0,1,.7-1.93A10.53,10.53,0,0,0,0,12c0,6.08,5.37,11,12,11s12-4.92,12-11A10.53,10.53,0,0,0,20.3,4.07Z" transform="translate(0 -1)"/><path d="M14.27,2.46a11.19,11.19,0,0,1,5,2.34A7.94,7.94,0,0,0,14.27,2.46Z" transform="translate(0 -1)"/><path d="M3.06,6.58A10.28,10.28,0,0,1,4.77,4.8a7.94,7.94,0,0,1,5-2.34,11.82,11.82,0,0,1,4.54,0,7.94,7.94,0,0,1,5,2.34,10.28,10.28,0,0,1,1.71,1.78A3.8,3.8,0,0,0,21,6a3.18,3.18,0,0,0-.7-1.93A12.5,12.5,0,0,0,12,1,12.5,12.5,0,0,0,3.7,4.07,3.18,3.18,0,0,0,3,6,3.8,3.8,0,0,0,3.06,6.58Z" transform="translate(0 -1)"/><path d="M12,3.39c1.47,0,3.61,3.55,3.61,9.11S13.47,21.61,12,21.61,8.39,18.06,8.39,12.5,10.53,3.39,12,3.39M12,2C9.24,2,7,6.7,7,12.5S9.24,23,12,23s5-4.7,5-10.5S14.76,2,12,2Z" transform="translate(0 -1)"/></svg>