<svg xmlns="http://www.w3.org/2000/svg" viewBox="0 0 24 16"><title>voucher</title><path d="M23,5V7.49l-2.72,2.79-.28.29v2.88l.29.29L23,16.43V19H1V16.42l2.72-2.79L4,13.34V10.56l-.29-.29L1,7.57V5H23m1-1H0V8l3,3v2L0,16v4H24V16l-3-3V11L24,7.9V4Z" transform="translate(0 -4)"/><path d="M12,8a4,4,0,1,1-4,4,4,4,0,0,1,4-4m0-1a5,5,0,1,0,5,5,5,5,0,0,0-5-5Z" transform="translate(0 -4)"/><polygon points="14.49 7.84 14.18 6.88 12.53 7.41 12.53 5.68 11.52 5.68 11.52 7.41 9.87 6.88 9.56 7.84 11.21 8.38 10.19 9.78 11.01 10.38 12.03 8.97 13.05 10.38 13.87 9.78 12.85 8.38 14.49 7.84"/></svg>