<svg xmlns="http://www.w3.org/2000/svg" viewBox="0 0 8.25 8.1"><path d="M2.74 8.1a2.53 2.53 0 01-1.39-.38 2.68 2.68 0 01-1-1 3.09 3.09 0 01-.33-1.55 3.19 3.19 0 01.35-1.5 2.72 2.72 0 011-1 2.66 2.66 0 011.41-.38 2.6 2.6 0 011.24.28 2.22 2.22 0 01.9.87v-1h1v5.51h-1v-1a2.53 2.53 0 01-.93.88 2.39 2.39 0 01-1.25.27zm.28-.9a1.83 1.83 0 001-.26 1.75 1.75 0 00.68-.72 2.08 2.08 0 00.25-1 2.09 2.09 0 00-.25-1 1.75 1.75 0 00-.68-.81 1.83 1.83 0 00-1-.26 1.86 1.86 0 00-1.69 1 2.31 2.31 0 000 2.09 1.86 1.86 0 001.69 1zM7.6 1.31a.63.63 0 01-.33-.09.66.66 0 01-.25-.24.65.65 0 010-.66.72.72 0 01.23-.23.65.65 0 01.66 0 .84.84 0 01.23.23.65.65 0 010 .66.76.76 0 01-.23.24.63.63 0 01-.31.09zm-.52 6.62V2.42h1v5.51z"/></svg>