<svg xmlns="http://www.w3.org/2000/svg" viewBox="0 0 7.38 11.65"><path d="M.1 9.92h3.8v1.73H.1zM0 .08h1.61c1 0 1.85.37 1.85 1.5s-.84 1.59-1.83 1.59h-.57v1.58H0zm1.57 2.25c.58 0 .86-.26.86-.75S2.11.92 1.54.92h-.48v1.41zM3.9 4.16l.61-.72a1.83 1.83 0 001.15.48c.44 0 .65-.17.65-.45s-.26-.38-.67-.55l-.62-.27a1.36 1.36 0 01-.94-1.27A1.51 1.51 0 015.74 0a2.14 2.14 0 011.5.65l-.53.66a1.55 1.55 0 00-1-.36c-.36 0-.59.15-.59.42s.3.39.71.55l.59.24a1.29 1.29 0 01.93 1.27c0 .77-.65 1.44-1.76 1.44a2.61 2.61 0 01-1.69-.71z"/></svg>