<svg xmlns="http://www.w3.org/2000/svg" viewBox="0 0 16 10.91"><path d="M0 0v10.9h16V0zm15.27 10.18H.73V.72h14.54z"/><rect x="2.58" y="2.18" width="2.18" height="2.18" rx=".37"/><path d="M2.77 8.79h.56a.18.18 0 00.13-.06.16.16 0 00.06-.13V7.53a.2.2 0 00-.06-.14.21.21 0 00-.13 0h-.56a.19.19 0 00-.13 0 .2.2 0 00-.06.14V8.6a.21.21 0 00.19.19zm0-.22v-1h.5v1zM4 7.95a.1.1 0 00-.11.11v.08a.12.12 0 00.11.11h.72a.12.12 0 00.11-.11v-.08a.11.11 0 000-.08.13.13 0 00-.08 0zm1.32.62a.12.12 0 00-.11.11.1.1 0 00.11.11H6a.1.1 0 00.11-.11v-.46a.11.11 0 000-.08.11.11 0 00-.15 0 .11.11 0 000 .08v.35h-.17V7.34h-.46a.1.1 0 00-.11.11.09.09 0 000 .07.11.11 0 00.08 0h.25v1zm1.32-1.02h.62v.4h-.53a.2.2 0 00-.14.06.24.24 0 000 .14v.64h.83a.09.09 0 00.07 0 .1.1 0 000-.16.09.09 0 00-.07 0h-.67v-.4h.53a.2.2 0 00.14-.06.18.18 0 00.06-.14V7.6a.17.17 0 00-.06-.15.2.2 0 00-.14-.06h-.64a.1.1 0 00-.11.11.09.09 0 000 .07.11.11 0 00.11-.02zm1.36 0h.62v.33a.08.08 0 010 .05.06.06 0 01-.05 0h-.43a.09.09 0 00-.07 0 .13.13 0 000 .08.11.11 0 000 .08.09.09 0 00.07 0h.41v.33H8a.09.09 0 00-.07 0 .12.12 0 000 .16.09.09 0 00.07 0h.6a.21.21 0 00.2-.2v-.35a.34.34 0 00-.07-.18.29.29 0 00.06-.19v-.33a.22.22 0 000-.14.2.2 0 00-.14-.06H8a.1.1 0 00-.11.11.09.09 0 000 .07.132.132 0 00.11.24zm1.28.7H10a.12.12 0 00.11-.11v-.08a.1.1 0 00-.11-.11h-.72a.12.12 0 00-.11.11v.08a.15.15 0 00.11.11zm1.8.43a.11.11 0 000 .08.09.09 0 00.07 0 .1.1 0 00.11-.11v-.36h.06a.09.09 0 000-.07.11.11 0 000-.08h-.06v-.51a.09.09 0 000-.07.09.09 0 00-.15 0 .09.09 0 000 .07v.51h-.33v-.69a.11.11 0 000-.08.11.11 0 00-.15 0 .11.11 0 000 .08v.88h.54z"/></svg>