<svg xmlns="http://www.w3.org/2000/svg" viewBox="0 0 24 24"><title>research</title><path d="M2.4,1h0C4.7,1,9.65,3.48,15.09,8.91a36.81,36.81,0,0,1,6.75,8.9c1.4,2.81,1.32,4.37.83,4.86A1.44,1.44,0,0,1,21.6,23c-2.3,0-7.25-2.48-12.69-7.91a36.81,36.81,0,0,1-6.75-8.9C.76,3.38.84,1.82,1.33,1.33A1.44,1.44,0,0,1,2.4,1m0-1A2.43,2.43,0,0,0,.62.62c-2.1,2.09,1.3,8.89,7.59,15.17,5,5,10.38,8.21,13.39,8.21a2.43,2.43,0,0,0,1.78-.62c2.1-2.09-1.3-8.89-7.59-15.17C10.77,3.18,5.41,0,2.4,0Z" transform="translate(0 0)"/><path d="M21.6,1h0a1.44,1.44,0,0,1,1.07.33c.49.49.57,2.05-.83,4.86a36.81,36.81,0,0,1-6.75,8.9C9.65,20.52,4.7,23,2.4,23a1.44,1.44,0,0,1-1.07-.33c-.49-.49-.57-2.05.83-4.86a36.81,36.81,0,0,1,6.75-8.9C14.35,3.48,19.3,1,21.6,1m0-1c-3,0-8.37,3.18-13.39,8.21C1.92,14.49-1.48,21.29.62,23.38A2.43,2.43,0,0,0,2.4,24c3,0,8.37-3.18,13.39-8.21C22.08,9.51,25.48,2.71,23.38.62A2.43,2.43,0,0,0,21.6,0Z" transform="translate(0 0)"/><path d="M12,10a2,2,0,1,1-2,2,2,2,0,0,1,2-2m0-1a3,3,0,1,0,3,3,3,3,0,0,0-3-3Z" transform="translate(0 0)"/></svg>