<svg xmlns="http://www.w3.org/2000/svg" viewBox="0 0 24 24"><path d="M18.37,10.23l-.95.26-.16-.07-.1-.14,0-.26-.4-.4a.72.72,0,0,1-.24-.1L16,8.76l-.09-.61-.29-.34s0-.16-.07-.21l-.66-1.38A1.58,1.58,0,0,0,14.67,6l-.76-.12-.85-.17s-.07-.13-.12-.16a.38.38,0,0,0-.21,0l-.31.26c0,.07,0,.24,0,.31a.28.28,0,0,1-.16.12L11.76,6,11,5.51a.61.61,0,0,1-.19,0,.41.41,0,0,1-.16-.16V4.68a2,2,0,0,0-.12-.19h-.36L9,4.59l-.55.09L8,4.94l-.48,0-.68.47-.55.34.1.45-.86.92-.33.71-.1.74,0,.45c0,.08.06.26,0,.33S5,9.39,5,9.43l.09.83.46.4.21.28a3.29,3.29,0,0,0,.33.41l.64.4a.91.91,0,0,0,.33,0c.05,0,.12-.1.17-.12l.52-.05.57,0c.08,0,.25-.06.33-.1s.19-.11.26-.14a.79.79,0,0,1,.22-.05.77.77,0,0,1,.19.08l.35.4h.45a.55.55,0,0,1,.19.12.54.54,0,0,1,.1.16c0,.1-.11.28-.12.38l.09.62.22.28a3.87,3.87,0,0,1,.21.34l.26.49L11,14.5l.16.38a.31.31,0,0,1,0,.19l-.4.73a1.73,1.73,0,0,0,0,.45.85.85,0,0,0,.08.24c0,.08.16.21.21.29l.31.56,0,.69.15.5.47.66.83.74.5.07.57-.19.38-.33.28-.33.24-.43.28-.55a.74.74,0,0,1,0-.21.34.34,0,0,1,.12-.12c.05,0,.17,0,.21,0l.24-.33a.49.49,0,0,0,0-.24c0-.08-.13-.21-.14-.28a1,1,0,0,1,0-.29.72.72,0,0,1,.12-.21l.74-.36a.7.7,0,0,0,.16-.14,1.92,1.92,0,0,0,.12-.43v-.73a2.16,2.16,0,0,1-.16-.22,1.68,1.68,0,0,1-.15-.3l0-.74.23-.43a1.94,1.94,0,0,1,.24-.16l1-1,.54-.71.38-.62v-.33Z" fill="none" stroke="#000" stroke-linejoin="round"/><circle cx="12" cy="12" r="11.5" fill="none" stroke="#000" stroke-miterlimit="10"/></svg>