<svg xmlns="http://www.w3.org/2000/svg" viewBox="0 0 32 32"><path d="M16,28.9c-5.43,0-10.29-3.48-13.21-8.48A23,23,0,0,1,1,16.74.72.72,0,0,1,1,16.41.78.78,0,0,1,1,16.16c2.25-5.39,5.88-10,11.18-11.57A13.16,13.16,0,0,1,16,4c5.2,0,9.9,3.2,12.85,7.88A28.4,28.4,0,0,1,31,16.19a.61.61,0,0,1,.07.24.66.66,0,0,1-.07.3C28.82,22.31,24.76,27,19.35,28.47A13.56,13.56,0,0,1,16,28.9ZM16,6m0,21"/><path d="M16,29a13.45,13.45,0,0,1-5.12-1,16.37,16.37,0,0,1-4.53-2.68,20.58,20.58,0,0,1-3.66-3.85,23.41,23.41,0,0,1-1.45-2.26C1,18.83.81,18.43.61,18l-.29-.61-.14-.31A3,3,0,0,1,0,16.52a.54.54,0,0,1,.44-.62.53.53,0,0,1,.6.36l.07.2a21.16,21.16,0,0,0,2.22,4.6A19,19,0,0,0,6.66,25,15.67,15.67,0,0,0,11,27.76a13.25,13.25,0,0,0,5,1,.1.1,0,0,1,.1.1A.09.09,0,0,1,16,29Z" style="fill:#fcee21"/><path d="M16,2.24a14.83,14.83,0,0,1,5.72,1.24,16.66,16.66,0,0,1,4.74,3.21,19,19,0,0,1,3.37,4.44A21.47,21.47,0,0,1,31,13.6c.17.42.33.84.48,1.25l.23.62.11.31a2.43,2.43,0,0,1,.09.33,1.21,1.21,0,0,1,0,.41.54.54,0,0,1-1.08.05l0-.11a2,2,0,0,0-.2-.54l-.25-.59-.54-1.18a19.68,19.68,0,0,0-1.26-2.25A18.31,18.31,0,0,0,25.31,8,15.15,15.15,0,0,0,21,5.25a13.12,13.12,0,0,0-5-1h0a1,1,0,1,1,0-2Z" style="fill:#fcee21"/><path d="M21.92,15.78A5.67,5.67,0,0,1,22.05,17a6,6,0,1,1-6-6,7.45,7.45,0,0,1,.95.07" style="fill:none;stroke:#fff;stroke-miterlimit:10;stroke-width:2px"/><circle cx="20.05" cy="13.01" r="3.34" style="fill:none;stroke:#fcee21;stroke-miterlimit:10;stroke-width:2px"/></svg>