<svg xmlns="http://www.w3.org/2000/svg" viewBox="0 0 32 32"><path d="M16,29.71c-5.78,0-10.95-3.7-14.06-9A24.71,24.71,0,0,1,.08,16.78.68.68,0,0,1,0,16.44a.84.84,0,0,1,.08-.27C2.47,10.44,6.34,5.55,12,3.87a13.73,13.73,0,0,1,4-.59c5.53,0,10.53,3.39,13.67,8.37a30.44,30.44,0,0,1,2.25,4.54.87.87,0,0,1,.08.26.71.71,0,0,1-.07.32c-2.29,5.94-6.61,11-12.37,12.48A13.91,13.91,0,0,1,16,29.71ZM16,5.34m0,22.31" style="fill:#333"/><path d="M23.33,15.08a8.67,8.67,0,0,1,.17,1.7,8.2,8.2,0,1,1-8.19-8.2,9.1,9.1,0,0,1,1.29.1" style="fill:none;stroke:#fff;stroke-miterlimit:10;stroke-width:2px"/><circle cx="20.77" cy="11.31" r="4.55" style="fill:none;stroke:#fff;stroke-miterlimit:10;stroke-width:2px"/></svg>