<svg xmlns="http://www.w3.org/2000/svg" viewBox="0 0 21.73 23.25"><path d="M14.84 2.25A5.86 5.86 0 0120.7 8.1a5.7 5.7 0 01-.33 1.92l-.37.84a5.76 5.76 0 01-.53.82l-8.62 10-8.56-10A5.9 5.9 0 01.98 8.1a5.86 5.86 0 015.87-5.85 5.62 5.62 0 013.39 1.32l.61.45.6-.45a5.67 5.67 0 013.39-1.32m0-1a6.61 6.61 0 00-4 1.52 6.66 6.66 0 00-3.99-1.52A6.85 6.85 0 00-.02 8.1a6.69 6.69 0 00.78 3.15 6.84 6.84 0 00.75 1.17l9.34 10.83 9.38-10.92a6.75 6.75 0 00.67-1l.4-.91a6.75 6.75 0 00.4-2.28 6.86 6.86 0 00-6.86-6.89z"/><path d="M.222 20.804L21.018.008l.707.708L.929 21.512z"/></svg>