<svg xmlns="http://www.w3.org/2000/svg" viewBox="0 0 15.9 16"><path d="M15.95 1.57a8.64 8.64 0 01-2.81 2.5 8.53 8.53 0 002.74-4A8.52 8.52 0 0111.95 3a3 3 0 00-3.56.55A3 3 0 007.58 5a3 3 0 00-.08.67 3.13 3.13 0 00.61 1.81h-.35a8.26 8.26 0 01-1.22-.11h-.19a8.44 8.44 0 01-4.33-2.15v.07c-.06.22-.1.44-.14.67v.17a2.42 2.42 0 001.77 2.35 2.35 2.35 0 01-.6.09 2.4 2.4 0 01-1.25-.36v.5a2.37 2.37 0 001.06 1.8 2.38 2.38 0 00.74.34c-.13 0-.28 0-.42.06H2.5a2.45 2.45 0 002.39 2h.17A10.34 10.34 0 010 15.13a17.92 17.92 0 005.33.87 8.51 8.51 0 007-3.64 8.61 8.61 0 001.45-3.65 9.71 9.71 0 00.1-1.21 8.15 8.15 0 00-.31-2.22 8.41 8.41 0 002.38-3.71zm-5.67 3.69a.72.72 0 11.72-.72.73.73 0 01-.72.72z"/></svg>