<svg xmlns="http://www.w3.org/2000/svg" viewBox="0 0 9.02 16"><path d="M8.51 0H1.04C.24 0-.4.65.29 1.44V16h8.35V.86c.7-.48.31-.86-.13-.86zm-5.4 14.21a.4.4 0 01-.4.4h-.59a.39.39 0 01-.4-.4v-.59a.39.39 0 01.4-.4h.59a.4.4 0 01.4.4zm0-2.09a.4.4 0 01-.4.4h-.59a.39.39 0 01-.4-.4v-.59a.39.39 0 01.4-.4h.59a.4.4 0 01.4.4zm0-2.09a.39.39 0 01-.4.4h-.59a.39.39 0 01-.4-.4v-.59a.39.39 0 01.4-.4h.59a.4.4 0 01.4.4zm2.08 4.18a.4.4 0 01-.4.4H4.2a.4.4 0 01-.4-.4v-.59a.4.4 0 01.4-.4h.59a.4.4 0 01.4.4zm0-2.09a.4.4 0 01-.4.4H4.2a.4.4 0 01-.4-.4v-.59a.4.4 0 01.4-.4h.59a.4.4 0 01.4.4zm2.09 2.09a.4.4 0 01-.4.4h-.59a.4.4 0 01-.4-.4v-.59a.4.4 0 01.4-.4h.59a.4.4 0 01.4.4zm0-2.09a.4.4 0 01-.4.4h-.59a.4.4 0 01-.4-.4v-.59a.4.4 0 01.4-.4h.59a.4.4 0 01.4.4zm0-2.09a.39.39 0 01-.4.4h-.59a.39.39 0 01-.4-.4v-.59a.4.4 0 01.4-.4h.59a.4.4 0 01.4.4zm0-2.39a.71.71 0 01-.71.71H2.4a.71.71 0 01-.71-.71V2.8a.7.7 0 01.71-.71h4.11a.71.71 0 01.71.71zm-.35-6.25A.35.35 0 117.25 1a.35.35 0 01-.35.39z"/></svg>