<svg xmlns="http://www.w3.org/2000/svg" viewBox="0 0 19.51 19.51"><path d="M4.62 1a.58.58 0 01.39.18l1.3 1.26a.6.6 0 010 .86L4.61 5a2.08 2.08 0 00-.32 2.56 25.67 25.67 0 003.44 4.22 25.67 25.67 0 004.22 3.44 2 2 0 001.07.3 2.11 2.11 0 001.49-.62l1.7-1.7a.6.6 0 01.43-.18.58.58 0 01.43.18l1.26 1.26a.58.58 0 01.18.43.6.6 0 01-.18.43l-2.4 2.4a3.07 3.07 0 01-2.26.79c-2.48 0-5.67-1.66-8.34-4.33C1.5 10.35-.12 5.49 1.79 3.58l2.4-2.4A.6.6 0 014.62 1m0-1a1.64 1.64 0 00-1.14.47l-2.39 2.4c-2.35 2.34-.76 7.72 3.53 12 3 2.95 6.41 4.62 9.05 4.62a4 4 0 003-1.09l2.34-2.4a1.61 1.61 0 000-2.28l-1.26-1.26a1.62 1.62 0 00-2.28 0l-1.7 1.71a1.11 1.11 0 01-.78.32 1.08 1.08 0 01-.55-.15 24.44 24.44 0 01-4-3.3 24.44 24.44 0 01-3.3-4 1.09 1.09 0 01.17-1.33L7.01 4a1.61 1.61 0 000-2.27L5.76.47A1.64 1.64 0 004.62 0z"/></svg>