<svg xmlns="http://www.w3.org/2000/svg" viewBox="0 0 14.9 16"><path d="M12.45 3L14.9.51 14.39 0 11.8 2.58A4.42 4.42 0 009.63 2a4.24 4.24 0 00-2.54 1 4.27 4.27 0 00-2.55-1A4.35 4.35 0 00.67 8.35a4.25 4.25 0 00.48.74l1.92 2.23L0 14.39l.51.51 3-3L7.09 16l6-6.95a3.72 3.72 0 00.36-.66l.26-.58a4.17 4.17 0 00.25-1.45A4.37 4.37 0 0012.45 3zM1.71 8.62a3.78 3.78 0 01-.4-.62 3.62 3.62 0 013.23-5.27 3.86 3.86 0 012.32 1l.23.19.23-.19a3.8 3.8 0 012.31-1 3.6 3.6 0 011.63.4l-7.68 7.68zM12.86 8v.08a2.89 2.89 0 01-.33.5l-5.4 6.29-3-3.52 7.82-7.83a3.6 3.6 0 011.38 2.83A3.53 3.53 0 0112.86 8z"/></svg>