<svg id="ef91d095-797d-4033-9b09-912eae444f40" data-name="Layer 1" xmlns="http://www.w3.org/2000/svg" viewBox="0 0 20.1 24.05"><path d="M12.5,12.53V1.65A1.17,1.17,0,0,0,11.33.48H3.66A1.17,1.17,0,0,0,2.49,1.65V18.47a1.17,1.17,0,0,0,1.86.94l2.46-1.8a1.14,1.14,0,0,1,1.38,0l1.73,1.27" transform="translate(-1.99 0.02)" fill="none" stroke="#000" stroke-miterlimit="10"/><path d="M12.5,12.53a5.87,5.87,0,0,1,3.18-.94,6,6,0,1,1-5.76,7.29" transform="translate(-1.99 0.02)" fill="none" stroke="#000" stroke-miterlimit="10"/><path d="M12.5,12.53a6,6,0,0,0-2.73,5,6.43,6.43,0,0,0,.15,1.32" transform="translate(-1.99 0.02)" fill="none" stroke="#000" stroke-miterlimit="10"/><line x1="13.51" y1="14.52" x2="13.51" y2="20.52" fill="none" stroke="#000" stroke-linecap="round" stroke-miterlimit="10"/><line x1="10.51" y1="17.52" x2="16.51" y2="17.52" fill="none" stroke="#000" stroke-linecap="round" stroke-miterlimit="10"/><line x1="3.51" y1="2.52" x2="7.51" y2="2.52" fill="none" stroke="#000" stroke-linecap="round" stroke-miterlimit="10"/></svg>