<svg xmlns="http://www.w3.org/2000/svg" viewBox="0 0 24 24"><line x1="13.5" y1="7.5" x2="19.5" y2="7.5" fill="none" stroke="#000" stroke-linecap="round" stroke-miterlimit="10"/><line x1="13.5" y1="11.5" x2="21.5" y2="11.5" fill="none" stroke="#000" stroke-linecap="round" stroke-miterlimit="10"/><line x1="13.5" y1="15.5" x2="20.5" y2="15.5" fill="none" stroke="#000" stroke-linecap="round" stroke-miterlimit="10"/><path d="M13.5,1.75v20.5a1.25,1.25,0,0,1-2.17.84L8.92,20.48a1.23,1.23,0,0,0-1.84,0L4.67,23.09a1.25,1.25,0,0,1-2.17-.84V1.75A1.25,1.25,0,0,1,3.75.5h8.5A1.25,1.25,0,0,1,13.5,1.75Z" fill="none" stroke="#000" stroke-linecap="round" stroke-miterlimit="10"/><line x1="6.5" y1="2.5" x2="9.5" y2="2.5" fill="none" stroke="#000" stroke-linecap="round" stroke-miterlimit="10"/></svg>