<svg id="a2889892-e3b2-4f6b-ba90-105724e43197" data-name="Layer 1" xmlns="http://www.w3.org/2000/svg" viewBox="0 0 24 20"><rect x="0.5" y="0.5" width="23" height="19" rx="1.98" fill="none" stroke="#000" stroke-miterlimit="10"/><line x1="2" y1="2.5" x2="4" y2="2.5" fill="none" stroke="#000" stroke-miterlimit="10"/><line x1="1" y1="4.5" x2="23" y2="4.5" fill="none" stroke="#000" stroke-miterlimit="10"/><path d="M19.35,9.59a1.82,1.82,0,0,1-1.64,0L16.53,9l-1-.48h-.11L14.53,9l-1.18.59a1.82,1.82,0,0,1-1.64,0h0a.12.12,0,0,0-.18.11v3.36a4.94,4.94,0,0,0,2,4l2,1.48a.14.14,0,0,0,.15,0l2-1.48a4.94,4.94,0,0,0,2-4V9.7a.13.13,0,0,0-.18-.11Z" transform="translate(0 -2)" fill="none" stroke="#000" stroke-miterlimit="10"/><line x1="3.5" y1="8.5" x2="5.5" y2="8.5" fill="none" stroke="#000" stroke-linecap="round" stroke-miterlimit="10"/><line x1="3.5" y1="10.5" x2="7.5" y2="10.5" fill="none" stroke="#000" stroke-linecap="round" stroke-miterlimit="10"/><line x1="3.5" y1="12.5" x2="6.5" y2="12.5" fill="none" stroke="#000" stroke-linecap="round" stroke-miterlimit="10"/><line x1="3.5" y1="14.5" x2="4.5" y2="14.5" fill="none" stroke="#000" stroke-linecap="round" stroke-miterlimit="10"/></svg>