<svg id="ba3b05b4-6bd6-4ef7-ad73-e666d3ee2ef1" data-name="Layer 1" xmlns="http://www.w3.org/2000/svg" viewBox="0 0 24.03 19.98"><path d="M21.92,14.89,16.15,17a.42.42,0,0,0,0,.79l2.24,1a.45.45,0,0,1,.22.21l1,2.25a.43.43,0,0,0,.79,0l2.08-5.78A.43.43,0,0,0,21.92,14.89Z" transform="translate(0.02 -2.02)" fill="none" stroke="#000" stroke-miterlimit="10"/><line x1="2.02" y1="2.48" x2="4.02" y2="2.48" fill="none" stroke="#000" stroke-miterlimit="10"/><line x1="0.86" y1="4.48" x2="24.02" y2="4.48" fill="none" stroke="#000" stroke-miterlimit="10"/><path d="M23.51,11.92V4.54a2,2,0,0,0-1.89-2H2.37a2,2,0,0,0-1.89,2V17.46a2,2,0,0,0,1.89,2H13.66" transform="translate(0.02 -2.02)" fill="none" stroke="#000" stroke-linecap="round" stroke-miterlimit="10"/></svg>