<svg xmlns="http://www.w3.org/2000/svg" viewBox="0 0 24 24"><path d="M22.42,13.83l-6.25,3.09a.74.74,0,0,0,0,1.34l1.67.76a.74.74,0,0,1,.37.37L19,21.06a.75.75,0,0,0,1.35,0l3.08-6.26A.75.75,0,0,0,22.42,13.83Z" fill="none" stroke="#000" stroke-miterlimit="10"/><line x1="2.5" y1="4.5" x2="2.5" y2="4.5" fill="none" stroke="#000" stroke-linecap="round" stroke-miterlimit="10"/><path d="M13.5,18.5H2A1.5,1.5,0,0,1,.5,17V4A1.5,1.5,0,0,1,2,2.5H19A1.5,1.5,0,0,1,20.5,4v7.48" fill="none" stroke="#000" stroke-linecap="round" stroke-miterlimit="10"/></svg>