<svg id="e0160edb-4b4b-4824-ac53-8d248df50b58" data-name="Layer 1" xmlns="http://www.w3.org/2000/svg" viewBox="0 0 23.99 23.99"><path d="M8.85,12.37a1.93,1.93,0,0,1-2.72.05L1.06,7.35a1.93,1.93,0,0,1,.05-2.73L4.64,1.09A1.94,1.94,0,0,1,7.37,1l5.07,5.07a1.94,1.94,0,0,1-.06,2.73" transform="translate(-0.02 0)" fill="none" stroke="#000" stroke-linecap="round" stroke-miterlimit="10"/><path d="M15.18,11.63a1.92,1.92,0,0,1,2.72-.05L23,16.65a1.92,1.92,0,0,1,0,2.72L19.39,22.9a1.94,1.94,0,0,1-2.73.06l-5.07-5.07a1.94,1.94,0,0,1,.06-2.73" transform="translate(-0.02 0)" fill="none" stroke="#000" stroke-linecap="round" stroke-miterlimit="10"/><line x1="10.23" y1="10.23" x2="13.76" y2="13.76" fill="none" stroke="#000" stroke-linecap="round" stroke-miterlimit="10"/></svg>