<svg id="f4819296-f4ef-49a3-872f-6aaf33ab6473" data-name="Layer 1" xmlns="http://www.w3.org/2000/svg" viewBox="0 0 16 24.04"><path d="M14.75,12.52H9.23a1.8,1.8,0,0,1-1.72-2.24L7.82,9a1.61,1.61,0,0,0,0-.44V3.49a1.85,1.85,0,0,0-.09-.58l0-.07A1.8,1.8,0,0,1,9.44.46h5.11a1.8,1.8,0,0,1,1.69,2.37l0,.15a1.77,1.77,0,0,0-.09.56v5a2.12,2.12,0,0,0,0,.44l.32,1.29A1.8,1.8,0,0,1,14.75,12.52Z" transform="translate(-4 0.04)" fill="none" stroke="#000" stroke-miterlimit="10"/><line x1="8" y1="13.04" x2="8" y2="21.04" fill="none" stroke="#000" stroke-linecap="round" stroke-miterlimit="10"/><line x1="0.5" y1="23.54" x2="15.5" y2="23.54" fill="none" stroke="#000" stroke-linecap="round" stroke-miterlimit="10"/></svg>