<svg id="ed4ee126-5d58-4b01-9cb0-ff2d672003af" data-name="Layer 1" xmlns="http://www.w3.org/2000/svg" viewBox="0 0 23.42 23.42"><path d="M17.3,23.67l-2.13-2.14a1.88,1.88,0,0,0-.81-.47l-3-.81a1.7,1.7,0,0,1-.81-.47L8.34,17.53a1.83,1.83,0,0,1,0-2.58L15,8.34a1.83,1.83,0,0,1,2.58,0l2.27,2.27a1.78,1.78,0,0,1,.47.82l.8,2.93a1.7,1.7,0,0,0,.47.81l2.13,2.13" transform="translate(-0.6 -0.6)" fill="none" stroke="#000" stroke-miterlimit="10"/><path d="M9.88,13.41,2.81,6.34a1,1,0,0,0-1.42,0h0a1,1,0,0,0,0,1.42l7.07,7.07" transform="translate(-0.6 -0.6)" fill="none" stroke="#000" stroke-miterlimit="10"/><path d="M14.83,8.46,7.76,1.39a1,1,0,0,0-1.42,0h0a1,1,0,0,0,0,1.42l7.07,7.07" transform="translate(-0.6 -0.6)" fill="none" stroke="#000" stroke-miterlimit="10"/><line x1="17.41" y1="20.24" x2="20.24" y2="17.41" fill="none" stroke="#000" stroke-miterlimit="10"/></svg>