<svg xmlns="http://www.w3.org/2000/svg" viewBox="0 0 24 24"><path d="M17.84,23.5l-2.62-2.62a1.77,1.77,0,0,0-.47-.34l-1.94-.95a4.05,4.05,0,0,1-1-.75L9.28,16.35a.89.89,0,0,1,0-1.26l5.81-5.81a.89.89,0,0,1,1.26,0L19,11.9A3.91,3.91,0,0,1,19.73,13l.9,1.85a1.8,1.8,0,0,0,.34.49l2.53,2.52" fill="none" stroke="#000" stroke-linecap="round" stroke-miterlimit="10"/><line x1="0.87" y1="5.12" x2="10.06" y2="14.31" fill="none" stroke="#000" stroke-linecap="round" stroke-miterlimit="10"/><line x1="5.12" y1="0.87" x2="14.31" y2="10.06" fill="none" stroke="#000" stroke-linecap="round" stroke-miterlimit="10"/><path d="M18.55,15.72,22.79,20a2,2,0,0,1,0,2.83h0a2,2,0,0,1-2.83,0l-4.24-4.24" fill="none" stroke="#000" stroke-linecap="round" stroke-miterlimit="10"/></svg>