<svg id="a7fbba7c-b472-4496-964f-e95af57ae73a" data-name="Layer 1" xmlns="http://www.w3.org/2000/svg" viewBox="0 0 20 24"><path d="M21.07,3a4.43,4.43,0,0,1-3.89,0L14.37,1.62,12.13.53a.3.3,0,0,0-.26,0L9.63,1.62,6.82,3A4.43,4.43,0,0,1,2.93,3h0a.3.3,0,0,0-.43.26V11A11.24,11.24,0,0,0,7.16,20l4.66,3.4a.3.3,0,0,0,.36,0L16.84,20A11.24,11.24,0,0,0,21.5,11V3.24A.3.3,0,0,0,21.07,3Z" transform="translate(-2)" fill="none" stroke="#000" stroke-miterlimit="10"/><polyline points="5.5 7.5 8.5 7.5 8.5 15.5" fill="none" stroke="#000" stroke-linecap="round" stroke-miterlimit="10"/><polyline points="14.5 7.5 11.5 7.5 11.5 15.5" fill="none" stroke="#000" stroke-linecap="round" stroke-miterlimit="10"/></svg>