<svg xmlns="http://www.w3.org/2000/svg" viewBox="0 0 24 24"><title>id-scan</title><circle cx="12" cy="9" r="4"/><rect x="10" y="12" width="4" height="4"/><path d="M19,18a1.19,1.19,0,0,0,.05-.26v0a1.28,1.28,0,0,0-.62-1.09l-4.11-2.43a1.24,1.24,0,0,0-.64-.18h-3.3a1.28,1.28,0,0,0-.66.18L5.61,16.66A1.24,1.24,0,0,0,5,17.74a1.19,1.19,0,0,0,0,.26Z"/><polygon points="15 1 23 1 23 9 24 9 24 0 15 0 15 1"/><polygon points="1 9 1 1 9 1 9 0 0 0 0 9 1 9"/><polygon points="9 23 1 23 1 15 0 15 0 24 9 24 9 23"/><polygon points="23 15 23 23 15 23 15 24 24 24 24 15 23 15"/></svg>