<svg xmlns="http://www.w3.org/2000/svg" viewBox="0 0 16 16"><path d="M8 0a8 8 0 108 8 8 8 0 00-8-8zm6.66 5.09h-3.32A6.9 6.9 0 009.09.82a7.25 7.25 0 015.57 4.27zM10.91 8a13.37 13.37 0 01-.19 2.18H5.28A13.37 13.37 0 015.09 8a13.18 13.18 0 01.19-2.18h5.44A13.18 13.18 0 0110.91 8zM8 14.89c-1.12 0-2.1-1.8-2.58-4h5.16c-.48 2.2-1.46 4-2.58 4zm-2.57-9.8C5.91 3 6.88 1.28 8 1.28S10.09 3 10.57 5.09zM6.91.82a6.9 6.9 0 00-2.25 4.27H1.34A7.25 7.25 0 016.91.82zm-5.85 5h3.47a14.06 14.06 0 000 4.36H1.06a7.37 7.37 0 010-4.36zm.28 5.09h3.31a7.61 7.61 0 002.1 4.25 7.27 7.27 0 01-5.41-4.25zm7.91 4.25a7.61 7.61 0 002.1-4.25h3.31a7.27 7.27 0 01-5.41 4.25zm5.69-5h-3.47A14.05 14.05 0 0011.64 8a14.05 14.05 0 00-.17-2.18h3.47a7.37 7.37 0 010 4.36z"/></svg>