<svg xmlns="http://www.w3.org/2000/svg" viewBox="0 0 24 24"><path d="M7.5,9.5,4.92.9a.52.52,0,0,0-1,0L.5,9.44" fill="none" stroke="#000" stroke-linecap="round" stroke-miterlimit="10"/><line x1="1.59" y1="5.87" x2="6.5" y2="5.87" fill="none" stroke="#000" stroke-miterlimit="10"/><line x1="18.5" y1="14" x2="18.5" y2="24" fill="none" stroke="#000" stroke-miterlimit="10"/><path d="M18.38,18.8h3.06a2.1,2.1,0,0,0,2.06-2.15h0a2.11,2.11,0,0,0-2.06-2.15H18.38" fill="none" stroke="#000" stroke-miterlimit="10"/><path d="M18.38,23.5h3.06a2.11,2.11,0,0,0,2.06-2.15h0a2.1,2.1,0,0,0-2.06-2.15H18.38" fill="none" stroke="#000" stroke-miterlimit="10"/><path d="M3.5,13.5v5.82A1.18,1.18,0,0,0,4.68,20.5H12.5" fill="none" stroke="#000" stroke-linecap="round" stroke-miterlimit="10"/><path d="M20.5,10.5V4.68A1.18,1.18,0,0,0,19.32,3.5H11.5" fill="none" stroke="#000" stroke-linecap="round" stroke-miterlimit="10"/></svg>