<svg id="a1cb8850-d441-4177-98c4-e58df8b1c714" data-name="Layer 1" xmlns="http://www.w3.org/2000/svg" viewBox="0 0 24 23.98"><path d="M7.06,9.44,4.85.87A.46.46,0,0,0,4,.81L.5,9.44" transform="translate(0 -0.02)" fill="none" stroke="#000" stroke-linecap="round" stroke-miterlimit="10"/><line x1="1.59" y1="5.85" x2="6.5" y2="5.85" fill="none" stroke="#000" stroke-miterlimit="10"/><line x1="18.5" y1="13.98" x2="18.5" y2="23.98" fill="none" stroke="#000" stroke-miterlimit="10"/><path d="M18.38,18.8h3.06a2.1,2.1,0,0,0,2.06-2.15h0a2.11,2.11,0,0,0-2.06-2.15H18.38" transform="translate(0 -0.02)" fill="none" stroke="#000" stroke-miterlimit="10"/><path d="M18.38,23.5h3.06a2.11,2.11,0,0,0,2.06-2.15h0a2.1,2.1,0,0,0-2.06-2.15H18.38" transform="translate(0 -0.02)" fill="none" stroke="#000" stroke-miterlimit="10"/><path d="M3.5,13.5v5.82A1.18,1.18,0,0,0,4.68,20.5H12.5" transform="translate(0 -0.02)" fill="none" stroke="#000" stroke-linecap="round" stroke-miterlimit="10"/><path d="M20.5,10.5V4.68A1.18,1.18,0,0,0,19.32,3.5H11.5" transform="translate(0 -0.02)" fill="none" stroke="#000" stroke-linecap="round" stroke-miterlimit="10"/></svg>