<svg id="fc01caf1-3929-4259-be38-936db5105cc2" data-name="Layer 1" xmlns="http://www.w3.org/2000/svg" viewBox="0 0 24 24"><path d="M8.5,19A2.5,2.5,0,1,0,11,21.5,2.5,2.5,0,0,0,8.5,19Zm0,4A1.5,1.5,0,1,1,10,21.5,1.5,1.5,0,0,1,8.5,23Z"/><path d="M16.5,0A2.5,2.5,0,1,0,19,2.5,2.5,2.5,0,0,0,16.5,0Zm0,4A1.5,1.5,0,1,1,18,2.5,1.5,1.5,0,0,1,16.5,4Z"/><line x1="0.5" y1="2.5" x2="11.5" y2="2.5" fill="none" stroke="#000" stroke-linecap="round" stroke-miterlimit="10"/><line x1="13.5" y1="21.5" x2="23.5" y2="21.5" fill="none" stroke="#000" stroke-linecap="round" stroke-miterlimit="10"/><line x1="18.5" y1="2.5" x2="23.5" y2="2.5" fill="none" stroke="#000" stroke-linecap="round" stroke-miterlimit="10"/><line x1="0.5" y1="21.5" x2="6.5" y2="21.5" fill="none" stroke="#000" stroke-linecap="round" stroke-miterlimit="10"/><line x1="0.5" y1="12" x2="23.5" y2="12" fill="none" stroke="#000" stroke-linecap="round" stroke-miterlimit="10"/></svg>