<svg id="bfb962d2-6bad-4e59-ab20-eefe2f09f341" data-name="Layer 1" xmlns="http://www.w3.org/2000/svg" viewBox="0 0 22 24.03"><path d="M16.5,18.5l4,0a2,2,0,0,0,2-2v-14a2,2,0,0,0-2-2h-17a2,2,0,0,0-2,2v14a2,2,0,0,0,2,2l4,0" transform="translate(-1 -0.03)" fill="none" stroke="#000" stroke-linecap="round" stroke-miterlimit="10"/><path d="M14.47,23.55H9.55a1.08,1.08,0,0,1-1-1.56l2.46-4.92a1.08,1.08,0,0,1,1.93,0L15.44,22A1.08,1.08,0,0,1,14.47,23.55Z" transform="translate(-1 -0.03)" fill="none" stroke="#000" stroke-miterlimit="10"/><line x1="3.5" y1="2.47" x2="18.5" y2="2.47" fill="none" stroke="#000" stroke-linecap="round" stroke-miterlimit="10"/></svg>