<svg xmlns="http://www.w3.org/2000/svg" viewBox="0 0 24 24"><line x1="4.5" y1="5.5" x2="19.5" y2="5.5" fill="none" stroke="#000" stroke-linecap="round" stroke-miterlimit="10"/><path d="M7.5,18.5H2A1.5,1.5,0,0,1,.5,17V4A1.5,1.5,0,0,1,2,2.5H22A1.5,1.5,0,0,1,23.5,4V17A1.5,1.5,0,0,1,22,18.5H16.5" fill="none" stroke="#000" stroke-linecap="round" stroke-miterlimit="10"/><path d="M11.61,16.18,8.9,20.81a.46.46,0,0,0,.4.69h5.4a.46.46,0,0,0,.4-.69l-2.71-4.63A.44.44,0,0,0,11.61,16.18Z" fill="none" stroke="#000" stroke-miterlimit="10"/></svg>