<svg id="f5d6149d-4d23-4056-9247-9b83172ac790" data-name="Layer 1" xmlns="http://www.w3.org/2000/svg" viewBox="0 0 24.03 17.99"><path d="M8,9.37v7.25a.76.76,0,0,0,1.17.65L15,13.62a.77.77,0,0,0,0-1.29L9.16,8.72A.76.76,0,0,0,8,9.37Z" transform="translate(0.01 -2.98)"/><path d="M18.12,7.59a5.53,5.53,0,0,0-1.86,0,8.51,8.51,0,1,0-12.69,11,8.48,8.48,0,0,0,5.3,1.83l8.64.11A6.51,6.51,0,0,0,23.45,13,6.64,6.64,0,0,0,18.12,7.59Z" transform="translate(0.01 -2.98)" fill="none" stroke="#000" stroke-miterlimit="10"/></svg>