<svg id="a35b2645-2c43-4484-bf00-9feaaa6b9426" data-name="Layer 1" xmlns="http://www.w3.org/2000/svg" viewBox="0 0 24 24"><rect x="8.5" y="8.5" width="15" height="15" rx="2" fill="none" stroke="#000" stroke-miterlimit="10"/><path d="M8.5,19.46a2,2,0,0,1-2.23-.93L.77,9A2,2,0,0,1,1.5,6.27L11,.77a2,2,0,0,1,2.73.73l4,7" transform="translate(0 0)" fill="none" stroke="#000" stroke-miterlimit="10"/><rect x="11.5" y="11.5" width="3" height="3" rx="1.5" fill="none" stroke="#000" stroke-miterlimit="10"/><rect x="17.5" y="17.49" width="3" height="3" rx="0.7" fill="none" stroke="#000" stroke-miterlimit="10"/><line x1="17.5" y1="13" x2="20.5" y2="13" fill="none" stroke="#000" stroke-linecap="round" stroke-miterlimit="10"/><path d="M12.93,17.64l-1.37,2.74a.07.07,0,0,0,.07.11h2.74a.07.07,0,0,0,.07-.11l-1.37-2.74A.08.08,0,0,0,12.93,17.64Z" transform="translate(0 0)" fill="none" stroke="#000" stroke-miterlimit="10"/></svg>