<svg xmlns="http://www.w3.org/2000/svg" viewBox="0 0 24 24"><path d="M12.5,8.15v7.7a.64.64,0,0,0,1,.54l6.16-3.87a.64.64,0,0,0,0-1.08L13.47,7.61A.63.63,0,0,0,12.5,8.15Z" fill="none" stroke="#000" stroke-miterlimit="10"/><line x1="3.5" y1="12.5" x2="8.5" y2="12.5" fill="none" stroke="#000" stroke-linecap="round" stroke-miterlimit="10"/><line x1="4.5" y1="0.5" x2="4.5" y2="7.5" fill="none" stroke="#000" stroke-linecap="round" stroke-miterlimit="10"/><line x1="4.5" y1="16.5" x2="4.5" y2="23.5" fill="none" stroke="#000" stroke-linecap="round" stroke-miterlimit="10"/><line x1="7.5" y1="16.5" x2="7.5" y2="23.5" fill="none" stroke="#000" stroke-linecap="round" stroke-miterlimit="10"/><line x1="7.5" y1="0.5" x2="7.5" y2="7.5" fill="none" stroke="#000" stroke-linecap="round" stroke-miterlimit="10"/><line x1="3.5" y1="7.5" x2="8.5" y2="7.5" fill="none" stroke="#000" stroke-linecap="round" stroke-miterlimit="10"/><line x1="3.5" y1="16.5" x2="8.5" y2="16.5" fill="none" stroke="#000" stroke-linecap="round" stroke-miterlimit="10"/><path d="M8,4.5H22A1.52,1.52,0,0,1,23.5,6V18A1.52,1.52,0,0,1,22,19.5H8" fill="none" stroke="#000" stroke-miterlimit="10"/><path d="M4,19.5H2A1.52,1.52,0,0,1,.5,18V6A1.52,1.52,0,0,1,2,4.5H4" fill="none" stroke="#000" stroke-miterlimit="10"/></svg>