<svg id="ac0fa424-3e3c-4b1c-8ce8-80dfceb9dc9a" data-name="Layer 1" xmlns="http://www.w3.org/2000/svg" viewBox="0 0 24 24"><path d="M12,8.37v7.25a.76.76,0,0,0,1.17.65L19,12.62a.77.77,0,0,0,0-1.29L13.16,7.72A.76.76,0,0,0,12,8.37Z"/><path d="M7.91,4.57H21.09A2.61,2.61,0,0,1,23.5,7.33v9.38a2.61,2.61,0,0,1-2.41,2.76H7.91" fill="none" stroke="#000" stroke-miterlimit="10"/><line x1="3.5" y1="10.5" x2="8.5" y2="10.5" fill="none" stroke="#000" stroke-linecap="round" stroke-miterlimit="10"/><line x1="3.5" y1="13.5" x2="8.5" y2="13.5" fill="none" stroke="#000" stroke-linecap="round" stroke-miterlimit="10"/><path d="M4,19.47H2.4A2.06,2.06,0,0,1,.5,17.29V6.75A2.05,2.05,0,0,1,2.4,4.57H4" fill="none" stroke="#000" stroke-miterlimit="10"/><line x1="4.5" y1="0.5" x2="4.5" y2="7.5" fill="none" stroke="#000" stroke-linecap="round" stroke-miterlimit="10"/><line x1="4.5" y1="16.5" x2="4.5" y2="23.5" fill="none" stroke="#000" stroke-linecap="round" stroke-miterlimit="10"/><line x1="7.5" y1="16.5" x2="7.5" y2="23.5" fill="none" stroke="#000" stroke-linecap="round" stroke-miterlimit="10"/><line x1="7.5" y1="0.5" x2="7.5" y2="7.5" fill="none" stroke="#000" stroke-linecap="round" stroke-miterlimit="10"/><line x1="3.5" y1="7.5" x2="8.5" y2="7.5" fill="none" stroke="#000" stroke-linecap="round" stroke-miterlimit="10"/><line x1="3.5" y1="16.5" x2="8.5" y2="16.5" fill="none" stroke="#000" stroke-linecap="round" stroke-miterlimit="10"/></svg>