<svg id="b78b1750-ff6e-4619-92e3-1a57085da0b4" data-name="Layer 1" xmlns="http://www.w3.org/2000/svg" viewBox="0 0 24 24"><line x1="12" y1="0.5" x2="12" y2="4.81" fill="none" stroke="#000" stroke-linecap="round" stroke-miterlimit="10"/><path d="M12,4.81" transform="translate(0 0)" fill="none" stroke="#000" stroke-linecap="round" stroke-miterlimit="10"/><path d="M12,12" transform="translate(0 0)" fill="none" stroke="#000" stroke-linecap="round" stroke-miterlimit="10"/><path d="M12,19.19" transform="translate(0 0)" fill="none" stroke="#000" stroke-linecap="round" stroke-miterlimit="10"/><path d="M12,12" transform="translate(0 0)" fill="none" stroke="#000" stroke-linecap="round" stroke-miterlimit="10"/><line x1="12" y1="23.5" x2="12" y2="19.19" fill="none" stroke="#000" stroke-linecap="round" stroke-miterlimit="10"/><path d="M17.08,17.08" transform="translate(0 0)" fill="none" stroke="#000" stroke-linecap="round" stroke-miterlimit="10"/><path d="M12,12" transform="translate(0 0)" fill="none" stroke="#000" stroke-linecap="round" stroke-miterlimit="10"/><line x1="17.08" y1="17.08" x2="20.13" y2="20.13" fill="none" stroke="#000" stroke-linecap="round" stroke-miterlimit="10"/><path d="M12,12" transform="translate(0 0)" fill="none" stroke="#000" stroke-linecap="round" stroke-miterlimit="10"/><path d="M6.92,6.92" transform="translate(0 0)" fill="none" stroke="#000" stroke-linecap="round" stroke-miterlimit="10"/><line x1="3.87" y1="3.87" x2="6.92" y2="6.92" fill="none" stroke="#000" stroke-linecap="round" stroke-miterlimit="10"/><line x1="4.81" y1="12" x2="0.5" y2="12" fill="none" stroke="#000" stroke-linecap="round" stroke-miterlimit="10"/><line x1="23.5" y1="12" x2="19.19" y2="12" fill="none" stroke="#000" stroke-linecap="round" stroke-miterlimit="10"/><path d="M12,12" transform="translate(0 0)" fill="none" stroke="#000" stroke-linecap="round" stroke-miterlimit="10"/><path d="M4.81,12" transform="translate(0 0)" fill="none" stroke="#000" stroke-linecap="round" stroke-miterlimit="10"/><path d="M19.19,12" transform="translate(0 0)" fill="none" stroke="#000" stroke-linecap="round" stroke-miterlimit="10"/><path d="M12,12" transform="translate(0 0)" fill="none" stroke="#000" stroke-linecap="round" stroke-miterlimit="10"/><line x1="6.92" y1="17.08" x2="3.87" y2="20.13" fill="none" stroke="#000" stroke-linecap="round" stroke-miterlimit="10"/><path d="M12,12" transform="translate(0 0)" fill="none" stroke="#000" stroke-linecap="round" stroke-miterlimit="10"/><path d="M6.92,17.08" transform="translate(0 0)" fill="none" stroke="#000" stroke-linecap="round" stroke-miterlimit="10"/><line x1="20.13" y1="3.87" x2="17.08" y2="6.92" fill="none" stroke="#000" stroke-linecap="round" stroke-miterlimit="10"/><path d="M17.08,6.92" transform="translate(0 0)" fill="none" stroke="#000" stroke-linecap="round" stroke-miterlimit="10"/><circle cx="12" cy="12" r="3.5" stroke="#000" stroke-miterlimit="10"/></svg>