<svg id="f9929977-6329-4470-b9dd-7878aaa80b97" data-name="Layer 1" xmlns="http://www.w3.org/2000/svg" viewBox="0 0 24 19.99"><path d="M8,11V16a.64.64,0,0,0,.93.57l4.93-2.47a.64.64,0,0,0,0-1.14L8.93,10.46A.64.64,0,0,0,8,11Z" transform="translate(0 -2)"/><path d="M9.5,5.5h-7a2,2,0,0,0-2,2v12a2,2,0,0,0,2,2l16,0a2,2,0,0,0,2-2v-7" transform="translate(0 -2)" fill="none" stroke="#000" stroke-linecap="round" stroke-miterlimit="10"/><path d="M16.5,2.5H22A1.49,1.49,0,0,1,23.49,4V8.5" transform="translate(0 -2)" fill="none" stroke="#000" stroke-linecap="round" stroke-miterlimit="10"/></svg>