<svg xmlns="http://www.w3.org/2000/svg" viewBox="0 0 24 24"><path d="M7.5,10.66v5.68a.41.41,0,0,0,.59.36l5.68-2.83a.42.42,0,0,0,0-.74L8.09,10.3A.41.41,0,0,0,7.5,10.66Z" fill="none" stroke="#000" stroke-miterlimit="10"/><path d="M12.5,5.5H2A1.5,1.5,0,0,0,.5,7V20A1.5,1.5,0,0,0,2,21.46l17,0a1.5,1.5,0,0,0,1.5-1.5V12.5" fill="none" stroke="#000" stroke-linecap="round" stroke-miterlimit="10"/><path d="M16.5,2.5H22A1.5,1.5,0,0,1,23.49,4V8.5" fill="none" stroke="#000" stroke-linecap="round" stroke-miterlimit="10"/></svg>