<svg id="b1cf0fa6-cc41-4959-a515-77d02e9a12c3" data-name="Layer 1" xmlns="http://www.w3.org/2000/svg" viewBox="0 0 24 14"><rect x="0.5" y="0.5" width="23" height="13" rx="0.82" fill="none" stroke="#000" stroke-miterlimit="10"/><path d="M2.5,2.5H6A4.5,4.5,0,0,1,10.5,7V7A4.5,4.5,0,0,1,6,11.5H2.5a0,0,0,0,1,0,0v-9A0,0,0,0,1,2.5,2.5Z" fill="none" stroke="#000" stroke-miterlimit="10"/><path d="M18,2.5h3.5a0,0,0,0,1,0,0v9a0,0,0,0,1,0,0H18A4.5,4.5,0,0,1,13.5,7V7A4.5,4.5,0,0,1,18,2.5Z" fill="none" stroke="#000" stroke-miterlimit="10"/></svg>