<svg id="bc27b16d-38de-4614-9ed1-fd6bc4edd4d9" data-name="Layer 1" xmlns="http://www.w3.org/2000/svg" viewBox="0 0 24 23.99"><path d="M12,1a1,1,0,0,1,.85.51l9.63,16.05A1,1,0,0,1,21.64,19H2.34a.94.94,0,0,1-.82-.47.92.92,0,0,1,0-.93l9.66-16.1A1,1,0,0,1,12,1m0-1a1.93,1.93,0,0,0-1.7,1L.64,17.07A2,2,0,0,0,2.34,20h19.3a2,2,0,0,0,1.7-2.92L13.69,1A1.93,1.93,0,0,0,12,0Z" transform="translate(0 -0.01)"/><line x1="0.5" y1="23.49" x2="23.5" y2="23.49" fill="none" stroke="#000" stroke-linecap="round" stroke-miterlimit="10"/><line x1="0.5" y1="21.49" x2="23.5" y2="21.49" fill="none" stroke="#000" stroke-linecap="round" stroke-miterlimit="10"/></svg>