<svg xmlns="http://www.w3.org/2000/svg" viewBox="0 0 24 24"><path d="M9.5,6.5H22A1.5,1.5,0,0,1,23.5,8V20A1.5,1.5,0,0,1,22,21.5H2A1.5,1.5,0,0,1,.5,20V8A1.5,1.5,0,0,1,2,6.5H3.5" fill="none" stroke="#000" stroke-linecap="round" stroke-miterlimit="10"/><path d="M3.5,11.5V10.23a.73.73,0,0,1,.73-.73H5.77a.73.73,0,0,0,.73-.73V3.5" fill="none" stroke="#000" stroke-linecap="round" stroke-miterlimit="10"/><path d="M4.5,4.5,6.44,2.56a.09.09,0,0,1,.12,0L8.5,4.5" fill="none" stroke="#000" stroke-linecap="round" stroke-miterlimit="10"/><path d="M9.5,11.66v5.68a.41.41,0,0,0,.59.36l5.68-2.83a.42.42,0,0,0,0-.74L10.09,11.3A.41.41,0,0,0,9.5,11.66Z" fill="none" stroke="#000" stroke-miterlimit="10"/></svg>