<svg id="ea3fa3d4-e416-4ae4-9826-e62cfec2260e" data-name="Layer 1" xmlns="http://www.w3.org/2000/svg" viewBox="0 0 24 23.93"><path d="M8.34,8.37v7.25a.76.76,0,0,0,1.16.65l5.81-3.65a.76.76,0,0,0,0-1.29L9.5,7.72A.76.76,0,0,0,8.34,8.37Z" transform="translate(0 -0.07)"/><rect x="0.5" y="4.43" width="23" height="15" rx="1.98" fill="none" stroke="#000" stroke-miterlimit="10"/><line x1="5.5" y1="1.43" x2="5.5" y2="7.43" fill="none" stroke="#000" stroke-linecap="round" stroke-miterlimit="10"/><path d="M3.5,2.5,5.38.62a.16.16,0,0,1,.24,0L7.5,2.5" transform="translate(0 -0.07)" fill="none" stroke="#000" stroke-linecap="round" stroke-miterlimit="10"/><line x1="18.5" y1="1.43" x2="18.5" y2="7.43" fill="none" stroke="#000" stroke-linecap="round" stroke-miterlimit="10"/><path d="M16.5,2.5,18.38.62a.16.16,0,0,1,.24,0L20.5,2.5" transform="translate(0 -0.07)" fill="none" stroke="#000" stroke-linecap="round" stroke-miterlimit="10"/><line x1="5.5" y1="22.5" x2="5.5" y2="16.5" fill="none" stroke="#000" stroke-linecap="round" stroke-miterlimit="10"/><path d="M3.5,21.57l1.88,1.88a.16.16,0,0,0,.24,0L7.5,21.57" transform="translate(0 -0.07)" fill="none" stroke="#000" stroke-linecap="round" stroke-miterlimit="10"/><line x1="18.5" y1="22.5" x2="18.5" y2="16.5" fill="none" stroke="#000" stroke-linecap="round" stroke-miterlimit="10"/><path d="M16.5,21.57l1.88,1.88a.16.16,0,0,0,.24,0l1.88-1.88" transform="translate(0 -0.07)" fill="none" stroke="#000" stroke-linecap="round" stroke-miterlimit="10"/></svg>