<svg id="acb66815-ee44-4fb0-815f-fedf948846c3" data-name="Layer 1" xmlns="http://www.w3.org/2000/svg" viewBox="0 0 23.98 23.21"><path d="M19,1.39a1,1,0,0,1,1,1v19.3a1,1,0,0,1-1,1,1,1,0,0,1-.47-.13L1.5,12.83a1,1,0,0,1,0-1.66L18.57,1.52A1,1,0,0,1,19,1.39m0-1a1.9,1.9,0,0,0-1,.26L1,10.3a2,2,0,0,0,0,3.4l17.07,9.65a1.9,1.9,0,0,0,1,.26,2,2,0,0,0,2-2V2.35a2,2,0,0,0-2-2Z" transform="translate(-0.02 -0.39)"/><line x1="23.48" y1="3.11" x2="23.48" y2="20.11" fill="none" stroke="#000" stroke-linecap="round" stroke-miterlimit="10"/></svg>