<svg id="a4b720f1-3826-4e31-bcec-f5ca3415f590" data-name="Layer 1" xmlns="http://www.w3.org/2000/svg" viewBox="0 0 23.98 23.21"><path d="M5,1.39H5a1,1,0,0,1,.47.13L22.5,11.17a1,1,0,0,1,0,1.66L5.43,22.48a1,1,0,0,1-.47.13,1,1,0,0,1-1-1V2.35a1,1,0,0,1,1-1m0-1a2,2,0,0,0-2,2v19.3a2,2,0,0,0,2,2,1.9,1.9,0,0,0,1-.26L23,13.7a2,2,0,0,0,0-3.4L5.92.65A1.9,1.9,0,0,0,5,.39Z" transform="translate(0 -0.39)"/><line x1="0.5" y1="3.11" x2="0.5" y2="20.11" fill="none" stroke="#000" stroke-linecap="round" stroke-miterlimit="10"/></svg>