<svg xmlns="http://www.w3.org/2000/svg" viewBox="0 0 24 24"><rect x="0.5" y="2.5" width="23" height="19" rx="1.5" fill="none" stroke="#000" stroke-miterlimit="10"/><line x1="3.5" y1="8.5" x2="3.5" y2="8.5" fill="none" stroke="#000" stroke-linecap="round" stroke-miterlimit="10"/><line x1="3.5" y1="13.5" x2="3.5" y2="13.5" fill="none" stroke="#000" stroke-linecap="round" stroke-miterlimit="10"/><line x1="3.5" y1="15.5" x2="3.5" y2="15.5" fill="none" stroke="#000" stroke-linecap="round" stroke-miterlimit="10"/><line x1="5.5" y1="8.5" x2="5.5" y2="8.5" fill="none" stroke="#000" stroke-linecap="round" stroke-miterlimit="10"/><line x1="5.5" y1="13.5" x2="5.5" y2="13.5" fill="none" stroke="#000" stroke-linecap="round" stroke-miterlimit="10"/><line x1="5.5" y1="15.5" x2="5.5" y2="15.5" fill="none" stroke="#000" stroke-linecap="round" stroke-miterlimit="10"/><line x1="18.5" y1="8.5" x2="18.5" y2="8.5" fill="none" stroke="#000" stroke-linecap="round" stroke-miterlimit="10"/><line x1="20.5" y1="8.5" x2="20.5" y2="8.5" fill="none" stroke="#000" stroke-linecap="round" stroke-miterlimit="10"/><line x1="18.5" y1="10.5" x2="18.5" y2="10.5" fill="none" stroke="#000" stroke-linecap="round" stroke-miterlimit="10"/><line x1="20.5" y1="10.5" x2="20.5" y2="10.5" fill="none" stroke="#000" stroke-linecap="round" stroke-miterlimit="10"/><line x1="18.5" y1="15.5" x2="18.5" y2="15.5" fill="none" stroke="#000" stroke-linecap="round" stroke-miterlimit="10"/><line x1="20.5" y1="15.5" x2="20.5" y2="15.5" fill="none" stroke="#000" stroke-linecap="round" stroke-miterlimit="10"/><line x1="18.5" y1="13.5" x2="18.5" y2="13.5" fill="none" stroke="#000" stroke-linecap="round" stroke-miterlimit="10"/><line x1="20.5" y1="13.5" x2="20.5" y2="13.5" fill="none" stroke="#000" stroke-linecap="round" stroke-miterlimit="10"/><line x1="3.5" y1="10.5" x2="3.5" y2="10.5" fill="none" stroke="#000" stroke-linecap="round" stroke-miterlimit="10"/><line x1="5.5" y1="10.5" x2="5.5" y2="10.5" fill="none" stroke="#000" stroke-linecap="round" stroke-miterlimit="10"/><line x1="7.5" y1="8.5" x2="7.5" y2="8.5" fill="none" stroke="#000" stroke-linecap="round" stroke-miterlimit="10"/><line x1="7.5" y1="10.5" x2="7.5" y2="10.5" fill="none" stroke="#000" stroke-linecap="round" stroke-miterlimit="10"/><line x1="11.5" y1="8.5" x2="11.5" y2="8.5" fill="none" stroke="#000" stroke-linecap="round" stroke-miterlimit="10"/><line x1="11.5" y1="10.5" x2="11.5" y2="10.5" fill="none" stroke="#000" stroke-linecap="round" stroke-miterlimit="10"/><line x1="13.5" y1="8.5" x2="13.5" y2="8.5" fill="none" stroke="#000" stroke-linecap="round" stroke-miterlimit="10"/><line x1="16.5" y1="8.5" x2="16.5" y2="8.5" fill="none" stroke="#000" stroke-linecap="round" stroke-miterlimit="10"/><line x1="13.5" y1="10.5" x2="13.5" y2="10.5" fill="none" stroke="#000" stroke-linecap="round" stroke-miterlimit="10"/><line x1="16.5" y1="10.5" x2="16.5" y2="10.5" fill="none" stroke="#000" stroke-linecap="round" stroke-miterlimit="10"/><line x1="7.5" y1="13.5" x2="7.5" y2="13.5" fill="none" stroke="#000" stroke-linecap="round" stroke-miterlimit="10"/><line x1="7.5" y1="15.5" x2="7.5" y2="15.5" fill="none" stroke="#000" stroke-linecap="round" stroke-miterlimit="10"/><line x1="13.5" y1="13.5" x2="13.5" y2="13.5" fill="none" stroke="#000" stroke-linecap="round" stroke-miterlimit="10"/><line x1="16.5" y1="13.5" x2="16.5" y2="13.5" fill="none" stroke="#000" stroke-linecap="round" stroke-miterlimit="10"/><line x1="13.5" y1="15.5" x2="13.5" y2="15.5" fill="none" stroke="#000" stroke-linecap="round" stroke-miterlimit="10"/><line x1="16.5" y1="15.5" x2="16.5" y2="15.5" fill="none" stroke="#000" stroke-linecap="round" stroke-miterlimit="10"/><line x1="11.5" y1="13.5" x2="11.5" y2="13.5" fill="none" stroke="#000" stroke-linecap="round" stroke-miterlimit="10"/><line x1="11.5" y1="15.5" x2="11.5" y2="15.5" fill="none" stroke="#000" stroke-linecap="round" stroke-miterlimit="10"/><line x1="3.5" y1="18.5" x2="3.5" y2="18.5" fill="none" stroke="#000" stroke-linecap="round" stroke-miterlimit="10"/><line x1="5.5" y1="18.5" x2="5.5" y2="18.5" fill="none" stroke="#000" stroke-linecap="round" stroke-miterlimit="10"/><line x1="18.5" y1="18.5" x2="18.5" y2="18.5" fill="none" stroke="#000" stroke-linecap="round" stroke-miterlimit="10"/><line x1="20.5" y1="18.5" x2="20.5" y2="18.5" fill="none" stroke="#000" stroke-linecap="round" stroke-miterlimit="10"/><line x1="7.5" y1="18.5" x2="7.5" y2="18.5" fill="none" stroke="#000" stroke-linecap="round" stroke-miterlimit="10"/><line x1="13.5" y1="18.5" x2="13.5" y2="18.5" fill="none" stroke="#000" stroke-linecap="round" stroke-miterlimit="10"/><line x1="16.5" y1="18.5" x2="16.5" y2="18.5" fill="none" stroke="#000" stroke-linecap="round" stroke-miterlimit="10"/><line x1="11.5" y1="18.5" x2="11.5" y2="18.5" fill="none" stroke="#000" stroke-linecap="round" stroke-miterlimit="10"/><line x1="3.5" y1="5.5" x2="3.5" y2="5.5" fill="none" stroke="#000" stroke-linecap="round" stroke-miterlimit="10"/><line x1="5.5" y1="5.5" x2="5.5" y2="5.5" fill="none" stroke="#000" stroke-linecap="round" stroke-miterlimit="10"/><line x1="18.5" y1="5.5" x2="18.5" y2="5.5" fill="none" stroke="#000" stroke-linecap="round" stroke-miterlimit="10"/><line x1="20.5" y1="5.5" x2="20.5" y2="5.5" fill="none" stroke="#000" stroke-linecap="round" stroke-miterlimit="10"/><line x1="7.5" y1="5.5" x2="7.5" y2="5.5" fill="none" stroke="#000" stroke-linecap="round" stroke-miterlimit="10"/><line x1="11.5" y1="5.5" x2="11.5" y2="5.5" fill="none" stroke="#000" stroke-linecap="round" stroke-miterlimit="10"/><line x1="13.5" y1="5.5" x2="13.5" y2="5.5" fill="none" stroke="#000" stroke-linecap="round" stroke-miterlimit="10"/><line x1="16.5" y1="5.5" x2="16.5" y2="5.5" fill="none" stroke="#000" stroke-linecap="round" stroke-miterlimit="10"/></svg>