<svg id="ae4b56f8-7eb7-4c86-92e9-eb78e562154e" data-name="Layer 1" xmlns="http://www.w3.org/2000/svg" viewBox="0 0 24 16"><rect x="0.5" y="0.5" width="23" height="15" rx="1.98" fill="none" stroke="#000" stroke-miterlimit="10"/><line x1="3.05" y1="4" x2="3.05" y2="4" fill="none" stroke="#000" stroke-linecap="round" stroke-miterlimit="10"/><line x1="5.05" y1="4" x2="5.05" y2="4" fill="none" stroke="#000" stroke-linecap="round" stroke-miterlimit="10"/><line x1="3.05" y1="6" x2="3.05" y2="6" fill="none" stroke="#000" stroke-linecap="round" stroke-miterlimit="10"/><line x1="5.05" y1="6" x2="5.05" y2="6" fill="none" stroke="#000" stroke-linecap="round" stroke-miterlimit="10"/><line x1="3.05" y1="8" x2="3.05" y2="8" fill="none" stroke="#000" stroke-linecap="round" stroke-miterlimit="10"/><line x1="5.05" y1="8" x2="5.05" y2="8" fill="none" stroke="#000" stroke-linecap="round" stroke-miterlimit="10"/><line x1="3.05" y1="10" x2="3.05" y2="10" fill="none" stroke="#000" stroke-linecap="round" stroke-miterlimit="10"/><line x1="5.05" y1="10" x2="5.05" y2="10" fill="none" stroke="#000" stroke-linecap="round" stroke-miterlimit="10"/><line x1="3.05" y1="12" x2="3.05" y2="12" fill="none" stroke="#000" stroke-linecap="round" stroke-miterlimit="10"/><line x1="5.05" y1="12" x2="5.05" y2="12" fill="none" stroke="#000" stroke-linecap="round" stroke-miterlimit="10"/><line x1="7.05" y1="4" x2="7.05" y2="4" fill="none" stroke="#000" stroke-linecap="round" stroke-miterlimit="10"/><line x1="9.05" y1="4" x2="9.05" y2="4" fill="none" stroke="#000" stroke-linecap="round" stroke-miterlimit="10"/><line x1="7.05" y1="6" x2="7.05" y2="6" fill="none" stroke="#000" stroke-linecap="round" stroke-miterlimit="10"/><line x1="9.05" y1="6" x2="9.05" y2="6" fill="none" stroke="#000" stroke-linecap="round" stroke-miterlimit="10"/><line x1="7.05" y1="8" x2="7.05" y2="8" fill="none" stroke="#000" stroke-linecap="round" stroke-miterlimit="10"/><line x1="9.05" y1="8" x2="9.05" y2="8" fill="none" stroke="#000" stroke-linecap="round" stroke-miterlimit="10"/><line x1="7.05" y1="10" x2="7.05" y2="10" fill="none" stroke="#000" stroke-linecap="round" stroke-miterlimit="10"/><line x1="9.05" y1="10" x2="9.05" y2="10" fill="none" stroke="#000" stroke-linecap="round" stroke-miterlimit="10"/><line x1="7.05" y1="12" x2="7.05" y2="12" fill="none" stroke="#000" stroke-linecap="round" stroke-miterlimit="10"/><line x1="9.05" y1="12" x2="9.05" y2="12" fill="none" stroke="#000" stroke-linecap="round" stroke-miterlimit="10"/><path d="M14,8.37v7.25a.76.76,0,0,0,1.17.65L21,12.62a.77.77,0,0,0,0-1.29L15.16,7.72A.76.76,0,0,0,14,8.37Z" transform="translate(0 -4)"/><line x1="11.5" y1="0.5" x2="11.5" y2="15.5" fill="none" stroke="#000" stroke-linecap="round" stroke-miterlimit="10"/></svg>