<svg xmlns="http://www.w3.org/2000/svg" viewBox="0 0 24 24"><rect x="0.5" y="2.5" width="23" height="19" rx="1.5" fill="none" stroke="#000" stroke-miterlimit="10"/><line x1="5.5" y1="7.5" x2="5.5" y2="7.5" fill="none" stroke="#000" stroke-linecap="round" stroke-miterlimit="10"/><line x1="5.5" y1="15.5" x2="5.5" y2="15.5" fill="none" stroke="#000" stroke-linecap="round" stroke-miterlimit="10"/><line x1="5.5" y1="17.5" x2="5.5" y2="17.5" fill="none" stroke="#000" stroke-linecap="round" stroke-miterlimit="10"/><line x1="18.5" y1="7.5" x2="18.5" y2="7.5" fill="none" stroke="#000" stroke-linecap="round" stroke-miterlimit="10"/><line x1="18.5" y1="9.5" x2="18.5" y2="9.5" fill="none" stroke="#000" stroke-linecap="round" stroke-miterlimit="10"/><line x1="18.5" y1="17.5" x2="18.5" y2="17.5" fill="none" stroke="#000" stroke-linecap="round" stroke-miterlimit="10"/><line x1="18.5" y1="15.5" x2="18.5" y2="15.5" fill="none" stroke="#000" stroke-linecap="round" stroke-miterlimit="10"/><line x1="5.5" y1="9.5" x2="5.5" y2="9.5" fill="none" stroke="#000" stroke-linecap="round" stroke-miterlimit="10"/><line x1="8.5" y1="7.5" x2="8.5" y2="7.5" fill="none" stroke="#000" stroke-linecap="round" stroke-miterlimit="10"/><line x1="8.5" y1="9.5" x2="8.5" y2="9.5" fill="none" stroke="#000" stroke-linecap="round" stroke-miterlimit="10"/><line x1="15.5" y1="7.5" x2="15.5" y2="7.5" fill="none" stroke="#000" stroke-linecap="round" stroke-miterlimit="10"/><line x1="15.5" y1="9.5" x2="15.5" y2="9.5" fill="none" stroke="#000" stroke-linecap="round" stroke-miterlimit="10"/><line x1="8.5" y1="15.5" x2="8.5" y2="15.5" fill="none" stroke="#000" stroke-linecap="round" stroke-miterlimit="10"/><line x1="8.5" y1="17.5" x2="8.5" y2="17.5" fill="none" stroke="#000" stroke-linecap="round" stroke-miterlimit="10"/><line x1="15.5" y1="15.5" x2="15.5" y2="15.5" fill="none" stroke="#000" stroke-linecap="round" stroke-miterlimit="10"/><line x1="15.5" y1="17.5" x2="15.5" y2="17.5" fill="none" stroke="#000" stroke-linecap="round" stroke-miterlimit="10"/><line x1="1" y1="12.5" x2="23" y2="12.5" fill="none" stroke="#000" stroke-miterlimit="10"/></svg>