<svg id="bf7c1cf4-ba33-4cc5-a8e2-0408189a27f1" data-name="Layer 1" xmlns="http://www.w3.org/2000/svg" viewBox="0 0 24 24"><path d="M7.89,18A3.84,3.84,0,0,0,3.07,17c-2,.9-3.08,3-2.33,4.7s3,2.34,5,1.45a3.8,3.8,0,0,0,2.41-4.47" fill="none" stroke="#000" stroke-linecap="round" stroke-miterlimit="10"/><path d="M7.89,18a2.36,2.36,0,0,1,.22.38,1.55,1.55,0,0,1,.08.23" fill="none" stroke="#000" stroke-linecap="round" stroke-miterlimit="10"/><path d="M8.19,18.63" fill="none" stroke="#000" stroke-linecap="round" stroke-miterlimit="10"/><path d="M8.34,19.53V7.4a1,1,0,0,1,1.27-.92l3,1" fill="none" stroke="#000" stroke-linecap="round" stroke-miterlimit="10"/><path d="M8.19,18.63" fill="none" stroke="#000" stroke-linecap="round" stroke-miterlimit="10"/><path d="M7.89,18" fill="none" stroke="#000" stroke-linecap="round" stroke-miterlimit="10"/><path d="M18.82,12.09A3.84,3.84,0,0,0,14,11c-2,.9-3.08,3-2.33,4.7s3,2.34,5,1.44a3.79,3.79,0,0,0,2.41-4.46" fill="none" stroke="#000" stroke-linecap="round" stroke-miterlimit="10"/><path d="M18.82,12.09a2.77,2.77,0,0,1,.22.37,2.25,2.25,0,0,1,.08.24" fill="none" stroke="#000" stroke-linecap="round" stroke-miterlimit="10"/><path d="M19.12,12.7" fill="none" stroke="#000" stroke-linecap="round" stroke-miterlimit="10"/><path d="M19.27,13.72V1.46A1,1,0,0,1,20.54.55l3,1" fill="none" stroke="#000" stroke-linecap="round" stroke-miterlimit="10"/><path d="M19.12,12.7" fill="none" stroke="#000" stroke-linecap="round" stroke-miterlimit="10"/><path d="M18.82,12.09" fill="none" stroke="#000" stroke-linecap="round" stroke-miterlimit="10"/></svg>