<svg id="af925704-f130-496a-a40a-2c445c01cf05" data-name="Layer 1" xmlns="http://www.w3.org/2000/svg" viewBox="0 0 24 24"><path d="M8.34,4.37v7.25a.76.76,0,0,0,1.16.65l5.81-3.65a.76.76,0,0,0,0-1.29L9.5,3.72A.76.76,0,0,0,8.34,4.37Z"/><rect x="4.5" y="0.5" width="15" height="15" rx="1.98" fill="none" stroke="#000" stroke-miterlimit="10"/><line x1="1" y1="18.5" x2="19.5" y2="18.5" fill="none" stroke="#000" stroke-linecap="round" stroke-miterlimit="10"/><path d="M2.4,17,.56,18.38a.15.15,0,0,0,0,.24L2.4,20" fill="none" stroke="#000" stroke-linecap="round" stroke-miterlimit="10"/><line x1="23" y1="22" x2="4.5" y2="22" fill="none" stroke="#000" stroke-linecap="round" stroke-miterlimit="10"/><path d="M21.6,20.5l1.84,1.38a.15.15,0,0,1,0,.24L21.6,23.5" fill="none" stroke="#000" stroke-linecap="round" stroke-miterlimit="10"/></svg>