<svg xmlns="http://www.w3.org/2000/svg" viewBox="0 0 24 24"><rect x="1.5" y="5.5" width="21" height="13" rx="1.5" fill="none" stroke="#000" stroke-miterlimit="10"/><path d="M8.5,9.41v5.68a.41.41,0,0,0,.59.37l5.68-2.84a.41.41,0,0,0,0-.73L9.09,9.05A.41.41,0,0,0,8.5,9.41Z" fill="none" stroke="#000" stroke-miterlimit="10"/><path d="M4.53,3.47l-1.9-1.9a.15.15,0,0,0-.2,0L.53,3.47" fill="none" stroke="#000" stroke-linecap="round" stroke-miterlimit="10"/><path d="M23.47,20.53l-1.89,1.89a.17.17,0,0,1-.23,0l-1.88-1.89" fill="none" stroke="#000" stroke-linecap="round" stroke-miterlimit="10"/><line x1="2.5" y1="2.5" x2="2.5" y2="5.5" fill="none" stroke="#000" stroke-linecap="round" stroke-miterlimit="10"/><line x1="21.5" y1="18.5" x2="21.5" y2="21.5" fill="none" stroke="#000" stroke-linecap="round" stroke-miterlimit="10"/></svg>