<svg id="a1eeed00-707b-4e73-99a4-d7039cc0cfd8" data-name="Layer 1" xmlns="http://www.w3.org/2000/svg" viewBox="0 0 24 24"><path d="M20.34,15.52h0a2.59,2.59,0,0,1,2.48,1.4,2.32,2.32,0,0,1-.11,2,3.79,3.79,0,0,1-1.88,1.73,4,4,0,0,1-1.62.35,2.58,2.58,0,0,1-2.48-1.39,2.32,2.32,0,0,1,.11-2,3.81,3.81,0,0,1,1.88-1.74,4,4,0,0,1,1.62-.35m0-1a5,5,0,0,0-2,.44c-2.19,1-3.31,3.23-2.51,5.05a3.58,3.58,0,0,0,3.4,2,5,5,0,0,0,2-.44c2.19-1,3.31-3.22,2.51-5a3.6,3.6,0,0,0-3.4-2Z" transform="translate(0 0)"/><path d="M4.79,17.52h0a2.59,2.59,0,0,1,2.48,1.4,2.32,2.32,0,0,1-.11,2,3.79,3.79,0,0,1-1.88,1.73A4,4,0,0,1,3.66,23a2.58,2.58,0,0,1-2.48-1.39,2.32,2.32,0,0,1,.11-2,3.81,3.81,0,0,1,1.88-1.74,4,4,0,0,1,1.62-.35m0-1a5,5,0,0,0-2,.44C.58,17.92-.54,20.19.26,22a3.58,3.58,0,0,0,3.4,2,5,5,0,0,0,2-.44c2.19-1,3.31-3.22,2.51-5a3.6,3.6,0,0,0-3.4-2Z" transform="translate(0 0)"/><path d="M23.5,18V2.23A1.73,1.73,0,0,0,21.77.5H9.68A1.72,1.72,0,0,0,8,2.23V19.68" transform="translate(0 0)" fill="none" stroke="#000" stroke-miterlimit="10"/></svg>