<svg id="f01e67e2-e468-4828-a51b-7c286445fd98" data-name="Layer 1" xmlns="http://www.w3.org/2000/svg" viewBox="0 0 16 24.1"><path d="M11.79,14.52h0a2.6,2.6,0,0,1,2.48,1.39,2.34,2.34,0,0,1-.11,2,3.79,3.79,0,0,1-1.88,1.73,4,4,0,0,1-1.62.35,2.58,2.58,0,0,1-2.48-1.39,2.32,2.32,0,0,1,.11-2,3.81,3.81,0,0,1,1.88-1.74,4,4,0,0,1,1.62-.35m0-1a5,5,0,0,0-2,.44c-2.19,1-3.31,3.23-2.51,5.05a3.58,3.58,0,0,0,3.4,2,5,5,0,0,0,2-.44c2.19-1,3.31-3.22,2.51-5a3.58,3.58,0,0,0-3.4-2Z" transform="translate(-4 0.1)"/><path d="M19.5,1.5l-3.19-1a1,1,0,0,0-1.36,1V16.68" transform="translate(-4 0.1)" fill="none" stroke="#000" stroke-linecap="round" stroke-miterlimit="10"/><line x1="1.5" y1="6.6" x2="8.5" y2="6.6" fill="none" stroke="#000" stroke-linecap="round" stroke-miterlimit="10"/><rect x="0.5" y="9.6" width="14" height="14" rx="2" fill="none" stroke="#000" stroke-linecap="round" stroke-miterlimit="10"/><line x1="1.5" y1="4.6" x2="8.5" y2="4.6" fill="none" stroke="#000" stroke-linecap="round" stroke-miterlimit="10"/><line x1="1.5" y1="2.6" x2="8.5" y2="2.6" fill="none" stroke="#000" stroke-linecap="round" stroke-miterlimit="10"/></svg>