<svg id="b40ac90f-0754-458f-bcde-35f1979ff874" data-name="Layer 1" xmlns="http://www.w3.org/2000/svg" viewBox="0 0 24 24"><path d="M22,1.41h0a1,1,0,0,1,1,1v19.3a1,1,0,0,1-1,1,.94.94,0,0,1-.49-.14l-18-9.63A1,1,0,0,1,3,12a1,1,0,0,1,.46-.82L21.57,1.53A1,1,0,0,1,22,1.41m0-1a2,2,0,0,0-1,.25L3,10.31a2,2,0,0,0,0,3.41l18.07,9.64a1.9,1.9,0,0,0,1,.26,2,2,0,0,0,2-2V2.36A2,2,0,0,0,22,.41Z" transform="translate(0 0)"/><line x1="0.5" y1="23.5" x2="0.5" y2="0.5" fill="none" stroke="#000" stroke-linecap="round" stroke-miterlimit="10"/></svg>