<svg id="e0bd0dbf-9ee6-4d9a-a0ca-374a4ef9ec84" data-name="Layer 1" xmlns="http://www.w3.org/2000/svg" viewBox="0 0 24 24"><path d="M2,1.41a1,1,0,0,1,.49.13L20.5,11.18A1,1,0,0,1,21,12a.93.93,0,0,1-.46.82L2.43,22.49a.9.9,0,0,1-.47.13,1,1,0,0,1-1-1V2.36a1,1,0,0,1,1-.95m0-1a2,2,0,0,0-2,2v19.3a2,2,0,0,0,2,2,1.9,1.9,0,0,0,1-.26L21,13.72a2,2,0,0,0,0-3.41L2.92.66A2,2,0,0,0,2,.41Z" transform="translate(0 0)"/><line x1="23.5" y1="23.5" x2="23.5" y2="0.5" fill="none" stroke="#000" stroke-linecap="round" stroke-miterlimit="10"/></svg>