<svg id="bb7d5858-c066-4dd0-ab65-cf52f71b01df" data-name="Layer 1" xmlns="http://www.w3.org/2000/svg" viewBox="0 0 20.1 24.05"><path d="M12.5,12.53V1.29a.81.81,0,0,0-.81-.81H3.31a.82.82,0,0,0-.82.81V19.17a.82.82,0,0,0,1.3.66L7,17.45a.81.81,0,0,1,1,0l1.94,1.43" transform="translate(-1.99 0.02)" fill="none" stroke="#000" stroke-miterlimit="10"/><path d="M12.5,12.53a5.87,5.87,0,0,1,3.18-.94,6,6,0,1,1-5.76,7.29" transform="translate(-1.99 0.02)" fill="none" stroke="#000" stroke-miterlimit="10"/><path d="M12.5,12.53a6,6,0,0,0-2.73,5,6.43,6.43,0,0,0,.15,1.32" transform="translate(-1.99 0.02)" fill="none" stroke="#000" stroke-miterlimit="10"/><line x1="10.51" y1="17.52" x2="16.51" y2="17.52" fill="none" stroke="#000" stroke-linecap="round" stroke-miterlimit="10"/><line x1="3.51" y1="2.52" x2="7.51" y2="2.52" fill="none" stroke="#000" stroke-linecap="round" stroke-miterlimit="10"/></svg>