<svg xmlns="http://www.w3.org/2000/svg" viewBox="0 0 24 24"><path d="M.5,3.5H5.56a2,2,0,0,1,1.53.73l6.82,8.54a2,2,0,0,0,1.53.73H22.5" fill="none" stroke="#000" stroke-linecap="round" stroke-miterlimit="10"/><path d="M1.5,11.5h4a2,2,0,0,1,1.6.78l5.78,7.44a2,2,0,0,0,1.6.78h9" fill="none" stroke="#000" stroke-linecap="round" stroke-miterlimit="10"/><path d="M2.5,9.5l-2,2a.06.06,0,0,0,0,.08l2,2" fill="none" stroke="#000" stroke-linecap="round" stroke-miterlimit="10"/><path d="M21.5,11.5l2,2a.06.06,0,0,1,0,.08l-2,2" fill="none" stroke="#000" stroke-linecap="round" stroke-miterlimit="10"/></svg>