<svg id="bfa14443-7577-4c93-bb00-19f98169ec6b" data-name="Layer 1" xmlns="http://www.w3.org/2000/svg" viewBox="0 0 24 18"><path d="M.5,3.5H5.56a2,2,0,0,1,1.53.73l6.82,8.54a2,2,0,0,0,1.53.73H22.5" transform="translate(0 -3)" fill="none" stroke="#000" stroke-linecap="round" stroke-miterlimit="10"/><path d="M1.5,11.5h4a2,2,0,0,1,1.6.78l5.78,7.44a2,2,0,0,0,1.6.78h9" transform="translate(0 -3)" fill="none" stroke="#000" stroke-linecap="round" stroke-miterlimit="10"/><path d="M20.5,11.5l2.88,1.89a.49.49,0,0,1,0,.64L20.5,15.5" transform="translate(0 -3)" fill="none" stroke="#000" stroke-linecap="round" stroke-miterlimit="10"/><path d="M2.5,13.5.62,11.61a.49.49,0,0,1,0-.64L2.5,9.5" transform="translate(0 -3)" fill="none" stroke="#000" stroke-linecap="round" stroke-miterlimit="10"/></svg>