<svg id="fae34312-0bb8-4e81-90c8-567ea56940e2" data-name="Layer 1" xmlns="http://www.w3.org/2000/svg" viewBox="0 0 19 24"><circle cx="3" cy="3" r="1"/><rect x="0.5" y="0.5" width="18" height="23" rx="1.98" fill="none" stroke="#000" stroke-miterlimit="10"/><line x1="3.5" y1="20.5" x2="11.5" y2="20.5" fill="none" stroke="#000" stroke-linecap="round" stroke-miterlimit="10"/><path d="M10.79,12.52h0a2.6,2.6,0,0,1,2.48,1.39,2.34,2.34,0,0,1-.11,2,3.79,3.79,0,0,1-1.88,1.73A4,4,0,0,1,9.66,18a2.58,2.58,0,0,1-2.48-1.39,2.32,2.32,0,0,1,.11-2,3.81,3.81,0,0,1,1.88-1.74,4,4,0,0,1,1.62-.35m0-1a5,5,0,0,0-2,.44c-2.19,1-3.31,3.23-2.51,5.05a3.58,3.58,0,0,0,3.4,2,5,5,0,0,0,2-.44c2.19-1,3.31-3.22,2.51-5a3.58,3.58,0,0,0-3.4-2Z" transform="translate(-3)"/><path d="M18.5,3.5l-3.19-1a1,1,0,0,0-1.36,1V14.68" transform="translate(-3)" fill="none" stroke="#000" stroke-linecap="round" stroke-miterlimit="10"/></svg>