<svg id="bbbbc6f9-3f29-4c07-9644-d31be07ef973" data-name="Layer 1" xmlns="http://www.w3.org/2000/svg" viewBox="0 0 24 18"><path d="M.5,5.5h9.72A4.27,4.27,0,0,1,14.5,9.78v4c0,2,1.65,4.68,3.68,4.68H22.5" transform="translate(0 -3)" fill="none" stroke="#000" stroke-linecap="round" stroke-miterlimit="10"/><path d="M20.5,16.5l2.88,1.89a.49.49,0,0,1,0,.64L20.5,20.5" transform="translate(0 -3)" fill="none" stroke="#000" stroke-linecap="round" stroke-miterlimit="10"/><path d="M16.5,5.5h6" transform="translate(0 -3)" fill="none" stroke="#000" stroke-linecap="round" stroke-miterlimit="10"/><path d="M.5,18.5h11" transform="translate(0 -3)" fill="none" stroke="#000" stroke-linecap="round" stroke-miterlimit="10"/><path d="M20.5,7.5l2.88-1.89a.49.49,0,0,0,0-.64L20.5,3.5" transform="translate(0 -3)" fill="none" stroke="#000" stroke-linecap="round" stroke-miterlimit="10"/></svg>