<svg xmlns="http://www.w3.org/2000/svg" viewBox="0 0 24 24"><rect x="0.5" y="9.5" width="15" height="13" rx="1.5" fill="none" stroke="#000" stroke-miterlimit="10"/><path d="M5.5,13.4v4.25a.85.85,0,0,0,1.23.76L11,16.29a.86.86,0,0,0,0-1.53L6.73,12.64A.85.85,0,0,0,5.5,13.4Z" fill="none" stroke="#000" stroke-miterlimit="10"/><path d="M16.5,1.5h0a7,7,0,0,1,7,7h0" fill="none" stroke="#000" stroke-linecap="round" stroke-miterlimit="10"/><path d="M16.5,3.5h0a5,5,0,0,1,5,5h0" fill="none" stroke="#000" stroke-linecap="round" stroke-miterlimit="10"/><path d="M16.5,5.5h0a3,3,0,0,1,3,3h0" fill="none" stroke="#000" stroke-linecap="round" stroke-miterlimit="10"/></svg>