<svg id="b0afe75f-042e-46ba-bb2e-530d2399029a" data-name="Layer 1" xmlns="http://www.w3.org/2000/svg" viewBox="0 0 24 20"><circle cx="12" cy="10" r="4.5" fill="none" stroke="#000" stroke-miterlimit="10"/><rect x="0.5" y="0.5" width="23" height="19" rx="1.98" fill="none" stroke="#000" stroke-miterlimit="10"/><path d="M12.24,12.2" transform="translate(0 -2)" fill="none" stroke="#000" stroke-linecap="round" stroke-miterlimit="10"/><path d="M6.6,7.54a7,7,0,0,0,.11,9" transform="translate(0 -2)" fill="none" stroke="#000" stroke-linecap="round" stroke-miterlimit="10"/><path d="M17.67,7.91" transform="translate(0 -2)" fill="none" stroke="#000" stroke-linecap="round" stroke-miterlimit="10"/><path d="M12.24,12.2" transform="translate(0 -2)" fill="none" stroke="#000" stroke-linecap="round" stroke-miterlimit="10"/><path d="M6.6,7.54" transform="translate(0 -2)" fill="none" stroke="#000" stroke-linecap="round" stroke-miterlimit="10"/><path d="M17.4,16.46a7,7,0,0,0,.27-8.55" transform="translate(0 -2)" fill="none" stroke="#000" stroke-linecap="round" stroke-miterlimit="10"/><path d="M12.24,12.2" transform="translate(0 -2)" fill="none" stroke="#000" stroke-linecap="round" stroke-miterlimit="10"/><path d="M6.71,16.58" transform="translate(0 -2)" fill="none" stroke="#000" stroke-linecap="round" stroke-miterlimit="10"/><path d="M12.24,12.2" transform="translate(0 -2)" fill="none" stroke="#000" stroke-linecap="round" stroke-miterlimit="10"/><path d="M17.4,16.46" transform="translate(0 -2)" fill="none" stroke="#000" stroke-linecap="round" stroke-miterlimit="10"/><circle cx="12" cy="10" r="1.5" stroke="#000" stroke-miterlimit="10"/></svg>