<svg xmlns="http://www.w3.org/2000/svg" viewBox="0 0 24 24"><path d="M12,21.5A9.5,9.5,0,0,1,8.3,3.25" fill="none" stroke="#000" stroke-linecap="round" stroke-miterlimit="10"/><path d="M12,2.5a9.5,9.5,0,0,1,3.7,18.25" fill="none" stroke="#000" stroke-linecap="round" stroke-miterlimit="10"/><path d="M13.5.5,11.61,2.39a.16.16,0,0,0,0,.22L13.5,4.5" fill="none" stroke="#000" stroke-linecap="round" stroke-miterlimit="10"/><path d="M10.5,19.5l1.89,1.89a.16.16,0,0,1,0,.22L10.5,23.5" fill="none" stroke="#000" stroke-linecap="round" stroke-miterlimit="10"/><path d="M9.5,9.41v5.68a.41.41,0,0,0,.59.37l5.68-2.84a.41.41,0,0,0,0-.73L10.09,9.05A.41.41,0,0,0,9.5,9.41Z" fill="none" stroke="#000" stroke-miterlimit="10"/></svg>