<svg id="adad370d-7fcc-4731-b92b-5ec855922e05" data-name="Layer 1" xmlns="http://www.w3.org/2000/svg" viewBox="0 0 24 20"><path d="M8.34,8.37v7.26a.76.76,0,0,0,1.16.64l5.81-3.64a.76.76,0,0,0,0-1.29L9.5,7.73A.76.76,0,0,0,8.34,8.37Z" transform="translate(0 -2)"/><path d="M3.16,15.47" transform="translate(0 -2)" fill="none" stroke="#000" stroke-linecap="round" stroke-miterlimit="10"/><path d="M21.47,12.71a9.5,9.5,0,0,1-17.7,4" transform="translate(0 -2)" fill="none" stroke="#000" stroke-linecap="round" stroke-miterlimit="10"/><path d="M21.5,12" transform="translate(0 -2)" fill="none" stroke="#000" stroke-linecap="round" stroke-miterlimit="10"/><path d="M21.19,9.58" transform="translate(0 -2)" fill="none" stroke="#000" stroke-linecap="round" stroke-miterlimit="10"/><path d="M2.54,12.85a7.94,7.94,0,0,1,0-.85A9.5,9.5,0,0,1,20.43,7.61" transform="translate(0 -2)" fill="none" stroke="#000" stroke-linecap="round" stroke-miterlimit="10"/><path d="M.5,11.5,2,13a.67.67,0,0,0,1,0L4.5,11.5" transform="translate(0 -2)" fill="none" stroke="#000" stroke-linecap="round" stroke-miterlimit="10"/><path d="M23.5,13.85,22,12.35a.72.72,0,0,0-1,0l-1.5,1.5" transform="translate(0 -2)" fill="none" stroke="#000" stroke-linecap="round" stroke-miterlimit="10"/></svg>