<svg id="a36f1ef8-9356-4f63-811f-f2a1e49606c5" data-name="Layer 1" xmlns="http://www.w3.org/2000/svg" viewBox="0 0 24 24"><path d="M14.1,15h0a3.83,3.83,0,0,1,3.64,2.06c.85,1.93-.43,4.37-2.84,5.44a5.71,5.71,0,0,1-2.3.5A3.82,3.82,0,0,1,9,20.94c-.85-1.94.42-4.38,2.84-5.44a5.68,5.68,0,0,1,2.3-.5m0-1a6.77,6.77,0,0,0-2.7.58C8.47,15.87,7,18.9,8.05,21.34A4.8,4.8,0,0,0,12.6,24a6.81,6.81,0,0,0,2.7-.58c2.93-1.3,4.43-4.32,3.35-6.76A4.79,4.79,0,0,0,14.1,14Z"/><path d="M23.5,2.5,20.58.75A1.37,1.37,0,0,0,18.5,1.93V18.41" fill="none" stroke="#000" stroke-linecap="round" stroke-miterlimit="10"/><line x1="0.5" y1="0.5" x2="14.5" y2="0.5" fill="none" stroke="#000" stroke-linecap="round" stroke-miterlimit="10"/><line x1="0.5" y1="7.5" x2="11.5" y2="7.5" fill="none" stroke="#000" stroke-linecap="round" stroke-miterlimit="10"/><line x1="0.5" y1="14.5" x2="7.5" y2="14.5" fill="none" stroke="#000" stroke-linecap="round" stroke-miterlimit="10"/><line x1="0.5" y1="21.5" x2="3.5" y2="21.5" fill="none" stroke="#000" stroke-linecap="round" stroke-miterlimit="10"/></svg>