<svg id="b6f873f3-a1c1-410c-9654-f12f7dbac344" data-name="Layer 1" xmlns="http://www.w3.org/2000/svg" viewBox="0 0 24 23"><rect x="0.5" y="9.5" width="15" height="13" rx="1.96" fill="none" stroke="#000" stroke-miterlimit="10"/><path d="M23.5,9.23A9.34,9.34,0,0,0,13.56.52" transform="translate(0 0)" fill="none" stroke="#000" stroke-linecap="round" stroke-miterlimit="10"/><path d="M13.72,3a6.91,6.91,0,0,1,7.35,6.44" transform="translate(0 0)" fill="none" stroke="#000" stroke-linecap="round" stroke-miterlimit="10"/><path d="M13.88,5.39" transform="translate(0 0)" fill="none" stroke="#000" stroke-linecap="round" stroke-miterlimit="10"/><path d="M13.88,5.39a4.47,4.47,0,0,1,4.75,4.16" transform="translate(0 0)" fill="none" stroke="#000" stroke-linecap="round" stroke-miterlimit="10"/><path d="M5,13.9v4.25a.85.85,0,0,0,1.23.76l4.25-2.12a.85.85,0,0,0,0-1.52L6.23,13.14A.85.85,0,0,0,5,13.9Z" transform="translate(0 0)"/></svg>