<svg xmlns="http://www.w3.org/2000/svg" viewBox="0 0 24 24"><path d="M12.45,9.17v5.66a.72.72,0,0,0,1,.65l5.67-2.84a.71.71,0,0,0,0-1.28L13.49,8.52A.72.72,0,0,0,12.45,9.17Z" fill="none" stroke="#000" stroke-miterlimit="10"/><path d="M2.49,3.5h19a2,2,0,0,1,2,2v15a0,0,0,0,1,0,0H.5a0,0,0,0,1,0,0v-15a2,2,0,0,1,2-2Z" fill="none" stroke="#000" stroke-miterlimit="10"/><line x1="4.5" y1="12.5" x2="8.5" y2="12.5" fill="none" stroke="#000" stroke-linecap="round" stroke-miterlimit="10"/><line x1="4.5" y1="14.5" x2="8.5" y2="14.5" fill="none" stroke="#000" stroke-linecap="round" stroke-miterlimit="10"/><line x1="4.5" y1="10.5" x2="8.5" y2="10.5" fill="none" stroke="#000" stroke-linecap="round" stroke-miterlimit="10"/></svg>