<svg id="af5a2d99-62a3-4ebb-a23d-543a3fea24d9" data-name="Layer 1" xmlns="http://www.w3.org/2000/svg" viewBox="0 0 24 24"><path d="M.5,8.46v7.08a1,1,0,0,0,1,1h3v-9h-3A1,1,0,0,0,.5,8.46Z" fill="none" stroke="#000" stroke-miterlimit="10"/><path d="M4.5,7.5h0v9h0L12,19.84a1.06,1.06,0,0,0,1.49-1V5.13a1.06,1.06,0,0,0-1.49-1Z" fill="none" stroke="#000" stroke-miterlimit="10"/><path d="M18.11,5.6A6.5,6.5,0,0,1,17,18.5" fill="none" stroke="#000" stroke-miterlimit="10"/><path d="M17,5.5" fill="none" stroke="#000" stroke-miterlimit="10"/><path d="M17,8.5a3.5,3.5,0,0,1,0,7" fill="none" stroke="#000" stroke-miterlimit="10"/><line x1="6.46" y1="17.54" x2="0.5" y2="23.5" fill="none" stroke="#000" stroke-linecap="round" stroke-miterlimit="10"/><line x1="23.5" y1="0.5" x2="13.6" y2="10.4" fill="none" stroke="#000" stroke-linecap="round" stroke-miterlimit="10"/></svg>