<svg id="b136b6ec-ae26-4e0b-a83b-d3aaff907da8" data-name="Layer 1" xmlns="http://www.w3.org/2000/svg" viewBox="0 0 24 16.86"><path d="M.5,8.46v7.08a1,1,0,0,0,1,1h3v-9h-3A1,1,0,0,0,.5,8.46Z" transform="translate(0 -3.57)" fill="none" stroke="#000" stroke-miterlimit="10"/><path d="M4.5,7.5h0v9h0L12,19.84a1.06,1.06,0,0,0,1.49-1V5.13a1.06,1.06,0,0,0-1.49-1Z" transform="translate(0 -3.57)" fill="none" stroke="#000" stroke-miterlimit="10"/><path d="M17,5.5a6.5,6.5,0,0,1,0,13" transform="translate(0 -3.57)" fill="none" stroke="#000" stroke-miterlimit="10"/><path d="M17,8.5a3.5,3.5,0,0,1,0,7" transform="translate(0 -3.57)" fill="none" stroke="#000" stroke-miterlimit="10"/></svg>