<svg xmlns="http://www.w3.org/2000/svg" viewBox="0 0 24 24"><path d="M18.11,5.6A6.5,6.5,0,0,1,17,18.5" fill="none" stroke="#000" stroke-miterlimit="10"/><path d="M17,8.5a3.5,3.5,0,0,1,0,7" fill="none" stroke="#000" stroke-miterlimit="10"/><line x1="6.46" y1="17.54" x2="0.5" y2="23.5" fill="none" stroke="#000" stroke-linecap="round" stroke-miterlimit="10"/><line x1="23.5" y1="0.5" x2="13.6" y2="10.4" fill="none" stroke="#000" stroke-linecap="round" stroke-miterlimit="10"/><path d="M13,20.29,4.57,16.53a.35.35,0,0,0-.14,0H.84a.34.34,0,0,1-.34-.34V7.84A.34.34,0,0,1,.84,7.5H4.43a.35.35,0,0,0,.14,0L13,3.71A.34.34,0,0,1,13.5,4V20A.34.34,0,0,1,13,20.29Z" fill="none" stroke="#000" stroke-miterlimit="10"/><line x1="4.5" y1="7.5" x2="4.5" y2="16.5" fill="none" stroke="#000" stroke-miterlimit="10"/></svg>