<svg xmlns="http://www.w3.org/2000/svg" viewBox="0 0 24 24"><path d="M.5,6V16.44a1.45,1.45,0,0,0,.76,1.27l9.87,5.36a1.44,1.44,0,0,0,1.34,0L22.7,17.94a1.46,1.46,0,0,0,.8-1.29V5.86a1.44,1.44,0,0,0-.91-1.34L13,.71a1.39,1.39,0,0,0-1,0l-10.54,4A1.44,1.44,0,0,0,.5,6Z" fill="none" stroke="#000" stroke-miterlimit="10"/><line x1="11.5" y1="23.19" x2="11.5" y2="11.19" fill="none" stroke="#000" stroke-miterlimit="10"/><line x1="23.5" y1="5.19" x2="11.5" y2="11.19" fill="none" stroke="#000" stroke-miterlimit="10"/><line x1="0.5" y1="5.19" x2="11.5" y2="11.19" fill="none" stroke="#000" stroke-miterlimit="10"/></svg>