<svg id="fd9b6917-b306-4618-8311-47fac1686b5e" data-name="Layer 1" xmlns="http://www.w3.org/2000/svg" viewBox="0 0 17 24"><circle cx="8.5" cy="8.5" r="8" fill="none" stroke="#000" stroke-miterlimit="10"/><path d="M15.5,15.5v5.41a1.59,1.59,0,0,1-1.59,1.59H10.09A1.59,1.59,0,0,1,8.5,20.91V15.5" transform="translate(-3.5)" fill="none" stroke="#000" stroke-miterlimit="10"/><line x1="7" y1="18.5" x2="10" y2="18.5" fill="none" stroke="#000" stroke-linecap="round" stroke-miterlimit="10"/><line x1="7" y1="20.5" x2="10" y2="20.5" fill="none" stroke="#000" stroke-linecap="round" stroke-miterlimit="10"/><path d="M6.5,23h4a0,0,0,0,1,0,0v.16a.84.84,0,0,1-.84.84H7.34a.84.84,0,0,1-.84-.84V23A0,0,0,0,1,6.5,23Z"/><line x1="8.5" y1="10" x2="8.5" y2="16" fill="none" stroke="#000" stroke-miterlimit="10"/><circle cx="8.5" cy="9" r="1" fill="none" stroke="#000" stroke-miterlimit="10"/></svg>