<svg xmlns="http://www.w3.org/2000/svg" viewBox="0 0 24 24"><circle cx="12" cy="8.5" r="8" fill="none" stroke="#000" stroke-miterlimit="10"/><path d="M15.5,15.5v5.41a1.59,1.59,0,0,1-1.59,1.59H10.09A1.59,1.59,0,0,1,8.5,20.91V15.5" fill="none" stroke="#000" stroke-miterlimit="10"/><line x1="10.5" y1="18.5" x2="13.5" y2="18.5" fill="none" stroke="#000" stroke-linecap="round" stroke-miterlimit="10"/><line x1="10.5" y1="20.5" x2="13.5" y2="20.5" fill="none" stroke="#000" stroke-linecap="round" stroke-miterlimit="10"/><path d="M10,23h4a0,0,0,0,1,0,0v.16a.84.84,0,0,1-.84.84H10.84a.84.84,0,0,1-.84-.84V23A0,0,0,0,1,10,23Z"/><line x1="12" y1="11" x2="12" y2="16" fill="none" stroke="#000" stroke-miterlimit="10"/><circle cx="12" cy="10" r="1" fill="none" stroke="#000" stroke-miterlimit="10"/></svg>