<svg id="bb73701c-c2f3-45d9-ae44-1501bf320484" data-name="Layer 1" xmlns="http://www.w3.org/2000/svg" viewBox="0 0 20 24"><circle cx="10" cy="20" r="3.5" fill="none" stroke="#000" stroke-miterlimit="10"/><line x1="13.5" y1="7.5" x2="11.5" y2="16.5" fill="none" stroke="#000" stroke-miterlimit="10"/><line x1="6.5" y1="7.5" x2="8.5" y2="16.5" fill="none" stroke="#000" stroke-miterlimit="10"/><path d="M2.5,5V6A1.54,1.54,0,0,0,4,7.5H20A1.54,1.54,0,0,0,21.5,6V5" transform="translate(-2 0)" fill="none" stroke="#000" stroke-miterlimit="10"/><path d="M2.5,3V2A1.54,1.54,0,0,1,4,.5H20A1.54,1.54,0,0,1,21.5,2V3" transform="translate(-2 0)" fill="none" stroke="#000" stroke-miterlimit="10"/><line x1="2.5" y1="3.5" x2="2.5" y2="4.5" fill="none" stroke="#000" stroke-linecap="round" stroke-miterlimit="10"/><line x1="17.5" y1="3.5" x2="17.5" y2="4.5" fill="none" stroke="#000" stroke-linecap="round" stroke-miterlimit="10"/></svg>