<svg xmlns="http://www.w3.org/2000/svg" viewBox="0 0 24 24"><circle cx="12" cy="20" r="3.5" fill="none" stroke="#000" stroke-miterlimit="10"/><polyline points="15.5 7.5 15.5 11.5 13.5 16.5" fill="none" stroke="#000" stroke-miterlimit="10"/><polyline points="8.5 7.5 8.5 11.5 10.5 16.5" fill="none" stroke="#000" stroke-miterlimit="10"/><path d="M2.5,5.5V6A1.54,1.54,0,0,0,4,7.5H20A1.54,1.54,0,0,0,21.5,6V5.5" fill="none" stroke="#000" stroke-linecap="round" stroke-miterlimit="10"/><path d="M2.5,2.5V2A1.54,1.54,0,0,1,4,.5H20A1.54,1.54,0,0,1,21.5,2V2.5" fill="none" stroke="#000" stroke-linecap="round" stroke-miterlimit="10"/><line x1="4.5" y1="3.5" x2="4.5" y2="4.5" fill="none" stroke="#000" stroke-linecap="round" stroke-miterlimit="10"/><line x1="19.5" y1="3.5" x2="19.5" y2="4.5" fill="none" stroke="#000" stroke-linecap="round" stroke-miterlimit="10"/></svg>