<svg xmlns="http://www.w3.org/2000/svg" viewBox="0 0 24 24"><path d="M23.06,13.91l-.56-.21a2.38,2.38,0,0,1-.21-4.39l.54-.25a.66.66,0,0,0,.32-.88l-1.1-2.34a.67.67,0,0,0-.88-.32l-.54.26a2.38,2.38,0,0,1-3.25-3l.2-.56a.67.67,0,0,0-.4-.85L14.75.54a.65.65,0,0,0-.84.4l-.21.56a2.38,2.38,0,0,1-4.39.21l-.25-.54A.66.66,0,0,0,8.18.85L5.84,2a.67.67,0,0,0-.32.88l.26.54a2.38,2.38,0,0,1-3,3.25l-.56-.2a.67.67,0,0,0-.85.4L.54,9.25a.65.65,0,0,0,.4.84l.56.21a2.38,2.38,0,0,1,.21,4.39l-.54.25a.66.66,0,0,0-.32.88L2,18.16a.67.67,0,0,0,.88.32l.54-.26a2.38,2.38,0,0,1,3.25,3l-.2.56a.67.67,0,0,0,.4.85l2.43.87a.65.65,0,0,0,.84-.4l.21-.56a2.38,2.38,0,0,1,4.39-.21l.25.54a.66.66,0,0,0,.88.32l2.34-1.1a.67.67,0,0,0,.32-.88l-.26-.54a2.38,2.38,0,0,1,3-3.25l.56.2a.67.67,0,0,0,.85-.4l.87-2.43A.65.65,0,0,0,23.06,13.91Z" fill="none" stroke="#000" stroke-miterlimit="10"/><circle cx="12" cy="12" r="5.5" fill="none" stroke="#000" stroke-miterlimit="10"/></svg>