<svg xmlns="http://www.w3.org/2000/svg" viewBox="0 0 24 24"><rect x="13.5" y="13.5" width="10" height="10" rx="5" transform="translate(44.66 18.5) rotate(135)" fill="none" stroke="#000" stroke-miterlimit="10"/><path d="M13.55,17.79,10.77,15a.16.16,0,0,1,0-.11V12.29a.15.15,0,0,0-.15-.15H8.11A.16.16,0,0,1,8,11.93l.61-1.82a.16.16,0,0,0,0-.16l-1.3-1.3a.16.16,0,0,0-.11-.05H4.51a.16.16,0,0,1-.15-.16V5.93a.16.16,0,0,0-.16-.16H3a.15.15,0,0,1-.11,0L1.53,4.36,2.14,1.3A.6.6,0,0,1,2.72.82H5.06L17.79,13.55" fill="none" stroke="#000" stroke-miterlimit="10"/><circle cx="19.91" cy="19.21" r="1.5" fill="none" stroke="#000" stroke-miterlimit="10"/><line x1="17.09" y1="12.84" x2="12.84" y2="17.09" fill="none" stroke="#000" stroke-miterlimit="10"/></svg>