<svg id="eac86503-8a98-4a6d-aaf5-e58c6497f358" data-name="Layer 1" xmlns="http://www.w3.org/2000/svg" viewBox="0 0 16 24"><path d="M18.83,19.5H17.17a.67.67,0,0,1-.67-.67V8A4.49,4.49,0,0,0,12,3.5h0A4.49,4.49,0,0,0,7.5,8V18.83a.67.67,0,0,1-.67.67H5.17a.67.67,0,0,1-.67-.67V8A7.5,7.5,0,0,1,12,.5h0A7.5,7.5,0,0,1,19.5,8V18.83A.67.67,0,0,1,18.83,19.5Z" transform="translate(-4)" fill="none" stroke="#000" stroke-miterlimit="10"/><rect x="0.5" y="21.5" width="3" height="2" rx="0.46" fill="none" stroke="#000" stroke-miterlimit="10"/><rect x="12.5" y="21.5" width="3" height="2" rx="0.38" fill="none" stroke="#000" stroke-miterlimit="10"/></svg>