<svg xmlns="http://www.w3.org/2000/svg" viewBox="0 0 24 24"><circle cx="19.5" cy="20.5" r="3" fill="none" stroke="#000" stroke-miterlimit="10"/><path d="M18.43,1.09,6.17,17.82l.77.51,2.31-2.59a5.9,5.9,0,0,1,1.23-1.05l.62-.4,6.68-9.74A4.37,4.37,0,0,0,18.43,1.09ZM12,11.93a.47.47,0,1,1,.45-.47A.46.46,0,0,1,12,11.93Z" fill="none" stroke="#000" stroke-miterlimit="10"/><path d="M5.59,1.09a4.37,4.37,0,0,0,.65,3.46l6.69,9.74.67.44a5.36,5.36,0,0,1,1.08.94L17,18.33l.77-.5ZM12,11.93a.47.47,0,1,1,.45-.47A.46.46,0,0,1,12,11.93Z" fill="none" stroke="#000" stroke-miterlimit="10"/><circle cx="4.5" cy="20.5" r="3" fill="none" stroke="#000" stroke-miterlimit="10"/></svg>