<svg xmlns="http://www.w3.org/2000/svg" viewBox="0 0 24 24"><path d="M11.5,3.51h0a2,2,0,0,1,2-2h0a2,2,0,0,1,2,2v4H17A1.5,1.5,0,0,1,18.5,9V22A1.5,1.5,0,0,1,17,23.5H10A1.5,1.5,0,0,1,8.5,22V9A1.5,1.5,0,0,1,10,7.5h1.5v-2" fill="none" stroke="#000" stroke-linecap="round" stroke-miterlimit="10"/><line x1="10.5" y1="4.5" x2="9.5" y2="4.5" fill="none" stroke="#000" stroke-linecap="round" stroke-miterlimit="10"/><line x1="13.5" y1="1.5" x2="13.5" y2="0.5" fill="none" stroke="#000" stroke-linecap="round" stroke-miterlimit="10"/><path d="M11.5,3.5h0a1,1,0,0,1,1,1h0a1,1,0,0,1-1,1h0" fill="none" stroke="#000" stroke-linecap="round" stroke-miterlimit="10"/><line x1="5.5" y1="1.5" x2="6.5" y2="2.5" fill="none" stroke="#000" stroke-linecap="round" stroke-miterlimit="10"/><line x1="6.5" y1="6.5" x2="5.5" y2="7.5" fill="none" stroke="#000" stroke-linecap="round" stroke-miterlimit="10"/><line x1="7.5" y1="4.5" x2="6.5" y2="4.5" fill="none" stroke="#000" stroke-linecap="round" stroke-miterlimit="10"/></svg>