<svg id="b5c2c4ef-72a9-46f9-8280-fe624c471ef5" data-name="Layer 1" xmlns="http://www.w3.org/2000/svg" viewBox="0 0 12.01 24.01"><path d="M15.68,10.36V9.3a1,1,0,0,0-1-1h-.84v-4a.71.71,0,0,0-.7-.73H10.88a.71.71,0,0,0-.7.73v4H9.34a1,1,0,0,0-1,1v1.06c0,1.05-.57,3-1.48,3.44h0a.67.67,0,0,0-.35.59v9.12h11V14.39a.67.67,0,0,0-.35-.59h0C16.25,13.33,15.68,11.41,15.68,10.36Z" transform="translate(-6)" fill="none" stroke="#000" stroke-miterlimit="10"/><circle cx="3" cy="19" r="1"/><circle cx="5.5" cy="16.5" r="0.5"/><circle cx="6.5" cy="19.5" r="0.5"/><circle cx="9" cy="18" r="1"/><circle cx="3.5" cy="21.5" r="0.5"/><circle cx="6.5" cy="21.5" r="0.5"/><path d="M12,3.5V1.73A1.23,1.23,0,0,0,10.77.5H6.5" transform="translate(-6)" fill="none" stroke="#000" stroke-linecap="round" stroke-miterlimit="10"/></svg>