<svg xmlns="http://www.w3.org/2000/svg" viewBox="0 0 24 24"><path d="M13.87,8.51l9.21,9.21a1.41,1.41,0,0,1,0,2l-3.35,3.35a1.41,1.41,0,0,1-2,0L8.44,13.81a5.38,5.38,0,0,0-2.66-1.46l-.34-.07a5.41,5.41,0,0,1-2.67-1.46L.89,8.94a1.34,1.34,0,0,1,0-1.89L7.05.89a1.34,1.34,0,0,1,1.89,0l2,1.95a5.44,5.44,0,0,1,1.49,2.84h0A5.41,5.41,0,0,0,13.87,8.51Z" fill="none" stroke="#000" stroke-miterlimit="10"/><line x1="7.32" y1="12.69" x2="12.69" y2="7.32" fill="none" stroke="#000" stroke-miterlimit="10"/><circle cx="7.99" cy="7.99" r="0.95" fill="none" stroke="#000" stroke-miterlimit="10"/><line x1="10.01" y1="10.01" x2="8.66" y2="8.66" fill="none" stroke="#000" stroke-miterlimit="10"/><line x1="7.99" y1="13.36" x2="13.36" y2="7.99" fill="none" stroke="#000" stroke-miterlimit="10"/><rect x="13.75" y="12.8" width="1.9" height="3.79" rx="0.95" transform="translate(-6.09 14.7) rotate(-45)" fill="none" stroke="#000" stroke-linecap="round" stroke-miterlimit="10"/><line x1="13.36" y1="14.7" x2="14.7" y2="13.36" fill="none" stroke="#000" stroke-linecap="round" stroke-miterlimit="10"/><line x1="1.29" y1="9.33" x2="9.33" y2="1.29" fill="none" stroke="#000" stroke-miterlimit="10"/></svg>