<svg id="a25b6b35-3b11-4572-a02b-dc95b57b327e" data-name="Layer 1" xmlns="http://www.w3.org/2000/svg" viewBox="0 0 24 24"><path d="M22.88,22.39l-.49.49a2.13,2.13,0,0,1-3,0L6.06,9.56l3.5-3.5L22.88,19.38A2.13,2.13,0,0,1,22.88,22.39Z" transform="translate(0 0)" fill="none" stroke="#000" stroke-miterlimit="10"/><circle cx="5.51" cy="5.51" r="0.99" fill="none" stroke="#000" stroke-miterlimit="10"/><line x1="7.95" y1="7.95" x2="5.85" y2="5.85" fill="none" stroke="#000" stroke-miterlimit="10"/><line x1="11.66" y1="12.36" x2="12.36" y2="11.66" fill="none" stroke="#000" stroke-linecap="round" stroke-miterlimit="10"/><path d="M10.26,5.36l-4.9,4.9L1.51,6.41a3.47,3.47,0,0,1,0-4.9h0a3.47,3.47,0,0,1,4.9,0Z" transform="translate(0 0)" fill="none" stroke="#000" stroke-miterlimit="10"/><line x1="13.06" y1="13.75" x2="13.75" y2="13.06" fill="none" stroke="#000" stroke-linecap="round" stroke-miterlimit="10"/></svg>