<svg id="ab42f5d0-b583-4f17-9ec0-7b53c8a4e108" data-name="Layer 1" xmlns="http://www.w3.org/2000/svg" viewBox="0 0 20 24"><path d="M2.5,4.5h15a0,0,0,0,1,0,0V21.67a1.83,1.83,0,0,1-1.83,1.83H4.33A1.83,1.83,0,0,1,2.5,21.67V4.5A0,0,0,0,1,2.5,4.5Z" fill="none" stroke="#000" stroke-miterlimit="10"/><line x1="5.5" y1="6.5" x2="5.5" y2="21.5" fill="none" stroke="#000" stroke-linecap="round" stroke-miterlimit="10"/><line x1="11.5" y1="10.37" x2="11.5" y2="21.5" fill="none" stroke="#000" stroke-linecap="round" stroke-miterlimit="10"/><line x1="14.5" y1="6.5" x2="14.5" y2="21.5" fill="none" stroke="#000" stroke-linecap="round" stroke-miterlimit="10"/><line x1="8.5" y1="10.37" x2="8.5" y2="21.5" fill="none" stroke="#000" stroke-linecap="round" stroke-miterlimit="10"/><line x1="0.5" y1="3.5" x2="19.5" y2="3.5" fill="none" stroke="#000" stroke-linecap="round" stroke-miterlimit="10"/><path d="M5.5.5h9a2,2,0,0,1,2,2v1a0,0,0,0,1,0,0H3.5a0,0,0,0,1,0,0v-1A2,2,0,0,1,5.5.5Z" fill="none" stroke="#000" stroke-linecap="round" stroke-miterlimit="10"/></svg>