<svg id="a4bc4669-fbd7-4a17-999f-0cc57bd6e693" data-name="Layer 1" xmlns="http://www.w3.org/2000/svg" viewBox="0 0 24 24"><path d="M23.41,10.5A11.71,11.71,0,0,0,12,.5,11.71,11.71,0,0,0,.59,10.5Z" fill="none" stroke="#000" stroke-miterlimit="10"/><circle cx="3" cy="9" r="1.5" fill="none" stroke="#000" stroke-miterlimit="10"/><circle cx="6" cy="9" r="1.5" fill="none" stroke="#000" stroke-miterlimit="10"/><circle cx="9" cy="9" r="1.5" fill="none" stroke="#000" stroke-miterlimit="10"/><circle cx="12" cy="9" r="1.5" fill="none" stroke="#000" stroke-miterlimit="10"/><circle cx="15" cy="9" r="1.5" fill="none" stroke="#000" stroke-miterlimit="10"/><circle cx="18" cy="9" r="1.5" fill="none" stroke="#000" stroke-miterlimit="10"/><circle cx="21" cy="9" r="1.5" fill="none" stroke="#000" stroke-miterlimit="10"/><path d="M12.5,11V22A1.5,1.5,0,0,1,11,23.5h0A1.5,1.5,0,0,1,9.5,22v-.49" fill="none" stroke="#000" stroke-linecap="round" stroke-miterlimit="10"/><line x1="12.5" y1="1.5" x2="12.5" y2="0.5" fill="none" stroke="#000" stroke-linecap="round" stroke-miterlimit="10"/></svg>