<svg id="f9c27006-ed96-4238-a1d8-ffbb74b2272f" data-name="Layer 1" xmlns="http://www.w3.org/2000/svg" viewBox="0 0 12 24"><path d="M17.05,12a.34.34,0,0,0,.32-.44L15.66,3.41h-1V1.5H9.47V3.41H8.32L6.61,11.58a.34.34,0,0,0,.32.44H8.32v1.57a.34.34,0,0,1-.34.34H6.83a.34.34,0,0,0-.34.34v7.87A1.36,1.36,0,0,0,7.84,23.5h8.29a1.36,1.36,0,0,0,1.36-1.37V14.28a.35.35,0,0,0-.35-.35H16a.33.33,0,0,1-.33-.33V12Z" transform="translate(-5.99)" fill="none" stroke="#000" stroke-miterlimit="10"/><circle cx="3.01" cy="19" r="1"/><circle cx="4.51" cy="16.5" r="0.5"/><circle cx="6.51" cy="18.5" r="0.5"/><circle cx="6.01" cy="21" r="1"/><circle cx="8.51" cy="17.5" r="0.5"/><circle cx="8.51" cy="19.5" r="0.5"/><circle cx="6.51" cy="15.5" r="0.5"/><line x1="2.51" y1="0.5" x2="9.51" y2="0.5" fill="none" stroke="#000" stroke-linecap="round" stroke-miterlimit="10"/></svg>