<svg xmlns="http://www.w3.org/2000/svg" viewBox="0 0 24 24"><path d="M16,4h0a1.7,1.7,0,0,1-.5-1.21V1.5h-7V2.79A1.7,1.7,0,0,1,8,4H8a1.7,1.7,0,0,0-.5,1.21v6.06a2.4,2.4,0,0,1-1,2h0a2.38,2.38,0,0,0-1,1.95v6.55A1.78,1.78,0,0,0,7.27,23.5h9.44a1.78,1.78,0,0,0,1.78-1.78V15.16a2.4,2.4,0,0,0-1-1.94h0a2.4,2.4,0,0,1-1-2V5.21A1.7,1.7,0,0,0,16,4Z" fill="none" stroke="#000" stroke-miterlimit="10"/><line x1="7.5" y1="0.5" x2="16.5" y2="0.5" fill="none" stroke="#000" stroke-linecap="round" stroke-miterlimit="10"/><line x1="10.5" y1="13.5" x2="10.5" y2="13.5" fill="none" stroke="#000" stroke-linecap="round" stroke-miterlimit="10"/><line x1="15.5" y1="21.5" x2="15.5" y2="21.5" fill="none" stroke="#000" stroke-linecap="round" stroke-miterlimit="10"/><line x1="9.5" y1="20.5" x2="9.5" y2="20.5" fill="none" stroke="#000" stroke-linecap="round" stroke-miterlimit="10"/><circle cx="14" cy="17" r="0.5" fill="none" stroke="#000" stroke-linecap="round" stroke-miterlimit="10"/><line x1="13.5" y1="9.5" x2="13.5" y2="9.5" fill="none" stroke="#000" stroke-linecap="round" stroke-miterlimit="10"/><line x1="9.5" y1="6.5" x2="9.5" y2="6.5" fill="none" stroke="#000" stroke-linecap="round" stroke-miterlimit="10"/></svg>