<svg id="eb8d9b92-2907-4f89-88f9-4101b975eaaf" data-name="Layer 1" xmlns="http://www.w3.org/2000/svg" viewBox="0 0 23.86 23.86"><path d="M7.3,19.44,4.73,20a.57.57,0,0,1-.68-.68l.51-2.57a1.17,1.17,0,0,1,.3-.57l15-15a1.76,1.76,0,0,1,2.49,0l.51.51a1.76,1.76,0,0,1,0,2.49l-15,15A1.17,1.17,0,0,1,7.3,19.44Z" transform="translate(-0.06 -0.08)" fill="none" stroke="#000" stroke-miterlimit="10"/><rect x="20.59" y="2.88" width="1.06" transform="translate(8.16 -14.18) rotate(45)" fill="none" stroke="#000" stroke-linejoin="round"/><line x1="4.57" y1="16.29" x2="7.57" y2="19.3" fill="none" stroke="#000" stroke-miterlimit="10"/><circle cx="1.56" cy="22.3" r="1.06" fill="none" stroke="#000" stroke-miterlimit="10"/></svg>