<svg xmlns="http://www.w3.org/2000/svg" viewBox="0 0 24 24"><path d="M7.27,19.47,4.71,20A.59.59,0,0,1,4,19.29l.51-2.56a1.07,1.07,0,0,1,.31-.57L20.06.94a1.49,1.49,0,0,1,2.12,0l.88.88a1.49,1.49,0,0,1,0,2.12L7.84,19.16A1.07,1.07,0,0,1,7.27,19.47Z" fill="none" stroke="#000" stroke-miterlimit="10"/><rect x="20.57" y="2.9" width="1.06" transform="translate(8.23 -14.07) rotate(45)" fill="none" stroke="#000" stroke-linejoin="round"/><line x1="4.6" y1="16.4" x2="7.6" y2="19.4" fill="none" stroke="#000" stroke-miterlimit="10"/><circle cx="1" cy="23" r="0.5" fill="none" stroke="#000" stroke-miterlimit="10"/></svg>