<svg xmlns="http://www.w3.org/2000/svg" viewBox="0 0 24 24"><path d="M11.08,10.23,2,5.83a.75.75,0,0,1,0-1.36L11.13.58a1,1,0,0,1,.75,0l10,3.89a.75.75,0,0,1,0,1.39l-10,4.4A1,1,0,0,1,11.08,10.23Z" fill="none" stroke="#000" stroke-miterlimit="10"/><path d="M11.58,17.28,1.93,11.66a.75.75,0,0,1,.12-1.36L12.14,6.56a1,1,0,0,1,.72,0l9.31,3.71a.75.75,0,0,1,.1,1.35l-9.69,5.65A1,1,0,0,1,11.58,17.28Z" fill="none" stroke="#000" stroke-miterlimit="10"/><path d="M11.59,23.38l-9.7-5.19A.76.76,0,0,1,2,16.83l10.16-4.24a1,1,0,0,1,.76,0l9.3,3.76a.75.75,0,0,1,.1,1.35l-9.72,5.66A1,1,0,0,1,11.59,23.38Z" fill="none" stroke="#000" stroke-miterlimit="10"/></svg>