<svg id="e740bc72-3fa5-4508-b913-005ce38a6cd5" data-name="Layer 1" xmlns="http://www.w3.org/2000/svg" viewBox="0 0 21 24"><path d="M11.46,11.54,2.61,6.38a1.22,1.22,0,0,1,.11-2.17L10.65.61a1.21,1.21,0,0,1,.95,0l9.61,3.69a1.23,1.23,0,0,1,.18,2.21L12.7,11.54A1.25,1.25,0,0,1,11.46,11.54Z" transform="translate(-1.5)" fill="none" stroke="#000" stroke-miterlimit="10"/><path d="M11.46,17.27,2.61,12.12a1.23,1.23,0,0,1,.11-2.18l7.93-3.6a1.3,1.3,0,0,1,.95,0L21.21,10a1.23,1.23,0,0,1,.18,2.21L12.7,17.27A1.25,1.25,0,0,1,11.46,17.27Z" transform="translate(-1.5)" fill="none" stroke="#000" stroke-miterlimit="10"/><path d="M11.46,23.33,2.61,18.18A1.23,1.23,0,0,1,2.72,16l7.93-3.59a1.21,1.21,0,0,1,.95,0l9.61,3.69a1.22,1.22,0,0,1,.18,2.2L12.7,23.33A1.2,1.2,0,0,1,11.46,23.33Z" transform="translate(-1.5)" fill="none" stroke="#000" stroke-miterlimit="10"/></svg>