<svg id="e956339c-08d3-4fcc-8be2-75ba6ddf87a7" data-name="Layer 1" xmlns="http://www.w3.org/2000/svg" viewBox="0 0 24 17.93"><line x1="6.5" y1="1.92" x2="23.5" y2="1.92" fill="none" stroke="#000" stroke-linecap="round" stroke-miterlimit="10"/><line x1="6.5" y1="8.92" x2="23.5" y2="8.92" fill="none" stroke="#000" stroke-linecap="round" stroke-miterlimit="10"/><line x1="6.5" y1="15.92" x2="23.5" y2="15.92" fill="none" stroke="#000" stroke-linecap="round" stroke-miterlimit="10"/><polygon points="1.71 0 1.38 0 0.15 0.72 0.15 1.53 0.95 1.06 0.95 3.5 0 3.5 0 4.2 2.66 4.2 2.66 3.5 1.71 3.5 1.71 0 1.71 0"/><path d="M1.33,10.09a1.33,1.33,0,0,0-.63.15,1.17,1.17,0,0,0-.45.4,1.13,1.13,0,0,0-.18.57l.69.13a.74.74,0,0,1,.18-.41.51.51,0,0,1,.37-.14.48.48,0,0,1,.38.15.55.55,0,0,1,.13.4.86.86,0,0,1-.07.36,1.7,1.7,0,0,1-.25.4L0,14v.3H2.67v-.7H1.19l1-1.33a1.64,1.64,0,0,0,.36-1,1.2,1.2,0,0,0-.33-.88,1.27,1.27,0,0,0-.92-.34Z" transform="translate(0 -3.08)"/><path d="M2.6,16.76H.2v.7H1.54l-.8,1.08L1,19a1,1,0,0,1,.37-.09.66.66,0,0,1,.48.2.77.77,0,0,1,.18.54.69.69,0,0,1-.19.51.62.62,0,0,1-.48.19c-.35,0-.57-.2-.67-.61L0,19.8a1.32,1.32,0,0,0,.22.62,1.27,1.27,0,0,0,.49.43A1.46,1.46,0,0,0,1.4,21a1.54,1.54,0,0,0,.73-.17,1.33,1.33,0,0,0,.51-.49,1.54,1.54,0,0,0,.18-.75,1.36,1.36,0,0,0-.28-.9.94.94,0,0,0-.76-.35l-.17,0L2.6,17v-.27Z" transform="translate(0 -3.08)"/></svg>