<svg xmlns="http://www.w3.org/2000/svg" viewBox="0 0 24 24"><path d="M.5,8.44c0,2.72,2.3,4.26,4.94,4.93,1.29.33-2.83,6-2.69,6,2.25,0,8.35-6.62,7.62-10.94C9.92,5.75,8.16,3.5,5.44,3.5A4.94,4.94,0,0,0,.5,8.44Z" fill="none" stroke="#000" stroke-linecap="round" stroke-linejoin="round"/><path d="M13.56,8.44c0,2.72,2.3,4.26,4.94,4.93,1.29.33-2.83,6-2.69,6,2.25,0,8.36-6.62,7.63-10.94C23,5.75,21.23,3.5,18.5,3.5A4.94,4.94,0,0,0,13.56,8.44Z" fill="none" stroke="#000" stroke-linecap="round" stroke-linejoin="round"/></svg>