<svg id="bc16c1b5-a1be-4267-895e-a262182197b5" data-name="Layer 1" xmlns="http://www.w3.org/2000/svg" viewBox="0 0 24 16.88"><path d="M.5,9c0,2.73,2.3,4.26,4.94,4.94,1.29.33-2.83,6-2.69,6C5,19.94,11.1,13.32,10.37,9,9.92,6.31,8.16,4.06,5.44,4.06A4.94,4.94,0,0,0,.5,9Z" transform="translate(0 -3.56)" fill="none" stroke="#000" stroke-linecap="round" stroke-linejoin="round"/><path d="M13.56,9c0,2.73,2.3,4.26,4.94,4.94,1.29.33-2.83,6-2.69,6,2.25,0,8.36-6.62,7.63-10.94C23,6.31,21.23,4.06,18.5,4.06A4.94,4.94,0,0,0,13.56,9Z" transform="translate(0 -3.56)" fill="none" stroke="#000" stroke-linecap="round" stroke-linejoin="round"/></svg>