<svg id="a21bcacd-714d-4621-82c5-7b38a6a61874" data-name="Layer 1" xmlns="http://www.w3.org/2000/svg" viewBox="0 0 20.01 24"><path d="M2.49,2.46V20.89a1.18,1.18,0,0,0,.29.76l1.29,1.46a1.12,1.12,0,0,0,.85.39H19.55a2,2,0,0,0,1.95-2V2.46a2,2,0,0,0-1.95-2H4.45A2,2,0,0,0,2.49,2.46Z" transform="translate(-1.99 0)" fill="none" stroke="#000" stroke-miterlimit="10"/><path d="M5.47,23.56V19.69a1.21,1.21,0,0,1,1.21-1.21h5.63a1.21,1.21,0,0,1,1.21,1.21v3.87" transform="translate(-1.99 0)" fill="none" stroke="#000" stroke-miterlimit="10"/><line x1="5.51" y1="21.5" x2="5.51" y2="23.12" fill="none" stroke="#000" stroke-linecap="round" stroke-miterlimit="10"/><path d="M18.5.5V5.59a2,2,0,0,1-2,2h-9a2,2,0,0,1-2-2V.5" transform="translate(-1.99 0)" fill="none" stroke="#000" stroke-miterlimit="10"/></svg>