<svg id="ad92101e-a9fc-4ec5-bd85-a920e159a680" data-name="Layer 1" xmlns="http://www.w3.org/2000/svg" viewBox="0 0 18.01 24"><path d="M3.49,2.46V20.89a1.18,1.18,0,0,0,.29.76l1.29,1.46a1.12,1.12,0,0,0,.85.39H18.55a2,2,0,0,0,1.95-2V2.46a2,2,0,0,0-1.95-2H5.45A2,2,0,0,0,3.49,2.46Z" transform="translate(-2.99 0)" fill="none" stroke="#000" stroke-miterlimit="10"/><path d="M6.47,23.56v-3.9a1.18,1.18,0,0,1,1.18-1.18h4.69a1.18,1.18,0,0,1,1.18,1.18v3.9" transform="translate(-2.99 0)" fill="none" stroke="#000" stroke-miterlimit="10"/><line x1="5.51" y1="21.5" x2="5.51" y2="23.12" fill="none" stroke="#000" stroke-linecap="round" stroke-miterlimit="10"/><path d="M17.5.5V5.65A1.94,1.94,0,0,1,15.56,7.6H8.43A1.94,1.94,0,0,1,6.49,5.65V.5" transform="translate(-2.99 0)" fill="none" stroke="#000" stroke-miterlimit="10"/></svg>