<svg xmlns="http://www.w3.org/2000/svg" viewBox="0 0 24 24"><path d="M1.49,2V18.73a1.52,1.52,0,0,0,.41,1L5,23a1.52,1.52,0,0,0,1.1.47H21A1.5,1.5,0,0,0,22.5,22V2A1.5,1.5,0,0,0,21,.5H3A1.5,1.5,0,0,0,1.49,2Z" fill="none" stroke="#000" stroke-miterlimit="10"/><line x1="4.5" y1="3.5" x2="19.5" y2="3.5" fill="none" stroke="#000" stroke-linecap="round" stroke-miterlimit="10"/><path d="M7.5,23.5v-3a1,1,0,0,1,1-1h9a1,1,0,0,1,1,1v3" fill="none" stroke="#000" stroke-linecap="round" stroke-miterlimit="10"/></svg>